<svg width="118" height="61" viewBox="0 0 118 61" fill="none" xmlns="http://www.w3.org/2000/svg">
<g clip-path="url(#clip0_753_12398)">
<path d="M68.2499 31.0325L63.106 40.9486H62.999L62.7389 31.0325H58.4364L58.2685 31.3893L58.6375 31.6102C58.9935 31.8566 59.0932 32.1065 59.1393 32.7947L59.7223 44.8281H64.5156L72.2516 31.0325H68.2499ZM52.9383 38.1739C52.4567 39.5305 52.0785 40.4034 51.5195 40.9794C51.0804 41.4322 50.5011 41.7564 49.1671 41.7564C48.121 41.7564 47.538 41.3362 47.538 40.5411C47.5306 40.0285 47.6727 39.2497 48.2317 37.7338C48.7151 36.379 49.0933 35.5061 49.6542 34.9301C50.0878 34.4773 50.6689 34.1513 52.0047 34.1513C53.0508 34.1513 53.632 34.5715 53.6302 35.363C53.6412 35.8828 53.4992 36.6616 52.9383 38.1739ZM52.715 30.8622H52.2686C49.621 30.8622 48.1081 31.5632 46.8664 32.8581C45.3222 34.461 43.872 38.7951 43.8997 41.0881C43.9292 43.4263 45.4698 45.0473 48.7077 45.0473H49.1819C51.8368 45.0473 53.3497 44.3463 54.5914 43.0514C56.1338 41.4449 57.5545 37.1126 57.5268 34.8214C57.4954 32.485 55.9548 30.8622 52.715 30.8622ZM39.7152 36.0404C39.4736 36.629 39.2079 36.7703 38.8592 36.9097C38.6249 37.0003 38.1286 37.0329 37.6507 37.0329H35.8002L36.8075 34.1821H39.0437C39.7134 34.1821 39.9865 34.5244 39.9957 34.9138C39.9994 35.1619 39.8831 35.6165 39.7152 36.0404ZM39.3831 31.0325H33.315L33.1932 31.3893L33.4386 31.6265C33.6969 31.8765 33.6877 32.1735 33.4607 32.811L29.2209 44.8281H33.0954L34.7522 40.0575L36.064 40.0593L37.5216 44.8281H41.4145L39.5843 39.947C40.647 39.7786 41.1802 39.4797 41.7134 39.0143C42.444 38.3586 42.9495 37.4386 43.3683 36.0838C43.9809 34.1187 43.61 32.9958 43.217 32.4198C42.6765 31.6265 41.5381 31.0325 39.3831 31.0325ZM80.032 39.295L81.1057 36.4098H76.1667L76.9324 34.2075H82.2828L83.4581 31.0234H73.3568L73.2166 31.4291L73.4583 31.6628C73.7184 31.9109 73.7073 32.2061 73.4822 32.8473L69.2757 44.8227H78.7146L79.8548 41.6169H74.3457L75.1575 39.295H80.032ZM91.3657 36.0404C91.124 36.629 90.8547 36.7703 90.5115 36.9097C90.2716 37.0003 89.7827 37.0329 89.3049 37.0329H87.4562L88.4543 34.1821H90.6942C91.3602 34.1821 91.6369 34.5244 91.6425 34.9138C91.6499 35.1619 91.5299 35.6165 91.3657 36.0404ZM91.0281 31.0325H84.9618L84.8437 31.3893L85.0872 31.6265C85.3474 31.8765 85.3345 32.1735 85.1112 32.811L80.8677 44.8281H84.7477L86.4027 40.0593H87.7126L89.172 44.8281H93.0613L91.2347 39.947C92.2956 39.7786 92.8288 39.4797 93.3602 39.0143C94.0926 38.3586 94.6 37.4386 95.0188 36.0838C95.6313 34.1187 95.2605 32.9958 94.8694 32.4198C94.3288 31.6265 93.1886 31.0325 91.0281 31.0325ZM98.9837 49.5462C88.34 54.9453 74.1427 57.9192 59.0009 57.9192C43.8609 57.9192 29.6656 54.9453 19.02 49.5462C8.78215 44.3518 3.14017 37.5871 3.14017 30.5018C3.14017 23.4111 8.78215 16.6464 19.02 11.4556C29.6656 6.05834 43.8609 3.08079 59.0009 3.08079C74.1427 3.08079 88.34 6.05834 98.9837 11.4556C109.223 16.6464 114.86 23.4111 114.86 30.5018C114.86 37.5871 109.223 44.3518 98.9837 49.5462ZM100.425 8.71713C89.3399 3.09528 74.6298 0 59.0009 0C43.372 0 28.6601 3.09528 17.5791 8.71713C11.0146 12.0479 0 19.307 0 30.5018C0 41.6912 11.0146 48.9521 17.5791 52.2829C28.6582 57.9047 43.3683 61 59.0009 61C74.6317 61 89.3418 57.9047 100.425 52.2829C106.989 48.9521 118 41.693 118 30.5018C118 19.3052 106.989 12.0479 100.425 8.71713ZM97.4929 46.7154C86.0411 52.5219 71.7959 54.7298 59.0009 54.7298C46.2041 54.7298 31.9626 52.5219 20.5071 46.7154C14.4463 43.6382 6.3892 37.9692 6.3892 30.5018C6.3892 23.0271 14.4444 17.3636 20.5071 14.2883C31.9626 8.48168 46.2041 6.27387 59.0009 6.27387C71.7959 6.27387 86.0411 8.47806 97.4929 14.2883C103.559 17.3636 111.613 23.0271 111.613 30.5018C111.613 37.9729 103.557 43.6382 97.4929 46.7154ZM98.087 13.1563C86.4599 7.25371 71.9823 4.99519 59.0009 4.99519C46.0177 4.99519 31.5438 7.25552 19.9111 13.1563C13.3799 16.4671 5.09032 22.4439 5.09032 30.5018C5.09032 38.5524 13.3799 44.5329 19.9111 47.8473C31.5438 53.7445 46.0214 56.0048 59.0009 56.0048C71.9823 56.0048 86.4599 53.7481 98.087 47.8473C104.622 44.5329 112.912 38.5524 112.912 30.5018C112.912 22.4439 104.624 16.4671 98.087 13.1563ZM29.673 32.811L19.0698 36.2341L17.7746 39.7224H27.125L28.3427 36.4352H21.8613L29.2191 33.9901L29.673 32.811ZM71.8642 17.5266H73.4011C74.4472 17.5266 75.0247 17.8708 75.0376 18.6659C75.0468 19.1784 74.9066 19.8811 74.3642 21.3935C73.8845 22.7464 73.5007 23.5306 72.9564 24.1048C72.5192 24.5576 71.938 24.7586 70.6041 24.7586H69.32L71.8642 17.5266ZM68.4952 16.0324L64.2997 28.0495H70.4897C73.1428 28.0495 74.6575 27.4717 75.8863 26.1786C77.4287 24.5775 78.8382 20.4118 78.7921 18.1189C78.746 15.7789 77.2073 14.2557 73.9693 14.2557H68.3458L68.2277 14.6107L68.4713 14.8443C68.7295 15.0961 68.7203 15.3931 68.4952 16.0324ZM91.8528 19.202H82.5024L81.2847 22.4856H87.7643L80.4046 24.9379L79.9508 26.1134L90.5539 22.6903L91.8528 19.202ZM50.0619 28.0423H53.5859L56.6596 19.1186L58.4566 28.0423H61.9843L66.7923 14.2502L63.106 14.2557L60.5378 21.7521L59.071 14.2557H54.1025L53.9807 14.6107L54.2242 14.8443C54.4862 15.0961 54.4733 15.3931 54.2501 16.0324L50.0619 28.0423ZM24.7967 28.0495L34.3851 28.0459L35.5437 24.7586H29.97L33.6526 14.2557H28.8446L28.7246 14.6107L28.9645 14.8443C29.2265 15.0961 29.2154 15.3931 28.9903 16.0324L24.7967 28.0495ZM45.1967 18.0682H45.3222L45.3886 22.2338H42.8019L45.1967 18.0682ZM35.3795 28.0423H39.4588L41.2263 24.9941H45.4495L45.4919 28.0423H49.193L48.3941 14.2557H42.8536L42.73 14.6107L42.9089 14.7863C43.2004 15.0671 43.0805 15.471 42.0012 17.1517L35.3795 28.0423Z" fill="white" fill-opacity="0.5"/>
</g>
<defs>
<clipPath id="clip0_753_12398">
<rect width="118" height="61" fill="white"/>
</clipPath>
</defs>
</svg>
