<svg fill="none" height="428" viewBox="0 0 428 428" width="428" xmlns="http://www.w3.org/2000/svg"><g stroke="#fff"><path d="m126.442 269.074c1.799-4.238 6.188-6.771 10.757-6.211l5.118.627c1.905.233 3.838-.021 5.617-.74l4.782-1.93c4.269-1.724 9.163-.412 11.998 3.215l3.176 4.062c1.182 1.512 2.728 2.699 4.495 3.449l4.746 2.016c4.237 1.8 6.771 6.188 6.211 10.758l-.628 5.118c-.233 1.905.021 3.838.74 5.617l1.93 4.781c1.724 4.269.413 9.164-3.215 11.999l-4.062 3.175c-1.512 1.182-2.699 2.729-3.449 4.495l-2.016 4.746c-1.8 4.238-6.188 6.771-10.758 6.211l-5.118-.627c-1.904-.234-3.837.021-5.617.739l-4.781 1.931c-4.269 1.724-9.163.412-11.999-3.215l-3.175-4.063c-1.182-1.512-2.729-2.698-4.495-3.449l-4.746-2.015c-4.237-1.8-6.771-6.188-6.211-10.758l.627-5.118c.234-1.905-.021-3.838-.739-5.617l-1.931-4.781c-1.723-4.27-.412-9.164 3.215-11.999l4.063-3.176c1.512-1.181 2.699-2.728 3.449-4.494z"/><path d="m117.325 99.8607c7.684-18.0918 26.419-28.9087 45.929-26.5175l21.079 2.5834c7.582.9293 15.276-.0836 22.36-2.9437l19.691-7.9509c18.226-7.3593 39.123-1.76 51.228 13.7265l13.078 16.7314c4.704 6.0191 10.861 10.7431 17.892 13.7291l19.546 8.302c18.092 7.684 28.909 26.42 26.518 45.93l-2.584 21.078c-.929 7.582.084 15.276 2.944 22.36l7.951 19.691c7.359 18.227 1.76 39.123-13.726 51.228l-16.732 13.078c-6.019 4.705-10.743 10.861-13.729 17.892l-8.302 19.547c-7.684 18.091-26.42 28.908-45.93 26.517l-21.078-2.583c-7.582-.93-15.276.083-22.36 2.943l-19.691 7.951c-18.227 7.36-39.123 1.76-51.228-13.726l-13.078-16.732c-4.705-6.018-10.861-10.743-17.893-13.729l-19.5456-8.302c-18.0918-7.684-28.9087-26.419-26.5175-45.929l2.5834-21.079c.9293-7.582-.0836-15.276-2.9437-22.36l-7.9509-19.691c-7.3593-18.226-1.7601-39.123 13.7265-51.228l16.7314-13.078c6.0184-4.704 10.7434-10.861 13.7294-17.892z"/><path d="m138.077 256.427c-5.259-.644-10.31 2.272-12.381 7.149l-2.213 5.209c-.787 1.854-2.032 3.477-3.619 4.717l-4.459 3.485c-4.175 3.263-5.684 8.896-3.7 13.81l2.119 5.248c.754 1.867 1.021 3.895.776 5.894l-.689 5.618c-.644 5.259 2.271 10.31 7.148 12.381l5.21 2.213c1.854.787 3.476 2.032 4.716 3.619l3.486 4.459c3.263 4.175 8.896 5.684 13.809 3.7l5.249-2.119c1.867-.754 3.895-1.021 5.894-.776l5.618.689c5.259.644 10.31-2.271 12.381-7.148l2.213-5.21c.787-1.853 2.032-3.476 3.618-4.716l4.46-3.486c4.175-3.263 5.684-8.896 3.7-13.809l-2.119-5.249c-.754-1.867-1.021-3.895-.776-5.894l.689-5.618c.644-5.259-2.272-10.309-7.148-12.381l-5.21-2.213c-1.854-.787-3.476-2.032-4.716-3.618l-3.486-4.46c-3.263-4.175-8.896-5.684-13.809-3.7l-5.249 2.119c-1.867.754-3.895 1.021-5.894.776z"/><path d="m139.415 246.709c-6.026-.738-11.812 2.602-14.185 8.19l-2.535 5.969c-.902 2.123-2.329 3.982-4.146 5.403l-5.109 3.993c-4.783 3.739-6.512 10.192-4.24 15.821l2.428 6.014c.864 2.139 1.17 4.462.889 6.752l-.789 6.437c-.738 6.025 2.602 11.811 8.19 14.184l5.969 2.536c2.123.901 3.982 2.328 5.403 4.146l3.994 5.109c3.738 4.783 10.192 6.512 15.82 4.239l6.014-2.428c2.139-.864 4.462-1.17 6.752-.889l6.437.789c6.025.739 11.811-2.602 14.184-8.19l2.536-5.968c.901-2.124 2.328-3.983 4.146-5.404l5.109-3.993c4.783-3.739 6.512-10.192 4.239-15.821l-2.428-6.013c-.864-2.139-1.17-4.463-.889-6.753l.789-6.436c.739-6.026-2.602-11.812-8.19-14.185l-5.968-2.535c-2.124-.902-3.983-2.329-5.404-4.146l-3.993-5.109c-3.739-4.783-10.192-6.512-15.821-4.24l-6.013 2.428c-2.139.864-4.463 1.17-6.753.889z"/><path d="m141.269 233.21c-7.089-.869-13.897 3.062-16.69 9.636l-2.982 7.023c-1.062 2.498-2.74 4.686-4.879 6.357l-6.011 4.699c-5.628 4.399-7.662 11.992-4.988 18.615l2.857 7.076c1.016 2.516 1.376 5.25 1.046 7.944l-.929 7.574c-.869 7.089 3.062 13.897 9.636 16.69l7.023 2.983c2.498 1.061 4.686 2.739 6.358 4.878l4.699 6.011c4.398 5.628 11.992 7.663 18.615 4.988l7.075-2.856c2.517-1.017 5.25-1.377 7.945-1.046l7.573.928c7.09.869 13.898-3.062 16.69-9.636l2.983-7.023c1.061-2.498 2.739-4.686 4.878-6.357l6.012-4.699c5.627-4.399 7.662-11.992 4.987-18.615l-2.856-7.076c-1.017-2.516-1.376-5.25-1.046-7.944l.928-7.574c.869-7.089-3.062-13.897-9.636-16.69l-7.023-2.983c-2.498-1.061-4.686-2.739-6.357-4.878l-4.699-6.011c-4.399-5.628-11.992-7.663-18.615-4.988l-7.075 2.856c-2.517 1.017-5.251 1.377-7.945 1.046z"/><path d="m143.645 215.932c-8.452-1.036-16.568 3.65-19.897 11.487l-3.556 8.372c-1.265 2.978-3.266 5.586-5.815 7.579l-7.167 5.602c-6.708 5.244-9.1339 14.296-5.946 22.191l3.406 8.435c1.211 3 1.64 6.259 1.247 9.471l-1.107 9.029c-1.036 8.451 3.65 16.567 11.487 19.896l8.372 3.556c2.979 1.265 5.587 3.266 7.579 5.815l5.602 7.167c5.244 6.709 14.296 9.134 22.192 5.946l8.434-3.405c3.001-1.212 6.26-1.641 9.471-1.247l9.029 1.106c8.452 1.036 16.568-3.65 19.896-11.487l3.556-8.372c1.265-2.978 3.266-5.586 5.816-7.579l7.166-5.602c6.709-5.243 9.135-14.296 5.947-22.191l-3.406-8.435c-1.212-3-1.641-6.259-1.247-9.471l1.107-9.029c1.035-8.451-3.65-16.567-11.488-19.896l-8.372-3.556c-2.978-1.265-5.586-3.266-7.579-5.815l-5.601-7.167c-5.244-6.709-14.296-9.134-22.192-5.946l-8.434 3.405c-3.001 1.212-6.26 1.641-9.472 1.247z"/><path d="m146.541 194.874c-10.112-1.239-19.822 4.367-23.804 13.744l-4.255 10.016c-1.513 3.564-3.907 6.684-6.957 9.068l-8.575 6.702c-8.0261 6.274-10.9281 17.104-7.1139 26.55l4.0746 10.091c1.4493 3.59 1.9623 7.489 1.4913 11.332l-1.323 10.802c-1.2397 10.112 4.366 19.822 13.743 23.804l10.017 4.255c3.563 1.513 6.683 3.907 9.067 6.957l6.702 8.575c6.274 8.026 17.104 10.928 26.551 7.114l10.091-4.075c3.589-1.449 7.489-1.963 11.331-1.492l10.802 1.324c10.112 1.24 19.822-4.367 23.805-13.743l4.254-10.017c1.513-3.563 3.908-6.683 6.958-9.067l8.574-6.702c8.026-6.274 10.928-17.104 7.114-26.551l-4.074-10.091c-1.45-3.59-1.963-7.489-1.492-11.331l1.324-10.802c1.239-10.112-4.367-19.822-13.744-23.805l-10.017-4.254c-3.563-1.513-6.683-3.908-9.067-6.958l-6.702-8.574c-6.274-8.026-17.104-10.928-26.55-7.114l-10.091 4.074c-3.59 1.45-7.489 1.963-11.332 1.492z"/><path d="m149.954 170.038c-12.069-1.48-23.66 5.212-28.414 16.404l-5.078 11.957c-1.806 4.253-4.664 7.977-8.305 10.823l-10.2343 8c-9.5806 7.488-13.0445 20.416-8.4917 31.691l4.8635 12.045c1.7301 4.285 2.3428 8.94 1.7807 13.526l-1.5803 12.894c-1.4793 12.069 5.2125 23.66 16.4051 28.414l11.956 5.078c4.253 1.806 7.978 4.664 10.823 8.305l8 10.234c7.488 9.581 20.416 13.045 31.691 8.492l12.046-4.863c4.285-1.731 8.939-2.343 13.525-1.781l12.894 1.58c12.07 1.479 23.66-5.212 28.414-16.405l5.078-11.956c1.807-4.253 4.664-7.977 8.305-10.823l10.235-8c9.58-7.488 13.044-20.416 8.491-31.691l-4.863-12.046c-1.73-4.285-2.343-8.939-1.781-13.525l1.58-12.894c1.48-12.07-5.212-23.66-16.404-28.414l-11.957-5.078c-4.253-1.807-7.977-4.664-10.823-8.305l-8-10.235c-7.488-9.58-20.416-13.044-31.691-8.491l-12.045 4.863c-4.285 1.73-8.94 2.343-13.526 1.781z"/><path d="m153.888 141.42c-14.325-1.756-28.082 6.187-33.724 19.471l-6.028 14.191c-2.144 5.048-5.536 9.469-9.857 12.846l-12.1476 9.495c-11.3712 8.888-15.4825 24.232-10.0788 37.615l5.7725 14.297c2.0535 5.086 2.7808 10.61 2.1136 16.054l-1.8757 15.303c-1.7558 14.326 6.1867 28.083 19.471 33.725l14.191 6.027c5.048 2.144 9.469 5.536 12.846 9.858l9.495 12.147c8.889 11.371 24.232 15.483 37.615 10.079l14.297-5.773c5.086-2.053 10.61-2.78 16.054-2.113l15.303 1.876c14.326 1.755 28.083-6.187 33.725-19.471l6.027-14.191c2.145-5.049 5.536-9.469 9.858-12.847l12.147-9.495c11.372-8.888 15.483-24.232 10.079-37.615l-5.772-14.296c-2.054-5.086-2.781-10.61-2.114-16.054l1.876-15.304c1.755-14.325-6.187-28.082-19.471-33.724l-14.191-6.028c-5.049-2.144-9.469-5.536-12.847-9.857l-9.495-12.148c-8.888-11.371-24.232-15.482-37.615-10.079l-14.296 5.773c-5.086 2.053-10.61 2.781-16.054 2.114z"/><path d="m158.343 109.023c-16.879-2.069-33.089 7.29-39.737 22.942l-7.102 16.721c-2.526 5.948-6.523 11.157-11.6143 15.137l-14.3131 11.187c-13.3985 10.473-18.2427 28.552-11.8757 44.321l6.8017 16.845c2.4196 5.993 3.2765 12.502 2.4903 18.916l-2.21 18.032c-2.0688 16.88 7.2897 33.089 22.9421 39.737l16.721 7.102c5.948 2.527 11.157 6.523 15.137 11.615l11.187 14.313c10.473 13.398 28.552 18.243 44.321 11.876l16.845-6.802c5.993-2.42 12.502-3.277 18.916-2.49l18.032 2.21c16.88 2.068 33.089-7.29 39.737-22.943l7.102-16.721c2.526-5.948 6.523-11.156 11.615-15.136l14.313-11.188c13.398-10.472 18.243-28.552 11.876-44.321l-6.802-16.845c-2.42-5.992-3.277-12.501-2.49-18.916l2.21-18.032c2.068-16.879-7.29-33.088-22.943-39.737l-16.721-7.102c-5.948-2.526-11.156-6.523-15.136-11.614l-11.188-14.313c-10.473-13.399-28.552-18.2431-44.321-11.876l-16.845 6.802c-5.992 2.419-12.501 3.276-18.916 2.49z"/></g></svg>