<svg fill="none" height="457" viewBox="0 0 12 457" width="12" xmlns="http://www.w3.org/2000/svg" xmlns:xlink="http://www.w3.org/1999/xlink"><clipPath id="a"><path d="m0 0h12v457h-12z"/></clipPath><g clip-path="url(#a)"><path clip-rule="evenodd" d="m0-19.0148v-.9852h12v.9852zm8 20.68968v-.985225h4v.985225zm0 20.68962v-.9852h4v.9852zm0 20.6897v-.9852h4v.9852zm0 20.6896v-.9852h4v.9852zm0 20.6897v-.9852h4v.9852zm0 20.6895v-.985h4v.985zm0 20.69v-.985h4v.985zm-8 20.689v-.985h12v.985zm8 20.69v-.985h4v.985zm0 20.69v-.985h4v.985zm0 20.689v-.985h4v.985zm0 20.69v-.985h4v.985zm0 20.69v-.986h4v.986zm0 20.689v-.985h4v.985zm0 20.69v-.985h4v.985zm-8 20.69v-.985h12v.985zm8 20.689v-.985h4v.985zm0 20.69v-.985h4v.985zm0 20.69v-.986h4v.986zm0 20.689v-.985h4v.985zm0 20.69v-.985h4v.985zm0 20.69v-.986h4v.986zm0 20.689v-.985h4v.985zm-8 20.69v-.985h12v.985zm8 20.69v-.986h4v.986zm0 20.689v-.985h4v.985zm0 20.69v-.985h4v.985z" fill="#ff4b00" fill-rule="evenodd"/></g></svg>