<svg width="32" height="32" viewBox="0 0 32 32" fill="none" xmlns="http://www.w3.org/2000/svg">
<g opacity="0.5">
<g clip-path="url(#clip0_407_10135)">
<path d="M11.545 11.6758C11.0928 11.6758 10.6406 11.9772 10.6406 12.4294C10.6406 12.8816 11.0928 13.1831 11.545 13.1831C11.9971 13.1831 12.2986 12.8816 12.2986 12.4294C12.2986 11.9584 11.9971 11.6758 11.545 11.6758ZM17.6682 16.0469C17.3667 16.0469 17.0841 16.3672 17.0841 16.6498C17.0841 16.9701 17.3856 17.2528 17.6682 17.2528C18.1203 17.2528 18.4218 16.9513 18.4218 16.6498C18.4218 16.3484 18.1203 16.0469 17.6682 16.0469ZM15.7276 13.1831C16.1798 13.1831 16.4812 12.8628 16.4812 12.4294C16.4812 11.9772 16.1798 11.6758 15.7276 11.6758C15.2754 11.6758 14.8232 11.9772 14.8232 12.4294C14.8232 12.8816 15.2754 13.1831 15.7276 13.1831ZM20.9464 16.0469C20.645 16.0469 20.3624 16.3672 20.3624 16.6498C20.3624 16.9701 20.6638 17.2528 20.9464 17.2528C21.3986 17.2528 21.7 16.9513 21.7 16.6498C21.7 16.3484 21.3986 16.0469 20.9464 16.0469Z" fill="white"/>
<path d="M15.9541 3.04688C8.77584 3.04688 2.9541 8.86879 2.9541 16.0473C2.9541 23.2258 8.77584 29.0477 15.9541 29.0477C23.1324 29.0477 28.9541 23.2258 28.9541 16.0473C28.9541 8.86879 23.1324 3.04688 15.9541 3.04688ZM13.486 19.3822C12.7324 19.3822 12.1295 19.2314 11.4135 19.0619L9.34106 20.117L9.92512 18.2894C8.43671 17.2343 7.53236 15.8589 7.53236 14.2197C7.53236 11.337 10.2266 9.07605 13.486 9.07605C16.4063 9.07605 18.9874 10.8848 19.4961 13.3153C19.3077 13.2965 19.1193 13.2776 18.9309 13.2776C16.1048 13.3153 13.8816 15.4444 13.8816 18.0821C13.8816 18.5155 13.957 18.93 14.07 19.3445C13.8816 19.3633 13.6744 19.3822 13.486 19.3822ZM22.3034 21.4924L22.7556 22.9997L21.1353 22.0953C20.5512 22.246 19.9483 22.3967 19.3454 22.3967C16.5005 22.3967 14.2584 20.4373 14.2584 18.0068C14.2396 15.5951 16.4816 13.6356 19.3077 13.6356C22.0019 13.6356 24.3758 15.6139 24.3758 18.0256C24.3758 19.3822 23.4903 20.588 22.3034 21.4924Z" fill="white"/>
</g>
</g>
<defs>
<clipPath id="clip0_407_10135">
<rect width="26" height="26.0008" fill="white" transform="translate(2.95312 3.04688)"/>
</clipPath>
</defs>
</svg>
