<svg width="32" height="32" viewBox="0 0 32 32" fill="none" xmlns="http://www.w3.org/2000/svg">
<g opacity="0.5">
<g clip-path="url(#clip0_407_10134)">
<path d="M27.3473 5.32452C27.1601 5.07018 26.9346 4.83503 26.6706 4.64788C26.1283 4.24473 25.4708 4 24.751 4H7.24417C6.52429 4 5.85723 4.24476 5.31494 4.64786C5.06059 4.83503 4.82545 5.06059 4.6383 5.3245C4.24476 5.86206 4 6.52429 4 7.24898V24.7558C4 25.4757 4.24473 26.1427 4.64784 26.6754C4.83501 26.9298 5.06057 27.1649 5.3245 27.3521C5.8668 27.7552 6.52427 28 7.24412 28H24.751C25.4708 28 26.1379 27.7552 26.6706 27.3521C26.9249 27.1649 27.1601 26.9394 27.3472 26.6755C27.7504 26.1331 27.9951 25.4757 27.9951 24.7558V7.24895C27.9951 6.52427 27.7408 5.86204 27.3473 5.3245L27.3473 5.32452ZM12.5903 14.9466C12.9742 14.0972 13.4061 13.2621 13.814 12.4271H15.2201C14.8746 13.1133 14.4907 13.7852 14.2459 14.4379C14.817 14.4043 15.3353 14.3755 15.9448 14.3419C15.6185 14.9946 15.3305 15.5753 15.0426 16.1559C15.0042 16.2327 14.9658 16.3143 14.9274 16.3911C14.625 16.9958 14.625 17.0005 15.2969 17.015C15.3689 17.015 15.4361 17.0246 15.5657 17.0389C15.3785 17.4085 15.2105 17.7444 15.033 18.0755C15.0042 18.1283 14.9226 18.1907 14.8698 18.1907C14.3755 18.1907 13.8764 18.2051 13.3821 18.1523C13.027 18.1139 12.8878 17.8404 13.027 17.5045C13.1949 17.0869 13.3965 16.679 13.5837 16.2663C13.6461 16.1223 13.7132 15.9832 13.8044 15.772C13.5309 15.772 13.3293 15.7768 13.1278 15.772C12.5471 15.748 12.3503 15.484 12.5903 14.9466ZM5.78523 19.4289C5.4877 18.9106 5.21898 18.4307 4.94542 17.9508C4.94542 17.8932 5.48291 16.2519 5.36294 14.3947H6.84102C6.84102 14.3947 6.89383 17.874 5.78523 19.4289ZM9.23575 19.2417C9.25014 20.1104 8.65028 20.1104 8.65028 20.1104H7.80084L6.90822 18.9298H7.84403V12.4271H9.25014C9.25014 14.5579 9.24536 17.1109 9.23575 19.2417ZM11.2801 19.3521C10.6083 18.7618 10.2436 17.0006 10.2531 14.3851H11.6401C11.5345 15.7624 11.9808 17.6005 11.9808 17.6005C11.9808 17.6005 11.5729 18.5027 11.2801 19.3521ZM14.3227 19.9616C14.2843 20.0336 14.1644 20.1008 14.078 20.1055C13.4253 20.1152 12.7678 20.1104 12.0192 20.1104C12.3023 19.5441 12.5375 19.0834 12.7439 18.6802H14.985C14.7354 19.1697 14.5387 19.5729 14.3227 19.9616V19.9616ZM20.0527 20.1152H15.009C15.2537 19.6305 15.6904 18.7666 15.6904 18.7666H17.1302V14.3563H16.2327V12.979H19.4817V14.3371H18.5939V18.7714H20.0527V20.1152ZM26.7234 19.0978C26.7234 20.1152 25.73 20.0864 25.73 20.0864H24.4343L23.892 18.9202L25.2981 18.925C25.2981 18.925 25.3125 17.8692 25.2981 17.5045C25.2885 17.1973 25.1205 17.0006 24.8086 16.9958C24.1847 16.9814 23.556 16.991 22.8698 16.991V20.0912H21.4781V17.0102H20.0719V15.5753H21.4397V14.3611H20.5326V13.003H21.4541V12.4271H22.8602L22.8698 13.003H23.9879C23.9879 13.003 25.0198 12.979 25.0245 13.9819C25.0293 14.2795 25.0341 15.2537 25.0341 15.5801C26.2195 15.5753 26.7234 15.8152 26.7234 16.6406V19.0977V19.0978ZM26.1283 14.3995H25.3797V13.6845C25.3797 13.4253 25.5092 13.1854 25.73 13.0462C25.9795 12.8878 26.3251 12.787 26.6514 13.099C26.6658 13.1086 26.6754 13.123 26.685 13.1374C27.1361 13.6124 26.781 14.3995 26.1283 14.3995L26.1283 14.3995Z" fill="white"/>
<path d="M22.8787 15.5745H23.8097V14.3555H22.8691L22.8787 15.5745Z" fill="white"/>
</g>
</g>
<defs>
<clipPath id="clip0_407_10134">
<rect width="24" height="24" fill="white" transform="translate(4 4)"/>
</clipPath>
</defs>
</svg>
