<svg width="32" height="32" viewBox="0 0 32 32" fill="none" xmlns="http://www.w3.org/2000/svg">
<g opacity="0.5">
<g clip-path="url(#clip0_407_10645)">
<path fill-rule="evenodd" clip-rule="evenodd" d="M11.69 4H20.31C23 4 24 4.28 24.93 4.8C25.8974 5.3116 26.6884 6.10259 27.2 7.07C27.72 8 28 9 28 11.69V20.31C28 22.98 27.72 23.95 27.2 24.93C26.6884 25.8974 25.8974 26.6884 24.93 27.2C23.93 27.72 22.98 28 20.31 28H11.69C9 28 8 27.72 7.07 27.2C6.10259 26.6884 5.3116 25.8974 4.8 24.93C4.28 24 4 23 4 20.31V11.69C4 9 4.28 8 4.8 7.07C5.3116 6.10259 6.10259 5.3116 7.07 4.8C8 4.28 9 4 11.69 4ZM19.5498 7.09014C20.1208 7.23025 20.6558 7.48922 21.1198 7.85014C21.2956 7.97365 21.434 8.14318 21.5198 8.34014C21.5817 8.49077 21.6058 8.65422 21.5901 8.8163C21.5744 8.97837 21.5194 9.13416 21.4298 9.27014C21.2881 9.49151 21.0648 9.64815 20.8084 9.70617C20.552 9.76419 20.2831 9.71891 20.0598 9.58014C20.0093 9.548 19.9652 9.50954 19.9215 9.47153C19.8701 9.42675 19.8193 9.38259 19.7598 9.35014C19.4666 9.14346 19.1185 9.0286 18.7598 9.02014C18.5129 9.04685 18.2848 9.16448 18.1198 9.35014C18.0381 9.43306 17.9781 9.53481 17.9449 9.64641C17.9118 9.75802 17.9066 9.87606 17.9298 9.99014L18.2998 11.3801C19.1882 11.414 20.0542 11.6683 20.8198 12.1201C21.5627 12.5751 22.2166 13.1613 22.7498 13.8501C23.2056 14.4483 23.5448 15.1267 23.7498 15.8501C23.9681 16.5995 24.0527 17.3814 23.9998 18.1601C23.953 18.8151 23.8185 19.4609 23.5998 20.0801C23.0235 21.5986 21.971 22.8896 20.5998 23.7601C19.5959 24.3869 18.4654 24.7831 17.2898 24.9201C16.4842 25.0396 15.6654 25.0396 14.8598 24.9201C13.1911 24.63 11.6574 23.8177 10.4798 22.6001C9.46727 21.5744 8.72872 20.3107 8.33208 18.925C7.93543 17.5394 7.89339 16.0763 8.20984 14.6701C8.50421 13.335 9.11853 12.0913 9.99995 11.0462C10.8814 10.001 12.0035 9.18561 13.2698 8.67014C13.4498 8.59863 13.6431 8.56696 13.8364 8.57732C14.0298 8.58768 14.2186 8.63981 14.3898 8.73014C14.5367 8.83521 14.6523 8.97808 14.7245 9.14358C14.7967 9.30908 14.8227 9.49104 14.7998 9.67014C14.7786 9.85238 14.7077 10.0253 14.5948 10.1699C14.482 10.3145 14.3315 10.4253 14.1598 10.4901C13.0769 10.9027 12.1254 11.5998 11.4055 12.5079C10.6857 13.4161 10.2243 14.5016 10.0698 15.6501C9.92547 16.7236 10.0492 17.8161 10.4298 18.8301C10.9738 20.3111 12.0409 21.5418 13.4298 22.2901C14.2727 22.7286 15.2097 22.9551 16.1598 22.9501C16.941 22.9456 17.7156 22.8069 18.4498 22.5401C19.717 22.0893 20.7718 21.1842 21.4098 20.0001C21.5692 19.715 21.6967 19.4132 21.7898 19.1001C22.0526 18.1921 22.0526 17.2282 21.7898 16.3201C21.5576 15.564 21.1176 14.8883 20.5198 14.3701C20.2595 14.1411 19.9783 13.9368 19.6798 13.7601C19.4162 13.6146 19.1335 13.5069 18.8398 13.4401C18.9623 13.9301 19.0923 14.4201 19.223 14.9124L19.223 14.9125C19.3056 15.224 19.3885 15.5363 19.4698 15.8501L19.5698 16.4301C19.5969 17.2395 19.3351 18.032 18.8313 18.666C18.3274 19.2999 17.6144 19.7339 16.8198 19.8901C15.9917 20.0557 15.1317 19.8944 14.4198 19.4401C13.7566 19.0001 13.2574 18.3532 12.9998 17.6001C12.8534 17.1783 12.7724 16.7365 12.7598 16.2901C12.7074 15.3121 12.9742 14.3435 13.5198 13.5301C14.1957 12.587 15.1785 11.9082 16.2998 11.6101L16.0598 10.6801C15.8573 10.0182 15.9108 9.30441 16.2098 8.68014C16.3858 8.33125 16.6308 8.02167 16.9298 7.77014C17.2347 7.47556 17.5998 7.25042 17.9998 7.11014C18.5058 6.9678 19.0403 6.9609 19.5498 7.09014ZM14.83 15.5103C14.9201 15.0899 15.1242 14.7023 15.42 14.3903C15.8138 13.9979 16.3033 13.7152 16.84 13.5703L17.53 16.1803C17.57 16.3315 17.6001 16.4852 17.62 16.6403C17.6035 16.9519 17.4834 17.2491 17.2786 17.4847C17.0739 17.7202 16.7963 17.8806 16.49 17.9403C16.3193 17.9793 16.1423 17.9826 15.9702 17.9499C15.7981 17.9172 15.6346 17.8492 15.49 17.7503C15.1415 17.4866 14.9057 17.1008 14.83 16.6703C14.7546 16.2873 14.7546 15.8933 14.83 15.5103Z" fill="white"/>
</g>
</g>
<defs>
<clipPath id="clip0_407_10645">
<rect width="24" height="24" fill="white" transform="translate(4 4)"/>
</clipPath>
</defs>
</svg>
