<svg width="32" height="32" viewBox="0 0 32 32" fill="none" xmlns="http://www.w3.org/2000/svg">
<g opacity="0.5">
<path d="M23.4676 5.31967C23.6069 5.45896 23.7175 5.62432 23.7929 5.80632C23.8683 5.98832 23.9071 6.1834 23.9071 6.3804C23.9071 6.5774 23.8683 6.77247 23.7929 6.95447C23.7175 7.13648 23.6069 7.30184 23.4676 7.44112L22.096 8.81143H23.5C24.091 8.81143 24.6763 8.92786 25.2224 9.15406C25.7684 9.38027 26.2645 9.71182 26.6824 10.1298C27.1003 10.5477 27.4317 11.0439 27.6578 11.59C27.8839 12.1361 28.0002 12.7213 28 13.3123V22.3117C28 23.5051 27.5259 24.6496 26.682 25.4934C25.8381 26.3373 24.6935 26.8114 23.5 26.8114H8.5C7.30653 26.8114 6.16193 26.3373 5.31802 25.4934C4.47411 24.6496 4 23.5051 4 22.3117V13.3123C4 12.1189 4.47411 10.9744 5.31802 10.1306C6.16193 9.2867 7.30653 8.81263 8.5 8.81263H9.8992L8.53 7.44232C8.3867 7.304 8.27238 7.13853 8.19371 6.95556C8.11505 6.77259 8.07361 6.57579 8.07183 6.37663C8.07004 6.17748 8.10794 5.97996 8.18331 5.79561C8.25867 5.61126 8.37001 5.44376 8.51081 5.30289C8.6516 5.16202 8.81905 5.0506 9.00337 4.97513C9.1877 4.89967 9.3852 4.86166 9.58437 4.86333C9.78354 4.86501 9.98038 4.90633 10.1634 4.98488C10.3464 5.06344 10.512 5.17766 10.6504 5.32087L13.8328 8.50305C13.9276 8.59784 14.0068 8.70104 14.0704 8.81143H17.926C17.9896 8.70104 18.07 8.59544 18.1648 8.50185L21.346 5.31967C21.4853 5.18035 21.6507 5.06984 21.8327 4.99444C22.0147 4.91903 22.2098 4.88022 22.4068 4.88022C22.6038 4.88022 22.7989 4.91903 22.9809 4.99444C23.1629 5.06984 23.3283 5.18035 23.4676 5.31967ZM23.5 11.8232H8.5C8.1214 11.8231 7.75675 11.9661 7.47921 12.2236C7.20167 12.4811 7.03177 12.834 7.0036 13.2115L7 13.3243V22.3237C7 23.1144 7.612 23.7624 8.3884 23.8188L8.5 23.8236H23.5C23.8786 23.8237 24.2433 23.6807 24.5208 23.4232C24.7983 23.1657 24.9682 22.8128 24.9964 22.4353L25 22.3237V13.3243C25 12.4964 24.328 11.8244 23.5 11.8244V11.8232ZM11.5 14.823C12.328 14.823 13 15.495 13 16.3229V17.8228C13 18.2206 12.842 18.6021 12.5607 18.8834C12.2794 19.1647 11.8978 19.3227 11.5 19.3227C11.1022 19.3227 10.7206 19.1647 10.4393 18.8834C10.158 18.6021 10 18.2206 10 17.8228V16.3229C10 15.495 10.672 14.823 11.5 14.823ZM20.5 14.823C21.328 14.823 22 15.495 22 16.3229V17.8228C22 18.2206 21.842 18.6021 21.5607 18.8834C21.2794 19.1647 20.8978 19.3227 20.5 19.3227C20.1022 19.3227 19.7206 19.1647 19.4393 18.8834C19.158 18.6021 19 18.2206 19 17.8228V16.3229C19 15.495 19.672 14.823 20.5 14.823Z" fill="white"/>
</g>
</svg>
