<svg fill="none" height="507" viewBox="0 0 621 507" width="621" xmlns="http://www.w3.org/2000/svg"><g opacity=".5" stroke="#e83f03"><path d="m444.974 61.771c8.319 8.3189 11.036 21.5752 8.68 38.569-2.355 16.984-9.767 37.6-21.565 60.499-23.593 45.794-64.672 100.617-117.653 153.597-52.98 52.981-107.803 94.06-153.597 117.653-22.899 11.798-43.515 19.21-60.499 21.565-16.9938 2.356-30.2502-.361-38.569-8.68-8.3189-8.319-11.0362-21.575-8.68-38.569 2.3548-16.984 9.7666-37.6 21.5646-60.499 23.5931-45.794 64.6724-100.617 117.6534-153.597 52.98-52.981 107.802-94.0603 153.597-117.6534 22.899-11.7979 43.515-19.2097 60.499-21.5645 16.994-2.3562 30.25.361 38.569 8.6799z" opacity=".2"/><path d="m559.228 61.771c8.319 8.3189 11.036 21.5752 8.68 38.569-2.355 16.984-9.767 37.6-21.565 60.499-23.593 45.794-64.672 100.617-117.653 153.597-52.98 52.981-107.803 94.06-153.597 117.653-22.899 11.798-43.516 19.21-60.499 21.565-16.994 2.356-30.25-.361-38.569-8.68s-11.036-21.575-8.68-38.569c2.355-16.984 9.767-37.6 21.564-60.499 23.594-45.794 64.673-100.617 117.654-153.597 52.98-52.981 107.802-94.0603 153.596-117.6534 22.9-11.7979 43.516-19.2097 60.5-21.5645 16.994-2.3562 30.25.361 38.569 8.6799z" opacity=".2"/></g></svg>