<svg fill="none" height="100" viewBox="0 0 101 100" width="101" xmlns="http://www.w3.org/2000/svg" xmlns:xlink="http://www.w3.org/1999/xlink"><filter id="a" color-interpolation-filters="sRGB" filterUnits="userSpaceOnUse" height="101" width="101" x="0" y="-1"><feFlood flood-opacity="0" result="BackgroundImageFix"/><feColorMatrix in="SourceAlpha" result="hardAlpha" type="matrix" values="0 0 0 0 0 0 0 0 0 0 0 0 0 0 0 0 0 0 127 0"/><feOffset dy="8"/><feGaussianBlur stdDeviation="8"/><feComposite in2="hardAlpha" operator="out"/><feColorMatrix type="matrix" values="0 0 0 0 0.101961 0 0 0 0 0.101961 0 0 0 0 0.101961 0 0 0 0.25 0"/><feBlend in2="BackgroundImageFix" mode="normal" result="effect1_dropShadow_390_9090"/><feBlend in="SourceGraphic" in2="effect1_dropShadow_390_9090" mode="normal" result="shape"/></filter><clipPath id="b"><path d="m20 11h61v61h-61z"/></clipPath><g filter="url(#a)"><rect fill="#fff" height="69" rx="8" width="69" x="16" y="7"/><g clip-path="url(#b)"><path d="m0 0h64v64.8h-64z" fill="#fff" transform="translate(18.5 9)"/><g fill="#1a1a1a"><path d="m33.1562 17.7738c0 1.6793-.6671 3.2899-1.8546 4.4774s-2.7981 1.8546-4.4774 1.8546c-1.6794 0-3.2899-.6671-4.4774-1.8546s-1.8546-2.7981-1.8546-4.4774c0-1.6794.6671-3.2899 1.8546-4.4774s2.798-1.8546 4.4774-1.8546c1.6793 0 3.2899.6671 4.4774 1.8546s1.8546 2.798 1.8546 4.4774zm-1.834-.008c0-1.194-.4743-2.3391-1.3186-3.1834s-1.9894-1.3186-3.1834-1.3186-2.3391.4743-3.1834 1.3186-1.3186 1.9894-1.3186 3.1834.4743 2.3391 1.3186 3.1834 1.9894 1.3186 3.1834 1.3186 2.3391-.4743 3.1834-1.3186 1.3186-1.9894 1.3186-3.1834z"/><path d="m80.3357 17.7698c0 .831-.1637 1.6538-.4817 2.4216-.318.7677-.7841 1.4653-1.3717 2.0529-.5877.5877-1.2852 1.0538-2.053 1.3718-.7677.318-1.5906.4817-2.4216.4817-1.6783 0-3.2879-.6667-4.4746-1.8535-1.1867-1.1867-1.8534-2.7962-1.8534-4.4745s.6667-3.2879 1.8534-4.4746 2.7963-1.8534 4.4746-1.8534c.831 0 1.6539.1637 2.4216.4817.7678.318 1.4653.7841 2.053 1.3717.5876.5876 1.0537 1.2852 1.3717 2.053.318.7677.4817 1.5906.4817 2.4216zm-1.83-.006c0-.5907-.1164-1.1756-.3424-1.7213-.2261-.5458-.5574-1.0416-.975-1.4593-.4177-.4177-.9136-.749-1.4593-.975-.5457-.2261-1.1306-.3424-1.7213-.3424-1.193 0-2.337.4739-3.1806 1.3174-.8435.8435-1.3174 1.9876-1.3174 3.1806 0 1.1929.4739 2.337 1.3174 3.1805.8436.8436 1.9876 1.3175 3.1806 1.3175.5907 0 1.1756-.1164 1.7213-.3424.5457-.2261 1.0416-.5574 1.4593-.9751.4176-.4176.7489-.9135.975-1.4592.226-.5457.3424-1.1306.3424-1.7213z"/><path d="m39.4757 12.8851c.3027 0 .548-.2454.548-.548 0-.3027-.2453-.548-.548-.548-.3026 0-.548.2453-.548.548 0 .3026.2454.548.548.548z"/><path d="m44.9424 12.8813c.3005 0 .544-.2435.544-.544 0-.3004-.2435-.544-.544-.544-.3004 0-.544.2436-.544.544 0 .3005.2436.544.544.544z"/><path d="m48.6143 12.8813c.3005 0 .544-.2435.544-.544 0-.3004-.2435-.544-.544-.544-.3004 0-.544.2436-.544.544 0 .3005.2436.544.544.544z"/><path d="m50.3952 12.8689c.2916 0 .528-.2364.528-.528s-.2364-.528-.528-.528-.528.2364-.528.528.2364.528.528.528z"/><path d="m55.8679 12.8769c.2939 0 .532-.2382.532-.532s-.2381-.532-.532-.532c-.2938 0-.532.2382-.532.532s.2382.532.532.532z"/><path d="m61.2626 12.8653c.296 0 .536-.2399.536-.536 0-.296-.24-.536-.536-.536-.2961 0-.536.24-.536.536 0 .2961.2399.536.536.536z"/><path d="m64.9364 12.8693c.2972 0 .538-.2408.538-.538 0-.2971-.2408-.538-.538-.538-.2971 0-.538.2409-.538.538 0 .2972.2409.538.538.538z"/><path d="m37.6559 14.6689c.2916 0 .528-.2364.528-.528s-.2364-.528-.528-.528-.528.2364-.528.528.2364.528.528.528z"/><path d="m39.5538 14.7017c.3016 0 .546-.2444.546-.546 0-.3015-.2444-.546-.546-.546-.3015 0-.546.2445-.546.546 0 .3016.2445.546.546.546z"/><path d="m41.3407 14.6817c.296 0 .536-.2399.536-.536 0-.296-.24-.536-.536-.536s-.536.24-.536.536c0 .2961.24.536.536.536z"/><path d="m44.9404 14.6742c.2994 0 .542-.2427.542-.542s-.2426-.542-.542-.542c-.2993 0-.542.2427-.542.542s.2427.542.542.542z"/><path d="m52.2141 14.6902c.3037 0 .55-.2462.55-.55 0-.3037-.2463-.55-.55-.55-.3038 0-.55.2463-.55.55 0 .3038.2462.55.55.55z"/><path d="m53.9989 14.6857c.2972 0 .538-.2408.538-.538 0-.2971-.2408-.538-.538-.538-.2971 0-.538.2409-.538.538 0 .2972.2409.538.538.538z"/><path d="m57.6648 14.6737c.2938 0 .532-.2381.532-.532 0-.2938-.2382-.532-.532-.532s-.532.2382-.532.532c0 .2939.2382.532.532.532z"/><path d="m59.4677 14.6857c.2971 0 .538-.2408.538-.538 0-.2971-.2409-.538-.538-.538s-.538.2409-.538.538c0 .2972.2409.538.538.538z"/><path d="m63.1256 14.6577c.2894 0 .524-.2346.524-.524s-.2346-.524-.524-.524-.524.2346-.524.524.2346.524.524.524z"/><path d="m26.7799 20.4821c1.4879 0 2.694-1.2061 2.694-2.694 0-1.4878-1.2061-2.694-2.694-2.694-1.4878 0-2.694 1.2062-2.694 2.694 0 1.4879 1.2062 2.694 2.694 2.694z"/><path d="m73.9674 20.4821c1.4879 0 2.694-1.2061 2.694-2.694 0-1.4878-1.2061-2.694-2.694-2.694-1.4878 0-2.694 1.2062-2.694 2.694 0 1.4879 1.2062 2.694 2.694 2.694z"/><path d="m35.8579 16.4897c.2883 0 .522-.2337.522-.522s-.2337-.522-.522-.522-.522.2337-.522.522.2337.522.522.522z"/><path d="m44.9966 16.4857c.2871 0 .52-.2328.52-.52s-.2329-.52-.52-.52c-.2872 0-.52.2328-.52.52s.2328.52.52.52z"/><path d="m52.1921 16.4821c.2916 0 .528-.2363.528-.528 0-.2916-.2364-.528-.528-.528s-.528.2364-.528.528c0 .2917.2364.528.528.528z"/><path d="m53.981 16.485c.2883 0 .522-.2337.522-.522s-.2337-.522-.522-.522-.522.2337-.522.522.2337.522.522.522z"/><path d="m57.6428 16.4657c.2817 0 .51-.2284.51-.51 0-.2817-.2283-.51-.51-.51s-.51.2283-.51.51c0 .2816.2283.51.51.51z"/><path d="m64.9244 16.4781c.2905 0 .526-.2355.526-.526s-.2355-.526-.526-.526-.526.2355-.526.526.2355.526.526.526z"/><path d="m39.5538 18.3346c.3016 0 .546-.2445.546-.546 0-.3016-.2444-.546-.546-.546-.3015 0-.546.2444-.546.546 0 .3015.2445.546.546.546z"/><path d="m43.1216 18.3021c.2872 0 .52-.2328.52-.52s-.2328-.52-.52-.52-.52.2328-.52.52.2328.52.52.52z"/><path d="m46.7244 18.3129c.2949 0 .534-.2391.534-.534s-.2391-.534-.534-.534-.534.2391-.534.534.2391.534.534.534z"/><path d="m50.3892 18.3061c.2883 0 .522-.2337.522-.522s-.2337-.522-.522-.522-.522.2337-.522.522.2337.522.522.522z"/><path d="m53.9969 18.3146c.2961 0 .536-.24.536-.536 0-.2961-.2399-.536-.536-.536-.296 0-.536.2399-.536.536 0 .296.24.536.536.536z"/><path d="m55.8699 18.3106c.295 0 .534-.2391.534-.534 0-.295-.239-.534-.534-.534-.2949 0-.534.239-.534.534 0 .2949.2391.534.534.534z"/><path d="m57.6628 18.3026c.2927 0 .53-.2373.53-.53 0-.2928-.2373-.53-.53-.53s-.53.2372-.53.53c0 .2927.2373.53.53.53z"/><path d="m64.9364 18.3186c.2972 0 .538-.2409.538-.538 0-.2972-.2408-.538-.538-.538-.2971 0-.538.2408-.538.538 0 .2971.2409.538.538.538z"/><path d="m35.8759 20.139c.2983 0 .54-.2418.54-.54 0-.2983-.2417-.54-.54-.54-.2982 0-.54.2417-.54.54 0 .2982.2418.54.54.54z"/><path d="m41.3367 20.123c.2938 0 .532-.2382.532-.532 0-.2939-.2382-.532-.532-.532s-.532.2381-.532.532c0 .2938.2382.532.532.532z"/><path d="m43.1236 20.103c.2883 0 .522-.2337.522-.522s-.2337-.522-.522-.522-.522.2337-.522.522.2337.522.522.522z"/><path d="m50.3852 20.1145c.2861 0 .518-.2319.518-.518s-.2319-.518-.518-.518-.518.2319-.518.518.2319.518.518.518z"/><path d="m52.2041 20.139c.2982 0 .54-.2418.54-.54 0-.2983-.2418-.54-.54-.54-.2983 0-.54.2417-.54.54 0 .2982.2417.54.54.54z"/><path d="m55.8579 20.103c.2883 0 .522-.2337.522-.522s-.2337-.522-.522-.522-.522.2337-.522.522.2337.522.522.522z"/><path d="m59.4617 20.123c.2938 0 .532-.2382.532-.532 0-.2939-.2382-.532-.532-.532s-.532.2381-.532.532c0 .2938.2382.532.532.532z"/><path d="m61.2586 20.123c.2938 0 .532-.2382.532-.532 0-.2939-.2382-.532-.532-.532-.2939 0-.532.2381-.532.532 0 .2938.2381.532.532.532z"/><path d="m63.1276 20.1305c.2905 0 .526-.2355.526-.526s-.2355-.526-.526-.526-.526.2355-.526.526.2355.526.526.526z"/><path d="m37.7309 20.1185c.2872 0 .52-.2328.52-.52s-.2328-.52-.52-.52c-.2871 0-.52.2328-.52.52s.2329.52.52.52z"/><path d="m39.5458 20.135c.2971 0 .538-.2409.538-.538 0-.2972-.2409-.538-.538-.538s-.538.2408-.538.538c0 .2971.2409.538.538.538z"/><path d="m44.9324 20.127c.295 0 .534-.2391.534-.534 0-.295-.239-.534-.534-.534-.2949 0-.534.239-.534.534 0 .2949.2391.534.534.534z"/><path d="m46.8034 20.119c.2928 0 .53-.2373.53-.53 0-.2928-.2372-.53-.53-.53-.2927 0-.53.2372-.53.53 0 .2927.2373.53.53.53z"/><path d="m48.6083 20.135c.2971 0 .538-.2409.538-.538 0-.2972-.2409-.538-.538-.538s-.538.2408-.538.538c0 .2971.2409.538.538.538z"/><path d="m57.6568 20.1265c.2894 0 .524-.2346.524-.524s-.2346-.524-.524-.524-.524.2346-.524.524.2346.524.524.524z"/><path d="m35.8779 21.9398c.2994 0 .542-.2426.542-.542 0-.2993-.2426-.542-.542-.542-.2993 0-.542.2427-.542.542 0 .2994.2427.542.542.542z"/><path d="m37.7349 21.9038c.2894 0 .524-.2346.524-.524s-.2346-.524-.524-.524-.524.2346-.524.524.2346.524.524.524z"/><path d="m39.5234 21.9267c.3159-.0066.567-.2456.561-.5339-.0061-.2882-.267-.5165-.5828-.5099-.3159.0066-.567.2457-.561.5339.0061.2882.267.5165.5828.5099z"/><path d="m46.7234 21.919c.2927 0 .53-.2373.53-.53s-.2373-.53-.53-.53c-.2928 0-.53.2373-.53.53s.2372.53.53.53z"/><path d="m52.2061 21.9398c.2993 0 .542-.2426.542-.542 0-.2993-.2427-.542-.542-.542-.2994 0-.542.2427-.542.542 0 .2994.2426.542.542.542z"/><path d="m55.8599 21.9234c.2894 0 .524-.2346.524-.524s-.2346-.524-.524-.524-.524.2346-.524.524.2346.524.524.524z"/><path d="m63.1276 21.9274c.2905 0 .526-.2355.526-.526s-.2355-.526-.526-.526-.526.2355-.526.526.2355.526.526.526z"/><path d="m64.9364 21.9318c.2972 0 .538-.2408.538-.538 0-.2971-.2408-.538-.538-.538-.2971 0-.538.2409-.538.538 0 .2972.2409.538.538.538z"/><path d="m35.8639 23.7478c.2916 0 .528-.2364.528-.528s-.2364-.528-.528-.528-.528.2364-.528.528.2364.528.528.528z"/><path d="m39.499 23.7357c.3054.0187.5668-.1923.5839-.4712.017-.279-.2167-.5202-.5221-.5389s-.5668.1923-.5839.4712c-.017.279.2167.5202.5221.5389z"/><path d="m43.1116 23.7313c.2816 0 .51-.2283.51-.51s-.2284-.51-.51-.51c-.2817 0-.51.2283-.51.51s.2283.51.51.51z"/><path d="m46.7834 23.7313c.2817 0 .51-.2283.51-.51s-.2283-.51-.51-.51c-.2816 0-.51.2283-.51.51s.2284.51.51.51z"/><path d="m50.3732 23.7428c.2794 0 .506-.2265.506-.506 0-.2794-.2266-.506-.506-.506-.2795 0-.506.2266-.506.506 0 .2795.2265.506.506.506z"/><path d="m54.0656 23.7209c.2987-.0194.5266-.2557.509-.528-.0176-.2722-.2741-.4773-.5728-.458s-.5266.2557-.509.528c.0176.2722.2741.4773.5728.458z"/><path d="m57.6408 23.7273c.2806 0 .508-.2274.508-.508s-.2274-.508-.508-.508c-.2805 0-.508.2274-.508.508s.2275.508.508.508z"/><path d="m61.3267 23.7553c.2883 0 .522-.2337.522-.522s-.2337-.522-.522-.522-.522.2337-.522.522.2337.522.522.522z"/><path d="m64.9224 23.7398c.2894 0 .524-.2346.524-.524s-.2346-.524-.524-.524-.524.2346-.524.524.2346.524.524.524z"/><path d="m37.6668 25.5566c.2949 0 .534-.239.534-.534 0-.2949-.2391-.534-.534-.534s-.534.2391-.534.534c0 .295.2391.534.534.534z"/><path d="m41.3427 25.5646c.2971 0 .538-.2408.538-.538 0-.2971-.2409-.538-.538-.538s-.538.2409-.538.538c0 .2972.2409.538.538.538z"/><path d="m50.3832 25.5402c.285 0 .516-.231.516-.516s-.231-.516-.516-.516-.516.231-.516.516.231.516.516.516z"/><path d="m57.6628 25.5682c.2927 0 .53-.2373.53-.53s-.2373-.53-.53-.53-.53.2373-.53.53.2373.53.53.53z"/><path d="m63.1336 25.5722c.2938 0 .532-.2382.532-.532s-.2382-.532-.532-.532c-.2939 0-.532.2382-.532.532s.2381.532.532.532z"/><path d="m64.9424 25.5766c.3005 0 .544-.2435.544-.544 0-.3004-.2435-.544-.544-.544-.3004 0-.544.2436-.544.544 0 .3005.2436.544.544.544z"/><path d="m21.3387 27.3926c.2949 0 .534-.2391.534-.534s-.2391-.534-.534-.534-.534.2391-.534.534.2391.534.534.534z"/><path d="m26.8154 27.4086c.2994 0 .542-.2427.542-.542 0-.2994-.2426-.542-.542-.542-.2993 0-.542.2426-.542.542 0 .2993.2427.542.542.542z"/><path d="m32.2662 27.3726c.2894 0 .524-.2346.524-.524s-.2346-.524-.524-.524-.524.2346-.524.524.2346.524.524.524z"/><path d="m35.8719 27.3771c.2961 0 .536-.24.536-.536 0-.2961-.2399-.536-.536-.536-.296 0-.536.2399-.536.536 0 .296.24.536.536.536z"/><path d="m39.5558 27.4011c.3027 0 .548-.2454.548-.548 0-.3027-.2453-.548-.548-.548-.3026 0-.548.2453-.548.548 0 .3026.2454.548.548.548z"/><path d="m43.1236 27.3881c.2883 0 .522-.2337.522-.522s-.2337-.522-.522-.522-.522.2337-.522.522.2337.522.522.522z"/><path d="m52.2081 27.3931c.3004 0 .544-.2436.544-.544 0-.3005-.2436-.544-.544-.544-.3005 0-.544.2435-.544.544 0 .3004.2435.544.544.544z"/><path d="m55.8599 27.3726c.2894 0 .524-.2346.524-.524s-.2346-.524-.524-.524-.524.2346-.524.524.2346.524.524.524z"/><path d="m66.7333 27.4006c.2971 0 .538-.2409.538-.538s-.2409-.538-.538-.538-.538.2409-.538.538.2409.538.538.538z"/><path d="m70.4012 27.3926c.2949 0 .534-.2391.534-.534s-.2391-.534-.534-.534-.534.2391-.534.534.2391.534.534.534z"/><path d="m72.1961 27.3886c.2938 0 .532-.2382.532-.532s-.2382-.532-.532-.532c-.2939 0-.532.2382-.532.532s.2381.532.532.532z"/><path d="m37.7369 27.3961c.2905 0 .526-.2355.526-.526s-.2355-.526-.526-.526-.526.2355-.526.526.2355.526.526.526z"/><path d="m41.3387 27.3926c.2949 0 .534-.2391.534-.534s-.2391-.534-.534-.534-.534.2391-.534.534.2391.534.534.534z"/><path d="m64.9344 27.3966c.2961 0 .536-.24.536-.536s-.2399-.536-.536-.536c-.296 0-.536.24-.536.536s.24.536.536.536z"/><path d="m75.8539 27.3801c.2861 0 .518-.2319.518-.518s-.2319-.518-.518-.518c-.286 0-.518.2319-.518.518s.232.518.518.518z"/><path d="m24.9866 29.1805c.2816 0 .51-.2283.51-.51 0-.2816-.2284-.51-.51-.51-.2817 0-.51.2284-.51.51 0 .2817.2283.51.51.51z"/><path d="m50.3772 29.1805c.2817 0 .51-.2283.51-.51 0-.2816-.2283-.51-.51-.51s-.51.2284-.51.51c0 .2817.2283.51.51.51z"/><path d="m21.4068 29.189c.2894 0 .524-.2346.524-.524s-.2346-.524-.524-.524-.524.2346-.524.524.2346.524.524.524z"/><path d="m26.8074 29.209c.295 0 .534-.2391.534-.534s-.239-.534-.534-.534c-.2949 0-.534.2391-.534.534s.2391.534.534.534z"/><path d="m34.0631 29.189c.2894 0 .524-.2346.524-.524s-.2346-.524-.524-.524-.524.2346-.524.524.2346.524.524.524z"/><path d="m39.5438 29.213c.296 0 .536-.24.536-.536s-.24-.536-.536-.536-.536.24-.536.536.24.536.536.536z"/><path d="m46.7954 29.185c.2883 0 .522-.2337.522-.522s-.2337-.522-.522-.522-.522.2337-.522.522.2337.522.522.522z"/><path d="m48.6023 29.205c.2938 0 .532-.2382.532-.532s-.2382-.532-.532-.532-.532.2382-.532.532.2382.532.532.532z"/><path d="m54.0591 29.181c.2871 0 .52-.2328.52-.52s-.2329-.52-.52-.52c-.2872 0-.52.2328-.52.52s.2328.52.52.52z"/><path d="m55.8539 29.1965c.2861 0 .518-.2319.518-.518s-.2319-.518-.518-.518c-.286 0-.518.2319-.518.518s.232.518.518.518z"/><path d="m57.6488 29.1925c.285 0 .516-.231.516-.516s-.231-.516-.516-.516-.516.231-.516.516.231.516.516.516z"/><path d="m61.3247 29.181c.2872 0 .52-.2328.52-.52s-.2328-.52-.52-.52-.52.2328-.52.52.2328.52.52.52z"/><path d="m64.9284 29.201c.2927 0 .53-.2373.53-.53s-.2373-.53-.53-.53-.53.2373-.53.53.2373.53.53.53z"/><path d="m66.7233 29.197c.2916 0 .528-.2364.528-.528s-.2364-.528-.528-.528-.528.2364-.528.528.2364.528.528.528z"/><path d="m68.5883 29.177c.2861 0 .518-.2319.518-.518s-.2319-.518-.518-.518-.518.2319-.518.518.2319.518.518.518z"/><path d="m70.3892 29.185c.2883 0 .522-.2337.522-.522s-.2337-.522-.522-.522-.522.2337-.522.522.2337.522.522.522z"/><path d="m73.967 29.173c.2805 0 .508-.2275.508-.508 0-.2806-.2275-.508-.508-.508-.2806 0-.508.2274-.508.508 0 .2805.2274.508.508.508z"/><path d="m75.7798 29.185c.2883 0 .522-.2337.522-.522s-.2337-.522-.522-.522-.522.2337-.522.522.2337.522.522.522z"/><path d="m77.6568 29.189c.2894 0 .524-.2346.524-.524s-.2346-.524-.524-.524-.524.2346-.524.524.2346.524.524.524z"/><path d="m79.4537 29.189c.2894 0 .524-.2346.524-.524s-.2346-.524-.524-.524-.524.2346-.524.524.2346.524.524.524z"/><path d="m23.1556 31.0654c.3059 0 .554-.248.554-.554s-.2481-.554-.554-.554c-.306 0-.554.248-.554.554s.248.554.554.554z"/><path d="m26.8274 31.0654c.306 0 .554-.248.554-.554s-.248-.554-.554-.554c-.3059 0-.554.248-.554.554s.2481.554.554.554z"/><path d="m28.6083 31.0334c.2971 0 .538-.2409.538-.538s-.2409-.538-.538-.538-.538.2409-.538.538.2409.538.538.538z"/><path d="m32.2682 31.0289c.2905 0 .526-.2355.526-.526s-.2355-.526-.526-.526-.526.2355-.526.526.2355.526.526.526z"/><path d="m34.0811 31.0414c.2993 0 .542-.2427.542-.542s-.2427-.542-.542-.542c-.2994 0-.542.2427-.542.542s.2426.542.542.542z"/><path d="m44.9404 31.0609c.2994 0 .542-.2426.542-.542 0-.2993-.2426-.542-.542-.542-.2993 0-.542.2427-.542.542 0 .2994.2427.542.542.542z"/><path d="m48.6183 31.0534c.3027 0 .548-.2453.548-.548s-.2453-.548-.548-.548c-.3026 0-.548.2453-.548.548s.2454.548.548.548z"/><path d="m53.9969 31.0489c.2961 0 .536-.2399.536-.536 0-.296-.2399-.536-.536-.536-.296 0-.536.24-.536.536 0 .2961.24.536.536.536z"/><path d="m59.4717 31.0414c.2993 0 .542-.2427.542-.542s-.2427-.542-.542-.542c-.2994 0-.542.2427-.542.542s.2426.542.542.542z"/><path d="m61.2666 31.0374c.2982 0 .54-.2418.54-.54s-.2418-.54-.54-.54c-.2983 0-.54.2418-.54.54s.2417.54.54.54z"/><path d="m63.1336 31.0409c.2938 0 .532-.2382.532-.532s-.2382-.532-.532-.532c-.2939 0-.532.2382-.532.532s.2381.532.532.532z"/><path d="m64.9464 31.0534c.3027 0 .548-.2453.548-.548s-.2453-.548-.548-.548c-.3026 0-.548.2453-.548.548s.2454.548.548.548z"/><path d="m70.4052 31.0529c.2971 0 .538-.2408.538-.538 0-.2971-.2409-.538-.538-.538s-.538.2409-.538.538c0 .2972.2409.538.538.538z"/><path d="m75.7898 31.0409c.2938 0 .532-.2382.532-.532s-.2382-.532-.532-.532-.532.2382-.532.532.2382.532.532.532z"/><path d="m79.4717 31.0414c.2993 0 .542-.2427.542-.542s-.2427-.542-.542-.542c-.2994 0-.542.2427-.542.542s.2426.542.542.542z"/><path d="m68.5173 31.0369c.2927 0 .53-.2373.53-.53s-.2373-.53-.53-.53-.53.2373-.53.53.2373.53.53.53z"/><path d="m26.8134 32.8343c.2983 0 .54-.2418.54-.54 0-.2983-.2417-.54-.54-.54-.2982 0-.54.2417-.54.54 0 .2982.2418.54.54.54z"/><path d="m34.0751 32.8263c.296 0 .536-.24.536-.536 0-.2961-.24-.536-.536-.536-.2961 0-.536.2399-.536.536 0 .296.2399.536.536.536z"/><path d="m35.8739 32.8303c.2972 0 .538-.2409.538-.538 0-.2972-.2408-.538-.538-.538-.2971 0-.538.2408-.538.538 0 .2971.2409.538.538.538z"/><path d="m37.6549 32.8211c.2894 0 .524-.2346.524-.524s-.2346-.524-.524-.524-.524.2346-.524.524.2346.524.524.524z"/><path d="m44.9424 32.8423c.3005 0 .544-.2436.544-.544 0-.3005-.2435-.544-.544-.544-.3004 0-.544.2435-.544.544 0 .3004.2436.544.544.544z"/><path d="m48.6123 32.8383c.2994 0 .542-.2427.542-.542 0-.2994-.2426-.542-.542-.542-.2993 0-.542.2426-.542.542 0 .2993.2427.542.542.542z"/><path d="m57.6588 32.8258c.2905 0 .526-.2355.526-.526s-.2355-.526-.526-.526-.526.2355-.526.526.2355.526.526.526z"/><path d="m63.1256 32.8218c.2894 0 .524-.2346.524-.524s-.2346-.524-.524-.524-.524.2346-.524.524.2346.524.524.524z"/><path d="m68.5093 32.8132c.2883 0 .522-.2337.522-.522s-.2337-.522-.522-.522-.522.2337-.522.522.2337.522.522.522z"/><path d="m72.2021 32.8303c.2971 0 .538-.2409.538-.538 0-.2972-.2409-.538-.538-.538-.2972 0-.538.2408-.538.538 0 .2971.2408.538.538.538z"/><path d="m73.9849 32.8218c.2894 0 .524-.2346.524-.524s-.2346-.524-.524-.524-.524.2346-.524.524.2346.524.524.524z"/><path d="m75.7838 32.8258c.2905 0 .526-.2355.526-.526s-.2355-.526-.526-.526-.526.2355-.526.526.2355.526.526.526z"/><path d="m79.4637 32.8223c.2949 0 .534-.2391.534-.534s-.2391-.534-.534-.534-.534.2391-.534.534.2391.534.534.534z"/><path d="m30.4753 34.6502c.2927 0 .53-.2373.53-.53s-.2373-.53-.53-.53-.53.2373-.53.53.2373.53.53.53z"/><path d="m32.2602 34.6457c.2861 0 .518-.2319.518-.518 0-.286-.2319-.518-.518-.518s-.518.232-.518.518c0 .2861.2319.518.518.518z"/><path d="m34.0404 34.64c.3045.0148.5625-.202.5763-.4845.0138-.2824-.2218-.5234-.5263-.5383s-.5625.202-.5763.4844c-.0139.2824.2218.5235.5263.5384z"/><path d="m39.5418 34.6582c.2949 0 .534-.2391.534-.534s-.2391-.534-.534-.534-.534.2391-.534.534.2391.534.534.534z"/><path d="m43.1136 34.6337c.2827 0 .512-.2292.512-.512 0-.2827-.2293-.512-.512-.512-.2828 0-.512.2293-.512.512 0 .2828.2292.512.512.512z"/><path d="m46.7954 34.6537c.2883 0 .522-.2337.522-.522s-.2337-.522-.522-.522-.522.2337-.522.522.2337.522.522.522z"/><path d="m48.6023 34.6542c.2938 0 .532-.2382.532-.532s-.2382-.532-.532-.532-.532.2382-.532.532.2382.532.532.532z"/><path d="m50.3792 34.6533c.2828 0 .512-.2293.512-.512 0-.2828-.2292-.512-.512-.512s-.512.2292-.512.512c0 .2827.2292.512.512.512z"/><path d="m54.0591 34.6497c.2872 0 .52-.2328.52-.52 0-.2871-.2328-.52-.52-.52s-.52.2329-.52.52c0 .2872.2328.52.52.52z"/><path d="m61.3307 34.6617c.2905 0 .526-.2355.526-.526s-.2355-.526-.526-.526-.526.2355-.526.526.2355.526.526.526z"/><path d="m63.1176 34.6417c.2849 0 .516-.231.516-.516 0-.2849-.2311-.516-.516-.516-.285 0-.516.2311-.516.516 0 .285.231.516.516.516z"/><path d="m72.1901 34.6617c.2905 0 .526-.2355.526-.526s-.2355-.526-.526-.526-.526.2355-.526.526.2355.526.526.526z"/><path d="m79.4517 34.6537c.2883 0 .522-.2337.522-.522s-.2337-.522-.522-.522-.522.2337-.522.522.2337.522.522.522z"/><path d="m21.4008 34.6457c.2861 0 .518-.2319.518-.518 0-.286-.2319-.518-.518-.518s-.518.232-.518.518c0 .2861.2319.518.518.518z"/><path d="m75.8499 34.6377c.2839 0 .514-.2301.514-.514 0-.2838-.2301-.514-.514-.514-.2838 0-.514.2302-.514.514 0 .2839.2302.514.514.514z"/><path d="m24.9966 36.4661c.2872 0 .52-.2328.52-.52 0-.2871-.2328-.52-.52-.52s-.52.2329-.52.52c0 .2872.2328.52.52.52z"/><path d="m26.8194 36.4986c.3016 0 .546-.2444.546-.546 0-.3015-.2444-.546-.546-.546-.3015 0-.546.2445-.546.546 0 .3016.2445.546.546.546z"/><path d="m34.0811 36.4711c.2993 0 .542-.2427.542-.542 0-.2994-.2427-.542-.542-.542-.2994 0-.542.2426-.542.542 0 .2993.2426.542.542.542z"/><path d="m35.8819 36.4986c.3016 0 .546-.2444.546-.546 0-.3015-.2444-.546-.546-.546-.3015 0-.546.2445-.546.546 0 .3016.2445.546.546.546z"/><path d="m37.6628 36.4861c.2927 0 .53-.2372.53-.53 0-.2927-.2373-.53-.53-.53s-.53.2373-.53.53c0 .2928.2373.53.53.53z"/><path d="m41.3407 36.4786c.296 0 .536-.24.536-.536s-.24-.536-.536-.536-.536.24-.536.536.24.536.536.536z"/><path d="m44.9404 36.4906c.2994 0 .542-.2426.542-.542 0-.2993-.2426-.542-.542-.542-.2993 0-.542.2427-.542.542 0 .2994.2427.542.542.542z"/><path d="m46.7353 36.4866c.2982 0 .54-.2418.54-.54s-.2418-.54-.54-.54-.54.2418-.54.54.2418.54.54.54z"/><path d="m52.2161 36.4911c.3048 0 .552-.2472.552-.552 0-.3049-.2472-.552-.552-.552-.3049 0-.552.2471-.552.552 0 .3048.2471.552.552.552z"/><path d="m64.9384 36.4866c.2983 0 .54-.2418.54-.54s-.2417-.54-.54-.54c-.2982 0-.54.2418-.54.54s.2418.54.54.54z"/><path d="m66.7313 36.4786c.296 0 .536-.24.536-.536s-.24-.536-.536-.536-.536.24-.536.536.24.536.536.536z"/><path d="m68.5202 36.4821c.2916 0 .528-.2363.528-.528 0-.2916-.2364-.528-.528-.528s-.528.2364-.528.528c0 .2917.2364.528.528.528z"/><path d="m72.2041 36.4866c.2982 0 .54-.2417.54-.54 0-.2982-.2418-.54-.54-.54-.2983 0-.54.2418-.54.54 0 .2983.2417.54.54.54z"/><path d="m21.3447 38.2835c.2982 0 .54-.2418.54-.54s-.2418-.54-.54-.54-.54.2418-.54.54.2418.54.54.54z"/><path d="m24.9986 38.267c.2883 0 .522-.2337.522-.522s-.2337-.522-.522-.522-.522.2337-.522.522.2337.522.522.522z"/><path d="m26.8234 38.3035c.3038 0 .55-.2463.55-.55 0-.3038-.2462-.55-.55-.55-.3037 0-.55.2462-.55.55 0 .3037.2463.55.55.55z"/><path d="m28.6103 38.2835c.2982 0 .54-.2418.54-.54s-.2418-.54-.54-.54-.54.2418-.54.54.2418.54.54.54z"/><path d="m32.2702 38.279c.2916 0 .528-.2364.528-.528s-.2364-.528-.528-.528-.528.2364-.528.528.2364.528.528.528z"/><path d="m37.6608 38.279c.2916 0 .528-.2364.528-.528s-.2364-.528-.528-.528-.528.2364-.528.528.2364.528.528.528z"/><path d="m43.1336 38.287c.2938 0 .532-.2382.532-.532s-.2382-.532-.532-.532c-.2939 0-.532.2382-.532.532s.2381.532.532.532z"/><path d="m46.7353 38.2835c.2982 0 .54-.2418.54-.54s-.2418-.54-.54-.54-.54.2418-.54.54.2418.54.54.54z"/><path d="m48.5402 38.2995c.3026 0 .548-.2454.548-.548 0-.3027-.2454-.548-.548-.548-.3027 0-.548.2453-.548.548 0 .3026.2453.548.548.548z"/><path d="m52.2161 38.3075c.3048 0 .552-.2471.552-.552s-.2472-.552-.552-.552c-.3049 0-.552.2471-.552.552s.2471.552.552.552z"/><path d="m55.8719 38.2755c.2961 0 .536-.24.536-.536s-.2399-.536-.536-.536c-.296 0-.536.24-.536.536s.24.536.536.536z"/><path d="m57.6628 38.283c.2927 0 .53-.2373.53-.53s-.2373-.53-.53-.53-.53.2373-.53.53.2373.53.53.53z"/><path d="m59.4717 38.2875c.2993 0 .542-.2427.542-.542s-.2427-.542-.542-.542c-.2994 0-.542.2427-.542.542s.2426.542.542.542z"/><path d="m61.2646 38.2795c.2971 0 .538-.2409.538-.538s-.2409-.538-.538-.538c-.2972 0-.538.2409-.538.538s.2408.538.538.538z"/><path d="m63.1316 38.283c.2927 0 .53-.2373.53-.53s-.2373-.53-.53-.53-.53.2373-.53.53.2373.53.53.53z"/><path d="m79.3896 38.2795c.2971 0 .538-.2409.538-.538s-.2409-.538-.538-.538c-.2972 0-.538.2409-.538.538s.2408.538.538.538z"/><path d="m21.4188 40.0919c.296 0 .536-.24.536-.536s-.24-.536-.536-.536-.536.24-.536.536.24.536.536.536z"/><path d="m23.1516 40.1199c.3037 0 .55-.2462.55-.55s-.2463-.55-.55-.55c-.3038 0-.55.2462-.55.55s.2462.55.55.55z"/><path d="m26.8174 40.1079c.3005 0 .544-.2436.544-.544s-.2435-.544-.544-.544c-.3004 0-.544.2436-.544.544s.2436.544.544.544z"/><path d="m28.5983 40.0954c.2916 0 .528-.2364.528-.528s-.2364-.528-.528-.528-.528.2364-.528.528.2364.528.528.528z"/><path d="m30.4072 40.0999c.2982 0 .54-.2418.54-.54s-.2418-.54-.54-.54-.54.2418-.54.54.2418.54.54.54z"/><path d="m34.0711 40.1034c.2938 0 .532-.2382.532-.532s-.2382-.532-.532-.532c-.2939 0-.532.2382-.532.532s.2381.532.532.532z"/><path d="m35.8739 40.0959c.2972 0 .538-.2409.538-.538s-.2408-.538-.538-.538c-.2971 0-.538.2409-.538.538s.2409.538.538.538z"/><path d="m41.3387 40.1074c.2949 0 .534-.2391.534-.534s-.2391-.534-.534-.534-.534.2391-.534.534.2391.534.534.534z"/><path d="m44.9384 40.0999c.2983 0 .54-.2418.54-.54s-.2417-.54-.54-.54c-.2982 0-.54.2418-.54.54s.2418.54.54.54z"/><path d="m46.8034 40.0799c.2928 0 .53-.2373.53-.53s-.2372-.53-.53-.53c-.2927 0-.53.2373-.53.53s.2373.53.53.53z"/><path d="m48.6103 40.0999c.2982 0 .54-.2418.54-.54s-.2418-.54-.54-.54-.54.2418-.54.54.2418.54.54.54z"/><path d="m50.3872 40.0794c.2872 0 .52-.2328.52-.52s-.2328-.52-.52-.52-.52.2328-.52.52.2328.52.52.52z"/><path d="m53.9929 40.0839c.2939 0 .532-.2382.532-.532s-.2381-.532-.532-.532c-.2938 0-.532.2382-.532.532s.2382.532.532.532z"/><path d="m55.8639 40.0954c.2916 0 .528-.2364.528-.528s-.2364-.528-.528-.528-.528.2364-.528.528.2364.528.528.528z"/><path d="m57.6568 40.0874c.2894 0 .524-.2346.524-.524s-.2346-.524-.524-.524-.524.2346-.524.524.2346.524.524.524z"/><path d="m61.2486 40.0832c.2894 0 .524-.2346.524-.524s-.2346-.524-.524-.524-.524.2346-.524.524.2346.524.524.524z"/><path d="m68.5943 40.0874c.2894 0 .524-.2346.524-.524s-.2346-.524-.524-.524-.524.2346-.524.524.2346.524.524.524z"/><path d="m70.4072 40.0999c.2982 0 .54-.2418.54-.54s-.2418-.54-.54-.54-.54.2418-.54.54.2418.54.54.54z"/><path d="m72.1981 40.0879c.2949 0 .534-.2391.534-.534s-.2391-.534-.534-.534c-.295 0-.534.2391-.534.534s.239.534.534.534z"/><path d="m24.9926 41.8878c.2849 0 .516-.231.516-.516 0-.2849-.2311-.516-.516-.516-.285 0-.516.2311-.516.516 0 .285.231.516.516.516z"/><path d="m32.2662 41.8843c.2894 0 .524-.2346.524-.524s-.2346-.524-.524-.524-.524.2346-.524.524.2346.524.524.524z"/><path d="m43.1196 41.8918c.286 0 .518-.2319.518-.518 0-.286-.232-.518-.518-.518-.2861 0-.518.232-.518.518 0 .2861.2319.518.518.518z"/><path d="m52.2061 41.9008c.2993 0 .542-.2427.542-.542 0-.2994-.2427-.542-.542-.542-.2994 0-.542.2426-.542.542 0 .2993.2426.542.542.542z"/><path d="m21.3307 41.8971c.2916 0 .528-.2364.528-.528s-.2364-.528-.528-.528-.528.2364-.528.528.2364.528.528.528z"/><path d="m23.1376 41.8888c.296 0 .536-.24.536-.536 0-.2961-.24-.536-.536-.536-.2961 0-.536.2399-.536.536 0 .296.2399.536.536.536z"/><path d="m35.8759 41.8968c.2983 0 .54-.2418.54-.54 0-.2983-.2417-.54-.54-.54-.2982 0-.54.2417-.54.54 0 .2982.2418.54.54.54z"/><path d="m37.7309 41.8763c.2872 0 .52-.2328.52-.52s-.2328-.52-.52-.52-.52.2328-.52.52.2328.52.52.52z"/><path d="m39.5438 41.9083c.296 0 .536-.24.536-.536s-.24-.536-.536-.536-.536.24-.536.536.24.536.536.536z"/><path d="m41.3307 41.8883c.2905 0 .526-.2355.526-.526s-.2355-.526-.526-.526-.526.2355-.526.526.2355.526.526.526z"/><path d="m48.5963 41.8883c.2905 0 .526-.2355.526-.526s-.2355-.526-.526-.526-.526.2355-.526.526.2355.526.526.526z"/><path d="m57.6528 41.8763c.2872 0 .52-.2328.52-.52s-.2328-.52-.52-.52-.52.2328-.52.52.2328.52.52.52z"/><path d="m64.9304 41.9003c.2939 0 .532-.2382.532-.532s-.2381-.532-.532-.532c-.2938 0-.532.2382-.532.532s.2382.532.532.532z"/><path d="m68.5883 41.8723c.2861 0 .518-.2319.518-.518s-.2319-.518-.518-.518-.518.2319-.518.518.2319.518.518.518z"/><path d="m70.3932 41.8883c.2905 0 .526-.2355.526-.526s-.2355-.526-.526-.526-.526.2355-.526.526.2355.526.526.526z"/><path d="m73.9689 41.8718c.2806 0 .508-.2274.508-.508 0-.2805-.2274-.508-.508-.508-.2805 0-.508.2275-.508.508 0 .2806.2275.508.508.508z"/><path d="m21.3467 43.7367c.2993 0 .542-.2427.542-.542s-.2427-.542-.542-.542c-.2994 0-.542.2427-.542.542s.2426.542.542.542z"/><path d="m26.8254 43.7567c.3049 0 .552-.2471.552-.552 0-.3048-.2471-.552-.552-.552-.3048 0-.552.2472-.552.552 0 .3049.2472.552.552.552z"/><path d="m28.6043 43.7402c.2949 0 .534-.239.534-.534 0-.2949-.2391-.534-.534-.534s-.534.2391-.534.534c0 .295.2391.534.534.534z"/><path d="m35.8799 43.7407c.3005 0 .544-.2435.544-.544 0-.3004-.2435-.544-.544-.544-.3004 0-.544.2436-.544.544 0 .3005.2436.544.544.544z"/><path d="m41.3447 43.7327c.2982 0 .54-.2418.54-.54s-.2418-.54-.54-.54-.54.2418-.54.54.2418.54.54.54z"/><path d="m43.1356 43.7207c.2949 0 .534-.2391.534-.534s-.2391-.534-.534-.534c-.295 0-.534.2391-.534.534s.239.534.534.534z"/><path d="m50.3932 43.7242c.2905 0 .526-.2355.526-.526s-.2355-.526-.526-.526-.526.2355-.526.526.2355.526.526.526z"/><path d="m54.0069 43.7447c.3016 0 .546-.2444.546-.546 0-.3015-.2444-.546-.546-.546-.3015 0-.546.2445-.546.546 0 .3016.2445.546.546.546z"/><path d="m57.6608 43.7282c.2916 0 .528-.2364.528-.528s-.2364-.528-.528-.528-.528.2364-.528.528.2364.528.528.528z"/><path d="m63.1256 43.7202c.2894 0 .524-.2346.524-.524s-.2346-.524-.524-.524-.524.2346-.524.524.2346.524.524.524z"/><path d="m64.9404 43.7367c.2994 0 .542-.2427.542-.542s-.2426-.542-.542-.542c-.2993 0-.542.2427-.542.542s.2427.542.542.542z"/><path d="m66.7393 43.7407c.3005 0 .544-.2435.544-.544 0-.3004-.2435-.544-.544-.544-.3004 0-.544.2436-.544.544 0 .3005.2436.544.544.544z"/><path d="m70.4092 43.7367c.2993 0 .542-.2427.542-.542s-.2427-.542-.542-.542c-.2994 0-.542.2427-.542.542s.2426.542.542.542z"/><path d="m77.6027 43.7487c.3026 0 .548-.2453.548-.548 0-.3026-.2454-.548-.548-.548-.3027 0-.548.2454-.548.548 0 .3027.2453.548.548.548z"/><path d="m46.7994 43.7242c.2905 0 .526-.2355.526-.526s-.2355-.526-.526-.526-.526.2355-.526.526.2355.526.526.526z"/><path d="m23.1536 45.5341c.3048 0 .552-.2472.552-.552 0-.3049-.2472-.552-.552-.552-.3049 0-.552.2471-.552.552 0 .3048.2471.552.552.552z"/><path d="m26.8174 45.5181c.3005 0 .544-.2436.544-.544 0-.3005-.2435-.544-.544-.544-.3004 0-.544.2435-.544.544 0 .3004.2436.544.544.544z"/><path d="m28.6083 45.5256c.2971 0 .538-.2409.538-.538s-.2409-.538-.538-.538-.538.2409-.538.538.2409.538.538.538z"/><path d="m30.4072 45.5296c.2982 0 .54-.2418.54-.54s-.2418-.54-.54-.54-.54.2418-.54.54.2418.54.54.54z"/><path d="m32.2642 45.5131c.2883 0 .522-.2337.522-.522s-.2337-.522-.522-.522-.522.2337-.522.522.2337.522.522.522z"/><path d="m34.0731 45.5176c.2949 0 .534-.2391.534-.534s-.2391-.534-.534-.534c-.295 0-.534.2391-.534.534s.239.534.534.534z"/><path d="m39.5478 45.5296c.2982 0 .54-.2418.54-.54s-.2418-.54-.54-.54-.54.2418-.54.54.2418.54.54.54z"/><path d="m43.1296 45.5056c.2916 0 .528-.2364.528-.528s-.2364-.528-.528-.528-.528.2364-.528.528.2364.528.528.528z"/><path d="m44.9364 45.5256c.2972 0 .538-.2409.538-.538s-.2408-.538-.538-.538c-.2971 0-.538.2409-.538.538s.2409.538.538.538z"/><path d="m52.2181 45.5381c.3059 0 .554-.2481.554-.554 0-.306-.2481-.554-.554-.554-.306 0-.554.248-.554.554 0 .3059.248.554.554.554z"/><path d="m53.9949 45.5176c.295 0 .534-.2391.534-.534s-.239-.534-.534-.534c-.2949 0-.534.2391-.534.534s.2391.534.534.534z"/><path d="m55.8679 45.5136c.2939 0 .532-.2382.532-.532s-.2381-.532-.532-.532c-.2938 0-.532.2382-.532.532s.2382.532.532.532z"/><path d="m59.4657 45.5216c.296 0 .536-.24.536-.536s-.24-.536-.536-.536-.536.24-.536.536.24.536.536.536z"/><path d="m64.9384 45.5296c.2983 0 .54-.2418.54-.54s-.2417-.54-.54-.54c-.2982 0-.54.2418-.54.54s.2418.54.54.54z"/><path d="m66.7353 45.5296c.2982 0 .54-.2418.54-.54s-.2418-.54-.54-.54-.54.2418-.54.54.2418.54.54.54z"/><path d="m68.5202 45.5056c.2916 0 .528-.2364.528-.528s-.2364-.528-.528-.528-.528.2364-.528.528.2364.528.528.528z"/><path d="m70.4012 45.5176c.2949 0 .534-.2391.534-.534s-.2391-.534-.534-.534-.534.2391-.534.534.2391.534.534.534z"/><path d="m73.9809 45.5091c.2872 0 .52-.2328.52-.52s-.2328-.52-.52-.52-.52.2328-.52.52.2328.52.52.52z"/><path d="m23.1416 47.346c.2982 0 .54-.2418.54-.54s-.2418-.54-.54-.54c-.2983 0-.54.2418-.54.54s.2417.54.54.54z"/><path d="m24.9946 47.3411c.286 0 .518-.232.518-.518 0-.2861-.232-.518-.518-.518-.2861 0-.518.2319-.518.518 0 .286.2319.518.518.518z"/><path d="m30.4012 47.3535c.2949 0 .534-.2391.534-.534s-.2391-.534-.534-.534-.534.2391-.534.534.2391.534.534.534z"/><path d="m37.7289 47.3215c.2861 0 .518-.2319.518-.518s-.2319-.518-.518-.518c-.286 0-.518.2319-.518.518s.232.518.518.518z"/><path d="m48.6023 47.3495c.2938 0 .532-.2382.532-.532s-.2382-.532-.532-.532-.532.2382-.532.532.2382.532.532.532z"/><path d="m50.3832 47.3371c.285 0 .516-.2311.516-.516 0-.285-.231-.516-.516-.516s-.516.231-.516.516c0 .2849.231.516.516.516z"/><path d="m52.2001 47.338c.296 0 .536-.24.536-.536s-.24-.536-.536-.536c-.2961 0-.536.24-.536.536s.2399.536.536.536z"/><path d="m57.6568 47.3531c.2894 0 .524-.2347.524-.524 0-.2894-.2346-.524-.524-.524s-.524.2346-.524.524c0 .2893.2346.524.524.524z"/><path d="m59.4597 47.3455c.2927 0 .53-.2373.53-.53s-.2373-.53-.53-.53-.53.2373-.53.53.2373.53.53.53z"/><path d="m68.5903 47.3255c.2872 0 .52-.2328.52-.52s-.2328-.52-.52-.52-.52.2328-.52.52.2328.52.52.52z"/><path d="m77.6628 47.3455c.2927 0 .53-.2373.53-.53s-.2373-.53-.53-.53-.53.2373-.53.53.2373.53.53.53z"/><path d="m21.3427 49.1584c.2971 0 .538-.2409.538-.538s-.2409-.538-.538-.538-.538.2409-.538.538.2409.538.538.538z"/><path d="m23.1456 49.1704c.3004 0 .544-.2436.544-.544s-.2436-.544-.544-.544c-.3005 0-.544.2436-.544.544s.2435.544.544.544z"/><path d="m24.9926 49.1535c.2849 0 .516-.2311.516-.516 0-.285-.2311-.516-.516-.516-.285 0-.516.231-.516.516 0 .2849.231.516.516.516z"/><path d="m28.5954 49.1589c.2927 0 .53-.2373.53-.53s-.2373-.53-.53-.53-.53.2373-.53.53.2373.53.53.53z"/><path d="m32.2722 49.1619c.2927 0 .53-.2373.53-.53s-.2373-.53-.53-.53-.53.2373-.53.53.2373.53.53.53z"/><path d="m34.0751 49.1739c.296 0 .536-.2399.536-.536 0-.296-.24-.536-.536-.536-.2961 0-.536.24-.536.536 0 .2961.2399.536.536.536z"/><path d="m35.8779 49.1664c.2994 0 .542-.2427.542-.542s-.2426-.542-.542-.542c-.2993 0-.542.2427-.542.542s.2427.542.542.542z"/><path d="m43.1196 49.1575c.286 0 .518-.232.518-.518 0-.2861-.232-.518-.518-.518-.2861 0-.518.2319-.518.518 0 .286.2319.518.518.518z"/><path d="m48.6103 49.1819c.2982 0 .54-.2417.54-.54 0-.2982-.2418-.54-.54-.54s-.54.2418-.54.54c0 .2983.2418.54.54.54z"/><path d="m57.6608 49.1579c.2916 0 .528-.2364.528-.528s-.2364-.528-.528-.528-.528.2364-.528.528.2364.528.528.528z"/><path d="m59.4657 49.1544c.296 0 .536-.24.536-.536s-.24-.536-.536-.536-.536.24-.536.536.24.536.536.536z"/><path d="m63.1256 49.1499c.2894 0 .524-.2346.524-.524s-.2346-.524-.524-.524-.524.2346-.524.524.2346.524.524.524z"/><path d="m64.9384 49.1624c.2983 0 .54-.2418.54-.54s-.2417-.54-.54-.54c-.2982 0-.54.2418-.54.54s.2418.54.54.54z"/><path d="m72.1981 49.1699c.2949 0 .534-.2391.534-.534s-.2391-.534-.534-.534c-.295 0-.534.2391-.534.534s.239.534.534.534z"/><path d="m73.9769 49.1535c.285 0 .516-.2311.516-.516 0-.285-.231-.516-.516-.516-.2849 0-.516.231-.516.516 0 .2849.2311.516.516.516z"/><path d="m79.4617 49.1659c.2938 0 .532-.2382.532-.532s-.2382-.532-.532-.532-.532.2382-.532.532.2382.532.532.532z"/><path d="m21.3467 50.9633c.2993 0 .542-.2427.542-.542 0-.2994-.2427-.542-.542-.542-.2994 0-.542.2426-.542.542 0 .2993.2426.542.542.542z"/><path d="m30.4112 50.9673c.3004 0 .544-.2436.544-.544 0-.3005-.2436-.544-.544-.544-.3005 0-.544.2435-.544.544 0 .3004.2435.544.544.544z"/><path d="m34.0771 50.9748c.2971 0 .538-.2409.538-.538s-.2409-.538-.538-.538c-.2972 0-.538.2409-.538.538s.2408.538.538.538z"/><path d="m35.8859 50.9793c.3038 0 .55-.2463.55-.55 0-.3038-.2462-.55-.55-.55-.3037 0-.55.2462-.55.55 0 .3037.2463.55.55.55z"/><path d="m37.6648 50.9628c.2938 0 .532-.2382.532-.532s-.2382-.532-.532-.532-.532.2382-.532.532.2382.532.532.532z"/><path d="m41.3467 50.9828c.2993 0 .542-.2427.542-.542s-.2427-.542-.542-.542c-.2994 0-.542.2427-.542.542s.2426.542.542.542z"/><path d="m46.7333 50.9748c.2971 0 .538-.2409.538-.538s-.2409-.538-.538-.538-.538.2409-.538.538.2409.538.538.538z"/><path d="m48.5362 50.9673c.3004 0 .544-.2436.544-.544 0-.3005-.2436-.544-.544-.544-.3005 0-.544.2435-.544.544 0 .3004.2435.544.544.544z"/><path d="m50.3892 50.9623c.2883 0 .522-.2337.522-.522s-.2337-.522-.522-.522-.522.2337-.522.522.2337.522.522.522z"/><path d="m52.2141 50.9793c.3037 0 .55-.2463.55-.55 0-.3038-.2463-.55-.55-.55-.3038 0-.55.2462-.55.55 0 .3037.2462.55.55.55z"/><path d="m53.9989 50.9748c.2972 0 .538-.2409.538-.538s-.2408-.538-.538-.538c-.2971 0-.538.2409-.538.538s.2409.538.538.538z"/><path d="m55.8659 50.9588c.2927 0 .53-.2373.53-.53s-.2373-.53-.53-.53-.53.2373-.53.53.2373.53.53.53z"/><path d="m57.6648 50.9628c.2938 0 .532-.2382.532-.532s-.2382-.532-.532-.532-.532.2382-.532.532.2382.532.532.532z"/><path d="m59.4717 50.9633c.2993 0 .542-.2427.542-.542 0-.2994-.2427-.542-.542-.542-.2994 0-.542.2426-.542.542 0 .2993.2426.542.542.542z"/><path d="m63.1296 50.9548c.2916 0 .528-.2364.528-.528s-.2364-.528-.528-.528-.528.2364-.528.528.2364.528.528.528z"/><path d="m68.5182 50.9508c.2905 0 .526-.2355.526-.526s-.2355-.526-.526-.526-.526.2355-.526.526.2355.526.526.526z"/><path d="m79.4637 50.9668c.2949 0 .534-.2391.534-.534s-.2391-.534-.534-.534-.534.2391-.534.534.2391.534.534.534z"/><path d="m21.3467 52.7992c.2993 0 .542-.2427.542-.542s-.2427-.542-.542-.542c-.2994 0-.542.2427-.542.542s.2426.542.542.542z"/><path d="m23.1536 52.8192c.3048 0 .552-.2471.552-.552 0-.3048-.2472-.552-.552-.552-.3049 0-.552.2472-.552.552 0 .3049.2471.552.552.552z"/><path d="m24.9986 52.7787c.2883 0 .522-.2337.522-.522s-.2337-.522-.522-.522-.522.2337-.522.522.2337.522.522.522z"/><path d="m26.8194 52.8072c.3016 0 .546-.2444.546-.546 0-.3015-.2444-.546-.546-.546-.3015 0-.546.2445-.546.546 0 .3016.2445.546.546.546z"/><path d="m28.6103 52.7952c.2982 0 .54-.2418.54-.54s-.2418-.54-.54-.54-.54.2418-.54.54.2418.54.54.54z"/><path d="m30.4052 52.7912c.2971 0 .538-.2409.538-.538s-.2409-.538-.538-.538-.538.2409-.538.538.2409.538.538.538z"/><path d="m32.2682 52.7867c.2905 0 .526-.2355.526-.526s-.2355-.526-.526-.526-.526.2355-.526.526.2355.526.526.526z"/><path d="m37.6648 52.7792c.2938 0 .532-.2382.532-.532s-.2382-.532-.532-.532-.532.2382-.532.532.2382.532.532.532z"/><path d="m39.4817 52.7997c.3048 0 .552-.2472.552-.552 0-.3049-.2472-.552-.552-.552-.3049 0-.552.2471-.552.552 0 .3048.2471.552.552.552z"/><path d="m41.3467 52.7992c.2993 0 .542-.2427.542-.542s-.2427-.542-.542-.542c-.2994 0-.542.2427-.542.542s.2426.542.542.542z"/><path d="m43.1356 52.7832c.2949 0 .534-.2391.534-.534s-.2391-.534-.534-.534c-.295 0-.534.2391-.534.534s.239.534.534.534z"/><path d="m44.9404 52.7992c.2994 0 .542-.2427.542-.542s-.2426-.542-.542-.542c-.2993 0-.542.2427-.542.542s.2427.542.542.542z"/><path d="m48.6103 52.7952c.2982 0 .54-.2418.54-.54s-.2418-.54-.54-.54-.54.2418-.54.54.2418.54.54.54z"/><path d="m52.2101 52.8072c.3015 0 .546-.2444.546-.546 0-.3015-.2445-.546-.546-.546-.3016 0-.546.2445-.546.546 0 .3016.2444.546.546.546z"/><path d="m53.9949 52.7832c.295 0 .534-.2391.534-.534s-.239-.534-.534-.534c-.2949 0-.534.2391-.534.534s.2391.534.534.534z"/><path d="m55.8679 52.7987c.2939 0 .532-.2381.532-.532 0-.2938-.2381-.532-.532-.532-.2938 0-.532.2382-.532.532 0 .2939.2382.532.532.532z"/><path d="m61.2686 52.7992c.2993 0 .542-.2427.542-.542s-.2427-.542-.542-.542c-.2994 0-.542.2427-.542.542s.2426.542.542.542z"/><path d="m63.1376 52.7872c.296 0 .536-.24.536-.536s-.24-.536-.536-.536c-.2961 0-.536.24-.536.536s.2399.536.536.536z"/><path d="m64.9424 52.8032c.3005 0 .544-.2435.544-.544 0-.3004-.2435-.544-.544-.544-.3004 0-.544.2436-.544.544 0 .3005.2436.544.544.544z"/><path d="m75.7838 52.7672c.2905 0 .526-.2355.526-.526s-.2355-.526-.526-.526-.526.2355-.526.526.2355.526.526.526z"/><path d="m50.3752 54.5671c.2805 0 .508-.2274.508-.508 0-.2805-.2275-.508-.508-.508-.2806 0-.508.2275-.508.508 0 .2806.2274.508.508.508z"/><path d="m79.4517 54.5756c.2883 0 .522-.2337.522-.522s-.2337-.522-.522-.522-.522.2337-.522.522.2337.522.522.522z"/><path d="m21.3307 54.5836c.2905 0 .526-.2355.526-.526s-.2355-.526-.526-.526-.526.2355-.526.526.2355.526.526.526z"/><path d="m23.1376 54.5841c.296 0 .536-.24.536-.536s-.24-.536-.536-.536c-.2961 0-.536.24-.536.536s.2399.536.536.536z"/><path d="m24.9806 54.5591c.2783 0 .504-.2256.504-.504 0-.2783-.2257-.504-.504-.504-.2784 0-.504.2257-.504.504 0 .2784.2256.504.504.504z"/><path d="m35.8699 54.5801c.295 0 .534-.2391.534-.534s-.239-.534-.534-.534c-.2949 0-.534.2391-.534.534s.2391.534.534.534z"/><path d="m37.7309 54.5716c.2872 0 .52-.2328.52-.52s-.2328-.52-.52-.52-.52.2328-.52.52.2328.52.52.52z"/><path d="m57.6528 54.5911c.2872 0 .52-.2328.52-.52 0-.2871-.2328-.52-.52-.52s-.52.2329-.52.52c0 .2872.2328.52.52.52z"/><path d="m59.4537 54.5796c.2894 0 .524-.2346.524-.524s-.2346-.524-.524-.524-.524.2346-.524.524.2346.524.524.524z"/><path d="m63.1136 54.5751c.2827 0 .512-.2292.512-.512 0-.2827-.2293-.512-.512-.512-.2828 0-.512.2293-.512.512 0 .2828.2292.512.512.512z"/><path d="m66.7103 54.5651c.3068.0123.5646-.204.5758-.4833.0112-.2792-.2284-.5155-.5352-.5279-.3069-.0123-.5647.2041-.5759.4833s.2284.5156.5353.5279z"/><path d="m77.6588 54.5836c.2905 0 .526-.2355.526-.526s-.2355-.526-.526-.526-.526.2355-.526.526.2355.526.526.526z"/><path d="m32.2642 56.4311c.2883 0 .522-.2337.522-.522s-.2337-.522-.522-.522-.522.2337-.522.522.2337.522.522.522z"/><path d="m34.0671 56.4431c.2916 0 .528-.2364.528-.528s-.2364-.528-.528-.528-.528.2364-.528.528.2364.528.528.528z"/><path d="m35.8759 56.4476c.2983 0 .54-.2418.54-.54 0-.2983-.2417-.54-.54-.54-.2982 0-.54.2417-.54.54 0 .2982.2418.54.54.54z"/><path d="m37.7349 56.4351c.2894 0 .524-.2346.524-.524s-.2346-.524-.524-.524-.524.2346-.524.524.2346.524.524.524z"/><path d="m50.3812 56.4151c.2839 0 .514-.2301.514-.514s-.2301-.514-.514-.514-.514.2301-.514.514.2301.514.514.514z"/><path d="m64.9324 56.4356c.295 0 .534-.2391.534-.534 0-.295-.239-.534-.534-.534-.2949 0-.534.239-.534.534 0 .2949.2391.534.534.534z"/><path d="m77.5927 56.4436c.2971 0 .538-.2409.538-.538 0-.2972-.2409-.538-.538-.538s-.538.2408-.538.538c0 .2971.2409.538.538.538z"/><path d="m21.3367 56.4511c.2938 0 .532-.2382.532-.532s-.2382-.532-.532-.532-.532.2382-.532.532.2382.532.532.532z"/><path d="m23.1436 56.4516c.2993 0 .542-.2427.542-.542 0-.2994-.2427-.542-.542-.542-.2994 0-.542.2426-.542.542 0 .2993.2426.542.542.542z"/><path d="m41.3347 56.4471c.2927 0 .53-.2373.53-.53s-.2373-.53-.53-.53-.53.2373-.53.53.2373.53.53.53z"/><path d="m43.1216 56.4271c.2872 0 .52-.2328.52-.52s-.2328-.52-.52-.52-.52.2328-.52.52.2328.52.52.52z"/><path d="m54.0631 56.4351c.2894 0 .524-.2346.524-.524s-.2346-.524-.524-.524-.524.2346-.524.524.2346.524.524.524z"/><path d="m66.7293 56.4356c.2949 0 .534-.2391.534-.534 0-.295-.2391-.534-.534-.534s-.534.239-.534.534c0 .2949.2391.534.534.534z"/><path d="m68.5122 56.433c.2883 0 .522-.2337.522-.522s-.2337-.522-.522-.522-.522.2337-.522.522.2337.522.522.522z"/><path d="m70.4012 56.4356c.2949 0 .534-.2391.534-.534 0-.295-.2391-.534-.534-.534s-.534.239-.534.534c0 .2949.2391.534.534.534z"/><path d="m72.1961 56.4316c.2938 0 .532-.2382.532-.532 0-.2939-.2382-.532-.532-.532-.2939 0-.532.2381-.532.532 0 .2938.2381.532.532.532z"/><path d="m73.9829 56.4311c.2883 0 .522-.2337.522-.522s-.2337-.522-.522-.522-.522.2337-.522.522.2337.522.522.522z"/><path d="m75.7858 56.4431c.2916 0 .528-.2364.528-.528s-.2364-.528-.528-.528-.528.2364-.528.528.2364.528.528.528z"/><path d="m79.4617 56.4511c.2938 0 .532-.2382.532-.532s-.2382-.532-.532-.532-.532.2382-.532.532.2382.532.532.532z"/><path d="m35.8939 58.2414c.3082 0 .558-.2499.558-.558 0-.3082-.2498-.558-.558-.558-.3081 0-.558.2498-.558.558 0 .3081.2499.558.558.558z"/><path d="m43.1416 58.2444c.2982 0 .54-.2417.54-.54 0-.2982-.2418-.54-.54-.54-.2983 0-.54.2418-.54.54 0 .2983.2417.54.54.54z"/><path d="m49.8829 57.6979c-.0021.3093.2191.5616.4941.5635s.4997-.2472.5019-.5565-.219-.5616-.4941-.5635c-.275-.0019-.4997.2473-.5019.5565z"/><path d="m55.8739 58.2404c.2972 0 .538-.2408.538-.538 0-.2971-.2408-.538-.538-.538-.2971 0-.538.2409-.538.538 0 .2972.2409.538.538.538z"/><path d="m63.1316 58.2244c.2927 0 .53-.2373.53-.53s-.2373-.53-.53-.53-.53.2373-.53.53.2373.53.53.53z"/><path d="m73.9929 58.2284c.2939 0 .532-.2382.532-.532s-.2381-.532-.532-.532c-.2938 0-.532.2382-.532.532s.2382.532.532.532z"/><path d="m44.9384 58.2444c.2983 0 .54-.2417.54-.54 0-.2982-.2417-.54-.54-.54-.2982 0-.54.2418-.54.54 0 .2983.2418.54.54.54z"/><path d="m48.6183 58.2409c.3027 0 .548-.2453.548-.548s-.2453-.548-.548-.548c-.3026 0-.548.2453-.548.548s.2454.548.548.548z"/><path d="m53.9969 58.2364c.2961 0 .536-.2399.536-.536 0-.296-.2399-.536-.536-.536-.296 0-.536.24-.536.536 0 .2961.24.536.536.536z"/><path d="m57.6628 58.2244c.2927 0 .53-.2373.53-.53s-.2373-.53-.53-.53-.53.2373-.53.53.2373.53.53.53z"/><path d="m59.4737 58.2329c.3004 0 .544-.2436.544-.544s-.2436-.544-.544-.544c-.3005 0-.544.2436-.544.544s.2435.544.544.544z"/><path d="m64.9464 58.2409c.3027 0 .548-.2453.548-.548s-.2453-.548-.548-.548c-.3026 0-.548.2453-.548.548s.2454.548.548.548z"/><path d="m72.2061 58.2484c.2993 0 .542-.2426.542-.542 0-.2993-.2427-.542-.542-.542-.2994 0-.542.2427-.542.542 0 .2994.2426.542.542.542z"/><path d="m75.7978 58.2249c.2982 0 .54-.2418.54-.54s-.2418-.54-.54-.54-.54.2418-.54.54.2418.54.54.54z"/><path d="m33.1482 64.9768c0 .831-.1637 1.6539-.4817 2.4216-.318.7678-.7841 1.4654-1.3717 2.053-.5877.5876-1.2852 1.0537-2.053 1.3717-.7677.318-1.5906.4817-2.4216.4817-1.6783 0-3.2879-.6667-4.4746-1.8534-1.1867-1.1868-1.8534-2.7963-1.8534-4.4746s.6667-3.2878 1.8534-4.4746c1.1867-1.1867 2.7963-1.8534 4.4746-1.8534.831 0 1.6539.1637 2.4216.4817.7678.318 1.4653.7841 2.053 1.3717.5876.5876 1.0537 1.2852 1.3717 2.053.318.7677.4817 1.5906.4817 2.4216zm-1.832.002c0-.5909-.1164-1.1761-.3426-1.7221-.2261-.5459-.5576-1.042-.9754-1.4599-.4179-.4178-.914-.7493-1.4599-.9755-.546-.2261-1.1312-.3425-1.7221-.3425-.591 0-1.1761.1164-1.7221.3425-.546.2262-1.042.5577-1.4599.9755-.8439.8439-1.318 1.9885-1.318 3.182s.4741 2.3381 1.318 3.182c.4179.4178.9139.7493 1.4599.9755.546.2261 1.1311.3425 1.7221.3425.5909 0 1.1761-.1164 1.7221-.3425.5459-.2262 1.042-.5577 1.4599-.9755.4178-.4179.7493-.914.9754-1.4599.2262-.546.3426-1.1311.3426-1.7221z"/><path d="m37.7189 60.0359c.2806 0 .508-.2274.508-.508s-.2274-.508-.508-.508c-.2805 0-.508.2274-.508.508s.2275.508.508.508z"/><path d="m43.1176 60.0519c.2849 0 .516-.231.516-.516s-.2311-.516-.516-.516c-.285 0-.516.231-.516.516s.231.516.516.516z"/><path d="m44.9264 60.0564c.2916 0 .528-.2364.528-.528s-.2364-.528-.528-.528-.528.2364-.528.528.2364.528.528.528z"/><path d="m46.7193 60.0679c.2894 0 .524-.2346.524-.524s-.2346-.524-.524-.524-.524.2346-.524.524.2346.524.524.524z"/><path d="m50.3792 60.0439c.2828 0 .512-.2292.512-.512s-.2292-.512-.512-.512-.512.2292-.512.512.2292.512.512.512z"/><path d="m52.2021 60.0764c.2971 0 .538-.2409.538-.538 0-.2972-.2409-.538-.538-.538-.2972 0-.538.2408-.538.538 0 .2971.2408.538.538.538z"/><path d="m55.8459 60.0399c.2817 0 .51-.2283.51-.51s-.2283-.51-.51-.51c-.2816 0-.51.2283-.51.51s.2284.51.51.51z"/><path d="m61.3207 60.0519c.285 0 .516-.231.516-.516s-.231-.516-.516-.516-.516.231-.516.516.231.516.516.516z"/><path d="m64.9264 60.0759c.2916 0 .528-.2364.528-.528s-.2364-.528-.528-.528-.528.2364-.528.528.2364.528.528.528z"/><path d="m68.5823 60.0439c.2828 0 .512-.2292.512-.512s-.2292-.512-.512-.512-.512.2292-.512.512.2292.512.512.512z"/><path d="m72.1861 60.0639c.2883 0 .522-.2337.522-.522s-.2337-.522-.522-.522-.522.2337-.522.522.2337.522.522.522z"/><path d="m77.5827 60.0651c.2927 0 .53-.2373.53-.53s-.2373-.53-.53-.53-.53.2373-.53.53.2373.53.53.53z"/><path d="m43.1356 61.8848c.2949 0 .534-.2391.534-.534s-.2391-.534-.534-.534c-.295 0-.534.2391-.534.534s.239.534.534.534z"/><path d="m44.9424 61.8852c.3005 0 .544-.2435.544-.544 0-.3004-.2435-.544-.544-.544-.3004 0-.544.2436-.544.544 0 .3005.2436.544.544.544z"/><path d="m48.5382 61.8892c.3015 0 .546-.2444.546-.546 0-.3015-.2445-.546-.546-.546-.3016 0-.546.2445-.546.546 0 .3016.2444.546.546.546z"/><path d="m50.3892 61.8803c.2883 0 .522-.2337.522-.522s-.2337-.522-.522-.522-.522.2337-.522.522.2337.522.522.522z"/><path d="m54.0029 61.9008c.2994 0 .542-.2427.542-.542 0-.2994-.2426-.542-.542-.542-.2993 0-.542.2426-.542.542 0 .2993.2427.542.542.542z"/><path d="m64.9464 61.8932c.3027 0 .548-.2453.548-.548 0-.3026-.2453-.548-.548-.548-.3026 0-.548.2454-.548.548 0 .3027.2454.548.548.548z"/><path d="m72.2081 61.9048c.3004 0 .544-.2436.544-.544 0-.3005-.2436-.544-.544-.544-.3005 0-.544.2435-.544.544 0 .3004.2435.544.544.544z"/><path d="m75.7958 61.8928c.2971 0 .538-.2409.538-.538 0-.2972-.2409-.538-.538-.538s-.538.2408-.538.538c0 .2971.2409.538.538.538z"/><path d="m77.5987 61.9048c.3004 0 .544-.2436.544-.544 0-.3005-.2436-.544-.544-.544-.3005 0-.544.2435-.544.544 0 .3004.2435.544.544.544z"/><path d="m79.3976 61.8892c.3015 0 .546-.2444.546-.546 0-.3015-.2445-.546-.546-.546-.3016 0-.546.2445-.546.546 0 .3016.2444.546.546.546z"/><path d="m46.7313 61.8888c.296 0 .536-.24.536-.536 0-.2961-.24-.536-.536-.536s-.536.2399-.536.536c0 .296.24.536.536.536z"/><path d="m26.7819 67.6541c1.489 0 2.696-1.2071 2.696-2.696 0-1.489-1.207-2.696-2.696-2.696-1.4889 0-2.696 1.207-2.696 2.696 0 1.4889 1.2071 2.696 2.696 2.696z"/><path d="m43.1296 63.6696c.2916 0 .528-.2363.528-.5279 0-.2917-.2364-.5281-.528-.5281s-.528.2364-.528.5281c0 .2916.2364.5279.528.5279z"/><path d="m50.3912 63.6812c.2894 0 .524-.2346.524-.524s-.2346-.524-.524-.524-.524.2346-.524.524.2346.524.524.524z"/><path d="m64.9404 63.6977c.2994 0 .542-.2427.542-.5421 0-.2993-.2426-.542-.542-.542-.2993 0-.542.2427-.542.542 0 .2994.2427.5421.542.5421z"/><path d="m66.7333 63.6896c.2971 0 .538-.2408.538-.538 0-.2971-.2409-.538-.538-.538s-.538.2409-.538.538c0 .2972.2409.538.538.538z"/><path d="m72.2061 63.6976c.2993 0 .542-.2426.542-.542 0-.2993-.2427-.542-.542-.542-.2994 0-.542.2427-.542.542 0 .2994.2426.542.542.542z"/><path d="m73.9909 63.6932c.2927 0 .53-.2373.53-.53s-.2373-.53-.53-.53-.53.2373-.53.53.2373.53.53.53z"/><path d="m75.7938 63.7052c.296 0 .536-.24.536-.536s-.24-.536-.536-.536-.536.24-.536.536.24.536.536.536z"/><path d="m79.3896 63.6896c.2971 0 .538-.2408.538-.538 0-.2971-.2409-.538-.538-.538-.2972 0-.538.2409-.538.538 0 .2972.2408.538.538.538z"/><path d="m39.4717 63.7048c.3005 0 .544-.2435.544-.544 0-.3004-.2435-.544-.544-.544-.3004 0-.544.2436-.544.544 0 .3005.2436.544.544.544z"/><path d="m46.7293 63.6817c.2949 0 .534-.2391.534-.534 0-.295-.2391-.5341-.534-.5341s-.534.2391-.534.5341c0 .2949.2391.534.534.534z"/><path d="m53.9969 63.7052c.2961 0 .536-.24.536-.536s-.2399-.536-.536-.536c-.296 0-.536.24-.536.536s.24.536.536.536z"/><path d="m61.2606 63.7012c.2949 0 .534-.2391.534-.534s-.2391-.534-.534-.534c-.295 0-.534.2391-.534.534s.239.534.534.534z"/><path d="m63.1216 63.6927c.2872 0 .52-.2328.52-.52s-.2328-.52-.52-.52-.52.2328-.52.52.2328.52.52.52z"/><path d="m68.5222 63.6932c.2927 0 .53-.2373.53-.53s-.2373-.53-.53-.53-.53.2373-.53.53.2373.53.53.53z"/><path d="m70.4092 63.6977c.2993 0 .542-.2427.542-.542 0-.2994-.2427-.5421-.542-.5421s-.542.2427-.542.5421c0 .2993.2427.542.542.542z"/><path d="m35.8699 65.5176c.295 0 .534-.2391.534-.534s-.239-.534-.534-.534c-.2949 0-.534.2391-.534.534s.2391.534.534.534z"/><path d="m41.3247 65.5091c.2872 0 .52-.2328.52-.52s-.2328-.52-.52-.52-.52.2328-.52.52.2328.52.52.52z"/><path d="m45.0046 65.5056c.2916 0 .528-.2364.528-.528s-.2364-.528-.528-.528-.528.2364-.528.528.2364.528.528.528z"/><path d="m48.6023 65.5136c.2938 0 .532-.2382.532-.532s-.2382-.532-.532-.532-.532.2382-.532.532.2382.532.532.532z"/><path d="m50.3832 65.5011c.285 0 .516-.231.516-.516s-.231-.516-.516-.516-.516.231-.516.516.231.516.516.516z"/><path d="m52.2021 65.5256c.2971 0 .538-.2409.538-.538s-.2409-.538-.538-.538c-.2972 0-.538.2409-.538.538s.2408.538.538.538z"/><path d="m57.6508 65.5051c.2861 0 .518-.2319.518-.518s-.2319-.518-.518-.518-.518.2319-.518.518.2319.518.518.518z"/><path d="m59.4597 65.5096c.2927 0 .53-.2373.53-.53s-.2373-.53-.53-.53-.53.2373-.53.53.2373.53.53.53z"/><path d="m61.3267 65.4936c.2883 0 .522-.2337.522-.522s-.2337-.522-.522-.522-.522.2337-.522.522.2337.522.522.522z"/><path d="m72.1881 65.4976c.2894 0 .524-.2346.524-.524s-.2346-.524-.524-.524-.524.2346-.524.524.2346.524.524.524z"/><path d="m39.4885 65.488c.3105.025.5804-.1815.6029-.4611.0225-.2797-.2109-.5266-.5214-.5516s-.5804.1815-.6029.4611c-.0225.2797.2109.5266.5214.5516z"/><path d="m46.7914 65.5051c.2861 0 .518-.2319.518-.518s-.2319-.518-.518-.518c-.286 0-.518.2319-.518.518s.232.518.518.518z"/><path d="m68.5823 65.4931c.2828 0 .512-.2292.512-.512 0-.2827-.2292-.512-.512-.512s-.512.2293-.512.512c0 .2828.2292.512.512.512z"/><path d="m37.6668 67.334c.2949 0 .534-.2391.534-.534s-.2391-.534-.534-.534-.534.2391-.534.534.2391.534.534.534z"/><path d="m39.4797 67.3465c.3037 0 .55-.2463.55-.55 0-.3038-.2463-.55-.55-.55-.3038 0-.55.2462-.55.55 0 .3037.2462.55.55.55z"/><path d="m50.3912 67.314c.2894 0 .524-.2346.524-.524s-.2346-.524-.524-.524-.524.2346-.524.524.2346.524.524.524z"/><path d="m52.2121 67.3425c.3026 0 .548-.2454.548-.548 0-.3027-.2454-.548-.548-.548-.3027 0-.548.2453-.548.548 0 .3026.2453.548.548.548z"/><path d="m53.9989 67.3225c.2972 0 .538-.2409.538-.538 0-.2972-.2408-.538-.538-.538-.2971 0-.538.2408-.538.538 0 .2971.2409.538.538.538z"/><path d="m66.7433 67.3425c.3027 0 .548-.2454.548-.548 0-.3027-.2453-.548-.548-.548-.3026 0-.548.2453-.548.548 0 .3026.2454.548.548.548z"/><path d="m73.9869 67.318c.2905 0 .526-.2355.526-.526s-.2355-.526-.526-.526-.526.2355-.526.526.2355.526.526.526z"/><path d="m77.5987 67.3345c.3004 0 .544-.2436.544-.544 0-.3005-.2436-.544-.544-.544-.3005 0-.544.2435-.544.544 0 .3004.2435.544.544.544z"/><path d="m79.3867 67.3288c.2982 0 .54-.2418.54-.54 0-.2983-.2418-.54-.54-.54-.2983 0-.54.2417-.54.54 0 .2982.2417.54.54.54z"/><path d="m46.7293 67.334c.2949 0 .534-.2391.534-.534s-.2391-.534-.534-.534-.534.2391-.534.534.2391.534.534.534z"/><path d="m53.9929 69.1464c.2939 0 .532-.2382.532-.532s-.2381-.532-.532-.532c-.2938 0-.532.2382-.532.532s.2382.532.532.532z"/><path d="m55.8679 69.1464c.2939 0 .532-.2382.532-.532s-.2381-.532-.532-.532c-.2938 0-.532.2382-.532.532s.2382.532.532.532z"/><path d="m57.6648 69.1464c.2938 0 .532-.2382.532-.532s-.2382-.532-.532-.532-.532.2382-.532.532.2382.532.532.532z"/><path d="m59.4637 69.1309c.2949 0 .534-.2391.534-.534 0-.295-.2391-.534-.534-.534s-.534.239-.534.534c0 .2949.2391.534.534.534z"/><path d="m64.9404 69.1469c.2994 0 .542-.2427.542-.542 0-.2994-.2426-.542-.542-.542-.2993 0-.542.2426-.542.542 0 .2993.2427.542.542.542z"/><path d="m66.7373 69.1469c.2993 0 .542-.2427.542-.542 0-.2994-.2427-.542-.542-.542s-.542.2426-.542.542c0 .2993.2427.542.542.542z"/><path d="m70.4012 69.1309c.2949 0 .534-.2391.534-.534 0-.295-.2391-.534-.534-.534s-.534.239-.534.534c0 .2949.2391.534.534.534z"/><path d="m77.5947 69.1429c.2982 0 .54-.2418.54-.54 0-.2983-.2418-.54-.54-.54s-.54.2417-.54.54c0 .2982.2418.54.54.54z"/><path d="m79.3936 69.1469c.2993 0 .542-.2427.542-.542 0-.2994-.2427-.542-.542-.542-.2994 0-.542.2426-.542.542 0 .2993.2426.542.542.542z"/><path d="m39.5558 69.1589c.3027 0 .548-.2454.548-.548 0-.3027-.2453-.548-.548-.548-.3026 0-.548.2453-.548.548 0 .3026.2454.548.548.548z"/><path d="m41.3367 69.1464c.2938 0 .532-.2382.532-.532s-.2382-.532-.532-.532-.532.2382-.532.532.2382.532.532.532z"/><path d="m44.9364 69.1584c.2972 0 .538-.2409.538-.538s-.2408-.538-.538-.538c-.2971 0-.538.2409-.538.538s.2409.538.538.538z"/><path d="m46.7994 69.1344c.2905 0 .526-.2355.526-.526s-.2355-.526-.526-.526-.526.2355-.526.526.2355.526.526.526z"/><path d="m52.2101 69.1549c.3015 0 .546-.2445.546-.546 0-.3016-.2445-.546-.546-.546-.3016 0-.546.2444-.546.546 0 .3015.2444.546.546.546z"/><path d="m61.2526 69.1372c.2905 0 .526-.2355.526-.526s-.2355-.526-.526-.526-.526.2355-.526.526.2355.526.526.526z"/><path d="m68.5222 69.1424c.2927 0 .53-.2373.53-.53s-.2373-.53-.53-.53-.53.2373-.53.53.2373.53.53.53z"/><path d="m55.8639 70.9353c.2916 0 .528-.2364.528-.528s-.2364-.528-.528-.528-.528.2364-.528.528.2364.528.528.528z"/><path d="m35.8759 70.9397c.2983 0 .54-.2417.54-.54 0-.2982-.2417-.54-.54-.54-.2982 0-.54.2418-.54.54 0 .2983.2418.54.54.54z"/><path d="m37.6539 70.929c.2905 0 .526-.2355.526-.526s-.2355-.526-.526-.526-.526.2355-.526.526.2355.526.526.526z"/><path d="m39.527 70.916c.3147-.0082.5637-.2503.5561-.5407-.0076-.2905-.2689-.5192-.5836-.5109-.3147.0082-.5636.2503-.556.5407s.2688.5191.5835.5109z"/><path d="m44.9364 70.9357c.2972 0 .538-.2408.538-.538 0-.2971-.2408-.538-.538-.538-.2971 0-.538.2409-.538.538 0 .2972.2409.538.538.538z"/><path d="m46.7273 70.9237c.2938 0 .532-.2381.532-.532 0-.2938-.2382-.532-.532-.532s-.532.2382-.532.532c0 .2939.2382.532.532.532z"/><path d="m59.4637 70.9277c.2949 0 .534-.239.534-.534 0-.2949-.2391-.534-.534-.534s-.534.2391-.534.534c0 .295.2391.534.534.534z"/><path d="m61.2626 70.9513c.296 0 .536-.24.536-.536s-.24-.536-.536-.536c-.2961 0-.536.24-.536.536s.2399.536.536.536z"/><path d="m63.1196 70.9153c.286 0 .518-.2319.518-.518s-.232-.518-.518-.518c-.2861 0-.518.2319-.518.518s.2319.518.518.518z"/><path d="m66.7393 70.9477c.3005 0 .544-.2435.544-.544 0-.3004-.2435-.544-.544-.544-.3004 0-.544.2436-.544.544 0 .3005.2436.544.544.544z"/><path d="m68.5262 70.9473c.2949 0 .534-.2391.534-.534 0-.295-.2391-.534-.534-.534s-.534.239-.534.534c0 .2949.2391.534.534.534z"/><path d="m75.7858 70.9353c.2916 0 .528-.2364.528-.528s-.2364-.528-.528-.528-.528.2364-.528.528.2364.528.528.528z"/><path d="m79.4677 70.9357c.2971 0 .538-.2408.538-.538 0-.2971-.2409-.538-.538-.538s-.538.2409-.538.538c0 .2972.2409.538.538.538z"/></g></g></g></svg>