<svg fill="none" height="36" viewBox="0 0 225 36" width="225" xmlns="http://www.w3.org/2000/svg" xmlns:xlink="http://www.w3.org/1999/xlink"><filter id="a" color-interpolation-filters="sRGB" filterUnits="userSpaceOnUse" height="55" width="245" x="-10" y="-9.5"><feFlood flood-opacity="0" result="BackgroundImageFix"/><feGaussianBlur in="BackgroundImageFix" stdDeviation="5"/><feComposite in2="SourceAlpha" operator="in" result="effect1_backgroundBlur_238_3265"/><feBlend in="SourceGraphic" in2="effect1_backgroundBlur_238_3265" mode="normal" result="shape"/></filter><clipPath id="b"><path d="m0 .5h225v35h-225z"/></clipPath><g clip-path="url(#b)" fill="#ff4b00" filter="url(#a)"><path d="m0 .5h12v35h-12z"/><path d="m35.6719.5h10.2483v46h-10.2483z" opacity=".84075"/><path d="m68.2822.5h8.64685v46h-8.64685z" opacity=".695168"/><path d="m97.8311.5h7.1958v46h-7.1958z" opacity=".563255"/><path d="m124.318.5h5.8951v46h-5.8951z" opacity=".44501"/><path d="m147.743.5h4.74476v46h-4.74476z" opacity=".340432"/><path d="m168.106.5h3.74476v46h-3.74476z" opacity=".249523"/><path d="m185.409.5h2.8951v46h-2.8951z" opacity=".172282"/><path d="m199.649.5h2.1958v46h-2.1958z" opacity=".108709"/><path d="m210.828.5h1.64685v46h-1.64685z" opacity=".058805"/><path d="m218.944.5h1.24825v46h-1.24825z" opacity=".022568"/></g></svg>