<svg fill="none" height="49" viewBox="0 0 818 49" width="818" xmlns="http://www.w3.org/2000/svg" xmlns:xlink="http://www.w3.org/1999/xlink"><filter id="a" color-interpolation-filters="sRGB" filterUnits="userSpaceOnUse" height="66" width="245" x="-10" y="-8.5"><feFlood flood-opacity="0" result="BackgroundImageFix"/><feGaussianBlur in="BackgroundImageFix" stdDeviation="5"/><feComposite in2="SourceAlpha" operator="in" result="effect1_backgroundBlur_481_15080"/><feBlend in="SourceGraphic" in2="effect1_backgroundBlur_481_15080" mode="normal" result="shape"/></filter><filter id="b" color-interpolation-filters="sRGB" filterUnits="userSpaceOnUse" height="66" width="245" x="583" y="-8.5"><feFlood flood-opacity="0" result="BackgroundImageFix"/><feGaussianBlur in="BackgroundImageFix" stdDeviation="5"/><feComposite in2="SourceAlpha" operator="in" result="effect1_backgroundBlur_481_15080"/><feBlend in="SourceGraphic" in2="effect1_backgroundBlur_481_15080" mode="normal" result="shape"/></filter><clipPath id="c"><path d="m0 0h818v49h-818z"/></clipPath><clipPath id="d"><path d="m0 0h225v46h-225z" transform="matrix(-1 0 0 1 225 1.5)"/></clipPath><clipPath id="e"><path d="m265 0h288v49h-288z"/></clipPath><clipPath id="f"><path d="m593 1.5h225v46h-225z"/></clipPath><g clip-path="url(#c)"><g clip-path="url(#d)" fill="#fff" filter="url(#a)"><path d="m0 0h10.2483v46h-10.2483z" opacity=".84075" transform="matrix(-1 0 0 1 189 1.5)"/><path d="m0 0h8.64685v46h-8.64685z" opacity=".695168" transform="matrix(-1 0 0 1 156.718 1.5)"/><path d="m0 0h7.1958v46h-7.1958z" opacity=".563255" transform="matrix(-1 0 0 1 127 1.5)"/><path d="m0 0h5.8951v46h-5.8951z" opacity=".44501" transform="matrix(-1 0 0 1 101 1.5)"/><path d="m0 0h4.74476v46h-4.74476z" opacity=".340432" transform="matrix(-1 0 0 1 77 1.5)"/><path d="m0 0h3.74476v46h-3.74476z" opacity=".249523" transform="matrix(-1 0 0 1 57 1.5)"/><path d="m0 0h2.8951v46h-2.8951z" opacity=".172282" transform="matrix(-1 0 0 1 40 1.5)"/><path d="m0 0h2.1958v46h-2.1958z" opacity=".108709" transform="matrix(-1 0 0 1 14 1.5)"/><path d="m0 0h2.8951v46h-2.8951z" opacity=".172282" transform="matrix(-1 0 0 1 25 1.5)"/><path d="m0 0h12v46h-12z" transform="matrix(-1 0 0 1 225 1.5)"/></g><g clip-path="url(#e)"><path clip-rule="evenodd" d="m314.582 17.4234h-20.831v-17.4234h-5.642v17.4234h-23.109l3.255 5.5755h19.854v23.6422h5.642v-23.6422h20.831zm78.659-10.23958v-5.093h-47.195v5.093h9.168v19.29978l-11.772 20.1575h5.967l10.958-18.7636v-5.093h23.218v18.9781h-13.942l2.984 5.093h16.166v-29.2177h-28.426v-10.45408zm78.714 39.45728h-5.425l-8.951-15.3326-3.689 2.0908v13.2418h-11.88l-2.712-4.6641h10.144v-6.9693l-24.737 13.9923v-4.8249l24.737-13.8316v-3.5382l-24.737 13.7778v-4.8249l22.35-12.9201v-.3753h-5.425l-17.088 9.7035v-4.7177l8.626-4.8786h-6.13v-5.8435l-.651 1.1794h-5.425l10.415-17.9059h5.425l-1.356 2.30525h31.789l-4.936 7.6663h7.377v12.59845h-17.196l1.464 2.4661v3.5383l9.656-5.3611 2.116 3.592-4.068 2.198zm-21.265-28.7352h14.212v-3.2702h-14.212zm7.974-10.72209h-25.93l-1.736 3.00219h25.713zm-12.694 7.66629h-14.213v3.2702h14.213zm81.1 25.465v-17.7451h23.543v-22.57h-28.263v48.2495l15.515-8.7386-2.333-4.0207zm0-35.65099h18.824v4.28884h-16.275v4.66415h16.275v4.2888h-18.824zm25.876 24.23199-7.703 4.4496 7.757 13.2954h-5.425l-12.748-21.7658h5.479l2.55 4.396 7.757-4.396zm-45.731-28.8961h-1.465v46.6411h4.72v-9.2741l2.712 4.61h5.642v-19.407h-4.72v14.7965h-3.634v-17.1553h4.937l4.611-14.26043v-5.95077h-9.548zm3.255 20.2112v-15.54709h4.828z" fill="#fff" fill-rule="evenodd"/></g><g clip-path="url(#f)" fill="#fff" filter="url(#b)"><path d="m629 1.5h10.2483v46h-10.2483z" opacity=".84075"/><path d="m661.282 1.5h8.64685v46h-8.64685z" opacity=".695168"/><path d="m691 1.5h7.1958v46h-7.1958z" opacity=".563255"/><path d="m717 1.5h5.8951v46h-5.8951z" opacity=".44501"/><path d="m741 1.5h4.74476v46h-4.74476z" opacity=".340432"/><path d="m761 1.5h3.74476v46h-3.74476z" opacity=".249523"/><path d="m778 1.5h2.8951v46h-2.8951z" opacity=".172282"/><path d="m804 1.5h2.1958v46h-2.1958z" opacity=".108709"/><path d="m793 1.5h2.8951v46h-2.8951z" opacity=".172282"/><path d="m593 1.5h12v46h-12z"/></g></g></svg>