<svg width="225" height="46" viewBox="0 0 225 46" fill="none" xmlns="http://www.w3.org/2000/svg">
<path d="M0 0H12V46H0V0Z" fill="#FF4B00"/>
<path opacity="0.84075" d="M36 0H46.2483V46H36V0Z" fill="#FF4B00"/>
<path opacity="0.695168" d="M68 0H76.6469V46H68V0Z" fill="#FF4B00"/>
<path opacity="0.563255" d="M98 0H105.196V46H98V0Z" fill="#FF4B00"/>
<path opacity="0.44501" d="M124 0H129.895V46H124V0Z" fill="#FF4B00"/>
<path opacity="0.340432" d="M148 0H152.745V46H148V0Z" fill="#FF4B00"/>
<path opacity="0.249523" d="M168 0H171.745V46H168V0Z" fill="#FF4B00"/>
<path opacity="0.172282" d="M185 0H187.895V46H185V0Z" fill="#FF4B00"/>
<path opacity="0.172282" d="M200 0H202.895V46H200V0Z" fill="#FF4B00"/>
<path opacity="0.108709" d="M211 0H213.196V46H211V0Z" fill="#FF4B00"/>
</svg>
