<svg fill="none" height="362" viewBox="0 0 362 362" width="362" xmlns="http://www.w3.org/2000/svg"><path d="m181 1 9.552 131.981 59.331-118.2793-41.682 125.5893 100.078-86.5702-86.57 100.0782 125.589-41.682-118.279 59.331 131.981 9.552-131.981 9.552 118.279 59.331-125.589-41.682 86.57 100.078-100.078-86.57 41.682 125.589-59.331-118.279-9.552 131.981-9.552-131.981-59.331 118.279 41.682-125.589-100.0782 86.57 86.5702-100.078-125.5893 41.682 118.2793-59.331-131.981-9.552 131.981-9.552-118.2793-59.331 125.5893 41.682-86.5702-100.0782 100.0782 86.5702-41.682-125.5893 59.331 118.2793z" stroke="#4b4bff" stroke-linejoin="bevel" stroke-width="2"/></svg>