<svg fill="none" height="225" viewBox="0 0 699 225" width="699" xmlns="http://www.w3.org/2000/svg" xmlns:xlink="http://www.w3.org/1999/xlink"><linearGradient id="a" gradientUnits="userSpaceOnUse" x1="336.719" x2="362.18" y1="69.396" y2="155.597"><stop offset=".0733836" stop-color="#1a1a1a" stop-opacity="0"/><stop offset="1" stop-color="#1a1a1a"/></linearGradient><path d="m698.018 9.54013c.797 2.69977-.609 6.13887-4.415 10.30187-3.778 4.1319-9.794 8.8364-17.851 14.0145-16.106 10.352-40.264 22.5323-70.686 35.7569-60.837 26.4463-146.654 57.0386-243.027 85.5046-96.374 28.465-185.04 49.41-250.483 60.263-32.7248 5.428-59.624 8.328-78.7699 8.388-9.5769.031-17.1835-.65-22.6001-2.066-5.45722-1.427-8.50656-3.55-9.304003-6.25-.7974471-2.7.609073-6.139 4.415233-10.302 3.77781-4.132 9.79377-8.836 17.85017-14.014 16.1061-10.352 40.2642-22.533 70.6861-35.757 60.8375-26.446 146.6535-57.0386 243.0275-85.5044 96.373-28.4659 185.04-49.4107 250.483-60.2638 32.725-5.42714 59.624-8.32758 78.77-8.38803 9.577-.03023 17.183.65056 22.6 2.06678 5.457 1.42686 8.506 3.54975 9.304 6.24958z" stroke="url(#a)"/></svg>