<svg fill="none" height="120" viewBox="0 0 200 120" width="200" xmlns="http://www.w3.org/2000/svg" xmlns:xlink="http://www.w3.org/1999/xlink"><clipPath id="a"><path d="m1 46h198v29h-198z"/></clipPath><g clip-path="url(#a)"><path d="m16.0927 46.3085c.162.0597.3368.0731.5048.0395l.0626-.0149c.3014-.0819.4848.0279.5503.3293.0136.0629.0741.1041.1376.0934.415-.077.7078.0875.8784.4936l.0207.052c.1032.2753.2931.3679.5699.2777.0819-.0262.1605-.0344.2358-.0245.4979.0589.7247-.1631.6805-.6661-.0092-.106.0261-.2109.0967-.2877.0707-.0767.1697-.1179.2718-.1128l3.8052.1966c.0913-.0071.1795.007.2647.0421l.0424.0193c.3734.0721.6862 0 .9384-.2163.0457-.038.1166-.0305.1621.0172l.2629.2802c.0204.0218.0508.0326.0841.0298s.0668-.0189.0928-.0445c.1031-.0983.2252-.1606.366-.1868.0417-.0084.1099.0057.189.0388l.489.2217c.0486.0215.1172.0246.1942.0092l.0392-.0092c.8189-.2196 1.5673-.0279 2.2453.5751.097.0861.1456.2146.1302.344-.0966.8045-.1187 1.5139-.0663 2.1283.1736 2.0415.1859 3.9986.0368 5.8713-.0144.1886-.1773.3308-.366.3195-.4225-.0213-.5274.1393-.3144.4817.0837.1354.059.3117-.059.4203-.3161.29-.3677.616-.1548.9781.8009 1.3648.8787 2.8058.2334 4.323-.0125.0317-.0081.0677.0117.0955.0199.0278.0525.0436.0866.0421.4469-.0237.6646.1567.6532.5413l-.0317.4712c.054 3.4686.0286 6.9363-.0762 10.4032-.001.0258-.0154.0491-.0382.062s-.0509.0136-.0748.0019c-.7746-.3785-1.5927-.5604-2.4541-.5456-.0871.0016-.1649.0287-.2186.0762-.1504.1363-.085.2142.1961.2336l.0397.0023c.321.0164.3767.0975.167.2433-.1127.0782-.3317.1438-.6569.1969l-.1357.0205c-.0236.0034-.0477.0066-.0722.0098l-.1527.0186c-.0528.0059-.1075.0117-.1641.0172-.3079.0295-.7025-.0033-1.184-.0983-.4488-.0869-.9032-.127-1.3634-.1205-.0623 0-.1384-.0204-.2285-.0614l-.285-.1303c-.061-.028-.1452-.0244-.2309.0099-.5175.213-1.1349.3408-1.8522.3834-.2419.0151-.4356-.0354-.5812-.1515l-.0354-.0304c-.0541-.0511-.114-.0751-.1474-.059-.0213.0098-.0336.0287-.0369.0565-.0045.0309.013.0705.0467.1057.1758.1852.172.3194-.0113.4026l-.1982.0782-.1339.0499-.03.01c-.1277.0442-.2506.0352-.3685-.027-.0737-.0377-.0729-.0803.0025-.1278l.0366-.0228.0665-.0433c.0103-.0069.0202-.0137.0298-.0204l.0529-.0387.0439-.0356c.1378-.1191.1095-.182-.0849-.1886l-.06-.0004-.0691.0027-.0781.0058c-.0138.0012-.028.0026-.0425.004l-.0917.0104c-.0999.0115-.203.0147-.3095.0098-.5747-.0321-1.1338.0443-1.6771.2291l-.1162.0413c-.3112.1163-.6231.1523-.9359.1081l-1.8007-.2507c-.1241-.0174-.2403.0387-.285.1377-.0982.208-.2424.326-.4323.3539-.0783.0106-.1558-.0225-.2015-.0861l-.5994-.8331c-.0579-.0821-.1521-.1229-.2383-.1032-.4438.1032-.836.1098-1.1767.0196-.0722-.0192-.1523-.0167-.2309.0074-.2219.0709-.3779.0171-.4678-.1616l-.0161-.035c-.0505-.1207-.1871-.1891-.3292-.1647l-1.77857.3072c-.05314.0095-.12096-.0007-.19401-.0287l-.03691-.0155c-.43928-.1939-.86214-.1744-1.26859.0587l-.05796.0347c-.15067.0934-.22518.0516-.22355-.1253.00492-.2704-.05814-.3662-.18915-.2876l-.08015.0463-.03808.0209-.02579.0129-.00829.0035c-.62233.2359-1.26596.281-1.93087.1351-.08025-.018-.15968-.0155-.23829.0074-.59613.1671-1.19717.1893-1.80312.0664-.06879-.0131-.13839-.05-.20881-.1106-.15886-.1327-.34474-.1991-.55765-.1991-.03011.0001-.05886-.0123-.0787-.0341-.01983-.0217-.02877-.0506-.02447-.0789l.01703-.1153.0313-.2224.02763-.2118.02394-.201.02027-.1902.01658-.1796.01291-.1688.00923-.1581.00555-.1474c.00433-.1656.00115-.3094-.00955-.4312l-.00504-.0509c-.12283-1.106-.10318-2.2078.05896-3.3055.00864-.0641.07034-.1109.14248-.1082.25876.0066.37258-.1032.34146-.3293l-.01474-.1097-.01081-.0932-.00687-.0767c-.00328-.0456-.00393-.0802-.00197-.1038.0606-.7684.09089-1.5385.09089-2.3102 0-.0638-.05609-.1155-.12528-.1155-.33573-.0016-.50032-.154-.49377-.4571l.00549-.3166-.00026-.039-.00032-.0057c-.04872-.625-.06798-1.2507-.05777-1.877l.00643-.2767-.00221-.0476-.01351-.155c-.00131-.0134-.00271-.0276-.00418-.0423-.02158-.2298.09901-.4058.36177-.5282l.05093-.0223c.19054-.0785.33026-.2468.3734-.4498.06387-.2834.00574-.5537-.17441-.811l-.08324-.1216c-.1691-.253-.265-.4378-.28771-.5542-.05568-.2835-.05977-.5686-.01228-.8553.0606-.3571.07779-.6316.05159-.8233-.08352-.5849-.19898-1.1641-.34638-1.7375-.01365-.0505-.04265-.1073-.087-.1703l-.02846-.0386c-.1261-.1622-.12528-.3269.00246-.494.05379-.0723.07493-.1523.0565-.2138l-.113-.3785c-.02092-.0709-.00286-.145.04667-.1917.28169-.2638.2342-.5095-.14248-.7373-.06865-.0419-.09339-.129-.0565-.199.27186-.5276.41762-1.0888.43727-1.6835l.04176-1.2337c.04258-.6915-.02211-1.373-.19407-2.0448-.26367-.1147-.34883-.3187-.25548-.6119.04738-.1514.14113-.2108.28125-.178l.03073.0084.06142-.4178c.00469-.0303.02288-.057.05006-.0734.02717-.0164.06077-.021.09242-.0126.57255.1525 1.09262.1224 1.56023-.0903l.07339-.0351c.18507-.0934.34392-.095.47658-.0049.07769.054.15424.0844.21618.086 1.28561.0541 2.57121.1057 3.85682.1549l.15848-.014.31564-.0303c.21454-.0213.4168.0377.60678.177.0608.0433.13686.0681.21863.0712l2.26004.0984c.0814.003.1569-.0236.2088-.0738.9564-.9011 2.0783-1.1501 3.3655-.7471.0485-.0118.0975-.0142.147-.0071l.0373.0071c.2194-.2458.5421-.2892.9679-.1303zm-9.52416 17.1368c-.0251.0054-.04628.023-.05652.047l-1.76382 4.2222c-.08444.2015-.0256.436.14493.5775.32181.2654.63093.5131.92736.7428l.2922.2239c.19197.1453.37831.2826.559.4121.35703.2555.71405.3833 1.07107.3833.54536-.0016 1.1636-.1146 1.85472-.3391l2.45412-.7963c.0356-.0111.0627-.0402.0713-.0766.0085-.0363-.0027-.0744-.0295-.1003l-5.4561-5.2766c-.01789-.0179-.04365-.0253-.06876-.0199zm-1.96528-11.6243c-.04891.0286-.08197.0781-.08964.1342s.01089.1127.05033.1533c4.90005 5.1562 9.75675 10.3016 14.56995 15.4364.4962.5292.9884 1.0625 1.4764 1.5999.3046.3343.7894.5243 1.4543.5702.1369.0094.2699.0173.3988.0236l.2525.0106c.0412.0015.082.0027.1223.0038l.2365.0045c.578.0061 1.0561-.0261 1.4342-.0966.0753-.0125.1405-.063.1744-.1351.6273-1.3239 1.1333-2.8132 1.5182-4.468.0933-.4047-.0246-.7324-.3538-.9831l-.0739-.0556-.1572-.1144c-.0272-.0195-.055-.0391-.0832-.0589l-.1758-.121-.1882-.1254c-.0648-.0426-.1317-.0858-.2006-.1298l-.213-.1341-.2254-.1385c-.0386-.0235-.0777-.0471-.1173-.0709-.5405-.3261-.9917-.5243-1.3536-.5948-.0582-.0125-.0944-.074-.0811-.1376.0361-.1704-.0253-.3096-.1842-.4178-4.091-2.7902-8.2164-5.528-12.3762-8.2134-.4067-.2631-.85939-.5919-1.35815-.9863l-.3336-.2658c-.50942-.4014-.94043-.7033-1.29302-.9057-.83523-.4784-1.77856-.4063-2.82997.2163zm169.63874-.1941 1.877 1.4794c.059.047.086.1246.071.2016-.064.3014-.127.6029-.189.9044-.062.2965-.095.6005-.098.9118l-.005.4408-.006.4327-.011.6337-.007.4122-.014.6031-.01.3918-.016.5724-.012.3714-.019.5417-.013.351-.023.5111-.015.3305-.025.4805-.018.3101-.028.4499-.02.2896-.031.4192-.021.2693-.034.3885-.024.2489-.012.1213c-.154 1.5188-.399 2.7067-.737 3.5636-.354.8962-.932 1.6081-1.737 2.1356-.083.0551-.191.0551-.272 0-1.275-.8468-2.661-1.4072-4.159-1.6812l-.167-.0293c-.408-.0671-.481-.1876-.219-.3612.062-.0416.142-.063.229-.0615.868.0246 1.735.0246 2.603 0 .398-.0114.706-.1204.924-.3268.446-.4228.723-1.0314.833-1.8261.578-4.2025.805-7.9307.68-11.1846-.002-.0687-.058-.1241-.127-.1278-1.453-.0859-2.907-.1266-4.363-.1219l-.553.0038-.187-.0117-.179-.0128c-.367-.0262-.54.1418-.518.5039l.019.3571v.0459c-.083 2.3282-.454 4.4057-1.112 6.2325-.995 2.7526-2.599 5.0808-4.813 6.9846-.734.6308-1.562 1.0871-2.486 1.3689-.19.0574-.296.0377-.319-.059-.016-.0596.021-.1392.093-.2039 4.458-3.9224 6.558-8.904 6.301-14.9449-.003-.07-.056-.1285-.128-.1401-1.835-.3145-3.682-.5562-5.539-.725-.079-.0065-.134-.0303-.167-.0712-.038-.0492-.04-.0975-.005-.145.035-.0518.115-.0835.211-.0836 1.881-.0111 3.761-.017 5.642-.018l1.901.0015 2.104.0829c1.253.0491 2.494-.0656 3.724-.3441.492-.1114.829-.3809 1.012-.8086.018-.0404.053-.0709.095-.0825.041-.0115.086-.0028.119.0236zm19.274 10.6661 1.939 1.5188c.055.0424.073.1217.044.1941-.32.8012-.442 1.5778-.369 2.3299.076.7815.081 1.4581.015 2.03-.009.0777-.052.1471-.118.1892-.488.3113-1.021.5038-1.599.5775-.074.009-.149-.0249-.194-.0884-.496-.6912-1.187-.9863-2.076-.8856l-.083.0106c-.677.0934-1.412.1196-2.206.0787-.135-.0078-.266.0422-.362.1376-.494.4915-.99.8061-1.488.9437-.097.0271-.201.0086-.282-.0503-.081-.0588-.131-.1516-.136-.2519-.057-1.1914-.083-2.349-.079-3.473l.002-.4359-.058-1.1391c-.02-.4211.018-.8389.113-1.2534.017-.0728.08-.125.152-.1278.588-.0171 1.057.1085 1.405.3767l.055.0436c.322.2719.655.4038.997.3956l.464-.0098c1.125.0721 2.208-.1057 3.248-.5333.224-.0934.338-.2376.341-.4325.002-.2376.094-.2859.275-.145zm-114.1051-9.0294c1.808.7865 2.9954 2.166 3.562 4.1387.8697 3.0343.4602 5.8024-1.2282 8.3043-1.1071 1.6384-2.6769 2.7132-4.7093 3.2244-2.2813.5735-4.394.4244-6.338-.4473-1.5558-.6996-2.7767-1.7523-3.6627-3.158-.9302-1.4779-1.3651-3.1483-1.3045-5.0111.0754-2.2676.8402-4.1264 2.2945-5.5764 1.1071-1.101 2.5392-1.8424 4.2965-2.2241 2.3845-.5178 4.7478-.2679 7.0897.7495zm-37.4259-.7913c2.509.1048 5.0196.1335 7.5318.086 2.3895-.0459 4.4726.435 6.2496 1.4426 1.7572.9978 2.8267 2.5904 3.2083 4.7776.334 1.9137.1744 3.6554-.4791 5.225-.4913 1.1829-1.2766 2.202-2.3558 3.0573-1.094.8683-2.2986 1.4254-3.6137 1.6711-1.4705.2753-3.2197.3612-5.2475.2576l-.9093-.05-.764-.0387-.5824-.0261-.5331-.0207-.5746-.0176-.4245-.0087-.3042-.0029-.2726.0005-.1837.0027-.1126.0029-.1541.006-.0929.0051-.1245.0093-.1196.0105-.072.0038c-.2343.0083-.2835-.0398-.1476-.1441l.0438-.0313.0539-.0344c.0508-.0312.1081-.0484.172-.0517.3717-.018.6559-.0753.8524-.172.3014-.1458.4676-.385.4987-.7176.095-.9831.1359-1.9137.1228-2.7919l-.0346-2.3834-.0249-2.2217-.0107-1.5871-.0018-.6327.0002-.609.0034-.6761.0055-.4888.0078-.4211.0126-.4158.0102-.2229.0029-.049c.0425-.7291-.0664-1.3632-.3268-1.9022-.0348-.0714-.0938-.1287-.167-.1622-.3751-.1655-.7689-.2671-1.1816-.3048l-.0984-.0097-.0887-.0107-.079-.0116c-.0247-.004-.0478-.0082-.0693-.0125l-.0597-.0134c-.0092-.0023-.0179-.0047-.0262-.0071l-.0452-.0148c-.1279-.0482-.1104-.1102.0525-.1859l.0563-.0244.0659-.0253.0756-.0262c.0786-.0262.1638-.0368.2555-.0319zm104.122.9757c.981.7864 1.477 1.9079 1.489 3.3644.009 1.3304-.394 2.6092-1.211 3.8364-1.117 1.6768-2.291 3.0199-3.524 4.0293l-.404.3253c-.089.072-.177.1432-.262.2136l-.252.2088-.242.2041-.231.1992c-.075.0657-.148.1305-.22.1945l-.211.1897c-.171.1562-.331.3073-.48.4534l-.175.173c-.084.0853-.165.1688-.242.2505-.057.0607-.045.0893.037.0861l.435-.0178.542-.0194.501-.0145.459-.0098.417-.0049.286-.0005.262.0022.162.003.151.0041.141.0054.13.0066.062.0038c1.128.0737 2.065-.0541 2.81-.3834.619-.2741 1.072-.7793 1.359-1.5154l.034-.0894c.028-.0787.061-.1401.1-.1844.121-.1382.187-.1207.199.0524l.002.0599-.001.0702c-.001.0251-.003.0519-.005.0805-.082.9962-.309 2.03-.681 3.1015-.069.1975-.247.3368-.457.3564-3.302.3047-6.494.3342-9.578.0885-.545-.0443-.614-.2491-.206-.6144l1.662-1.4953 1.745-1.562c1.624-1.4484 2.773-3.0024 3.446-4.6622.711-1.7481.814-3.489.307-5.2224-.199-.6865-.579-1.21-1.139-1.5704-.477-.3064-1.065-.4588-1.764-.4572-1.72.0017-2.73.9372-3.032 2.8067-.019.1179-.049.2072-.088.2678-.102.154-.203.15-.305-.0122-.039-.0623-.061-.1418-.066-.2384-.051-.8225-.091-1.6852-.12-2.5879-.003-.1103.061-.2119.162-.2581 1.21-.5472 2.384-.8667 3.523-.9584 1.77-.141 3.261.2728 4.473 1.2411zm-56.3662-1.165c1.3409.1951 2.6874.303 4.0395.3236l.4575.0039 3.2928.0166c2.0079.0361 4.0134-.0344 6.0164-.2113.032-.0035.064.0062.088.0267s.038.05.039.0814c.035.9388.021 1.876-.041 2.8115-.008.0983-.029.1786-.062.2409-.088.1654-.179.1441-.272-.0639-.021-.0451-.038-.1066-.053-.1847l-.009-.0488c-.155-.9372-.743-1.4344-1.764-1.4918-1.139-.0639-2.2801-.095-3.4216-.0934-.0692 0-.1253.0561-.1253.1254-.018 4.2336-.0262 8.4673-.0245 12.701 0 .4555.0442.9077.1326 1.3566.0606.2982.2751.4833.6436.5554l1.3292.263c.101.0196.103.0491.005.0884-.2586.1025-.6139.1436-1.0663.1233l-.2447-.013-.2819-.0103-.4237-.01-.6949-.0099-1.189-.0078-.9594-.0018-1.0681.0008c-.0359 0-.0698-.0003-.1019-.0011l-.0907-.0033c-.0141-.0007-.0278-.0015-.041-.0024l-.0736-.0066c-.181-.0205-.2407-.0643-.1792-.1316.021-.0229.0655-.0462.1336-.0697l.0642-.0203.0757-.0204.0872-.0205.0989-.0207.1103-.0209.122-.021.1334-.0211.1451-.0213c.1691-.0238.3085-.144.3562-.3072.1965-.6701.2939-1.3828.2923-2.1382-.0131-4.06-.0106-8.12.0074-12.18 0-.0678-.0539-.1228-.1204-.1228-1.2545.0147-2.509.0196-3.7635.0147-.3537-.0016-.7066.0918-1.0588.2802-.1817.0966-.3283.2449-.4397.4448-.0786.1413-.153.2849-.2234.4309l-.0689.1467c-.0541.1212-.113.2146-.1769.2801-.2254.2241-.3308.148-.3164-.2283l.0051-.0886.0092-.0984c.0917-.8585.2628-1.7007.5134-2.5265.0208-.0663.0872-.1078.1572-.0983zm27.0792-.172c.786 1.5336 1.498 3.1064 2.137 4.7187.946 2.3838 1.874 4.7751 2.783 7.1738.043.1105.147.183.261.1818l3.851-.0565c.09.0001.169.0257.219.0713.176.1598.122.2642-.159.3131l-.04.0064c-1.1.1654-2.208.3858-3.324.6611-.069.0181-.114.0861-.103.1573.172 1.0076.567 1.871 1.184 2.5903.226.2638.492.4424.796.5358.315.095.641.1433.98.145.063 0 .115.0098.158.0294.144.0623.142.1254-.005.1893-.041.018-.091.0278-.15.0295-1.398.0407-2.797.0562-4.196.0463l-.7-.007c-.378-.0049-.395-.1401-.049-.4055.113-.0878.161-.2281.118-.3465l-1.015-2.7255c-.026-.0697-.095-.1164-.174-.118l-6.171-.0664c-.277-.0032-.469.1295-.575.3982-.125.3175-.248.6764-.368 1.0767l-.051.1717-.21.6022c-.257.7356.036 1.0969.879 1.0838.077-.0017.147.0098.209.0344l.071.0287c.011.0046.022.0092.032.0137l.055.0264.045.0247c.125.0759.095.1279-.092.1562l-.065.0082c-.011.0012-.023.0023-.036.0034l-.079.0058c-.015.0008-.029.0016-.044.0023l-.096.0034c-1.555.036-3.111.0352-4.667-.0025-.077-.0033-.128-.0262-.152-.0688-.016-.0259-.014-.0585.006-.0877s.055-.0514.094-.0597l.072-.0137.085-.0142.154-.0225.184-.0239.294-.0339c.462-.0508.863-.3629 1.204-.9363.417-.7013.766-1.4345 1.046-2.1996l.445-1.2141c1.139-2.8822 2.294-5.7582 3.463-8.628l.708-1.7347.224-.6106c.137-.3752.326-.7496.567-1.1231.071-.1098.136-.1065.197.0098zm-70.1921 1.568c-.14.0246-.2429.1441-.2457.2851-.0622 4.0894-.0786 8.2133-.0491 12.3717.0033.5685.2203.983.651 1.2435.606.367 1.3061.5661 2.1004.5972 1.0104.0377 1.9996-.0778 2.9675-.3465 2.0226-.5636 3.3189-1.8572 3.8888-3.8806.6338-2.2479.4815-4.3557-.4569-6.3235-.4422-.9273-.995-1.6835-1.6582-2.2684-.719-.6373-1.5591-1.1018-2.5205-1.3934-1.5329-.4637-3.092-.5587-4.6773-.2851zm26.7153-.4055c-1.6263.1261-2.7874.8192-3.4835 2.0791-1.1054 2.0038-1.4387 4.1747-.9998 6.5127.1916 1.0273.4356 1.867.7321 2.5191.3685.8143.8974 1.5319 1.5869 2.1529 1.3233 1.1878 2.8398 1.7326 4.5496 1.6343.678-.0393 1.2791-.1958 1.8031-.4694.6027-.3129 1.0858-.7324 1.4494-1.2583.7353-1.0666 1.189-2.252 1.3609-3.5562.1556-1.1666.1483-2.3495-.0221-3.5488-.1768-1.2419-.5977-2.3708-1.2626-3.3866-1.2971-1.9792-3.2018-2.8722-5.714-2.6788zm119.7478 11.0961h-4.48c-.041 0-.074.0331-.074.0738v2.8017c0 .0195.008.0383.022.0521.013.0138.032.0216.052.0216h4.48c.02 0 .039-.0078.053-.0216.013-.0138.021-.0326.021-.0521v-2.8017c0-.0407-.033-.0738-.074-.0738zm-12.039-12.8608.603.0161.587.0131.573.0102c.283.0044.56.0077.831.0098l.081.0024c.291.0153.355.1014.194.2581-.039.0381-.101.0666-.175.082l-.039.0065c-.165.023-.316.0778-.452.1647-.067.041-.108.1137-.108.1917l-.039 3.3079c0 .0384.022.0734.058.0943.035.0208.081.0251.124.0114l1.402-.4448c.066-.0218.149-.0034.221.0491.389.2769.65.7087.784 1.2952.012.0518.001.1061-.031.1481-.031.0419-.079.0669-.131.0682l-2.076.0442c-.203.004-.366.1591-.366.349l.015 5.8148c0 .0696.056.1264.125.1277.767.0115 1.504-.1253 2.214-.4104.134-.054.248-.0745.341-.0614.219.0311.268.1458.145.3441-.049.0802-.128.14-.236.1794-.093.0349-.186.068-.28.0994l-.142.0456c-.156.0475-.294.1032-.416.1671-1.623.8749-3.24 1.8268-4.851 2.8557-.05.0316-.11.0418-.166.0284-.057-.0134-.106-.0494-.136-.0996-.376-.6177-.628-1.2706-.757-1.9588-.032-.1732.089-.3419.273-.3784l1.773-.3539c.069-.013.119-.0755.121-.1499.06-2.1234.021-4.2444-.118-6.3628-.005-.0721-.058-.1312-.128-.1426-.412-.0655-.827-.0877-1.244-.0665l-.156.01c-.421.0311-.533-.0631-.334-.2826.048-.0535.125-.0863.213-.091.58-.0295 1.117-.1908 1.612-.4841.068-.0394.11-.1111.108-.1868l-.123-4.2099c-.001-.0296.01-.0581.03-.079s.048-.0323.076-.0317zm-64.974 5.2029-2.712 7.1738c-.016.041-.011.087.012.124.024.0369.064.0602.108.0628 1.828.1212 3.596.1351 5.306.0418.041-.0027.078-.0237.1-.0567s.027-.074.013-.1105l-2.648-7.2352c-.059-.1589-.119-.1589-.179 0zm75.456-1.0912c.088.0235.158.0899.187.1774s.013.1849-.042.2601l-.703.9461c-.049.0656-.031.1016.054.1082.698.0491 1.342.2638 1.931.6439.626.4037 1.246.8163 1.86 1.2378l.459.3179c1.115.7798 2.258.7913 3.427.0344.136-.0869.213-.0713.231.0467.011.0732-.021.1519-.086.2089l-2.223 1.9267c-.323.2802-.671.2827-1.044.0074l-4.962-3.6668c-.056-.0426-.136-.0374-.187.0123-.354.3474-.709.6932-1.067 1.0377l-.537.5155c-.655.6292-1.22 1.1133-1.695 1.4525-.929.6652-1.781 1.1141-2.555 1.3468-.274.0835-.353-.0025-.238-.2581.028-.0666.087-.1251.164-.1646.36-.1885.733-.4572 1.118-.8061 1.667-1.5041 2.982-3.3072 3.945-5.4093.035-.0765.109-.127.192-.1302.661-.0328 1.252.0188 1.771.1548zm.685 4.0256c.556.3572.791.8208.708 1.391-.01.0711-.071.1256-.148.1303-1.524.1015-3.05.1106-4.576.027-.072-.0033-.126-.0213-.162-.0541-.066-.0573-.058-.1147.022-.172.036-.0262.083-.0401.142-.0418 1.32-.0328 2.563-.4579 3.729-1.2755.086-.0594.198-.0614.285-.0049zm-191.05986-2.03c.06384.0153.11644.0698.13757.1425.0393.1426.00163.1901-.11301.1426-.07528-.0316-.12584-.1013-.13019-.1794-.00656-.0885.02866-.1237.10563-.1057zm.21126-.757c0 .0492-.00982.0975-.02948.145l-.01486.0346-.02826.0615-.02633.0513c-.08451.1539-.13668.1375-.15649-.0493l-.00497-.0612c-.00485-.0795.01768-.1584.06387-.2236l.03692-.0501c.11085-.1404.16405-.1098.1596.0918zm19.9007-5.2765c-1.0629.3015-2.1036.5661-3.1223.7938-.1192.0276-.1386.0772-.0581.149l.0188.0157c1.7638 1.4352 3.535 2.7689 5.3136 4.001.0221.0156.0507.0187.0757.0082.0249-.0105.0427-.0331.0471-.0598.1245-.6632.24-1.328.3467-1.9944l.2282-1.4733c-.0082-.3523-.1614-.666-.4594-.9413-.3538-.326-.737-.5349-1.1497-.6267-.2981-.0655-.7116-.0229-1.2406.1278zm169.0469-.3809c.005.0545-.023.106-.071.1278-.713.3391-1.018.7954-.917 1.3689.013.0743.077.129.153.1302l2.94.0467c.039.001.076-.0146.101-.0422.025-.0277.036-.0646.029-.1003l-.235-1.2657c-.019-.0978.002-.1992.057-.274.055-.0747.137-.1143.223-.1069.654.0563 1.266.025 1.836-.0939l.131-.029c.184-.0426.316-.0516.396-.027.155.0475.209.1704.16.3686-.016.0671-.079.1202-.16.1352-.672.1212-.931.5415-.779 1.2607.015.0725.074.1284.148.1401.743.1262 1.396-.0721 1.957-.5947.088-.0824.225-.0845.317-.0049.403.3489.654.7913.752 1.3271.01.0581-.006.1177-.043.1628s-.093.071-.151.0707h-2.825c-.105 0-.189.0847-.189.1892v1.4721c0 .1898-.131.3543-.315.3957l-.899.2089c-.107.0246-.221-.0014-.307-.0707-.087-.0693-.137-.1744-.137-.2857v-1.6245c0-.1493-.118-.2703-.263-.2703l-2.732-.0025c-.084-.0004-.152.054-.155.1229l-.024.8799c-.006.1692-.077.3121-.187.376-.398.2343-.809.3252-1.233.2728-.078-.0106-.142-.0607-.167-.1303-.11-.2802-.112-.5898-.008-.929.052-.1685-.036-.3481-.201-.4104-1.109-.4129-2.174-.6586-3.196-.7373-.095-.0083-.169-.0578-.177-.1179-.008-.0787.07-.1188.236-.1205l.691-.0068.709-.0051.726-.0034.743-.0017c.126-.0001.252-.0002.378-.0002.035.0004.068-.0144.091-.0404.022-.026.032-.0606.027-.0947l-.228-1.6024c-.004-.0306.005-.0615.024-.0846.02-.0232.049-.0363.079-.0358l.105-.0005.202-.0019.284-.0051.175-.005.165-.0062.154-.0075.144-.0087.133-.01c.021-.0018.042-.0036.062-.0054l.117-.0119c.019-.0021.037-.0042.054-.0064l.101-.0137.091-.015c.099-.0182.176-.0389.232-.0622l.022-.0101c.394-.1901.611-.1147.654.2261zm-189.01392.1843c.01474.1491-.02703.1835-.12529.1032-.04519-.0374-.07214-.0985-.0737-.1671l-.00227-.2967.00201-.3784.00366-.1432.00543-.1114.00525-.0629.00405-.032.0069-.0331.00516-.0122c.00449-.0069.00944-.0055.01485.0041l.00671.0155.0109.0381.0119.0559.00849.0472.01357.0855.01964.1418.02705.2218.04905.4578c.0022.0217.00441.0437.00664.0661zm17.25742-5.2003c.357.0901.4643.3014.3218.634-.0126.0297-.0372.0525-.0677.0628-.0305.0104-.0639.0072-.0919-.0087-.249-.136-.3833-.2957-.4029-.4792-.0068-.0632.0178-.1258.0658-.1674.048-.0417.1133-.0572.1749-.0415z" fill="#fff" fill-opacity=".5"/></g></svg>