<svg fill="none" height="120" viewBox="0 0 200 120" width="200" xmlns="http://www.w3.org/2000/svg"><path d="m172.781 60.6414c.306-.2059.526-.3735.661-.5029.201-.1911.173-.2345-.084-.1301-.286.1177-.497.3125-.632.5844-.044.0883-.025.1044.055.0486z" stroke="#fff" stroke-opacity=".5" stroke-width="2"/><path d="m171.708 61.1612c-.578.6454-.558.7659.06.3616.132-.0867.247-.1926.346-.3175.076-.1.052-.1574-.071-.1721-.062-.0062-.125.0022-.183.0244s-.11.0577-.152.1036z" stroke="#fff" stroke-opacity=".5" stroke-width="2"/><path d="m65.7735 54.0337c-.7061.3455-.9564.5249-.7509.5381.025.0015.0492-.0029.0727-.0132.6224-.2764.9277-.4256.916-.4477-.022-.0411-.0591-.0721-.1034-.0865s-.0925-.011-.1344.0093z" stroke="#fff" stroke-opacity=".5" stroke-width="2"/><path d="m55.2571 63.0602c-.1306.2485-.1644.4911-.1013.7278.0103.0381.0272.0727.0494.1007.0222.0279.0491.0486.0784.0603.0939.0367.1446-.0184.1519-.1654.0147-.2617-.0117-.4999-.0793-.7146-.0264-.0838-.0594-.0867-.0991-.0088z" stroke="#fff" stroke-opacity=".5" stroke-width="2"/><path d="m45.4883 67.0032c-.1159.2014-.0961.3029.0595.3044.0306-.0002.0605-.0124.0846-.0345.0241-.0222.0409-.0528.0475-.0868.1453-.7601.1813-1.5261.1079-2.298-.0027-.0236-.0088-.0453-.0176-.063-.0089-.0177-.0202-.031-.033-.0384-.0265-.0162-.0521-.0118-.0771.0132-.0206.0206-.0316.0522-.033.0948-.0176.6352-.0426 1.2703-.0749 1.9054-.0029.0662-.0242.1338-.0639.2029z" stroke="#fff" stroke-opacity=".5" stroke-width="2"/><path d="m55.1548 65.6921c.0778.2117.1534.1977.2268-.0419.0106-.0343.0099-.0705-.0019-.1015s-.034-.0546-.062-.0661c-.0484-.0177-.0917-.0118-.1299.0176-.023.0177-.0386.0458-.0445.0804-.0059.0345-.0019.0736.0115.1115z" stroke="#fff" stroke-opacity=".5" stroke-width="2"/><path d="m55.2212 66.5824c-.0337.0529-.0549.113-.0622.1756-.0072.0626-.0003.1262.0203.186.1615.4602.1953.8778.1013 1.2527-.0191.0764-.0205.147-.0044.2117.1189.4543.1923.383.2202-.2139.0147-.2956.0242-.5903.0286-.8844.0044-.2529-.0139-.5101-.055-.7718-.0294-.1897-.1123-.175-.2488.0441z" stroke="#fff" stroke-opacity=".5" stroke-width="2"/><path d="m55.3572 69.7247c-.0748.3441-.0697.6852.0154 1.0233.0085.036.0269.0681.0519.0903.0251.0223.0551.0333.0847.031.0998-.0073.1233-.1095.0704-.3065-.0396-.15-.0425-.3816-.0088-.6947.0059-.0544.0015-.1051-.0132-.1522-.0778-.2543-.1446-.2514-.2004.0088z" stroke="#fff" stroke-opacity=".5" stroke-width="2"/><path d="m55.2878 71.5681c-.0294.835.0403.86.2092.0749.0102-.0485.0117-.0977.0044-.1477-.0588-.4117-.1241-.4396-.196-.0838-.0088.0485-.0147.1007-.0176.1566z" stroke="#fff" stroke-opacity=".5" stroke-width="2"/><path d="m55.1147 74.0437c-.1056.5925-.182 1.1887-.229 1.7885-.0044.0603-.0176.1213-.0396.1831-.1439.3911-.0741.4337.2092.1279.0474-.0518.0788-.1169.0903-.1875.0734-.4925.1637-1.4996.2708-3.0213.0176-.2411-.033-.3807-.1519-.419-.0129-.0043-.0266-.0048-.04-.0017-.0135.0032-.0264.0101-.0377.0201-.0112.01-.0206.0229-.0274.0377s-.0107.0311-.0116.0476c-.0162.2396-.0162.4785 0 .7167.0176.2588.0066.4947-.0331.7079z" stroke="#fff" stroke-opacity=".5" stroke-width="2"/><path d="m76.9085 60.0826c.0939.2014.1402.1853.1387-.0485 0-.0382-.0044-.0757-.0132-.1125-.1424-.5263-.4096-.9755-.8015-1.3474-.0274-.026-.0596-.0445-.0925-.0531s-.065-.007-.0925.0045c-.0939.0397-.0682.1147.0771.225.1659.1264.4272.5704.7839 1.332z" stroke="#fff" stroke-opacity=".5" stroke-width="2"/><path d="m94.0695 59.6646c.0338-.4337-.0859-.5741-.3589-.4212-.0487.0272-.0848.0723-.1005.1256s-.0096.1104.0168.1589c.2628.4895.4103.5351.4426.1367z" stroke="#fff" stroke-opacity=".5" stroke-width="2"/><path d="m64.3947 61.6939c-.091-.0941-.1923-.1029-.3038-.0265-.0582.0398-.1271.057-.1938.0485-.1013-.0132-.1806.0037-.2378.0508-.0543.047-.0749.1389-.0617.2756.0309.3014.0404.6043.0287.9086-.0012.0362.0075.0712.0246.0995s.0417.0484.07.0571c.1865.0588.3494-.025.4889-.2514.1336-.2176.3266-.308.5791-.2713.6635.0956 1.2162.2728 1.6581.5315.0275.0163.0594.023.0907.019.0312-.004.0597-.0185.081-.041.1439-.1559.2525-.333.3259-.5315.0098-.027.0102-.0578.0013-.0887-.009-.0309-.027-.0606-.0519-.0855-.091-.0912-.1358-.2117-.1344-.3617.0003-.0165-.0033-.0328-.0104-.0477-.0072-.0149-.0177-.0278-.0307-.0379-.0131-.0101-.0283-.017-.0445-.0201-.0161-.0031-.0328-.0024-.0487.002-.2833.0794-.5167.0883-.7002.0265-.0734-.025-.1431-.0353-.2092-.0309-.1879.0103-.2664-.0536-.2356-.1918.0048-.0206.018-.0406.0382-.0578.0202-.0171.0466-.0307.0763-.0393.0602-.0161.0793-.0441.0573-.0838-.0106-.02-.0305-.0376-.0577-.0508-.0271-.0132-.0604-.0215-.0965-.0241-.1659-.0133-.3317-.0272-.4976-.0419-.251-.0221-.4191.061-.5043.2492-.0042.0089-.0105.0166-.0185.0225s-.0173.0098-.0272.0113-.0202.0006-.0298-.0026c-.0097-.0032-.0185-.0086-.0258-.0158z" stroke="#fff" stroke-opacity=".5" stroke-width="2"/><path d="m73.6185 66.9045c.2599-.2956.2129-.372-.1409-.2294-.0325.013-.0612.0334-.0835.0596-.0222.0262-.0375.0573-.0442.0904-.0675.3352.022.3616.2686.0794z" stroke="#fff" stroke-opacity=".5" stroke-width="2"/><path d="m106.622 67.363c-.088.1294-.078.1757.03.1389.022-.0076.041-.0205.058-.0377.016-.0171.029-.0382.037-.0615.106-.3043.064-.3176-.125-.0397z" stroke="#fff" stroke-opacity=".5" stroke-width="2"/><path d="m106.357 67.9865c-.05.2059-.012.2625.115.1699.028-.0208.051-.0479.068-.0796.017-.0316.026-.067.029-.1035.007-.1617-.036-.2043-.13-.1279-.04.0338-.067.0809-.082.1411z" stroke="#fff" stroke-opacity=".5" stroke-width="2"/><path d="m87.802 68.0751c.0807.0397.1358.0088.1651-.0926.0044-.0151.0056-.0309.0035-.0464s-.0075-.0302-.0156-.0432c-.0082-.013-.019-.024-.0318-.0321-.0127-.0082-.027-.0133-.042-.0151-.066-.0088-.113.0118-.1409.0618-.0078.0139-.0124.0294-.0135.0456-.0011.0161.0013.0325.0071.0482s.0148.0304.0265.0431c.0117.0126.0259.0231.0416.0307z" stroke="#fff" stroke-opacity=".5" stroke-width="2"/><path d="m106.26 68.4192c-.118.272-.25.5374-.397.7962-.155.272-.109.3624.139.2712.032-.0109.06-.0299.084-.0556.024-.0256.042-.0572.053-.0921.083-.2676.144-.5403.18-.8182.033-.2382.013-.272-.059-.1015z" stroke="#fff" stroke-opacity=".5" stroke-width="2"/><path d="m114.835 60.0519c-.355.5028-.578 1.0108-.667 1.5239-.007.0376-.004.0751.007.1083s.031.0606.057.0792c.086.0617.164.0536.233-.0243.044-.0485.069-.1279.075-.2382.028-.5175.186-.9902.475-1.418.251-.3749.23-.4293-.063-.1632-.044.0397-.083.0838-.117.1323z" stroke="#fff" stroke-opacity=".5" stroke-width="2"/><g fill="#fff" fill-opacity=".5"><path d="m145.023 60.6849c-.657-.1308-1.35-.1279-2.078.0088-.922.1735-1.558-.0904-1.907-.7917-.008-.0176-.15-.3962-.427-1.1357-.096-.2529-.182-.5095-.258-.7697-.063-.2176-.082-.4822-.057-.7939.048-.6292-.021-1.2489-.207-1.8591-.104-.344-.298-.5815-.582-.7123-.205-.0956-.48-.0838-.823.0353-.78.269-1.419.4175-1.918.4455-.658.0352-.927.3705-.808 1.0056.069.3646.073.7226.011 1.074-.052.2881-.215.591-.491.9086-.857.988-1.644 2.0281-2.358 3.1205-.492.7542-.824 1.4739-.996 2.159-.195.7807-.29 1.5776-.284 2.3906.006.8836.027 1.432.062 1.6452.092.5763.357 1.0806.793 1.5128.052.0527.12.0855.191.0926.335.0353.54-.083.614-.355.037-.1338.017-.3352-.061-.6043-.209-.7322-.279-1.4687-.212-2.2097.062-.6822.292-1.3673.69-2.0554.5-.8659 1.124-1.6378 1.871-2.3156.294-.2661.618-.4918.974-.677.452-.2367.825-.3837 1.118-.4411.198-.0382.292.0309.28.2073-.004.0607-.04.128-.099.1875-.226.2205-.404.4734-.533.7586-.195.4293-.299.655-.311.6771-.976 1.8774-1.096 3.8343-.361 5.8705.087.2367.12.4756.099.7168-.029.3528-.041.5866-.035.7012.09 1.6923-.673 2.8427-2.288 3.4514-.411.1543-1.031.244-1.86.269-.546.0177-1.012-.0764-1.396-.2823-.441-.2367-.825-.5439-1.154-.9218-.219-.2499-.433-.6623-.643-1.2372-.107-.2955-.226-.5873-.357-.8755-.147-.322-.241-.6189-.282-.8909-.223-1.4849-.219-2.961.011-4.4283.188-1.2027.383-2.1289.584-2.7787.283-.916.73-1.7628 1.341-2.5406.227-.2911.594-.727 1.099-1.3077.436-.5014.679-.9292.731-1.2835.092-.6381-.188-1.149-.842-1.5327-.059-.0346-.13-.0514-.204-.0485-1.455.0705-2.781.0463-3.977-.0728-.543-.0544-1.043-.0081-1.5.1389-.058.0177-.243.1088-.555.2735-.215.1147-.419.1683-.609.161-.372-.0162-.726.0544-1.064.2117-.788.3661-1.18.2257-1.174-.4212.003-.2911.1-.5881.291-.891.528-.8409 1.282-1.4283 2.261-1.762.85-.2882 1.716-.4514 2.597-.4896.217-.0088 1.087.0536 2.611.1874 2.538.222 4.948.0059 7.229-.6483.829-.2382 1.417-.3705 1.762-.397.955-.0764 1.714-.4602 2.274-1.1512.354-.4381.611-.7218.771-.8512 1.105-.8924 2.313-1.618 3.624-2.1767.546-.2323 1.054-.5293 1.524-.8909.518-.3999.52-.8167.005-1.2504-.777-.6543-1.3-1.4541-1.57-2.3994-.178-.6234-.27-1.0792-.276-1.3673-.011-.5102.187-.9623.597-1.3563.277-.2661.452-.1742.524.2757.037.2381.023.4726-.042.7035-.086.3087-.013.4741.22.4962.036.0034.07.0137.099.0302.03.0164.054.0385.071.0646.31.4984.687.9299 1.132 1.2945.136.1117.55.3455 1.242.7013 1.275.6557 2.086 1.754 2.431 3.2948.014.0611.047.1162.094.1571.048.0409.107.0654.17.07 1.207.0882 2.272.4315 3.197 1.0299 1.27.8189 2.263 1.865 2.979 3.1382.382.6763.668 1.5422.857 2.5978.173.9542.294 1.865.363 2.7324.034.4146-.103.7616-.411 1.0409-.229.2073-.331.4411-.306.7013.004.0338.095.2478.273.6418.22.4822-.028.6829-.743.602-.017-.0017-.034-.0004-.051.0038-.016.0042-.031.0112-.043.0203s-.02.02-.024.0316c-.004.0117-.003.0236.002.0348.016.0396.056.0786.119.1168.489.3.454.4484-.104.4455-.123 0-.237.011-.341.0331-.94.2058-1.887.3234-2.843.3528-.47.0133-1.17-.0551-2.101-.2051-1.117-.1793-2.243-.2492-3.38-.2095-.572.0206-.891.0368-.957.0486-.347.0573-.64.208-.881.452-.032.0321-.056.0711-.07.114s-.019.0886-.013.1336c.007.0449.023.0879.048.1257.026.0377.059.0692.099.0921.38.2205.776.391 1.189.5116 1.001.2926 1.744.8704 2.228 1.7334.279.4955.45.8623.513 1.1004.103.3794.082.8021-.061 1.2681-.13.419-.265.7689-.406 1.0497-.185.3735-.384.6771-.599.9108-.256.2838-.577.4786-.962.5845-.357.0985-.539.1492-.548.1521-.32.1162-.631.2507-.934.4036-.283.1441-.494.344-.632.5998-.111.2073-.161.4786-.149.8138.02.619.169 1.2115.447 1.7775.384.7836.9 1.4437 1.548 1.9804.46.3808 1.156.8182 2.087 1.3121 1.424.7557 2.929 1.2299 4.514 1.4225 1.647.1999 3.096.0764 4.347-.3705 1.874-.669 3.267-2.0025 4.179-4.0005.542-1.1894.891-2.2759 1.048-3.2594.2-1.2571.399-2.2318.599-2.9243.669-2.3332 2.007-4.3585 4.012-6.0757.307-.2631.598-.4491.874-.5579.496-.1956.746-.2941.749-.2955 1.352-.7131 2.766-1.2703 4.243-1.6717.157-.0426.294-.0676.412-.0749.5-.0368.578.1183.233.4653-.682.691-1.504 1.0953-2.466 1.2129-.075.0085-.142.0397-.189.0882-.247.2558-.399.5624-.456.9196-.012.0706-.042.1356-.088.1875-.846.9586-1.34 2.1031-1.482 3.4337-.173 1.6128-.298 2.9926-.374 4.1394-.014.1793-.058.419-.135.7189-.061.2411-.097.4867-.105.7366-.011.2867-.051.5557-.122.8071-.049.1794-.088.361-.114.5448-.029.2073-.076.3844-.139.5314-.77 1.8069-1.675 3.4448-2.713 4.9135-.783 1.1085-1.81 1.9576-3.08 2.5471-.015.0074-.278.1544-.788.4411-.356.1985-.75.2911-1.183.2779-.202-.0059-.683.1051-1.442.333-.495.1485-.975.2462-1.44.2933-.69.072-1.38.1448-2.07.2183-.99.1073-1.963.028-2.92-.2382-.581-.1617-1.77-.5888-3.565-1.2812-.888-.3426-1.678-.7263-2.369-1.1512-.724-.444-1.428-.9608-2.112-1.5504-1.003-.8659-1.823-1.8841-2.462-3.0543-.483-.8851-.77-1.521-.863-1.9076-.158-.6661-.107-1.3923.154-2.1789.289-.8704.675-1.4768 1.156-1.8194.588-.4175 1.156-.8593 1.705-1.3254.581-.4955.582-.999.002-1.5106-.313-.2764-.646-.4014-1-.375-.252.0177-.549.1603-.889.4279-2.448 1.9201-3.769 4.4797-3.964 7.6789-.081 1.3056-.152 2.6119-.214 3.9189-.054 1.1438-.195 1.9657-.422 2.4655-.407.8939-1.08 1.5827-2.02 2.0664-.118.0603-.231.0831-.339.0684-.235-.0353-.29-.1478-.165-.3374.038-.0588.113-.1294.223-.2117.242-.1853.45-.4044.623-.6572.017-.0237.025-.0532.023-.0845-.001-.0312-.013-.0626-.032-.0897-.09-.125-.104-.2551-.042-.3904.082-.1749.127-.2837.134-.3264.027-.1646.041-.3308.042-.4984 0-.1646.026-.3249.077-.4807.146-.4367.196-.8925.15-1.3673-.082-.8542-.234-2.0481-.456-3.5815-.107-.7454-.083-1.5533.073-2.4236.207-1.1542.486-2.2914.837-3.4117.461-1.4731 1.167-2.689 2.118-3.6476.233-.2352.561-.4646.982-.688.009-.0045.28-.1096.815-.3154.559-.2161.952-.6146 1.178-1.1953.005-.0126.007-.0262.006-.0398s-.005-.0269-.012-.0389c-.006-.012-.016-.0224-.027-.0305-.011-.0082-.024-.0138-.038-.0165zm5.193-10.7642c-.216.6234-.174 1.1997.127 1.729.187.3264.353.5506.5.6726.232.1926.535.2448.91.1566 1.048-.2485 2.215-.4087 3.503-.4808.246-.0147.431-.0669.553-.1565.267-.2015.232-.444-.106-.7278-1.459-1.2217-3.199-1.7797-5.219-1.6738-.039.0021-.077.0112-.108.0265-.032.0153-.058.0365-.075.0617-.036.0529-.055.1125-.057.1786-.004.1-.014.1713-.028.2139zm-5.406 1.3387c-.137.1661-.25.3484-.339.5469-.008.0183-.013.0381-.013.0581s.004.0399.012.0583.019.035.034.0488c.014.0137.032.0243.05.0311.599.2205 1.192.4146 1.777.5822.339.097.615.1095.828.0374.322-.1087.53-.3271.626-.6549.088-.3029.115-.6234.081-.9616-.034-.3484-.183-.6513-.449-.9085-.325-.3161-.652-.4014-.982-.2559-.113.0486-.355.2228-.725.5227-.328.2661-.629.5646-.9.8954zm6.513 4.49c-.067.197.017.5535.253 1.0696.038.0818.1.15.178.195.078.0451.168.0648.258.0564.595-.0529 1.114-.003 1.557.1499.203.0706.794.0912 1.775.0618.012 0 .15.0059.414.0176.445.0192.747-.1867.907-.6175.209-.5645.149-1.0019-.178-1.3121-.21-.1985-.568-.3124-1.075-.3418-1.038-.0603-2.119-.0405-3.243.0595-.426.0368-.708.2573-.846.6616zm-7.962.5888c-.003.3249.211.5043.643.5381 1.208.0926 2.379.0823 3.514-.0309.081-.008.156-.0445.213-.103.057-.0584.091-.1352.098-.2167.089-1.1321-.366-1.6474-1.366-1.546-.189.0191-.591.0493-1.206.0905-.659.0441-1.192.2639-1.597.6593-.196.1912-.296.3941-.299.6087zm29.423 4.3048c.305-.2058.525-.3734.66-.5028.201-.1911.173-.2345-.084-.1301-.286.1176-.496.3124-.632.5844-.044.0882-.025.1044.056.0485zm-1.073.5183c-.578.6454-.558.7659.06.3616.132-.0867.247-.1926.345-.3175.077-.1.053-.1573-.07-.172-.062-.0063-.125.0021-.183.0243s-.11.0577-.152.1036z"/><path d="m42.0924 51.0781c1.559-1.0365 3.3874-1.4813 5.4851-1.3343.392.0265.6613-.1426.8081-.5072.138-.3411.1351-.7116-.0088-1.1115-.0343-.0955-.105-.1735-.1966-.2169-.0917-.0434-.1967-.0486-.2922-.0146-.8911.3131-1.6801.5969-2.3671.8512-.4243.1573-.8654.2081-1.3234.1522-.4595-.0544-.9124-.036-1.3586.0551-.3479.0721-.5982.0787-.7509.0199-.3508-.1368-.4264-.4426-.2268-.9174.2041-.4867.5182-.8873.9425-1.2019.2524-.1882.6238-.3198 1.1141-.3948.7355-.1147 1.4592-.2808 2.1712-.4984.0147-.0044.4426-.1081 1.2837-.3109.599-.1441 1.1377-.4213 1.6163-.8315.054-.0456.0906-.1095.1035-.1808.0895-.5263.0932-1.0563.011-1.59-.01-.0668.0065-.1368.0462-.1963l1.4775-2.1767c.0402-.0591.0959-.1057.1607-.1342.0647-.0286.1358-.0378.2049-.0267 1.2492.2014 1.9347.9372 2.0566 2.2075.0499.5146-.022.9395-.2158 1.2747-.229.3984-.345.6027-.3479.613-.091.3264.0132.5403.3127.6418.138.0485.3427.0507.6143.0066 1.0643-.172 2.108-.1316 3.1312.1213 1.2037.2985 1.81.4484 1.8188.4499.7179.1073 1.4555.1602 2.213.1588.3362 0 .4286.1507.2774.4521-.1746.3484-.5013.5939-.9798.7365-.4683.1397-.9425.2456-1.4225.3176-.3538.0515-.8287.136-1.4247.2536-.7941.1559-1.5949.1779-2.4023.0662-.0088-.0015-.2584-.053-.7487-.1544-.8088-.1661-1.6133-.1161-2.4133.15-.298.0999-.4698.3058-.5153.6175-.0719.4807.1718.6836.7311.6086 1.0951-.147 2.1894-.1499 3.2831-.0088 1.5267.1955 3.0526.2 4.5779.0132.1336-.0161.2349 0 .3038.0486.1336.0911.1219.2249-.0352.4013-.3582.3999-.8756.7006-1.5524.902-1.2903.3823-2.5843.7513-3.882 1.1071-.9058.2484-1.5854.3183-2.039.2095-.3509-.0853-.7693-.0765-1.2552.0264-.0804.0176-.1534.0597-.209.1205s-.0911.1374-.1014.2192c-.0588.4675-.0103.8431.1453 1.1269.016.0282.0401.0517.0698.0683.0297.0167.0641.0258.0997.0265 2.086.0618 4.1639-.0257 6.2338-.2624.7134-.0809 1.3204-.1353 1.821-.1632.4052-.0221.8103-.0449 1.2155-.0684.3083-.0162.7149-.0272 1.2199-.0331 1.9862-.022 3.9481-.2528 5.8858-.6924.0088-.0015.2723-.0706.7905-.2073.505-.1353.9322-.1845 1.2816-.1478.7061.072.7318.2463.0771.5227-1.0526.4454-2.1771 1.0027-3.3735 1.6716-.1071.0618-.099.0934.0243.0948.3596.0074.3824.1213.0682.3419-.4565.319-.8881.6689-1.2947 1.0497-.0044.0029-.229.2448-.6738.7255-.5182.5602-1.1443.977-1.8783 1.2505-.5314.197-1.0694.219-1.614.0661-.3215-.0897-.6474-.1551-.9777-.1963-.3435-.0411-.6613-.1183-.9535-.2315-1.1435-.444-2.3348-.6513-3.5737-.6219-.4918.0118-.6937.2323-.6056.6616.3098 1.5084.6217 3.0154.9358 4.5209.1468.7042.2327 1.1806.2577 1.429.3494 3.505.5894 5.7898.72 6.8542.022.1852.0015.3455-.0616.4808-.0632.1367-.0918.2293-.0859.2778.0073.0721.0352.1382.0837.1985.0513.0642.0823.1302.088.1875.1336 1.332.2217 2.1222.2643 2.3707.0763.4455.0213.9968-.1652 1.654-.3861 1.357-.7384 2.3817-1.0569 3.0742-1.0716 2.3244-2.8251 4.0607-5.2605 5.209-.2378.1132-.9806.527-2.2284 1.2416-.549.3131-1.2419.5013-2.0786.5645-.4801.0353-1.0049.1772-1.5745.4256-.3185.1397-.7853.408-1.4004.805-.9777.6322-1.9766 1.2284-2.9969 1.7885-.0357.0199-.0731.0321-.108.0352-.035.0031-.0662-.003-.0901-.0175-.0925-.0559-.083-.1588.0286-.3088.7516-1.0071 1.7777-1.7981 3.0783-2.3729.0641-.0283.1202-.0644.1644-.1055.0441-.0412.0752-.0865.0911-.1327l.0484-.1367c.044-.1221-.0044-.1353-.1453-.0397l-.6034.4124c-.0375.0264-.0739.0479-.1069.0631-.0329.0152-.0618.0237-.0846.0251-.2379.0162-.2342-.1132.011-.3881 1.1054-1.2365 2.4273-2.1598 3.9657-2.7699 1.0496-.4176 2.0442-1.1248 2.9837-2.1216.5416-.5733.9967-1.1034 1.3652-1.59.389-.5146.6987-1.1321.9292-1.8525.2481-.7777.4565-1.5657.6254-2.3641.1835-.86.2737-1.8201.2708-2.8801-.0029-.9689-.0249-1.9385-.0661-2.9088-.0007-.0146-.0049-.0288-.0122-.0415s-.0175-.0234-.0298-.0314c-.0122-.0079-.0261-.0129-.0407-.0144-.0145-.0015-.0291.0004-.0428.0057-.6297.2514-1.28.4388-1.9509.5623-.389.0706-1.0254.1007-1.9091.0904-.6415-.0073-1.2815.0228-1.9201.0904-.6254.0662-1.1788.2243-1.6603.4742-.4918.2558-.9835.5726-1.4753.9505-.1967.1514-.4426.3014-.7377.4499-.2187.1102-.4668.2536-.7442.43-.4889.3117-1.0195.53-1.5921.655-.0634.0145-.1266.0496-.1827.1014-.1864.1721-.3134.1485-.381-.0705-.0283-.0921-.0204-.1915.0221-.2779.2069-.4161.411-.7829.6121-1.1005.3376-.5322.5498-.8939.6364-1.085.4066-.91.7046-1.9296.894-3.0588.1864-1.1085.5013-2.3288.9446-3.6608.3435-1.0291.5703-1.6658.6804-1.9098.2789-.6248.6489-1.1997 1.1098-1.7246.5035-.5719.9322-1.1945 1.286-1.8679.0182-.0346.0426-.064.0711-.0856.0284-.0215.06-.0346.0918-.0379.1938-.0206.3039.0941.3303.3441.047.4322.2907.6535.731.6638 1.9143.0397 3.8138-.103 5.6987-.4279.034-.006.0659-.0198.0931-.0401.0271-.0203.0488-.0466.0633-.0768.2348-.4895.2275-.9754-.0221-1.4577-.0155-.0295-.0387-.0545-.0673-.0723s-.0616-.0278-.0956-.0291c-2.0449-.0809-4.0868-.0405-6.1259.1213-.5372.0426-1.0077.1213-1.4114.2359-.5916.1676-1.0342.3529-1.3278.5558-.3391.2367-.9777.5109-1.9157.8226-.0719.025-.1409.0551-.207.0904-.3406.1794-.6459.1948-.916.0463-.251-.1382-.4558-.3257-.6144-.5624-.1688-.2528-.1893-.5594-.0616-.9196.3318-.9424.8778-1.6282 1.6382-2.0575.4302-.2426 1.2236-.4837 2.3804-.7234.9571-.1985 2.0625-.3514 3.3161-.4587.4345-.0368.6658-.236.6936-.5976.0235-.2897-.066-.5271-.2686-.7124-.2055-.1867-.4675-.2455-.7861-.1764-.2393.0515-.367.0787-.3831.0816-.4977.0735-.9102.1559-1.2375.247-.9851.2764-1.9495.4234-2.8934.4411-.3303.0059-.5806-.0684-.7509-.2228-.2305-.2131-.3266-.4895-.2884-.8292.0073-.0705-.0206-.0889-.0837-.0551l-2.5829 1.3695c-.2672.1411-.3722.3455-.3149.6131.1673.7821.3765 1.5775.6276 2.3861.1365.4367.2025.8072.1981 1.1115-.0058.3676-.0499.7476-.1321 1.1402-.1042.5028-.1314 1.0534-.0815 1.6518.0778.9321.0999 1.8782.0661 2.8382-.0044.1147-.036.2228-.0947.3242l-1.4467 2.4523c-.0341.0579-.0794.1083-.1332.148-.0537.0398-.1147.0682-.1795.0836-.477.1088-.9306.2749-1.3608.4984-.0058.0029-.149.0941-.4293.2734-.3347.2132-.7693.3544-1.3036.4235-.1172.0143-.2268.0661-.3127.1477-.9395.8969-1.8562 1.9231-2.7502 3.0787-.041.0529-.0952.0942-.1574.1198-.0622.0255-.1302.0344-.1972.0257-.0968-.0118-.1335-.0809-.1101-.2073.0103-.0559.0426-.1161.0969-.1808.2334-.2764.3971-.583.4911-.9197.1453-.5278.2481-.8483.3082-.9615.3773-.7219.8573-1.3739 1.4401-1.9561.3494-.3499.6489-.7351.8984-1.1556.2643-.4425.5182-.816.7619-1.1203 1.3887-1.7334 1.8636-3.7027 1.4247-5.9081-.2364-1.1908-.3648-1.9994-.3854-2.4258-.0029-.0853-.0337-.2485-.0924-.4896-.0646-.2617-.1542-.2962-.2687-.1036-.0384.064-.093.1109-.1541.1323-1.562.5469-2.9683 1.4628-4.219 2.7478-.662.6807-1.1377 1.1821-1.4269 1.504-.0243.0271-.0546.0465-.0867.0557-.0321.0091-.0642.0074-.0916-.0049-.1086-.05-.1285-.1397-.0595-.2691.0168-.0309.0258-.0641.0258-.0952s-.009-.0587-.0258-.079c-.0514-.0618-.088-.0368-.1101.075-.0142.0784-.0468.1445-.0925.1874l-2.5917 2.4391c-.0295.0275-.0636.0469-.0976.0556-.0339.0087-.066.0062-.0917-.0071-.0734-.0411-.08-.1271-.0198-.258.7398-1.5966 1.6213-3.1095 2.6445-4.5385 1.9348-2.6994 4.1324-5.1612 6.5927-7.3857 1.0496-.9497 1.9216-2.0318 2.6159-3.2462.1072-.1882.1666-.3911.1784-.6087.0132-.2661.1343-.4756.3633-.6285.2452-.1617.4191-.1044.5219.172.069.1882.1739.3602.3148.5161.2041.2279.3296.3808.3766.4587.2995.4925.5585 1.0519.7773 1.6782.4007 1.1483.7134 2.1877.938 3.1184.0026.0118.0081.0228.0161.032s.0184.0162.03.0205c.0117.0044.0245.0059.0371.0044.0127-.0015.025-.0059.0357-.0128zm23.6821 2.9551c-.7061.3455-.9563.5249-.7508.5381.0249.0015.0491-.0029.0726-.0132.6225-.2764.9278-.4257.916-.4477-.022-.0411-.059-.0721-.1034-.0865-.0443-.0144-.0924-.0111-.1344.0093zm-13.5266 6.713c-.3523.3249-.7553.5285-1.2089.6109-.2554.0455-.5402-.0133-.8544-.1765-.5079-.2602-1.029-.4903-1.5634-.6902-.1174-.0441-.3376-.0787-.6605-.1037-.2393-.0191-.4588-.097-.6584-.2337-.0267-.0186-.0582-.0286-.0898-.0286s-.0619.01-.0864.0286c-.48.3749-.7971.863-.9512 1.4643-.0837.322-.1645.6454-.2423.9703-.0083.0328-.0097.0673-.004.1014.0057.0342.0183.0672.0371.0971l.4778.7895c.0146.0253.0386.0438.0669.0516.0284.0078.0588.0043.085-.0097 1.4122-.7601 3.0314-1.11 4.8576-1.0497 1.2888.0426 1.6867-.5344 1.1934-1.7312-.0235-.0559-.0374-.1176-.0418-.1852-.0176-.2985-.0969-.3191-.2378-.0618-.0367.0662-.0764.1184-.1189.1566zm3.0145 2.3134c-.1307.2484-.1645.491-.1013.7277.0102.0382.0271.0727.0493.1007s.0491.0487.0784.0603c.0939.0368.1446-.0184.1519-.1654.0147-.2617-.0117-.4998-.0792-.7145-.0265-.0838-.0595-.0867-.0991-.0088zm-4.7321 1.976c-1.2639-.1324-2.5638-.0633-3.8996.2073-.0898.0178-.1717.0636-.2341.1309-.0625.0673-.1023.1526-.1138.244-.094.7424-.1101 1.3562-.0485 1.8414.0529.4117.2753.5506.6672.4168.9953-.3396 1.8878-.6234 2.6776-.8512.825-.2368 1.6661-.3323 2.5234-.2867.2379.0117.4147-.0302.5307-.1257.1732-.1427.2547-.3308.2444-.5646-.0146-.3514-.0212-.5418-.0198-.5712.0088-.2867-.0411-.5616-.1497-.8248-.0054-.0128-.0133-.0244-.0234-.034-.0102-.0096-.0222-.017-.0354-.0218-.0132-.0047-.0273-.0067-.0415-.0059-.0141.0009-.0279.0046-.0406.011-.7193.3558-1.3983.5006-2.0369.4345zm-5.0403 1.9671c-.1159.2014-.0961.3029.0595.3043.0306-.0002.0605-.0124.0846-.0345s.0409-.0528.0475-.0868c.1453-.7601.1813-1.526.1079-2.2979-.0027-.0236-.0088-.0453-.0176-.063-.0089-.0178-.0202-.031-.033-.0385-.0265-.0161-.0521-.0117-.0771.0133-.0206.0206-.0316.0522-.033.0948-.0176.6351-.0426 1.2703-.0749 1.9054-.0029.0662-.0242.1338-.0639.2029zm9.6711-1.31c.0778.2117.1534.1978.2268-.0419.0106-.0342.0099-.0704-.0019-.1014-.0118-.0311-.0339-.0547-.062-.0662-.0484-.0176-.0917-.0117-.1299.0177-.023.0176-.0385.0458-.0445.0803-.0059.0345-.0019.0736.0115.1115zm.0616.8888c-.0336.0529-.0549.113-.0621.1756-.0073.0626-.0003.1262.0203.1861.1615.4601.1952.8777.1013 1.2526-.0191.0764-.0206.147-.0044.2117.1189.4543.1923.383.2202-.2139.0147-.2955.0242-.5903.0286-.8844.0044-.2528-.0139-.5101-.0551-.7718-.0293-.1897-.1123-.175-.2488.0441zm.1365 3.1426c-.0748.344-.0697.6851.0155 1.0232.0084.036.0268.0681.0519.0904.025.0222.0551.0332.0846.0309.0998-.0073.1233-.1095.0704-.3065-.0396-.15-.0425-.3815-.0088-.6947.0059-.0544.0015-.1051-.0132-.1522-.0778-.2543-.1446-.2514-.2004.0089zm-.0704 1.8414c-.0294.8351.0404.8601.2092.075.0102-.0485.0117-.0978.0044-.1478-.0587-.4116-.1241-.4396-.196-.0838-.0088.0485-.0147.1007-.0176.1566zm-.174 2.4766c-.1057.5925-.182 1.1887-.229 1.7885-.0044.0603-.0176.1213-.0396.183-.1439.3911-.0741.4338.2092.128.0474-.0518.0788-.117.0903-.1875.0734-.4925.1636-1.4996.2708-3.0213.0176-.2411-.033-.3808-.1519-.419-.0129-.0043-.0266-.0049-.0401-.0017-.0134.0032-.0263.0101-.0376.0201s-.0206.0229-.0274.0377-.0108.0311-.0116.0476c-.0162.2396-.0162.4785 0 .7167.0176.2587.0066.4947-.0331.7079z"/><path d="m146.752 45.1306c.78.122.812.347.097.6748-.316.1441-.589.1875-.819.1302-.026-.006-.049-.0237-.064-.0499-.016-.0262-.024-.0593-.022-.0935.007-.1588-.076-.2279-.251-.2073-.552.0647-.882.0463-.991-.0551l-.15-.1368c-.018-.0173-.044-.0317-.078-.0424-.033-.0106-.073-.0172-.115-.0193-.109-.0059-.167-.0632-.174-.172-.005-.068-.034-.1305-.082-.1742-.064-.0559-.106-.1272-.123-.214-.006-.034-.02-.0652-.04-.0895s-.045-.0407-.072-.0472c-.786-.2014-1.586-.2779-2.401-.2293-.014.0012-.029-.0005-.043-.005-.014-.0044-.027-.0116-.038-.0211-.011-.0094-.02-.021-.027-.0339-.006-.013-.01-.0271-.011-.0415-.055-.9277.384-1.3496 1.319-1.2658.056.0043.12.0382.181.0948.135.125.331.1705.588.1367.132-.0176.549-.0147 1.251.0088.03.0013.06.0118.087.0304s.049.0447.065.0755c.055.1176.142.1999.259.247.166.0661.255.1029.267.1103.342.1984.677.4065 1.006.6241.026.0175.046.0429.058.0732.012.0302.015.0638.008.0966-.07.3528.035.5513.315.5954z"/><path d="m137.806 47.4946c.065.0456.144.0691.238.0706.586.0161 1.12.1852 1.603.5072.032.0214.057.0495.072.0807.015.0311.019.0638.012.0935l-.17.6947c-.007.0283-.023.0568-.048.0835-.024.0267-.056.0509-.093.0709-.98.5204-1.788.802-2.422.8446-2.52.1706-4.117.2992-4.789.3859-.375.0486-.72.0493-1.037.0022-.003 0-.188-.0551-.555-.1654-.394-.1176-.802-.0705-1.225.1412-.089.0442-.189.064-.289.0575-.1-.0066-.197-.0394-.281-.095-.599-.4043-1.061-.9167-1.387-1.5371-.156-.297-.193-.5675-.112-.8116.082-.2455.238-.4947.469-.7476.515-.569 1.106-.8035 1.774-.7035.353.053 1.145.0515 2.376-.0044.053-.0029.703-.0742 1.949-.2139 1.55-.1764 3.041.0853 4.472.7851.179.0867.165.1573-.042.2117l-.491.1257c-.095.025-.103.0662-.024.1235z"/><path d="m88.5677 67.6366c.1409.0088.2818 0 .4228-.0265.1027-.0206.1783-.0199.2268.0022.0455.0206.0829.0515.1123.0926.0179.0244.025.0559.0202.089-.0049.0331-.0214.0657-.0467.0919-.251.2558-.5321.4734-.8433.6527-1.7205.9968-3.1062 2.0157-4.1573 3.0566-.6151.6072-1.2999.9821-2.0544 1.1247-.4067.0765-1.1568.1029-2.2504.0794-1.3271-.0279-2.6057-.3028-3.8359-.8248-.6312-.2676-.9505-.4028-.9578-.4058-.8426-.3366-1.6809-.6924-2.5147-1.0673-.0624-.0282-.131-.0396-.199-.033-.068.0065-.133.0309-.1885.0705-.411.2896-.8426.5542-1.2948.7939-.2877.1529-.6562.2595-1.1054.3197-.6943.0941-1.3696.2728-2.0258.5359-.7222.2882-1.4628.4411-2.2217.4588-.2657.0058-.8838-.0699-1.8541-.2272-.5167-.0853-1.1362-.1632-1.8585-.2338-.0327-.0035-.0644-.0135-.0932-.0294-.0287-.0159-.0539-.0374-.0741-.0632-.2701-.3411-.1329-.4969.4118-.4675.4301.0235.8485-.0235 1.2551-.1412.4257-.1235.6466-.1874.6628-.1918 1.1435-.2823 2.2533-.6653 3.3293-1.149.7869-.3543 1.3719-.7557 1.755-1.2041.3641-.4264.3428-.8321-.0639-1.2173-1.0393-.9866-1.774-2.1943-2.2041-3.6234-.0141-.0467-.0428-.0877-.082-.1171-.0392-.0293-.0868-.0455-.136-.0461-.8103-.0132-1.5128.1243-2.1073.4124-.2011.0971-.4705.3279-.8081.6925-.9234.9968-1.9194.91-2.9881-.2602-.5828-.6381-.6877-1.2211-.3149-1.7489.2114-.2999.6225-.5792 1.2331-.838 1.3007-.5513 2.7415-.8865 4.3225-1.0056.4448-.0338.7303-.2507.8566-.6506.1409-.4484.2128-.677.2158-.6858.8587-1.8172 2.0492-3.3859 3.5715-4.7062.9498-.8263 1.5289-1.8584 1.7374-3.0963.0129-.0771.0462-.1439.0947-.1896.2994-.2911.5629-.2507.7905.1213.5446.8909.9299 1.848 1.156 2.8713.0225.1005.006.2055-.0462.2933-.2775.4675-.6195.8799-1.0261 1.2372-.3303.2896-.4999.4388-.5087.4477-.3523.3293-.7083.6557-1.068.9791-.7193.6484-1.087.9821-1.1031 1.0013-.3289.3969-.5234.8733-.5836 1.429-.0425.397.13.5771.5175.5403l3.8622-.3661c.0333-.0026.0654-.0144.0929-.0342s.0494-.0468.0635-.0783c.1556-.3602.1527-.7321-.0088-1.1158-.2907-.691-.5197-1.4026-.687-2.1348-.1351-.591.0477-.7167.5483-.3771.4404.297.8272.7652 1.1604 1.4048.1042.2029.1901.2345.2576.0948.0127-.0261.0307-.0492.0531-.0678.0223-.0185.0484-.0321.0765-.0398s.0576-.0094.0865-.0049.0566.015.0812.0309c.8441.5513 1.3887 1.3048 1.6338 2.2605.0077.0309.0246.0586.0483.0792.0237.0205.053.0329.0839.0354.8073.0603 1.7212.0434 2.7414-.0507.3567-.0323.7612-.0331 1.2133-.0022.5079.0353.9101.0456 1.2067.0309 3.1972-.1514 6.2807-.5285 9.2504-1.1313.1938-.0397.3663-.0611.5175-.064.1835-.0029.3126-.0235.3875-.0617.1233-.0647.2254-.1566.3061-.2757.0188-.0292.0449-.052.074-.0648s.0597-.0148.0867-.0058l.2885.0971c.0305.0099.0628.0114.0932.0044.0303-.0071.0576-.0223.0785-.0441.1674-.1735.3047-.1412.4118.097.1732.394.3009.988.3832 1.7819.0778.7469.1739 1.3438.2884 1.7907.1527.591.3156 1.1791.4888 1.7643.2613.8792.3979 1.7789.4096 2.6993.0059.4866.083.9953.2312 1.5261.069.2499.232.3896.4889.419.6738.0764 1.3828.2014 2.1271.3749 1.0701.2485 2.1531.3029 3.2481.1632.368-.0471.663-.2066.883-.4786.164-.2014.253-.3087.266-.3219.592-.6308 1.048-1.2696 1.37-1.9165.315-.638.687-1.1666 1.114-1.5856.178-.175.504-.602.978-1.2813.499-.7175.77-1.4305.814-2.1392.083-1.3202.097-2.6405.044-3.9607-.048-1.2409-.036-2.1259.038-2.6552.114-.8322.315-1.7011.603-2.6067.072-.2235.201-.4073.386-.5513.59-.4602.958-.3544 1.105.3175.056.2573.087.3955.092.4146.337 1.2762.494 2.57.474 3.8814-.025 1.4702-.034 2.3031-.027 2.4986.049 1.3511.069 2.3678.062 3.05-.006.5322.059 1.0335.194 1.504.114.394.365.8057.753 1.235.66.7336 1.325 1.4636 1.993 2.1899.226.2455.395.5359.506.8711.173.516.314.8571.421 1.0233.246.3778.663.5395 1.25.4851 1.605-.147 3.317-.6858 5.135-1.6165.868-.444 1.384-1.0571 1.548-1.8392.347-1.6628.505-2.9654.476-3.9078-.025-.7866.121-1.4534.438-2.0003.015-.0254.02-.0555.016-.0856-.004-.0302-.018-.0589-.04-.082-.195-.2058-.167-.4785.084-.8182.015-.0207.022-.0462.019-.0714-.002-.0253-.014-.0485-.033-.0653-.195-.1823-.218-.3844-.07-.6065.031-.047.053-.1139.066-.2006l.093-.5977c.013-.0897.011-.1588-.005-.2073-.098-.3073-.109-.6182-.033-.9328.008-.0319.026-.06.051-.079.026-.0191.057-.0279.088-.0247.213.0191.358.1243.436.3154.028.0676.034.1779.017.3308-.026.2676.08.3396.32.2161.012-.006.025-.0093.038-.0098s.026.002.038.0071.022.0128.03.0225c.007.0096.013.021.015.0331.066.3264-.064.5425-.39.6484-.101.0323-.17.072-.207.1191-.075.0941-.065.1727.031.236.011.0071.023.0114.037.0126.013.0011.027-.0009.04-.0059.014-.005.026-.0129.037-.0232s.02-.0227.027-.0365c.123-.2558.308-.3403.555-.2536.032.0118.062.031.086.0559.024.025.042.0551.052.088.01.0328.013.0676.008.1016-.005.0339-.018.0662-.038.0941-.203.2838-.157.5242.136.7212.029.0193.054.0446.072.0743.019.0297.031.063.036.0977.004.0347.001.0699-.009.1034s-.027.0644-.05.0907c-.119.1323-.142.2786-.069.4388.097.2103.148.322.152.3352.455 1.6129.67 3.258.643 4.9355-.014.9939.015 1.9863.088 2.9772.021.2779.001.5492-.059.8138-.05.2235-.167.4616-.35.7145-.501.6925-.91 1.1615-1.227 1.407-.201.1559-.609.2771-1.224.3639-2.905.4116-5.823.5447-8.753.3992-2.425-.1206-4.85-.1412-7.275-.0618-.646.0206-1.589.1169-2.83.2889-.944.1294-1.891.2117-2.842.247-.034.0014-.067.0101-.098.0257-.03.0156-.058.0376-.081.0647-.196.2426-.445.3521-.746.3286-.057-.0057-.1221-.0403-.183-.097-.1482-.1382-.2899-.0978-.425.1213-.0258.0426-.0627.0774-.1069.1007s-.094.0342-.1441.0316c-.4976-.025-.9417-.0948-1.3322-.2095-.5328-.1559-1.065-.1492-1.5964.0198-.7575.2397-1.3586.1022-1.8034-.4124-.0577-.0665-.1316-.117-.2146-.1464-.083-.0293-.1722-.0366-.2588-.0212-.9733.172-1.5715.644-1.7946 1.4158-.0111.0385-.0297.0725-.0533.0977-.0235.0252-.051.0403-.0788.0435-.0867.0103-.1248-.0544-.1145-.1941.0088-.1294.0132-.1985.0132-.2073.0073-1.4423.1035-2.8765.2884-4.3026.1806-1.3952.2709-2.0965.2709-2.1038.1703-1.4908.3391-2.9816.5064-4.4724 0-.0045.0147-.2191.0441-.644.0279-.4014.1167-.7902.2664-1.1666.1938-.4867.0617-.6035-.3964-.3507-.5343.2956-1.142.5286-1.8232.6991-.036.0087-.0687.0253-.0947.0482-.0259.0229-.0442.0512-.0528.0819l-.0485.1721c-.0104.037-.0259.0707-.0456.0991-.0196.0284-.043.0509-.0689.0663-1.8966 1.1511-3.333 1.9046-4.3092 2.2604-.7663.2779-1.6324.3543-2.5983.2294-1.0804-.1397-1.6273-.2103-1.6405-.2117-.8984-.0794-1.7924-.1941-2.682-.3441-.4844-.0808-.963-.0683-1.4357.0375-.0369.0084-.0711.0229-.1006.0426s-.0537.0442-.0711.0721l-1.2948 2.0443c-.0601.0956-.1189.1684-.1761.2184-.2657.2293-.4881.4653-.6672.7079-.1879.2558-.2701.4873-.2466.6946.0337.297.2488.4933.6451.5889.8911.2131 1.6581.3388 2.3011.3771 1.6823.0985 3.3653.2021 5.0491.3109.3053.0206.701-.0051 1.1869-.0772.3317-.05.7141-.1507 1.1472-.3021.7795-.2735 1.4555-.4822 2.028-.6263.182-.0456.3178.0081.4074.161.0188.0324.043.0598.0703.0794s.0568.031.086.0331zm-11.6572-7.5555c.0939.2014.1402.1853.1387-.0485 0-.0382-.0044-.0757-.0132-.1125-.1424-.5263-.4096-.9755-.8015-1.3474-.0274-.026-.0596-.0445-.0925-.0531s-.065-.007-.0925.0046c-.0939.0397-.0682.1146.0771.2249.1659.1264.4272.5704.7839 1.332zm17.1599-.419c.0338-.4337-.0859-.5741-.3589-.4212-.0487.0272-.0848.0723-.1005.1256s-.0096.1104.0168.1589c.2628.4896.4103.5351.4426.1367zm-29.6803 2.0311c-.091-.0941-.1923-.1029-.3038-.0265-.0582.0398-.1272.0571-.1938.0486-.1013-.0133-.1806.0036-.2378.0507-.0543.047-.0749.1389-.0617.2756.0308.3014.0404.6043.0286.9086-.0011.0362.0076.0712.0247.0995s.0417.0484.07.0571c.1865.0588.3494-.025.4889-.2514.1335-.2176.3266-.308.5791-.2712.6635.0955 1.2162.2727 1.6581.5314.0275.0163.0594.023.0906.019.0313-.004.0598-.0185.0811-.041.1439-.1559.2525-.333.3259-.5315.0098-.027.0102-.0578.0012-.0887-.0089-.0309-.0269-.0606-.0518-.0855-.0911-.0912-.1358-.2117-.1344-.3617.0003-.0165-.0033-.0328-.0104-.0477-.0072-.0148-.0177-.0278-.0307-.0379-.0131-.0101-.0283-.0169-.0445-.0201-.0161-.0031-.0328-.0024-.0487.0021-.2833.0794-.5167.0882-.7002.0264-.0734-.025-.1431-.0353-.2092-.0309-.1879.0103-.2664-.0536-.2356-.1918.0048-.0206.018-.0406.0382-.0577.0202-.0172.0466-.0308.0763-.0393.0602-.0162.0793-.0442.0573-.0838-.0106-.0201-.0305-.0377-.0577-.0509-.0271-.0132-.0605-.0215-.0965-.0241-.1659-.0133-.3318-.0272-.4976-.0419-.2511-.0221-.4191.061-.5043.2492-.0042.0089-.0105.0166-.0185.0225s-.0173.0098-.0272.0113-.0202.0006-.0298-.0026c-.0097-.0032-.0185-.0086-.0258-.0158zm10.3911 2.5516c-.254-.0647-.378-.2963-.3721-.6947.001-.0631-.0213-.1245-.0626-.1724-.0414-.048-.0991-.0792-.162-.0878-.9087-.1191-1.7902-.0736-2.6446.1367-.4874.1205-.731.3661-.731.7366 0 .2367.1291.4895.3875.7586.4463.469.9182.8505 1.4159 1.1446.0829.049.1783.0702.271.0602s.1771-.0507.2398-.1154l1.0459-1.0762c.1616-.1675.3395-.2782.5065-.3153.2848-.0632.4448-.2095.48-.4389.0054-.0343-.001-.0692-.018-.0983s-.0434-.0506-.0745-.0605c-.1012-.0308-.1585.0125-.1717.1301-.0021.0149-.0067.0292-.0135.0421-.0069.0129-.0158.0242-.0262.0329-.0104.0088-.0221.0149-.0342.0179s-.0245.003-.0362-.0002zm-1.1626 2.6574c.2598-.2955.2128-.372-.141-.2294-.0325.013-.0611.0335-.0834.0597-.0223.0261-.0375.0572-.0443.0903-.0675.3352.022.3617.2687.0794zm33.9824 2.7919c.971.1162 1.874-.0823 2.709-.5954.067-.0416.117-.1052.142-.1798.025-.0745.023-.1552-.006-.2282-.258-.6631-.756-1.3114-1.493-1.9451-.221-.1911-.453-.2029-.695-.0353-.407.2838-.699.6697-.877 1.1578-.126.3455-.219.5896-.279.7322-.105.2411-.187.4903-.247.7476-.018.0782-.012.1541.018.2139.102.2014.276.2551.519.161.072-.0279.142-.0375.209-.0287zm-.982-2.331c-.088.1294-.077.1757.031.1389.022-.0076.041-.0205.058-.0377.016-.0171.029-.0382.037-.0615.106-.3043.064-.3176-.126-.0397zm-.264.6197c-.05.2058-.012.2624.115.1698.028-.0207.051-.0479.068-.0795.017-.0317.026-.067.029-.1035.007-.1618-.036-.2044-.13-.128-.04.0339-.067.0809-.082.1412zm-18.5492.0904c.0807.0397.1358.0088.1652-.0926.0043-.0151.0055-.0309.0034-.0464-.0021-.0154-.0074-.0302-.0156-.0432s-.019-.024-.0317-.0321c-.0128-.0082-.0271-.0133-.042-.015-.0661-.0089-.1131.0117-.1409.0617-.0078.0139-.0124.0294-.0135.0456-.0011.0161.0013.0325.0071.0482.0057.0157.0148.0304.0265.0431s.0258.0231.0415.0307zm18.4522.344c-.117.272-.249.5374-.396.7962-.156.272-.109.3624.139.2712.031-.0109.06-.0299.083-.0556.024-.0257.042-.0572.053-.0921.084-.2676.144-.5403.181-.8182.032-.2382.012-.272-.06-.1015z"/><path d="m101.452 57.4223c.463-.0162.867-.1536 1.211-.4124.458-.3425.656-.7917.594-1.3474-.056-.497-.068-.7954-.037-.8954.104-.3337.341-.4822.711-.4455.207.0206.442.1103.705.2691.858.5204 1.485 1.2511 1.88 2.1921.013.0315.017.0658.012.0994-.004.0337-.018.0656-.038.0924-.433.5528-1.071 1.2585-1.914 2.1172-.452.4601-.531 1.0115-.236 1.6539.26.5631.515 1.1277.765 1.6937.64 1.4511.262 2.5038-1.134 3.1581-.202.094-.604.1484-1.207.1631-.043.0015-.447-.0191-1.213-.0617-.739-.0412-1.457.0588-2.1539.2999-.1586.0544-.4287.186-.8103.3948-.2643.1455-.5395.2712-.8258.3771-.0572.0205-.119.025-.1787.013-.0597-.0121-.1152-.0402-.1604-.0814-.3758-.3484-.7061-.7344-.9909-1.1578-.3068-.4528-.2928-.8975.0419-1.3342.4947-.6484 1.1032-1.2166 1.8254-1.7047.207-.1397.3655-.3213.4756-.5447.1688-.3441.4228-.6682.7619-.9726.4672-.4175.4972-.96.0903-1.6275-.0184-.0307-.0437-.0563-.0737-.0748-.0299-.0184-.0636-.0291-.0981-.0311-.32-.0191-.604-.0639-.8521-.1345-.2643-.0764-.4874-.2367-.6694-.4807-.8324-1.1174-.6591-2.1473.5196-3.0897 1.3109-1.0497 2.5466-2.1406 3.7056-3.2727.023-.0216.05-.0379.079-.0478.029-.0098.061-.013.091-.0092.031.0038.06.0145.086.0312.026.0168.048.0391.064.0655.257.4205.332.8593.226 1.3166-.052.2293-.186.5528-.4.9703-.008.0133-.075.1926-.203.5381-.088.2382-.258.4845-.511.7388-.373.3734-.467.8535-.284 1.4401.01.0304.03.0567.056.075s.058.0275.09.0264zm-.344 5.1406c-.128.1706-.243.3521-.346.5447-.008.0158-.013.0333-.014.0513s.001.0359.008.0526.017.0317.031.0438c.013.0122.029.0213.046.0266.782.2484 1.452.1264 2.01-.3661.025-.0217.044-.0504.053-.0829.009-.0324.009-.0671 0-.1002-.348-1.2438-.944-1.3004-1.788-.1698z"/><path d="m114.947 61.5459c-.409.2941-.364.4712.137.5315.778.0926 1.288.0823 1.53-.0309.405-.1911.511-.4895.317-.8953-.268-.5572-.166-.999.306-1.3254.265-.1823.46-.1257.586.1698.198.4675.521.8968.967 1.2879.292.2543.527.666.704 1.235.16.516.072.9064-.264 1.171-.175.1382-.503.2529-.986.344-1.139.2132-2.289.3433-3.449.3904-.33.0132-.671.0889-1.024.2271-.472.1867-.822.2632-1.05.2294-.757-.1103-1.185-.5506-1.281-1.321-.146-1.16-.003-2.2715.427-3.3345.006-.0147.14-.2249.403-.6307.17-.2646.204-.5631.101-.8953-.008-.0274-.027-.0506-.054-.0652-.026-.0146-.058-.0197-.089-.0142-.222.0397-.418.0117-.59-.0838-.143-.078-.248-.2257-.317-.4433-.157-.4911-.243-.9946-.258-1.5107-.009-.3381.083-.6211.275-.849.137-.1617.292-.3043.467-.4278.222-.1574.381-.2933.478-.408.611-.7116 1.146-1.4776 1.607-2.298.184-.3264.34-.308.469.0552l.637 1.7995c.116.3279.047.6219-.205.8821-.388.4014-.531.8594-.429 1.374.003.0143.008.0279.016.0399.009.0121.019.0223.031.0302.012.0078.026.0131.04.0154.014.0024.029.0018.043-.0017.709-.1662 1.296-.5168 1.763-1.052.212-.2426.315-.5006.311-.7741-.006-.3028-.093-.588-.26-.8556-.044-.0709-.064-.1429-.055-.2007.031-.2029.17-.2874.418-.2536 1.154.1617 2.109.7277 2.865 1.6981.258.3337.403.6748.434 1.0233.005.0679-.017.1374-.062.194-.213.2588-.459.4756-.737.6506-.466.2926-.737.4705-.813.5337-.988.8159-1.894 1.715-2.717 2.6971-.113.1353-.22.319-.322.5513-.114.2661-.238.4462-.37.5403zm-.11-1.4974c-.355.5028-.577 1.0108-.667 1.5239-.007.0375-.004.0751.007.1083.012.0332.031.0606.057.0791.087.0618.164.0537.233-.0242.044-.0485.069-.1279.075-.2382.028-.5175.187-.9902.476-1.418.251-.3749.23-.4293-.064-.1632-.044.0397-.083.0838-.117.1323z"/><path d="m65.7735 54.0337c.0419-.0203.0901-.0237.1344-.0093s.0814.0454.1034.0865c.0117.0221-.2936.1713-.916.4477-.0235.0103-.0477.0147-.0727.0132-.2055-.0132.0448-.1926.7509-.5381z"/><path d="m160.203 64.6209c.177-.2043.34-.4197.488-.6461.165-.2529.323-.472.476-.6572.879-1.0674 1.49-2.273 1.832-3.6168.009-.0367.039-.2992.09-.7873.025-.2352.094-.4601.207-.6748.036-.0676.053-.1367.053-.2073 0-.6366.198-.7292.592-.2779.044.051.068.1202.067.1941-.002.2911.033.5756.105.8535.104.4028.158.6777.161.8248.016.9321-.283 1.8429-.896 2.7323-.555.8057-.921 1.8312-1.097 3.0765-.169 1.2011-.222 2.406-.161 3.6145.018.3602.003.7035-.044 1.0299-.035.2293-.068.4587-.099.688-.035.272-.079.4985-.132.6793-.398 1.3658-1.162 2.4075-2.292 3.1249-1.403.8895-2.906 1.0424-4.507.4587-.143-.0514-.395-.1757-.758-.3727-.249-.1352-.509-.2514-.777-.3484-.242-.0882-.52-.3426-.833-.763-.582-.7837-.979-1.6386-1.191-2.5648-.18-.7954-.143-1.5563.112-2.2825.357-1.0145.978-1.8238 1.863-2.4281.476-.3264 1.178-.5954 2.108-.8072 1.127-.2587 2.258-.5006 3.393-.7255.07-.0143.133-.0507.18-.1037.407-.4587.681-.7211.822-.7873.238-.1102.347-.0558.328.1632-.006.0544-.04.1404-.101.2581-.055.1043-.08.2124-.075.3241.003.0809.031.0905.086.0287zm-.291.5469c.117-.3117.071-.3389-.139-.0816-1.017 1.2512-2.33 2.2164-3.937 2.8956-1.207.5102-1.706 1.4247-1.499 2.7434.067.4338.159.7278.275.8822.583.7807 1.349 1.0519 2.299.8137.577-.1455 1.139-.494 1.689-1.0453.3-.3028.514-.6344.64-.9946.149-.4249.202-.8248.161-1.1997-.15-1.3805.021-2.7184.511-4.0137z"/><path d="m76.9085 60.0826c-.3567-.7616-.618-1.2056-.7839-1.332-.1453-.1103-.171-.1853-.0771-.225.0275-.0115.0596-.0131.0925-.0045s.0651.0271.0925.0531c.3919.3719.6591.8211.8015 1.3474.0088.0368.0132.0743.0132.1125.0015.2338-.0448.2499-.1387.0485z"/><path d="m94.0695 59.6607c-.0323.3984-.1798.3528-.4426-.1367-.0264-.0485-.0325-.1056-.0168-.1589s.0518-.0985.1005-.1256c.273-.1529.3927-.0125.3589.4212z"/><path d="m114.835 60.048c.034-.0485.073-.0926.117-.1323.293-.2661.314-.2117.063.1632-.289.4278-.447.9005-.475 1.418-.006.1103-.031.1897-.075.2382-.069.0779-.147.086-.233.0243-.026-.0186-.046-.046-.057-.0792s-.014-.0708-.007-.1083c.089-.5131.312-1.0211.667-1.5239z"/><path d="m172.781 60.6414c-.08.0558-.099.0397-.055-.0486.135-.2719.346-.4667.632-.5844.257-.1044.285-.061.084.1301-.135.1294-.355.297-.661.5029z"/><path d="m171.708 61.1612c.042-.0459.094-.0814.152-.1036s.121-.0306.183-.0244c.123.0147.147.0721.071.1721-.099.1249-.214.2308-.346.3175-.618.4043-.638.2838-.06-.3616z"/><path d="m64.496 61.6785c.0852-.1882.2533-.2713.5043-.2492.1659.0147.3317.0286.4976.0419.0361.0026.0694.0109.0965.0241.0272.0132.0471.0308.0577.0508.022.0397.0029.0677-.0573.0838-.0297.0086-.0561.0222-.0763.0393-.0202.0172-.0334.0372-.0382.0578-.0308.1382.0477.2021.2356.1918.0661-.0044.1358.0059.2092.0309.1835.0618.4169.0529.7002-.0265.0159-.0044.0326-.0051.0487-.002.0162.0031.0314.01.0445.0201.013.0101.0235.023.0307.0379.0071.0149.0107.0312.0104.0477-.0014.15.0434.2705.1344.3617.0249.0249.0429.0546.0519.0855.0089.0309.0085.0617-.0013.0887-.0734.1985-.182.3756-.3259.5315-.0213.0225-.0498.037-.081.041-.0313.004-.0632-.0027-.0907-.019-.4419-.2587-.9946-.4359-1.6581-.5315-.2525-.0367-.4455.0537-.5791.2713-.1395.2264-.3024.3102-.4889.2514-.0283-.0087-.0529-.0288-.07-.0571s-.0258-.0633-.0246-.0995c.0117-.3043.0022-.6072-.0287-.9086-.0132-.1367.0074-.2286.0617-.2756.0572-.0471.1365-.064.2378-.0508.0667.0085.1356-.0087.1938-.0485.1115-.0764.2128-.0676.3038.0265.0073.0072.0161.0126.0258.0158.0096.0032.0199.0041.0298.0026s.0192-.0054.0272-.0113.0143-.0136.0185-.0225z"/><path d="m55.2571 63.0563c.0397-.0779.0727-.075.0991.0088.0676.2147.094.4529.0793.7146-.0073.147-.058.2021-.1519.1654-.0293-.0117-.0562-.0324-.0784-.0604s-.0391-.0625-.0494-.1006c-.0631-.2367-.0293-.4793.1013-.7278z"/><path d="m45.5522 66.8003c.0323-.6351.0573-1.2702.0749-1.9054.0014-.0426.0124-.0742.033-.0948.025-.025.0506-.0294.0771-.0132.0128.0074.0241.0207.033.0384.0088.0177.0149.0394.0176.063.0734.7719.0374 1.5379-.1079 2.298-.0066.034-.0234.0646-.0475.0868-.0241.0221-.054.0343-.0846.0345-.1556-.0015-.1754-.103-.0595-.3044.0397-.0691.061-.1367.0639-.2029z"/><path d="m55.1878 65.5002c.0382-.0294.0815-.0353.1299-.0176.028.0115.0502.0351.062.0661s.0125.0672.0019.1015c-.0734.2396-.149.2536-.2268.0419-.0134-.0379-.0174-.077-.0115-.1115.0059-.0346.0215-.0627.0445-.0804z"/><path d="m55.2212 66.5785c.1365-.2191.2194-.2338.2488-.0441.0411.2617.0594.5189.055.7718-.0044.2941-.0139.5888-.0286.8844-.0279.5969-.1013.6682-.2202.2139-.0161-.0647-.0147-.1353.0044-.2117.094-.3749.0602-.7925-.1013-1.2527-.0206-.0598-.0275-.1234-.0203-.186.0073-.0626.0285-.1227.0622-.1756z"/><path d="m73.6185 66.9005c-.2466.2823-.3361.2559-.2686-.0793.0067-.0332.022-.0642.0442-.0904.0223-.0262.051-.0467.0835-.0596.3538-.1426.4008-.0662.1409.2293z"/><path d="m106.622 67.363c.189-.2779.231-.2646.125.0397-.008.0233-.021.0444-.037.0615-.017.0172-.036.0301-.058.0377-.108.0368-.118-.0095-.03-.1389z"/><path d="m106.439 67.8415c.094-.0765.137-.0338.13.1279-.003.0365-.012.0719-.029.1035s-.04.0588-.068.0795c-.127.0927-.165.0361-.115-.1698.015-.0602.042-.1073.082-.1411z"/><path d="m87.7403 67.9075c.0279-.05.0749-.0706.1409-.0618.015.0018.0293.0069.042.0151.0128.0081.0236.0191.0318.0321.0081.013.0135.0277.0156.0432s.0009.0313-.0035.0464c-.0293.1014-.0844.1323-.1651.0926-.0157-.0076-.0299-.0181-.0416-.0307-.0117-.0127-.0207-.0274-.0265-.0431s-.0082-.0321-.0071-.0482c.0011-.0162.0057-.0317.0135-.0456z"/><path d="m106.26 68.4192c.072-.1705.092-.1367.059.1015-.036.2779-.097.5506-.18.8182-.011.0349-.029.0665-.053.0921-.024.0257-.052.0447-.084.0556-.248.0912-.294.0008-.139-.2712.147-.2588.279-.5242.397-.7962z"/><path d="m55.3572 69.7208c.0558-.2602.1226-.2631.2004-.0088.0147.0471.0191.0978.0132.1522-.0337.3131-.0308.5447.0088.6947.0529.197.0294.2992-.0704.3065-.0296.0023-.0596-.0087-.0847-.031-.025-.0222-.0434-.0543-.0519-.0903-.0851-.3381-.0902-.6792-.0154-1.0233z"/><path d="m55.3054 71.4076c.0719-.3558.1372-.3279.196.0838.0073.05.0058.0992-.0044.1477-.1689.7851-.2386.7601-.2092-.0749.0029-.0559.0088-.1081.0176-.1566z"/><path d="m55.1478 73.3319c-.0162-.2382-.0162-.4771 0-.7167.0009-.0165.0048-.0328.0116-.0476s.0162-.0277.0274-.0377c.0113-.01.0242-.0169.0377-.0201.0134-.0031.0271-.0026.04.0017.1189.0383.1695.1779.1519.419-.1071 1.5217-.1974 2.5288-.2708 3.0213-.0115.0706-.0429.1357-.0903.1875-.2833.3058-.3531.2631-.2092-.1279.022-.0618.0352-.1228.0396-.1831.047-.5998.1234-1.196.229-1.7885.0397-.2132.0507-.4491.0331-.7079z"/></g></svg>