<svg fill="none" height="120" viewBox="0 0 200 120" width="200" xmlns="http://www.w3.org/2000/svg"><path clip-rule="evenodd" d="m48.4692 50.342c17.1882 14.74 14.4711 19.541 14.4711 19.541 2.2145-1.8654 4.2107-3.9758 5.9504-6.2907 3.8691-5.4371 1.201-9.2431 1.201-9.2431-4.13-5.4317-13.1072-10.4502-13.1072-10.4502-7.6024-4.5834-11.466-2.3597-11.466-2.3597-4.8038 3.0611-.1359 6.5735-.1359 6.5735 1.0697.6848 2.1002 1.429 3.0866 2.2292zm-5.085.3483c-3.8039-3.7788-2.1736-7.9491-2.1736-7.9491-12.6616 5.6057-15.6069 12.1302-15.596 12.1302-2.7062 6.9432 4.4016 9.6074 4.4016 9.6074 9.0696 2.4467 13.9114-5.2468 13.9114-5.2468.7471-1.3231 1.0935-2.8351.9971-4.3517-.0965-1.5166-.6317-2.9724-1.5405-4.19zm-9.8451 19.9814s7.1785-.3697 11.1345-4.5889c0 0 3.8637-3.7462 2.6193-10.2381 0 0 11.4117 8.2808 8.6946 16.9475 0 0-2.4888 7.1607-10.2271 6.095.0004 0-.0006 0-.0028-.0002-.153-.0109-6.3257-.4486-12.2185-8.2153zm50.4341-17.8248c-1.0421-.8947-1.802-2.0753-2.2798-3.5421-.0056-.0169-.0073-.0349-.0048-.0525s.0091-.0343.0192-.0488c.0101-.0144.0234-.0261.0389-.0342.0154-.008.0326-.0121.0499-.012l2.0527-.0177c.0931.0001.1851.0242.2675.0701.0825.0458.1528.112.2044.1924.5603.8828 1.2927 1.4953 2.1972 1.8374.0236.0079.2605.0393.7107.0944.293.0354.4297.2281.41.578-.0177.3245-.0266.4945-.0266.5103.0118.5131-.0049 1.0253-.0501 1.5365-.0037.0394-.0225.076-.0526.1022-.0301.0263-.0693.0404-.1096.0394-1.3547-.0354-2.497-.4532-3.427-1.2534zm25.1458.3448-1.968-.0413c-.395-.0078-.592-.1838-.592-.5279v-1.9318c-.001-.0347.007-.0691.021-.1009.014-.0319.035-.0605.061-.084.026-.0236.057-.0416.09-.0529.034-.0113.069-.0157.105-.0128.558.0452 1.033.0452 1.424 0 .03-.004.219-.0059.567-.0059.393-.002.565-.2782.516-.8288-.004-.0497.002-.0997.018-.1468s.042-.0904.075-.127c.034-.0366.074-.0657.12-.0856.045-.0199.094-.0301.144-.0299.58 0 1.053-.0137 1.421-.0413.529-.0393.757.2163.684.7668-.007.0546-.002.11.014.1626s.043.1012.079.1425c.036.0414.081.0745.131.0971.05.0227.105.0344.16.0343l9.915.0177c.054.0003.106-.0212.149-.0606.042-.0394.071-.0942.081-.1547l.142-.7727c.007-.0391.032-.0751.069-.1028.037-.0276.085-.0454.137-.0505.368-.0413.738-.0571 1.112-.0472.02 0 .174-.0089.463-.0266.385-.0255.554.1878.504.64-.037.352.14.5378.531.5574l1.811.0885c.043.0024.084.0194.118.0485s.059.0689.071.1137c.196.753.196 1.5061 0 2.2591-.012.0433-.036.0819-.069.1104-.033.0286-.074.0457-.117.0489l-1.952.1593c-.05.0043-.096.0201-.135.0456-.038.0255-.067.0597-.084.0989l-.221.5692c-.017.0429-.044.0799-.077.1061-.034.0263-.073.0407-.112.0413-.436.0158-.872.0217-1.306.0177-.026 0-.172.0158-.44.0472-.334.0413-.459-.173-.374-.6429.006-.0351.005-.0711-.004-.1056-.009-.0346-.025-.0668-.047-.0945-.023-.0277-.051-.0503-.083-.0661-.031-.0159-.066-.0247-.102-.0258-3.388-.1121-6.716-.1199-9.986-.0236-.056.0015-.111.0142-.162.0375-.05.0233-.096.0566-.133.0979-.038.0414-.067.0899-.085.1427-.018.0527-.025.1086-.021.1643.021.346-.081.5102-.307.4925-.149-.0118-.238-.0167-.265-.0147-.527.0413-1.054.0462-1.581.0147-.039-.0019-.076-.0178-.107-.0454s-.053-.0654-.064-.1079l-.148-.5987c-.012-.0466-.037-.0879-.072-.1177-.034-.0298-.076-.0465-.119-.0475zm46.265.1769 3.752.0383c.058.0005.115.0159.165.0449.051.029.094.0707.125.1216.032.0508.051.1092.055.1702.005.0609-.004.1225-.027.1794-.678 1.6949-1.372 3.2481-2.082 4.6598-.289.5742-.571.9546-.846 1.1414-.392.2674-.875.4021-1.451.404-.06 0-.117.0233-.159.0648s-.066.0978-.066.1564l.012 1.8817c0 .0379.009.0754.026.1098s.041.065.071.0898c.031.0248.066.0433.105.0541s.08.0138.12.0087l1.427-.1887c.057-.0075.115-.0018.17.0168.056.0185.107.0494.15.0907.044.0412.079.0919.103.1486s.037.1182.037.1804l.074 8.0603c.001.0421.016.0829.043.1159.028.0331.065.0566.107.0669.62.1435 1.386.172 2.301.0855.073-.0073.14-.0413.189-.0952.049-.054.076-.1241.076-.1967v-7.8008c0-.0492.013-.0976.037-.1405s.059-.0789.101-.1044.09-.0397.139-.0412c.05-.0016.098.0096.142.0325.539.2811 1.107.461 1.705.5397.038.0049.078-.0058.11-.0299.031-.0241.053-.0599.061-.0999.116-.6763.116-1.3537 0-2.032-.009-.0436-.028-.0847-.056-.1196-.028-.035-.065-.0628-.107-.081-1.675-.7176-2.146-1.8698-1.412-3.4565.261-.5702.395-.8631.401-.8789.395-.9732.783-1.9484 1.165-2.9256.094-.2399.122-.8936.082-1.9613 0-.0255.008-.1907.024-.4954.024-.4169-.17-.6174-.581-.6017-.324.0138-.5.0207-.528.0207-.24-.0079-.479.0019-.717.0295-.483.057-.661-.2212-.533-.8347.014-.0689.013-.1401-.003-.2085-.015-.0684-.046-.1324-.089-.1871-.044-.0548-.098-.099-.16-.1296-.062-.0305-.131-.0465-.2-.0469l-2.046-.0059c-.054-.0005-.106.0112-.155.0342-.048.0229-.09.0566-.124.0984-.034.0419-.057.0909-.07.1435-.013.0525-.013.1073-.002.1604.163.7884-.281 1.0784-1.33.87-.561-.1121-.844.0983-.85.6311l-.018 1.7253c0 .1278.056.2506.157.3418.1.0911.237.1432.38.1449zm16.921-1.1141c-1.25-.0177-2.501-.0236-3.751-.0177-.014 0-.255-.0118-.723-.0354-1.083-.0531-1.627.5004-1.631 1.6605-.012 4.7482-.035 7.8204-.071 9.2164 0 .0435-.016.085-.044.1158s-.066.0485-.106.0493l-2.23.0384c-.056.0014-.11-.0214-.151-.0634s-.065-.0999-.067-.1608c-.061-2.5029-.082-4.9547-.065-7.3554 0-.0157-.009-.4552-.026-1.3183-.024-1.1581.14-2.1127.492-2.8637.354-.7551.957-1.283 1.808-1.5838.722-.2556 1.367-.3863 1.935-.3922 2.359-.0217 4.711-.0325 7.054-.0325.023 0 .045.0044.066.013s.04.0212.055.0371c.016.0159.029.0348.037.0555.009.0208.013.043.013.0655l-.017 13.3778c0 .0413-.015.0813-.041.1131-.026.0317-.063.0533-.104.0609-.678.1179-1.356.1179-2.035 0-.039-.0064-.075-.0274-.101-.0593s-.04-.0726-.04-.1147l-.109-10.6527c-.001-.0404-.017-.079-.044-.1076-.028-.0286-.065-.045-.104-.0458zm-40.006.062 6.385.0147c.039 0 .076.0154.103.043.028.0276.044.0651.044.1045l.071 15.9613c.001.0197-.003.0394-.01.0578s-.018.0352-.032.0494c-.013.0143-.03.0257-.048.0336s-.038.0122-.057.0125l-7.191.1062c-.042.0008-.082.0161-.113.0432-.032.027-.052.064-.058.1043-.112.6803-.118 1.3625-.017 2.0468.005.0409.025.0785.056.1061s.071.0433.112.0443c7.001.1278 14.002.1219 21.001-.0177.045-.0007.087-.0164.118-.0439.032-.0275.05-.0647.051-.1036l.044-2.0143c0-.0239-.005-.0476-.015-.0697-.01-.0222-.024-.0423-.043-.0594-.019-.017-.041-.0305-.065-.0397-.025-.0093-.051-.014-.078-.0141-3.069 0-6.066.002-8.992.0059-.478.002-.952-.0354-1.422-.112-.042-.0068-.081-.0271-.111-.058-.03-.0308-.049-.0705-.054-.1131-.063-.5564-.099-1.4717-.109-2.7458-.035-4.3747-.012-8.7051.071-12.9914.001-.0652.027-.1275.072-.175.046-.0474.107-.0765.173-.0816 2.015-.1415 3.919-.1474 5.712-.0177.041.0036.079.022.107.0518.028.0299.045.0691.047.1104.128 2.6622.136 5.3244.026 7.9866-.002.0177.005.234.021.6488.016.4542-.128.7983-.431 1.0323-.228.1769-.625.2811-1.191.3126-.68.0393-1.434.0433-2.262.0118-.034-.0012-.067.0041-.099.0154-.031.0114-.059.0286-.083.0507s-.043.0485-.056.0777-.019.0605-.019.0921l.015 1.9347c.001.0405.018.0794.049.1093.03.0299.072.0487.116.0529 1.636.1613 2.723.175 3.262.0413 1.5-.3735 2.607-1.1964 3.321-2.4685.242-.4306.368-.9752.38-1.6339.065-3.6531.092-7.3062.08-10.9594-.001-.0393-.017-.0768-.044-.1044-.028-.0276-.065-.043-.104-.043l-18.819-.0531c-.04 0-.078.0161-.106.0449s-.044.0678-.044.1084v2.268c0 .0621.025.1216.069.1658s.104.0694.167.0702zm-38.0715 16.1259c.1396-5.2535.1455-10.455.0177-15.6044-.0016-.0759-.0326-.1483-.0865-.2017-.054-.0534-.1266-.0836-.2026-.0844l-4.5329-.0177c-.0908 0-.1778-.0357-.242-.0993-.0641-.0636-.1002-.1499-.1002-.2399v-2.091c0-.0594.0237-.1164.0657-.1585.042-.042.099-.0656.1585-.0656h12.7468c.039-.0002.078.0139.106.0392.029.0253.046.0599.047.0965l.077 2.2325c.001.0373-.006.0743-.021.1091s-.037.0665-.066.0934c-.028.027-.062.0485-.1.0633-.038.0149-.079.0228-.12.0233l-4.5063.0471c-.0399 0-.0781.0159-.1063.0441-.0283.0282-.0441.0665-.0441.1064v15.6693c-.0001.0405.0153.0793.0428.1085.0275.0291.065.0463.1047.0478l5.0162.1386c.041.0008.079.0167.107.0443.028.0275.044.0646.044.1032l.009 1.9701c0 .039-.007.0776-.022.1137-.015.0362-.037.069-.065.0967s-.062.0497-.098.0647c-.037.015-.076.0228-.116.0228h-13.723c-.1087 0-.213-.0417-.2899-.1158-.0768-.0741-.12-.1746-.12-.2794l-.0089-1.8374c.0001-.0543.023-.1063.0638-.145.0409-.0386.0963-.0607.1545-.0615l5.6625-.0796c.0386 0 .0757-.0161.1033-.0448.0275-.0287.0434-.0676.0442-.1086zm19.8735-2.5421c.33-2.5423.712-5.0757 1.147-7.6003.007-.0412.027-.0791.059-.1074.031-.0284.072-.0456.115-.0489 1.534-.1356 3.068-.1356 4.604 0 .041.0036.08.0221.109.052s.046.0691.047.1103c.1 2.7939.137 5.5888.109 8.3847-.014 1.4569-.783 2.1205-2.309 1.9907-.26-.0216-.942-.0167-2.047.0147-.042.0009-.082.0172-.112.0454-.029.0282-.045.066-.044.1051l.032 1.9937c.001.0396.018.0777.048.1071.03.0293.071.0479.114.0521.4.0374.801.0551 1.204.0531.039 0 .379.0049 1.02.0147.791.0118 1.549-.114 2.274-.3775.798-.289 1.387-.7363 1.767-1.3419.442-.7039.67-1.565.684-2.5835.051-3.6374.051-7.2738 0-10.9093-.001-.0391-.016-.0765-.043-.1045s-.063-.0444-.102-.0459c-2.04-.0806-4.08-.1062-6.119-.0767-.034 0-.18.0138-.44.0413-.544.0551-.734-.2664-.569-.9644.007-.0303.007-.0618.001-.0922-.007-.0304-.02-.0589-.039-.0833s-.043-.0441-.071-.0576c-.028-.0136-.058-.0206-.089-.0205h-1.837c-.045 0-.089.0089-.13.0262-.041.0174-.079.0428-.11.0747s-.055.0697-.071.1112c-.016.0414-.024.0856-.022.13.01.2694-.063.5102-.218.7226-.028.0367-.064.0667-.106.0876-.042.021-.089.0324-.136.0333l-5.975.059c-.076.0007-.148.03-.201.0813-.053.0514-.083.1207-.083.193l.009 1.8226c0 .0714.029.14.08.1908.05.0508.119.0797.192.0805l5.627.0708c.031.0003.061.0069.089.0194s.054.0306.074.0531c.021.0225.036.0489.046.0776.009.0287.012.0589.009.0888-.295 2.7192-.669 5.3892-1.124 8.0101-.124.7157-.322 1.223-.595 1.5218-.4.4365-.936.6784-1.611.7256-.91.0609-1.863.0766-2.857.0471-.03-.0011-.06.0035-.088.0134s-.054.0251-.075.0444c-.021.0194-.038.0426-.049.0682s-.017.053-.016.0805l.086 1.9524c.002.0523.026.1021.067.1401s.096.0616.154.0663c.792.061 1.594.0689 2.404.0236 2.037-.116 3.501-.9526 4.391-2.5098.329-.5741.57-1.4598.726-2.6572zm56.468-1.2949 2.032.0944c.041.0027.081.0204.112.0504s.052.0704.059.1148c.099.5702.12 1.0804.065 1.5306-.2 1.6398.513 2.4096 2.141 2.3093.27-.0157.517-.0236.744-.0236.036.0001.071.0068.104.0196.034.0129.064.0318.089.0555.025.0236.044.0516.057.0823s.019.0634.018.0962l-.05 1.8699c-.002.0405-.02.0796-.05.1112-.031.0316-.072.0537-.118.0627-.983.1927-1.923.1269-2.82-.1975-.66-.238-1.211-.6007-1.651-1.0883-.519-.5741-.794-1.2063-.823-1.8964-.034-.7668-.107-1.5306-.221-2.2916-.057-.3794-.18-.401-.369-.0648-.163.289-.288.5928-.375.9113-.137.5072-.208.7658-.212.7756-.981 2.7645-3.054 4.067-6.22 3.9078-.04-.0015-.078-.0191-.106-.0489-.027-.0298-.042-.0694-.041-.1104l.02-2.0438c.001-.0407.017-.0793.046-.1076.028-.0282.066-.0436.105-.0428.949.0059 1.812-.1681 2.586-.522.527-.2399.878-.6361 1.053-1.1886.252-.8002.581-1.7105.988-2.731.305-.7648.45-1.5945.437-2.4891-.034-2.3594-.051-4.7277-.051-7.1048 0-.0255.005-.0509.015-.0745s.024-.045.042-.0631.04-.0324.064-.0422c.023-.0098.048-.0148.074-.0148h1.973c.035 0 .069.0066.101.0196.032.0129.061.0319.086.0557.024.0239.043.0522.056.0833s.02.0644.02.098l-.121 9.7531c0 .0369.014.0723.041.0992.026.0268.062.0431.1.0453zm-88.8573-8.8271c.3755 1.2505.9939 2.2542 1.8551 3.0112 1.0853.9536 2.3328 1.4481 3.7426 1.4835.0383.0012.0764-.0054.1122-.0192.0357-.0139.0683-.0347.0958-.0614s.0494-.0586.0643-.0939.0226-.0733.0226-.1116v-1.7165c.0002-.0749-.0256-.1475-.0729-.2055-.0473-.0581-.1133-.098-.1866-.113-1.3154-.2635-2.3113-.9388-2.9876-2.0261-.0558-.0902-.1336-.1647-.226-.2163s-.1963-.0787-.3019-.0786h-2.0085c-.0177.0001-.0352.0045-.0511.0125-.0158.0081-.0295.0198-.0401.034-.0106.0143-.0177.0309-.0208.0484s-.0021.0355.0029.0525zm45.3613 13.829c-1.168-.8965-1.894-1.7646-2.177-2.6042-.126-.3696-.264-.9771-.416-1.8226-.104-.58-.176-1.1984-.215-1.8551-.122-2.0625-.195-4.1201-.218-6.1728 0-.0254.004-.0506.014-.0742.009-.0236.024-.0451.042-.0632s.04-.0325.063-.0423c.024-.0098.05-.0149.076-.0149h1.837c.051 0 .101.01.147.0293.047.0193.089.0476.125.0832s.064.0779.083.1244.029.0963.028.1465c-.008 2.442.146 4.8004.46 7.0752.053.3933.224 1.0441.511 1.9524.33 1.0421.416 2.0409.259 2.9965-.071.4247-.277.5053-.619.2418zm-15.928-9.5815c-.391-.0275-.783-.0295-1.177-.0059-.088.0059-.235-.0088-.442-.0442-.157-.0256-.311-.0128-.46.0383-.041.0144-.078.0406-.109.0761-.03.0355-.052.0792-.065.1274-.181.6665-.321 1.3409-.419 2.0232-.165 1.1423-.827 1.8698-1.985 2.1824-.045.0118-.084.0382-.113.075-.028.0369-.043.0821-.043.1285v1.9406c0 .407.194.5476.581.4218 1.003-.3264 1.883-.8514 2.64-1.5749.709-.6783 1.14-1.4864 1.291-2.4243.122-.7432.184-1.1217.186-1.1355.114-.5525.197-1.1099.248-1.6722.002-.019 0-.0383-.006-.0566-.005-.0184-.015-.0354-.027-.05s-.028-.0265-.045-.0351c-.017-.0085-.036-.0135-.055-.0146zm-23.219 1.993c.0346.0003.0684.0097.0985.0273.0301.0177.0557.0431.0747.0741.019.0311.0309.067.0346.1048.0037.0377-.0008.0762-.0131.1123-.4798 1.4058-.9172 2.8225-1.3124 4.2499-.7079 2.558-2.3752 4.0414-5.002 4.4504-.0306.0047-.0619.0027-.0916-.0059-.0298-.0085-.0574-.0233-.0809-.0435-.0235-.0201-.0424-.0451-.0554-.0733-.013-.0281-.0197-.0587-.0198-.0896v-1.8404c-.0001-.0875.0291-.1727.083-.2421.054-.0694.1295-.1191.2149-.1413.9536-.2399 1.6496-.7216 2.088-1.4451.1023-.1691.3716-.9172.8081-2.2444.2615-.8002.525-1.6113.7904-2.4331.046-.1417.1315-.2651.244-.3522.1125-.087.2461-.1331.3813-.1315z" fill="#fff" fill-opacity=".5" fill-rule="evenodd"/></svg>