<svg fill="none" height="120" viewBox="0 0 200 120" width="200" xmlns="http://www.w3.org/2000/svg" xmlns:xlink="http://www.w3.org/1999/xlink"><clipPath id="a"><path d="m20 38h161v44h-161z"/></clipPath><g clip-path="url(#a)"><path d="m48.4926 77.7797c-.7875.743-1.5698 1.4912-2.3468 2.2445-.7388.7159-1.342 1.1779-1.8095 1.3859-.752.3347-1.5705.4633-2.4555.3858-1.1945-.1047-2.2093-.5757-3.0442-1.4131-1.1234-1.1268-2.2678-2.2626-3.4334-3.4075-.1063-.1032-.249-.161-.397-.1609-1.346 0-2.6662 0-3.9608 0-1.1629 0-2.0275-.0911-2.5938-.2733-1.4092-.4549-2.3725-1.3646-2.8901-2.7292-.216-.5686-.3352-1.3917-.3576-2.4694-.0263-1.309-.0309-2.662-.0138-4.0589.004-.2171-.0737-.4025-.2331-.5563-1.0075-.9717-2.0169-1.9687-3.0284-2.9908-.7349-.743-1.2096-1.3601-1.4243-1.8511-.3187-.7301-.4366-1.5203-.3536-2.3706.1067-1.1074.5571-2.054 1.3512-2.8396 1.1405-1.1268 2.3265-2.295 3.5578-3.5045.0859-.0832.1337-.1972.1324-.316-.0185-1.5816-.0125-3.0948.0178-4.5395.0184-.8736.1257-1.5668.322-2.0799.532-1.3904 1.5013-2.313 2.9078-2.7679.5848-.1887 1.5225-.283 2.8131-.283h3.4669c.2661 0 .4866-.053.6618-.1589.0395-.0246.1956-.1725.4682-.4439.9337-.9317 1.8793-1.8511 2.8367-2.7582.6006-.5712 1.1438-.9666 1.6298-1.1863 1.3789-.6254 2.7354-.6203 4.0694.0155.5189.2468 1.1715.7476 1.9577 1.5022 1.0273.9847 2.0552 1.9681 3.0837 2.9501.0456.0436.1072.0679.1719.0679 1.1049.009 2.2105.0136 3.3168.0136 1.5962.0012 2.6919.0923 3.2872.2733 1.4947.4535 2.4943 1.4395 2.9987 2.9578.1738.5247.2608 1.2541.2608 2.1884v3.6402c0 .4148.0856.7566.2568 1.0254.0355.0555.2739.2965.7151.723.8534.8296 1.7134 1.6527 2.5799 2.4694 1.1353 1.0699 1.6469 2.3615 1.535 3.8747-.0711.9537-.3885 1.7968-.9522 2.5295-.0184.0246-.6262.6429-1.8234 1.855-.9126.9239-1.5388 1.5261-1.8786 1.8065-.2344.1926-.376.4129-.4247.661-.0053.0245-.0079.2707-.0079.7385v3.1207c0 1.1578-.0935 2.0184-.2806 2.5818-.4872 1.4641-1.4829 2.4359-2.9868 2.9153-.5598.1783-1.3875.2675-2.4832.2675-1.3236 0-2.6886 0-4.0951 0-.1134-.0001-.2223.047-.3003.1298-.3134.336-.588.6145-.8238.8355zm-11.4122-20.587c0-.9688-.8004-1.7542-1.7878-1.7542s-1.7878.7854-1.7878 1.7542.8004 1.7542 1.7878 1.7542 1.7878-.7854 1.7878-1.7542zm14.087-.0019c0-.9678-.7995-1.7523-1.7858-1.7523s-1.7858.7845-1.7858 1.7523c0 .9677.7995 1.7522 1.7858 1.7522s1.7858-.7845 1.7858-1.7522zm-2.5227 5.9971c-.2884-1.7457-1.1148-3.1278-2.4792-4.146-1.0417-.778-2.1914-1.1979-3.4491-1.2599-1.2011-.0608-2.3429.1983-3.4255.7772-1.7252.9227-2.8077 2.4604-3.2476 4.6132-.0245.1178-.1256.2051-.247.2133-1.1391.0775-2.1117.4206-2.9177 1.0292-.7836.5918-1.3571 1.3743-1.7206 2.3473-.4834 1.2974-.3787 2.609.3141 3.9348.6176 1.1811 1.5369 1.9758 2.7577 2.3842.5861.1951 1.5824.2926 2.9889.2926h10.0985c1.4145 0 2.4213-.0975 3.0205-.2926 1.0826-.3502 1.9353-.9866 2.5582-1.9093.5993-.8865.8975-1.8563.8949-2.9094-.0013-1.1191-.3701-2.1251-1.1062-3.018-.9509-1.1527-2.2593-1.8039-3.9253-1.9538-.0582-.0046-.1056-.047-.1146-.1028z" fill="#fff" fill-opacity=".3"/><path d="m148.07 71.8533c1.069.0607 1.45.6933 1.143 1.8976-.019.0774-.068.1324-.114.1299l-.603-.0368c-.039-.0024-.073-.0251-.092-.0609-.02-.0357-.021-.0802-.005-.1194.123-.2895.142-.5272.058-.7133-.071-.1589-.249-.2539-.534-.2849-.475-.0517-.852-.0543-1.13-.0078-.366.0633-.578.2791-.638.6474l-.067.4226c-.034.1667-.055.3515-.063.5543-.001.0285.009.0561.029.0766s.047.032.076.032h1.995c.346 0 .591.051.735.1531.184.1318.265.3211.243.5679-.013.1486-.085.327-.216.535-.333.5324-.706 1.0441-1.12 1.5352-.093.112-.119.2608-.067.3876l.66 1.6069c.022.0547.021.1158-.003.1686-.024.0529-.068.0929-.124.1105-.467.1499-.775-.0213-.922-.5136-.057-.1913-.112-.3547-.166-.4904-.062-.1543-.141-.1711-.235-.0505l-.016.0214c-.216.305-.448.5957-.695.8722-.156.1732-.391.2275-.707.1629-.034-.0073-.063-.0301-.076-.0607-.013-.0307-.01-.0653.008-.0925l1.251-1.8317c.029-.0426.034-.1041.012-.1647l-.514-1.4053c-.008-.0249-.005-.0524.008-.0761.014-.0238.038-.0418.065-.0499.224-.0659.439-.044.646.0659.051.0262.095.0755.125.1395l.227.4904c.01.0212.03.0365.053.0411.023.0045.048-.002.065-.0178.393-.3424.659-.7262.8-1.1514.018-.0527.009-.1107-.024-.1556-.034-.045-.087-.0715-.144-.0712h-2.005c-.074.0001-.137.0533-.15.126l-.675 3.8999c-.024.131-.13.2324-.263.252-.435.0634-.63-.0245-.585-.2636.319-1.738.633-3.4767.942-5.216.131-.7314.305-1.225.524-1.4809.274-.3231.64-.5111 1.098-.564.327-.0388.723-.0446 1.19-.0175zm11.566 3.7197c.06.0086.105.0574.105.1143v.3392c-.001.0539.04.0978.09.0989l.747.0101.787.0075.353.0016.265-.0002.26-.0023.157-.0035.086-.0035c.746-.0388 1.262.1938 1.549.6978.244.429.251.9039.022 1.4246-.359.8137-1.072 1.2099-2.139 1.1884l-.265-.008-.205-.0043c-.035-.0005-.071-.001-.107-.0015l-.225-.0017c-.038-.0001-.077-.0002-.117-.0002-.034.0004-.065-.0158-.085-.0433-.019-.0274-.024-.0627-.012-.0943.065-.1757.156-.3185.273-.4284.044-.0409.107-.0626.176-.0601.389.0168.735-.0006 1.037-.0523.289-.0491.526-.1744.711-.376.175-.1913.267-.4213.276-.6901.016-.5026-.297-.763-.94-.7811-.953-.0284-1.943-.0427-2.969-.0427-.131 0-.252.0718-.312.1861-.362.6797-.696 1.3349-1 1.9655-.112.23-.229.376-.351.438-.178.0892-.368.0692-.569-.06-.051-.033-.071-.0958-.046-.1474l1.055-2.1883c.021-.0419.018-.0912-.006-.1305s-.066-.0632-.112-.0634l-1.156-.0077c-.063-.0011-.118-.0382-.138-.0931-.067-.1847-.048-.3443.057-.4787.076-.0982.207-.1544.391-.1687.431-.0335.862-.0335 1.294 0 .057.0049.112-.0267.138-.0794.186-.3722.494-.526.925-.4613zm-15.535-3.6402c.586.1641.815.6435.687 1.4382-.268 1.6644-.547 3.3281-.835 4.9912-.16.9149-.711 1.2593-1.656 1.0331-.057-.0146-.094-.0676-.085-.1221.048-.2695.219-.4376.512-.5044l.045-.0092c.231-.0427.365-.1764.403-.4013l.866-5.1113c.047-.283-.068-.4711-.346-.5641-.137-.0452-.317-.064-.541-.0562l-.25.0097-.081.0042-.1.0068-.075.0072-.036.005c-.372.0582-.595.296-.667.7134-.341 1.9654-.671 3.907-.988 5.8246-.016.0923-.087.166-.18.1861-.484.1034-.695-.0084-.63-.3353.361-1.8324.689-3.6712.984-5.5165.163-1.0196.701-1.5759 1.614-1.6689.544-.0556.997-.0323 1.359.0698zm-35.553 2.293c.06.0179.106.0653.119.1241l.443 1.9305c.061.2727.029.5499-.097.8316-.268.5931-.601 1.2205-1 1.8821-.247.4109-.595.5505-1.043.4187-.024-.0075-.043-.025-.053-.0478-.009-.0228-.008-.0486.004-.0705l1.181-2.1573c.13-.2391.165-.4988.103-.7792l-.435-1.981c-.012-.0556.02-.1117.075-.1318.231-.0827.465-.0892.703-.0194zm17.493-2.355c.062.0132.113.0546.139.1113.025.0568.021.122-.01.1755-.085.1409-.093.2733-.026.3974.027.0476.088.0724.152.062.192-.0323.386-.0517.581-.0581.891-.0298 1.263.3883 1.116 1.2541-.078.4522-.159.9032-.243 1.3529-.111.5867-.246 1.0228-.407 1.3084-.215.3851-.513.7579-.895 1.1184-.058.0566-.071.1457-.031.219l.788 1.448c.015.0287.015.0631 0 .0923s-.044.0497-.077.055c-.331.0516-.609.0355-.836-.0485-.044-.0146-.09-.0614-.126-.1279l-.316-.5544c-.037-.0647-.109-.1007-.191-.0952s-.161.0518-.21.1224c-.427.606-.919.8373-1.476.6939-.023-.0058-.041-.0222-.048-.0435s-.002-.0445.012-.0612l1.241-1.415c.095-.1094.112-.2599.041-.3721-.184-.2921-.328-.5906-.432-.8955-.095-.274-.115-.5945-.06-.9615.094-.6125.195-1.223.305-1.8317l.012-.0456.045-.1579c.061-.2042-.051-.2843-.336-.2403-.063.0098-.128-.0084-.176-.0496-.048-.0413-.075-.1013-.073-.1637.011-.3902.186-.5763.526-.5582.057.0032.113-.0168.154-.0553.042-.0386.065-.0922.065-.1482.003-.4652.267-.641.792-.5272zm6.446.5911c.028.2197-.05.5227-.233.9091-.179.376-.36.7514-.543 1.1262-.031.0661-.037.1331-.014.1822.057.124.185.1651.383.1232l.038-.0089c.437-.1085.581.0388.432.442-.059.1609-.22.2684-.403.2694l-.713.0078c-.056-.0002-.104.0424-.114.1008-.106.6267-.214 1.2528-.324 1.8782l-.029.1542c-.039.2001-.081.3782-.125.5343l-.034.1129c-.079.2539-.167.4403-.263.5593-.312.3863-.79.5779-1.433.5749l-.072-.0012c-.183-.0038-.366-.0041-.548-.0007l-.183.0046c-.336.0117-.354-.1634-.055-.5253.122-.147.316-.2169.507-.1822.762.137 1.196-.146 1.302-.849l.089-.564c.117-.5518.197-1.1087.239-1.6708.002-.0257-.006-.0512-.024-.0709-.017-.0196-.042-.0318-.069-.0338l-.241-.0166-.293-.0178-.199-.01-.236-.0091-.105-.0027-.098-.0015-.089-.0002-.081.001-.073.0023-.065.0035-.056.0047-.048.006c-.015.0022-.028.0046-.04.0072l-.017.0041c-.249.0659-.359-.0827-.33-.4458.013-.154.142-.2726.296-.2733l1.865-.0078c.106.0002.201-.0565.243-.1453l.792-1.6496c.034-.0721.03-.1563-.013-.2252s-.117-.1137-.2-.1198c-.525-.0402-1.077-.0559-1.658-.0471l-.224.0047-.165.0153c-.272.0271-.369-.1396-.288-.5001.03-.1402.158-.2403.306-.2403.786 0 1.533-.0097 2.24-.0291.587-.0155.909.1912.966.6202zm-37.5909-.6997c.064.0084.1201.046.1515.1017.0315.0556.0346.1228.0085.1813-.1199.2625-.1013.3892.0558.3799l.1548-.0175.0298-.0029.0164-.0009 3.8502.0019c.1145.0478.1613.2023.1402.4633-.0123.1475-.1385.2612-.2904.2617h-4.1998c-.1622 0-.3105.0955-.3793.2442l-.3911.8412c-.0175.0384-.0143.0828.0085.118.0227.0352.0619.0565.1041.0565h4.9604c.0781-.0002.1429.0592.1481.1357.025.3321-.0349.5369-.1797.6144-.0036.0019-.0088.0036-.0158.0053l-.0262.0047-.0366.004-.0746.0049-.0627.0025-.1567.0031-.145.0007h-4.7392c-.1192.0001-.2203.0547-.2548.1376l-.3496.8199c-.0092.022-.0047.047.0121.0673.0168.0204.0439.0335.0728.0355.8643.0452 1.729.0677 2.5943.0674l.4505-.002.1531.0003.1449.002.1368.0038.1287.0056.1205.0073c.097.0068.1855.0154.2656.0258l.092.0134c.1318.0214.2361.0487.313.0818.4148.1797.6367.5111.6657.9944.0211.3644-.0665.7172-.2628 1.0583-.3621.6306-.9462.9459-1.7522.9459h-4.8813c-.0272-.0001-.0529-.012-.0701-.0323-.0173-.0202-.0242-.0468-.0188-.0723.0487-.252.1488-.4407.3002-.566.0433-.0363.1063-.0576.1778-.0601l.9045-.0313.8025-.0234.6183-.0142.4677-.0074.28-.0025.1932-.0005.2352.0009.2582.0039.1778.0053.1522.0072.0666.0044.0602.0048.0783.0082c.6743.0827 1.1062-.1557 1.2959-.7152.1119-.327.0467-.5738-.1956-.7405-.1356-.0943-.3543-.1467-.6559-.157-1.2405-.0439-2.5134-.0549-3.8185-.0329-.4741.0077-.6717-.2178-.5927-.6765.0475-.2766.1811-.5893.4011-.9382.0895-.1434.0487-.2164-.1225-.219l-1.3354-.0194c-.0589-.0012-.1077-.0424-.1146-.0969-.0224-.1977.002-.387.0731-.5679.0214-.0539.0763-.0893.1383-.0892l1.7028-.0233c.062-.0001.1179-.0331.1442-.0852l.4801-.9692c.0211-.0414.0186-.0907-.0067-.1302-.0254-.0394-.0699-.0635-.1178-.0636h-1.6475c-.0579.0002-.1065-.0434-.1126-.1008-.0524-.498.1445-.7092.5909-.6338l.0412.0077c.0141.0028.0295.0054.0464.0078l.055.0065c.0098.0009.0201.0018.0306.0026l.0678.0044.0763.0029.0848.0016.1432-.0003.1062-.0019.1752-.0056.1275-.0054.2072-.0107.3062-.0193.1658-.0117c.0579-.0036.1089-.0423.1304-.0988.1528-.3993.4412-.5706.8653-.5137zm18.8319.0136c.19.0323.231.1822.125.4497-.028.0679-.017.1445.029.205.045.0604.119.0968.198.0973l2.046.002c.059.0002.112.0387.135.0969.182.486-.001.704-.549.6538l-.044-.0045c-.507-.0568-1.154-.0329-1.94.0718-.055.0069-.099.0519-.109.1104l-.26 1.6748c-.007.0419.005.0845.032.1166.026.032.065.0503.106.0501l2.009.0096c.058.0009.106.0449.109.1008.017.2326-.04.42-.172.5621-.036.0371-.096.0596-.168.0621l-1.968.0562c-.057.0014-.106.0445-.116.1027l-.411 2.3551c-.004.0247.003.05.019.0698s.04.0324.066.0349l.282.0257.178.0148.25.0187.157.0101.148.0082.14.0063.131.0045.123.0026c.02.0003.039.0004.058.0006l.11-.0003c.018-.0002.035-.0004.052-.0008l.098-.003c.016-.0007.031-.0015.046-.0023l.085-.0058c.067-.0057.126-.0134.175-.023l.029-.0059c.383-.0853.524.093.421.5349-.025.1118-.124.191-.237.19l-5.814-.0446c-.061.0002-.115-.038-.13-.093-.062-.2133-.011-.3896.152-.5292.039-.0336.101-.0537.174-.0562l2.262-.0543c.058-.002.108-.0454.12-.1047l.453-2.3783c.005-.029-.002-.0591-.021-.082s-.048-.0362-.078-.0362l-1.995-.0116c-.06-.0001-.112-.0395-.125-.095-.057-.2507-.022-.4407.103-.5699.036-.0382.099-.0608.172-.062l1.888-.0116c.115-.001.212-.0853.231-.1997l.269-1.6127c.009-.0529-.006-.1069-.041-.1476-.034-.0407-.085-.064-.139-.0637h-2.151c-.061.0001-.111-.0462-.113-.1046-.011-.2184.022-.3987.101-.5408.03-.0548.088-.089.15-.0892l2.171-.0174c.105-.0015.191-.0769.196-.1725.021-.3438.159-.535.415-.5738.134-.0207.257-.0213.367-.0019zm29.506 2.4539c.294.2954.258.6018-.108.919l-.037.0308c-.335.2745-.388.5863-.158.9355l.026.0375c.256.3605.17.6442-.257.8509-.124.0606-.274.0184-.345-.0969-.622-.9976-.417-1.895.614-2.6923.08-.0619.194-.0552.265.0155zm-17.155-.8451c-.057-.0025-.109.0418-.123.1047-.156.7249-.276 1.4291-.357 2.1127-.052.4303.036.8342.262 1.2115.023.0374.061.0626.105.0683.043.0057.087-.0088.119-.0392.309-.2998.531-.6442.665-1.0332l.02-.059.02-.0686.021-.0781.022-.0876.034-.1493.037-.1707.026-.1258.04-.2065.027-.1495c.064-.3528.109-.7243.137-1.1146.003-.0458-.011-.0908-.038-.1247-.026-.0339-.064-.0539-.105-.0555zm33.061-1.5739c.103.071.122.1563.057.2558-.07.1047-.041.157.087.157 1.604-.0142 3.193-.0194 4.765-.0155.278.0013.48.0368.606.1066.236.1292.326.3399.269.6319-.062.314-.226.524-.492.63l-1.799.7172c-.231.0917-.229.1608.006.2074l2.157.4206c.073.0143.129.0522.146.0988.016.0478.016.0995.002.1551-.019.0668-.031.1205-.035.1613l-.003.0228c-.013.2216-.12.3136-.321.2761l-.218-.0493-.35-.0575-.222-.0381-.214-.0379-.206-.0377-.197-.0374-.188-.0373-.18-.0371-.171-.0368c-.028-.0062-.056-.0123-.083-.0184l-.158-.0365-.15-.0364-.141-.0361-.133-.0359c-.086-.0239-.166-.0476-.24-.0712-.547-.1732-1.054-.1984-1.523-.0756-1.021.2662-2.057.4464-3.108.5408-.06.0047-.115-.0296-.134-.0834-.141-.398.003-.6261.431-.6842l.314-.0436.2-.0287.191-.0283.182-.0279.259-.0412.316-.0537.216-.0394.133-.0258.125-.0254.117-.0251.108-.0247c.017-.0041.034-.0082.051-.0123.023-.0055.042-.0214.051-.0425.009-.021.006-.0443-.007-.0621-.103-.1398-.242-.2372-.418-.2923l-.049-.014c-.222-.0594-.231-.1402-.025-.2423.624-.3088 1.16-.2597 1.608.1473.118.1064.28.1429.422.095l2.376-.8117.059-.0215.05-.0202.043-.0188c.006-.003.012-.006.018-.0089l.031-.0168c.07-.0431.053-.0721-.05-.0868l-.042-.0049-.051-.0036-.059-.0022-.067-.0009-4.631-.0097c-.183.0001-.345.1187-.401.2927-.156.4924-.499.6629-1.027.5117-.024-.0071-.044-.0244-.053-.0471-.01-.0226-.009-.0481.004-.0692l.993-1.7057c.176-.3011.426-.3373.753-.1085zm-49.936.2171c.102-.0007.186.0803.187.1809l.006.8839c.001.1006-.082.1827-.184.1834l-.565.0039c-.103.0007-.187-.0803-.187-.1809l-.007-.8839c0-.1006.082-.1828.185-.1835zm62.802-28.7377c.055 0 .102.0434.109.1008l.101.8471c.007.055.056.0955.112.093l.29-.011.417-.0139.268-.0074.259-.0059.251-.0045.242-.003.234-.0015.334.0004.212.0022c.034.0004.069.001.102.0016l.199.0043.191.0058c2.719.0956 4.497 1.3051 5.334 3.6285.163.4562.249 1.0209.256 1.6941.038 3.2874.054 6.5748.05 9.8622l-.006 2.1877-.011 1.2352-.005.2772-.011.4368-.009.2126-.007.1049-.007.0558-.001.01c-.186 1.0415-.718 1.8995-1.595 2.5741-1.085.8335-2.378 1.1139-3.879.8412-.026-.0041-.048-.0192-.06-.041-.013-.0218-.015-.048-.006-.0714l.806-1.9849c.039-.0985.136-.1708.255-.1899.93-.1499 1.553-.5292 1.869-1.1378.087-.168.15-.4362.189-.8046l.013-.1342.01-.1426.009-.1508.007-.1592.005-.1675.003-.1759.001-.1842v-11.0794l-.001-.2114c0-.0345-.001-.0688-.001-.1027l-.005-.1998-.006-.192c-.002-.0314-.003-.0624-.005-.0931l-.01-.1804c-.042-.6768-.133-1.1832-.272-1.5191-.513-1.2315-1.598-1.8298-3.256-1.7949-1.696.0362-3.385.0265-5.067-.0291-.114-.0031-.205-.0933-.205-.2035l-.002-3.08c0-.0546.045-.0989.1-.0989zm-85.0374 5.4661c.0614 0 .1199.0258.1585.0705s.053.1031.039.1582l-.2963 1.1921c-.008.0314-.0016.0646.0174.09.0189.0254.0482.0401.0794.0399.8455 0 1.6541.0116 2.4258.0349 1.6173.0478 3.0027.6157 4.1564 1.7037.802.7573 1.3644 1.6315 1.6871 2.6226.1059.3271.182.7595.2284 1.2971l.0143.1831c.0044.0624.0085.126.0122.191l.0099.1987c.0015.0338.0028.0678.0041.1023l.0066.2104.0045.2182c.0005.037.001.0744.0013.112l.0011.2299.001 2.8162.0188.7484c.0263 1.0079-.1488 1.9222-.5255 2.7428-.8244 1.7961-2.1677 2.963-4.0299 3.5006-.5927.1718-1.3637.2629-2.3133.2733-.7783.0077-1.5593-.0071-2.3429-.0446-.0248-.001-.0479-.013-.0628-.0325-.015-.0195-.0202-.0446-.0142-.0683l.478-1.9693c.0606-.2494.2213-.3664.4821-.3509.7072.0401 1.3815.0356 2.0228-.0135.7757-.0608 1.4145-.2385 1.9162-.5331.7639-.4445 1.3051-1.0725 1.6239-1.884.1843-.4652.2765-1.1753.2765-2.1303v-2.8222c0-1.1139-.0961-1.9228-.2884-2.4267-.3767-.9873-1.0635-1.6903-2.0604-2.1089-.5189-.2171-1.2505-.3309-2.1947-.3412-.7204-.0077-1.4415-.0006-2.1632.0213-.0569.0011-.1063.04-.1205.095l-3.7296 14.425c-.0142.0565-.0622.0997-.1225.1105-.7402.1228-1.5527.1273-2.4377.0136-.0489-.0061-.0927-.0328-.1203-.0732s-.0363-.0907-.0239-.1381l3.6447-14.3359c.006-.0235.001-.0485-.0136-.0678s-.0373-.0307-.0615-.031l-5.9975-.0485c-.1389-.0014-.2547-.1001-.2706-.2306-.0777-.6358-.0784-1.3213-.002-2.0566.0061-.0554.0539-.0972.1106-.0969l6.7521-.0601c.0665-.0002.1229-.0357.1383-.0872l.326-1.1049c.0671-.23.2067-.345.4188-.345zm76.4044-.0465c.085.0097.149.0802.151.1647l.004 1.5079.008 2.2428.008 1.4823.009 1.4722.01 1.462c.002.2428.004.4852.006.7272l.012 1.4466c.002.2882.072.5595.209.8141l.937 1.7461.951 1.7686.966 1.7911.652 1.2066c.109.202.219.4043.329.6071.034.0632.033.1396-.004.202s-.104.1018-.178.1042l-1.835.0563c-.241.0064-.418-.0918-.53-.2947l-2.678-4.8826c-.066-.1189-.132-.1189-.196 0l-2.742 5.0164c-.036.0681-.109.1107-.19.1105h-2.204c-.047-.0004-.09-.0244-.114-.0635s-.026-.0877-.005-.1284c1.224-2.3428 2.489-4.6895 3.797-7.04.159-.2882.259-.5731.298-.8548l.003-.0417.003-.127.004-.4339v-9.8256c0-.1271.098-.2333.225-.2462.702-.0762 1.4-.073 2.094.0097zm-59.658 4.0201 22.867.0116c.103.0001.189.0744.204.1745.116.7934.124 1.4944.024 2.103-.01.0592-.055.1054-.113.1144-.036.0057-.073.011-.113.0159l-.123.0138c-.064.0063-.132.0119-.205.0167l-.15.0085-.161.0063c-.028.0009-.056.0017-.084.0024l-.177.0032c-.031.0003-.062.0006-.093.0008l-5.219.0002c-.061 0-.111.0486-.111.1086v4.022l-.001.2353-.005.3406-.004.2189-.005.2122-.007.2057-.008.1991-.009.1925-.011.186c-.001.0304-.003.0606-.005.0905l-.013.176-.013.1695-.015.1628-.016.1563c-.002.0255-.005.0508-.008.0757l-.018.1464-.019.1398-.02.1333c-.007.0433-.014.0855-.022.1266l-.022.1201-.024.1135-.025.1069c-.013.0518-.026.1011-.04.148-.606 2.0546-2.054 3.4774-4.344 4.2682-.234.0802-.588.1356-1.062.1663l-.172.0098c-.029.0015-.059.0029-.09.0042-2.171.0904-4.394.0969-6.667.0193-.028-.0011-.055-.0143-.072-.0361s-.023-.0498-.017-.0763l.528-2.1205c.026-.1078.125-.1839.239-.1841l5.547.0019c.528 0 1.029-.1124 1.503-.3373 1.666-.7934 2.467-2.1237 2.402-3.991-.06-1.8001-.067-3.6008-.02-5.4021.002-.0253-.008-.05-.026-.0683s-.043-.0286-.068-.0286l-5.166-.0136-3.616-.0045-2.519.0014-1.726.005c-.371.0013-.689-.0213-.954-.0678-.058-.0103-.101-.0578-.1-.1124l-.024-2.1089c-.001-.0482.019-.0945.054-.1287.035-.0343.083-.0535.134-.0535zm43.857-9.1586c.612 0 1.205.1034 1.78.3101 2.303.827 3.57 2.4035 3.8 4.7295.087.8762-.052 1.731-.418 2.5644-.349.7896-.854 1.468-1.514 2.0353-1.056.9071-2.338 1.3607-3.846 1.3607h-11.61c-.099.0001-.19.0614-.229.1551l-.669 1.5952c-.017.0423-.013.0901.012.1277s.067.0602.112.0603h11.183l.24.0008.232.0023.225.0039.218.0055.211.007.203.0086c.033.0016.066.0032.099.0049l.192.0109.185.0125c.03.0022.06.0044.09.0068l.174.0148c.057.0052.112.0107.167.0164l.159.0179c.052.0063.103.0128.152.0195l.145.0211c.024.0036.047.0073.07.0111l.134.0234.126.0249c.123.0258.235.0539.336.0843 1.83.5479 3.049 1.7936 3.659 3.7371.449 1.4343.251 2.8642-.593 4.2895-.632 1.0648-1.577 1.8246-2.836 2.2795-.51.1847-1.091.2985-1.743.3411-.611.0388-1.207.0323-1.788-.0194-.048-.0049-.092-.0316-.118-.072-.026-.0405-.03-.0899-.012-.1334l.802-1.9015c.086-.2016.247-.2992.484-.2927 1.462.0413 2.524-.5105 3.186-1.6554.274-.4742.382-1.0047.324-1.5913-.054-.5402-.233-1.0293-.537-1.4673-.342-.4937-.798-.8561-1.367-1.0874-.333-.1357-.797-.2036-1.391-.2036h-1.42c-.066 0-.125.0391-.15.0989l-3.37 8.0789c-.064.1534-.216.2538-.385.254h-1.966c-.077-.0004-.149-.0382-.193-.1011-.043-.0629-.051-.1426-.022-.213l3.328-8.0169c.009-.0199.007-.0429-.006-.0609-.012-.0181-.033-.0287-.055-.0282l-3.35-.0117c-.068.0002-.13.0415-.156.1047l-3.446 8.203c-.024.0564-.077.0932-.136.093l-2.264.0272c-.044 0-.086-.0217-.111-.0582-.025-.0364-.03-.0829-.013-.124l3.342-8.0906c.014-.0338.01-.0721-.01-.1023s-.054-.0485-.091-.0489l-3.271.0058c-.06.0001-.114.0368-.138.0931l-1.509 3.549c-.034.0776-.109.128-.192.128l-2.108-.0097c-.073.0003-.141-.0358-.181-.0963-.04-.0604-.047-.137-.018-.2042l3.573-8.5596c.032-.0784.005-.1674-.065-.2132-1.109-.725-1.885-1.6586-2.327-2.8009-.368-.9498-.45-1.9157-.249-2.8978.188-.9239.603-1.7632 1.245-2.5179.831-.9795 1.884-1.5901 3.158-1.8317l.045-.0076.05-.0073.088-.0105.066-.0066.073-.0064.165-.0118.14-.0082.209-.0098.234-.0088.328-.0093.447-.0089.416-.0055.551-.0042.502-.0017zm-47.9401 9.0879c.0283-.0015.0526.0197.0543.0475l.7388 12.2093c.002.0278-.019.0516-.048.0533l-2.3267.1357c-.0283.0016-.0527-.0196-.0543-.0474l-.7393-12.2093c-.0017-.0278.0199-.0517.0482-.0533zm-21.3633 2.0225 2.1533.0291c.0623.0011.1202.0318.1572.0836s.0489.1188.0324.182l-2.4891 9.6393c-.0155.0584-.0649.1014-.1244.1085-.5352.0717-1.0714.0932-1.6088.0644l-.1708-.0103-.3169.0078-.1358.004c-.2722.0087-.371-.1223-.2962-.3932l.075-.2387c.7928-3.0754 1.5718-6.1309 2.3369-9.1663.0471-.1846.2076-.3132.3872-.3102zm98.1234-5.9758c.069.0079.121.0647.12.1318v11.8606c0 .7586-.087 1.3459-.261 1.762-.48 1.1539-1.401 1.8317-2.763 2.0333-.867.1266-1.675-.1053-2.426-.6959-.574-.451-.969-.9969-1.183-1.6379-.067-.2003-.116-.485-.146-.8541l-.01-.1424-.009-.1502-.007-.1582-.005-.1661-.003-.174-.002-.1819v-11.501c0-.0953.078-.1725.174-.1725l1.94.0116c.139.001.253.1098.26.2481.05.8813.066 1.7723.048 2.673l-.019 1.0112-.014.9969-.002.2877v.2838l.001.0856c.025 2.1593.036 4.3179.032 6.4759 0 .4213.051.7295.154.9246.201.3812.533.5247.996.4303.297-.0607.509-.1906.634-.3896.126-.199.19-.4587.191-.7792l.05-12.0525c.001-.082.064-.1502.146-.1589.708-.0776 1.41-.0782 2.104-.002zm-11.814-4.6326c1.062.4975 1.863 1.1882 2.403 2.0721.551.9045.831 1.9687.839 3.1924.025 3.5704.009 7.1162-.047 10.6375-.002.0938-.08.1687-.176.1687h-2.11c-.074 0-.135-.0572-.138-.1299-.055-1.2431-.071-2.4914-.048-3.7448l.008-.4732.01-.7369.004-.5428.001-.3799-.001-.4741-.003-.3671-.003-.2282c-.013-.8015-.02-1.6029-.022-2.4044l.001-.8015c.002-.9627-.087-1.6541-.267-2.0741-.29-.6745-.774-1.1688-1.452-1.4828-.616-.2843-1.267-.3456-1.952-.1841-.961.2248-1.64.7863-2.037 1.6844-.175.3928-.264.9446-.266 1.6553l-.046 10.5135c-.001.0945-.078.1706-.174.1706h-2.123c-.095 0-.172-.0755-.172-.1687v-9.7168l.001-.2304c0-.0377.001-.0751.001-.1122l.003-.2184.006-.2104.007-.2024.008-.1944.011-.1865.012-.1784.013-.1705c.015-.1665.032-.321.052-.4635l.021-.1385c.036-.2242.079-.4152.13-.5728.206-.65.528-1.2431.966-1.7794.404-.4962.917-.9207 1.539-1.2735 1.67-.9497 3.337-1.0344 5.001-.2539zm-28.164 1.8744c-.646.0077-1.153.0982-1.519.2713-.695.327-1.215.8413-1.56 1.5429-.019.0367-.016.08.006.1147.023.0346.062.0558.104.0559l14.713.0039c.114-.0001.207.0812.208.1822l.029 1.7852c.003.1332-.106.2474-.252.2636-.399.0465-.853.0685-1.361.0659-4.441-.022-8.882-.0258-13.323-.0116-.022-.0004-.042.0106-.054.0291-.012.0186-.013.042-.003.062.578 1.2379 1.564 1.8659 2.959 1.884l.582.0069.403.0038.839.0057.659.0027.684.0011.984-.0007 1.096-.0037 1.15-.0068.959-.0076 1.763-.018 1.055-.013.541-.0072c.761-.009 1.341-.1034 1.738-.283.593-.2662 1.051-.6655 1.373-1.1979.435-.7159.556-1.508.364-2.3764-.218-.9756-.813-1.6792-1.786-2.1108-.369-.1641-.85-.2487-1.442-.2539-3.636-.0388-7.273-.0356-10.909.0097zm-20.201-2.6342c.06.0091.104.0561.107.1124l.053 1.1998c.002.0548.044.0987.097.1008 1.763.0569 3.528.0789 5.292.0659.69-.0051 1.259.0653 1.707.2113 2.224.7211 3.36 2.3201 3.408 4.7971l.002.1029.022.3296c.024.3905-.152.5841-.528.5807l-.431-.0166c-.468.0129-.898 0-1.29-.0388-.17-.0172-.298-.163-.292-.3334.012-.2998.009-.5957-.01-.8877-.021-.336-.079-.6248-.174-.8665-.384-.9808-1.163-1.4692-2.335-1.4654-4.429.0156-8.857.0207-13.285.0156-1.143 0-1.921.4529-2.335 1.3587-.104.2262-.161.5802-.171 1.0622-.008.3334-.043.6649-.105.9944-.011.0562-.059.0989-.119.1047-.438.0441-.877.0639-1.316.0595l-.212-.0035-.295.0099c-.332.0136-.499-.1322-.502-.4375l.01-.3786c-.026-.7017.046-1.3193.217-1.853.51-1.5817 1.515-2.6161 3.015-3.1033.492-.1605 1.214-.2419 2.165-.2443l.111.0001c1.577.0052 3.156-.0091 4.735-.0426.06-.0011.108-.0451.108-.0989l.02-1.1824c.002-.0926.066-.1695.152-.1802.746-.0931 1.472-.084 2.179.0271zm-20.9021.0174c.0591.0057.1047.0513.1067.1066l.0652 1.1882c.0021.0562.0448.1006.0968.1008l3.941.0504c.1029.0011.1857.0789.1857.1745l.0079 1.9829c.0005.0718-.0286.1408-.0809.1917-.0523.051-.1234.0796-.1976.0796h-22.6625c-.0876 0-.1589-.0691-.16-.155l-.0079-1.9907c-.001-.1534.1295-.2789.2924-.281l3.6704-.0291c.0628.0002.1144-.0435.1165-.0989l.0553-1.2056c.0045-.0879.0684-.1566.1442-.1551l2.1414.031c.0617.001.1115.0473.1126.1047l.0158 1.1572c.0011.0827.0645.1492.1423.1492l9.5158.0136c.0534.001.0985-.0406.1027-.095l.1067-1.2386c.0049-.0547.0522-.0987.1126-.1046.7269-.0595 1.4526-.0517 2.1769.0232z" fill="#fff" fill-opacity=".5"/><path d="m35.2878 58.9459c.9874 0 1.7878-.7854 1.7878-1.7542s-.8004-1.7542-1.7878-1.7542-1.7878.7854-1.7878 1.7542.8004 1.7542 1.7878 1.7542z" fill="#000" opacity=".5"/><path d="m49.3796 58.942c.9862 0 1.7858-.7845 1.7858-1.7523 0-.9677-.7996-1.7522-1.7858-1.7522-.9863 0-1.7858.7845-1.7858 1.7522 0 .9678.7995 1.7523 1.7858 1.7523z" fill="#000" opacity=".5"/><path d="m48.7587 63.2908c1.666.1499 2.9744.8012 3.9252 1.9538.7362.893 1.105 1.899 1.1063 3.018.0026 1.0532-.2957 2.023-.8949 2.9094-.6229.9227-1.4757 1.5591-2.5582 1.9093-.5993.1951-1.6061.2927-3.0205.2927-3.3662 0-6.7324 0-10.0986 0-1.4065 0-2.4028-.0976-2.9888-.2927-1.2209-.4083-2.1401-1.2031-2.7578-2.3841-.6927-1.3259-.7974-2.6375-.3141-3.9348.3635-.9731.9371-1.7555 1.7207-2.3474.8059-.6086 1.7785-.9517 2.9177-1.0292.1214-.0082.2224-.0954.2469-.2132.4399-2.1529 1.5225-3.6906 3.2477-4.6132 1.0826-.579 2.2244-.838 3.4254-.7773 1.2578.062 2.4075.482 3.4492 1.2599 1.3644 1.0183 2.1908 2.4003 2.4792 4.1461.009.0557.0564.0982.1146.1027zm-10.4463 2.0023c.9074.6978 1.4737 1.1449 1.6989 1.3413.8666.7611 1.8069 1.0474 2.821.8587.5163-.0969 1.1425-.4129 1.8787-.9478.6624-.4807 1.309-.9828 1.9399-1.5061.2489-.2068.4049-.4109.4681-.6125.1041-.3373.0323-.6119-.2153-.8238-.1936-.1641-.5123-.2481-.9561-.252-2.4588-.0155-4.9176-.0149-7.3764.0019-.3226.0026-.5636.0588-.723.1687-.2607.177-.3714.427-.3319.7501.0251.2016.1225.3928.2924.5737.1409.1499.3088.2992.5037.4478z" fill="#fff" fill-opacity=".5"/><path d="m38.3117 65.2932c-.1949-.1486-.3628-.2978-.5037-.4477-.1699-.181-.2674-.3722-.2924-.5738-.0395-.323.0711-.5731.3319-.7501.1593-.1099.4003-.1661.723-.1687 2.4588-.0168 4.9176-.0174 7.3764-.0019.4438.0039.7625.0879.9561.252.2476.2119.3194.4865.2153.8238-.0632.2016-.2193.4057-.4682.6125-.6308.5233-1.2774 1.0254-1.9399 1.5061-.7362.5349-1.3624.8509-1.8786.9478-1.0141.1887-1.9544-.0976-2.821-.8587-.2252-.1964-.7915-.6435-1.6989-1.3413z" fill="#000" opacity=".5"/></g></svg>