<svg fill="none" height="120" viewBox="0 0 200 120" width="200" xmlns="http://www.w3.org/2000/svg" xmlns:xlink="http://www.w3.org/1999/xlink"><clipPath id="a"><path d="m41 36h119v49h-119z"/></clipPath><g clip-path="url(#a)"><path d="m71.0873 38.0558-5.82.0589c-.0487.0009-.0878.0399-.0878.0876 0 10.6554-.0011 21.3012-.0034 31.9375-.0011 1.676-.5238 3.132-1.5681 4.3679-1.4932 1.7658-3.431 2.569-5.8132 2.4096-1.3301-.0887-2.5387-.5618-3.6257-1.4195-.1632-.1291-.3793-.3446-.6482-.6466-.2048-.2278-.4209-.4445-.6482-.6499-.0101-.0416.027-.0786.1114-.1112.7393.3974 1.5271.6371 2.3631.719 2.0773.201 3.8587-.4063 5.3441-1.8219 1.4505-1.3819 2.1617-3.0887 2.1335-5.1206-.0529-3.7886-.0669-7.5773-.0422-11.3659.0428-6.7074.054-13.4748.0338-20.3022-.0005-.0302.0114-.0593.033-.0809.0216-.0215.051-.0336.0818-.0336h7.8641c.0637 0 .1171.0527.1232.1212z" fill="#d9d9d9"/><path d="m71.0871 38.0547.0422.0135c.5424 2.9388 2.0193 5.2822 4.4308 7.03l1.3504 1.1366c1.4651 1.4661 3.2211 2.39 5.2681 2.7716l.0489.0775v5.9642c0 .1038-.0833.1884-.1874.1903-2.0255.0269-4.0088-.2751-5.95-.9059-.8147-.265-1.6643-.6231-2.5487-1.0743-.8463-.43-1.6469-.8914-2.402-1.3842-.1474-.0965-.2211-.0567-.2211.1196v15.0721c0 1.4773-.0613 2.5965-.184 3.3576-.512 3.1859-1.9242 5.9148-4.2367 8.1869-2.5207 2.4775-5.5342 3.8914-9.0407 4.2416-3.135.3132-6.1159-.2492-8.9427-1.6872-.8046-.5534-1.5585-1.1787-2.2618-1.8758.0394-.1157.0349-.2066-.0135-.2728-.2262-.311-.4327-.6343-.6195-.9699-.0439-.0797-.2251-.4165-.5435-1.0103-1.67-3.123-2.1144-6.4323-1.3335-9.928.7022-3.1454 2.2602-5.8149 4.6739-8.0084.35-.3188.9582-.7482 1.8247-1.2881 2.0154-1.2517 4.2103-1.9797 6.5847-2.184.3736-.0325.7387-.1044 1.0954-.2155l.0355-.0067c.0709 1.9645.0703 4.0148-.0017 6.1511-.001.0246-.0127.0475-.032.0625s-.0441.0204-.0676.0149c-1.9411-.4221-3.664-.2088-5.1685.6399-.9835.5545-1.7915 1.3196-2.4239 2.2951-.7742 1.1944-1.1146 2.5134-1.0212 3.957.0743 1.1506.4124 2.2064 1.0145 3.1673.6425 1.0238 1.5146 1.8596 2.6163 2.5073.2273.2054.4434.4221.6482.65.2689.3019.485.5175.6481.6465 1.0871.8577 2.2956 1.3308 3.6257 1.4195 2.3823.1594 4.32-.6438 5.8133-2.4096 1.0443-1.2359 1.567-2.6919 1.5681-4.3679.0023-10.6363.0034-21.2821.0034-31.9375 0-.0477.039-.0867.0878-.0876z" fill="#fff" fill-opacity=".5"/><path d="m71.1289 38.0684 1.9918.0303c.0831.0007.1508.0638.1536.1431.027.9216.1451 1.7871.3545 2.5965.2081.8015.4698 1.5306.7848 2.1873.3388.7061.7771 1.3549 1.315 1.9465l-.1688.1263c-2.4116-1.7478-3.8885-4.0912-4.4309-7.03z" fill="#9b9b9b"/><path d="m75.7293 44.9727c.4873.4198 1.0077.7942 1.5614 1.1231-.1362.0146-.2628.0612-.3798.1397l-1.3504-1.1366z" fill="#d9d9d9"/><path d="m77.2899 46.0957c1.2761.6646 2.5984 1.0457 3.9667 1.1433.3759.027.6538.0539.8339.0809.0493.0074.0858.0496.086.0993l.0017 1.5879c-2.0469-.3817-3.8029-1.3056-5.268-2.7716.117-.0786.2436-.1252.3797-.1398z" fill="#d9d9d9"/><path d="m121.343 47.582c.048 0 .086.0355.086.0792l.033 17.6265c0 .0149.006.0291.016.0393.011.0103.025.0155.039.0146l3.41-.2526c.023-.0019.046.006.063.0217.017.0156.026.0377.026.0608v3.366c0 .0447-.034.0824-.081.0876l-3.389.3149c-.048.0052-.085.0467-.084.096l-.034 8.0589c-.001.0824-.069.1489-.154.1498l-3.166.0388c-.023.0004-.045-.0079-.061-.0231s-.026-.0361-.025-.0578l-.011-7.8013c.001-.0493-.02-.0964-.057-.13-.036-.0336-.085-.0505-.135-.0468l-10.962.8824c-.029.0023-.058-.0076-.079-.0275-.022-.0198-.034-.0477-.034-.0769v-3.2852c0-.0911.071-.1673.164-.1751l10.977-.911c.071-.0053.127-.0648.126-.1364v-17.8c0-.0276.012-.0542.033-.0738.02-.0195.048-.0305.077-.0305zm13.676 15.847 19.03.0331c.802.0014 1.571.3207 2.137.8876.567.5668.884 1.3349.883 2.1352l-.014 7.6446c-.001.8003-.321 1.5673-.889 2.1321-.569.5649-1.339.8815-2.141.8801l-19.03-.0331c-.802-.0014-1.571-.3207-2.137-.8875-.566-.5669-.884-1.335-.882-2.1352l.013-7.6447c.002-.8003.322-1.5672.89-2.1321s1.338-.8815 2.14-.8801zm-33.202-15.8217c.058 0 .105.0475.105.1061l-.002 4.7989c0 .0477.038.0867.086.0876l3.253.0269c.035.0001.069.0136.094.0377.024.024.038.0565.038.0903l-.026 3.2532c-.001.0462-.039.0833-.087.0842l-3.27.0606c-.047.0009-.084.0384-.084.0842l.01 6.1713c0 .0316.014.0615.037.0822.024.0206.055.03.086.0256l3.231-.4967c.026-.0045.053.003.073.0205.021.0175.033.0432.033.0704v3.531c0 .0593-.043.1095-.101.1179l-3.266.4597c-.078.0109-.135.0761-.135.1532l-.001 6.7007-.001.178-.002.171-.004.164-.005.1569-.006.1499-.007.1428-.009.1359-.01.1288-.011.1218-.012.1147c-.004.0371-.009.073-.014.1078l-.014.1007-.016.0936-.017.0867c-.015.0693-.031.1312-.049.1859-.248.7813-.751 1.3454-1.509 1.6922-.4161.1898-1.0221.2942-1.8176.3132-1.1568.0281-2.348.0197-3.5734-.0252-.0537-.0018-.0963-.0458-.0962-.0994v-3.2464c0-.0305.0122-.0598.0338-.081.0216-.0213.0508-.0328.0809-.0318 1.0488.0168 2.0515.0033 3.008-.0405.2408-.0112.4113-.1302.5114-.3569.0518-.1145.081-.302.0878-.5624.0563-1.9544.0579-3.8869.005-5.7975-.0014-.0336-.0173-.065-.0438-.0862-.0264-.0212-.0608-.0303-.0946-.025l-3.7168.5456c-.0214.0033-.0431-.0028-.0601-.0169s-.0276-.0348-.0294-.0572c-.0967-1.1798-.1136-2.3619-.0506-3.5462.0029-.0479.0403-.0873.0894-.0943l3.7658-.5489c.0968-.0142.1686-.0987.1688-.1987.012-1.4439.0049-2.9081-.0213-4.3928l-.0108-.5634.0293-.7384.0045-.1079c.0113-.293-.0146-.5838-.0776-.8723-.0098-.047-.0524-.0803-.1013-.0791l-3.7776.0202c-.0228 0-.0447-.0091-.0609-.0252-.0161-.0161-.0252-.0379-.0252-.0607l-.0017-3.2532c.0001-.083.0701-.1506.157-.1515l3.7337-.0337c.0833-.0009.1503-.07.1503-.1549l-.0287-4.6744c-.0005-.0373.0139-.0733.0399-.0999s.0615-.0415.0985-.0415zm33.735 24.175c-.088.0004-.162.0671-.172.1549-.076.6837-.029 1.2618.142 1.7344.024.0676.08.1191.149.1381.348.0965.701.1397 1.056.1296l.38-.0101h15.848c.323 0 .538-.1515.645-.4546.163-.4614.188-.9946.074-1.5997-.009-.0478-.051-.0825-.099-.0825zm16.955-5.1337-.156-.0015-15.562-.0003-.213.0019-.141.0027-.125.0038-.074.0032-.098.0055-.056.0044-.049.0048-.042.0053-.035.0058c-.005.001-.01.002-.015.003l-.024.0065c-.376.1201-.563.4552-.562 1.0053l.001.1298.001.1213.002.1129.003.1045.003.096.004.0875.005.0791.005.0707.006.0621.007.0538c.007.0473.049.0825.1.0825 5.913-.0416 11.827-.0489 17.742-.0219.027 0 .064.0043.109.0129l.059.0123c.058.0124.115.0158.173.0102.049-.0047.089-.0452.096-.0977.035-.2807.048-.6141.04-1.0002-.01-.5085-.203-.8178-.58-.9278l-.024-.0058-.032-.0053-.039-.0049-.047-.0044-.083-.0058-.1-.0049-.117-.0038zm-44.33-8.9551 7.989 1.433c.048.0089.083.0507.083.0993l-.02 3.5361c0 .0215-.009.0419-.025.0559-.017.014-.038.02-.059.0165l-7.995-1.4346c-.055-.0098-.096-.0581-.096-.1145l.037-3.5193c.001-.0219.01-.0426.027-.0566s.038-.0197.059-.0158zm27.612-2.9484 3.544.0606c.049.0012.09.0376.097.0859l.31 2.5123c.012.0857.084.1496.169.1499l9.277.0303c.05 0 .093-.033.103-.0791l.557-2.6167c.011-.0494.052-.0845.098-.0842l3.453-.0034c.055-.0002.107.0257.142.0709.035.0451.049.1049.039.1631l-.417 2.445c-.003.0216.003.0436.017.0602.015.0165.035.026.057.0257l6.438.0202c.047.0007.086.0372.09.0842.08 1.1192.1 2.2052.06 3.2582-.002.0901-.076.1617-.167.1617h-30.265c-.03 0-.058-.0119-.079-.0331-.022-.0211-.034-.0498-.034-.0798v-3.2414c0-.0771.063-.1397.141-.1397l6.464-.0118c.039-.0001.077-.0172.102-.0468.026-.0296.038-.0689.033-.1081l-.307-2.6016c-.002-.0213.005-.0426.02-.0585.015-.0158.036-.0245.058-.024zm-27.583-4.6407 7.982 1.4667c.048.009.082.0502.081.0976l-.069 3.5277c0 .0216-.01.0419-.027.0555s-.038.0192-.059.0152l-7.957-1.3908c-.06-.0107-.105-.0633-.104-.1246v-3.5193c-.001-.0386.016-.0752.046-.1.03-.0247.069-.035.107-.028zm34.039-2.514 4.365.0169c.05 0 .094.0339.107.0825l.521 2.0509c.023.0894.105.1518.199.1516h11.252c.033 0 .065.0128.088.0356s.036.0536.035.0856l-.042 3.3189c0 .0226-.01.0441-.027.0596-.017.0156-.039.0238-.062.0229-1.179-.0324-2.358-.0425-3.536-.0302l-1.018.0132-.494.0045-.476.0024-.458.0003-.439-.0019-.422-.0041-.271-.0038-.811-.0133-.502-.0059-.464-.0034-.219-.0008h-.275l-.3.0013-.189.0018-.264.0038-.163.0034-.602.0159-.428.0093-.41.0067-.263.003-.255.0019-.366.0007-.347-.0019-2.248-.0248h-.036c-4.355.0213-8.737.0191-13.146-.0067-.031-.0004-.061-.0136-.082-.0365-.022-.0229-.033-.0536-.031-.0848.055-.971.051-2.0127-.012-3.1252-.003-.0617.019-.1222.061-.1671.043-.045.102-.0704.164-.0703l12.184-.0101c.033-.0003.065-.0164.085-.0436.02-.0273.027-.0627.019-.0962l-.493-2.0812c-.004-.0197.001-.0404.015-.0561.014-.0158.034-.0249.056-.0248z" fill="#fff" fill-opacity=".5"/><path d="m48.5137 81.1666c2.8267 1.438 5.8076 2.0004 8.9427 1.6872 3.5064-.3502 6.52-1.7641 9.0406-4.2416 2.3125-2.272 3.7247-5.001 4.2368-8.1868.1226-.7611.1839-1.8803.1839-3.3576 0-5.0011 0-10.0251 0-15.0722 0-.1762.0738-.2161.2212-.1195.755.4928 1.5557.9542 2.4019 1.3841.8845.4513 1.7341.8094 2.5488 1.0743 1.9411.6309 3.9245.9328 5.95.9059.104-.0018.1874-.0865.1874-.1903v-5.9642l2.0998.2257c.1022.0118.1796.0926.1806.1886l.0304 7.7928c0 .0344-.0143.0673-.0396.0907-.0254.0234-.0594.0351-.0938.0322-.8788-.0729-1.7577-.1655-2.6366-.2778-2.5578-.3267-4.9417-1.1506-7.1518-2.4719-.4163-.2481-.804-.4709-1.163-.6685-.0362-.0196-.0801-.0188-.1154.0023-.0354.0211-.057.0593-.0567.1004.0022 2.3664-.0062 4.6963-.0254 6.9897-.009 1.0114-.0033 2.134.0169 3.3677.0417 2.5303.0304 4.6351-.0337 6.3144-.1362 3.5754-1.4488 6.7012-3.938 9.3774-2.8132 3.0242-6.2409 4.6272-10.283 4.8091-3.9768.1784-7.4781-1.0856-10.504-3.7921z" fill="#9b9b9b"/><path d="m58.0052 55.3161c-.0382.0191-.0545.0494-.0489.0909l-.0355.0067c-.6796-.1347-1.4848-.0982-2.4154.1095-.8867.1976-1.6317.394-2.2349.5893-.6706.2167-1.2068.4115-1.6086.5843-.5491.2358-1.0403.5321-1.4735.8891-.1452.119-.1278.1948.0523.2273-.8665.54-1.4747.9694-1.8247 1.2882-2.4137 2.1935-3.9717 4.8629-4.6739 8.0084-.7809 3.4956-.3365 6.8049 1.3335 9.9279.3184.5939.4996.9306.5435 1.0103.1868.3357.3933.659.6195.9699.0484.0663.0529.1572.0135.2728-2.7941-2.4663-4.4613-5.491-5.0014-9.0742-.1688-1.1237-.2031-2.2429-.103-3.3576.2003-2.2328.8603-4.3135 1.98-6.2421.5683-.98 1.2384-1.8775 2.0103-2.6924 1.9682-2.0757 4.3909-3.4688 7.2683-4.1794 1.7015-.4198 3.4952-.5472 5.3812-.3822.0781.0065.1389.065.1418.1364z" fill="#d9d9d9"/><path d="m52.9838 74.09c-.0844.0326-.1215.0696-.1114.1112-1.1017-.6477-1.9738-1.4835-2.6163-2.5073-.602-.9609-.9402-2.0167-1.0145-3.1673-.0934-1.4436.247-2.7626 1.0213-3.957.6324-.9756 1.4403-1.7406 2.4238-2.2951 1.5046-.8487 3.2274-1.062 5.1685-.6399.0236.0055.0484.0001.0676-.0149.0193-.015.031-.0379.032-.0625.072-2.1363.0726-4.1867.0017-6.1511-.0056-.0416.0107-.0719.0489-.091.7056-.0258 1.4303.0073 2.1741.0994.0516.0061.0936.0447.1047.096.0686.33.1063.646.1131.948.0472 2.3854.0382 4.7529-.027 7.1024-.0007.0301-.015.0583-.039.0766-.0239.0184-.0549.0249-.0843.0177-1.5911-.3839-3.0793-.2969-4.4646.261-1.0634.4288-1.958 1.0889-2.6838 1.9802-.9914 1.218-1.4938 2.6745-1.5073 4.3696-.0113 1.438.4529 2.7127 1.3925 3.824z" fill="#9b9b9b"/><path d="m57.9215 55.4115c-.3568.1112-.7219.183-1.0955.2156-2.3744.2043-4.5693.9323-6.5847 2.1839-.18-.0325-.1975-.1083-.0523-.2273.4332-.357.9244-.6533 1.4736-.8891.4017-.1729.9379-.3676 1.6086-.5843.6031-.1953 1.3481-.3917 2.2348-.5893.9306-.2077 1.7358-.2442 2.4155-.1095z" fill="#d9d9d9"/></g></svg>