<svg fill="none" height="120" viewBox="0 0 200 120" width="200" xmlns="http://www.w3.org/2000/svg" xmlns:xlink="http://www.w3.org/1999/xlink"><clipPath id="a"><path d="m0 0h200v120h-200z"/></clipPath><g clip-path="url(#a)" fill="#fff" fill-opacity=".5"><path d="m139.478 40.7467c.23-.4017.383-.9417.46-1.62.062-.5443.105-1.0899.13-1.6368.009-.1789.037-.3694.086-.5716.03-.1252.057-.2518.081-.3797.03-.1633.064-.2873.101-.3719.096-.2143.23-.3992.403-.5547.148-.1339.326-.1949.535-.1828.425.026.778.1841 1.059.4744.182.1875.312.4488.392.7841.082.3456.109.6428.081.8916-.082.7163-.248 1.4118-.5 2.0866-.062.1667-.067.3399-.017.5197.005.0193.016.0366.031.05.015.0133.033.022.052.0251.425.0683.819.0942 1.181.0778.507-.0233 1.014-.051 1.52-.083.662-.0423 1.168-.0496 1.519-.022.669.051 1.305.1706 1.909.359s1.179.4774 1.726.867c.256.1832.431.3586.526.5262.174.3093.09.537-.254.683-.143.0613-.352.0968-.627.1063-3.778.1296-7.601.2013-11.469.2151-.02.0004-.039-.007-.054-.0205-.014-.0136-.023-.0323-.024-.0521-.025-.387.02-.7266.136-1.0186.059-.1504.188-.3059.387-.4666.295-.2393.505-.4678.63-.6856z"/><path d="m56.1789 52.8528c-.4469.3223-.7602.5582-.9398.7077-2.1106 1.7582-4.2368 1.7638-6.3786.0168-.4217-.3439-.7545-.6489-.9984-.915-.7229-.7871-1.3968-1.6131-2.0216-2.4779-.1388-.1927-.2356-.359-.2903-.499-.0694-.1806-.1158-.3693-.1393-.5663-.0018-.0153-.0004-.0308.0039-.0456.0044-.0148.0118-.0285.0216-.0404.0099-.0118.022-.0216.0358-.0286.0137-.0071.0287-.0113.0442-.0124.3167-.026.6326-.0078.9476.0544.4279.0847.8553.1719 1.2823.2618.3931.0821.9372.0466 1.6323-.1063.5867-.1296 1.1651-.2894 1.7353-.4795 2.4681-.826 4.3638-1.4921 5.6873-1.9984.4174-.159.7372-.4221.9593-.7893.1805-.2981.2843-.6774.3112-1.1379.0338-.5763-.0486-1.1331-.2474-1.6705-.0711-.1918-.2495-.5919-.535-1.2001-.1866-.3983-.397-.7845-.6313-1.1587-.1701-.2712-.2448-.5577-.2239-.8592.0018-.0307.0142-.0599.0352-.0823.0209-.0225.0489-.0369.0793-.0408.2821-.0398.5567-.0307.824.0272.8331.1814 1.6615.3806 2.485.5975.9165.2419 1.753.6454 2.5098 1.2104.5372.4009.8505.9163.9398 1.5461.0313.216.0126.4852-.0559.8074-.0556.2636-.1137.5305-.1745.801-.072.3136.0504.5037.3671.5702.1771.038.4418.1305.7941.2774.1961.082.3489.3011.4582.657.1284.4191.1215.8139-.0208 1.1846-.0998.26-.3137.5119-.6418.7555-.3549.2644-.6665.4519-.9346.5625-.3524.1452-.6444.3102-.8761.4951-.1979.1581-.3289.3698-.3931.635-.1042.4225-.1341.9016-.0898 1.4373.0338.4182.128.7538.2824 1.007.004.0064.0095.0118.016.0158.0065.0039.0139.0063.0216.0069s.0155-.0005.0227-.0033c.0073-.0028.0138-.0073.0191-.0129.3697-.4053.759-.9483 1.1677-1.6291.1935-.3223.3107-.5819.3515-.7789.0772-.3724.1957-.7314.3553-1.077.1111-.2393.2816-.4242.5116-.5547.4713-.2678 1.0631-.5443 1.7756-.8294.3627-.1452.8318-.3694 1.4072-.6726.2786-.1461.4894-.3214.6326-.5262.1094-.1555.1792-.4061.2096-.7517.1284-1.474.1705-2.8218.1263-4.0435-.0096-.2748-.0564-.5789-.1406-.9124-.0781-.3076-.2074-.581-.3879-.8204-.2031-.2687-.4257-.5037-.6678-.705-.3853-.3205-.6188-.705-.7004-1.1534-.059-.3214-.0134-.623.1367-.9046.1562-.2938.3845-.5223.6847-.6856.1658-.0907.3706-.127.6145-.1089.4573.0328.9142.0709 1.3707.1141.1857.0172.3671.0518.5441.1036.0868.026.2621.0839.5259.1737.9173.3145 1.6823.8541 2.295 1.6187.4001.5003.7841 1.1427 1.152 1.9272.1441.3093.194.6035.1497.8825-.026.1582-.1423.3828-.3488.674-.2075.2903-.3311.5166-.371.6791-.1372.5616-.1792 1.1802-.1263 1.8558.0014.0178.0065.0351.0149.0508.0083.0158.0198.0296.0338.0407.0139.0111.03.0191.0471.0237.0172.0045.0351.0055.0526.0028.4625-.0683.919-.1236 1.3694-.1659.2578-.0242.5142-.0013.7693.0687.3845.1062.6787.1935.8826.2618.4418.1486.824.4147 1.1469.7983.4165.4942.5007.9582.2525 1.3919-.1198.2108-.4278.4825-.9242.8152-1.5231 1.0212-3.0539 2.0109-4.5926 2.9691-.0375.0234-.0649.0598-.0769.1022-.0121.0424-.0078.0878.0118.1272.2135.4286.2613.8783.1432 1.3492-.0668.2626-.1314.5304-.1939.8035-.0015.0068-.0016.0139-.0001.0208s.0044.0133.0086.019c.0042.0056.0096.0103.0157.0137.0062.0034.013.0055.02.0061.9546.0631 1.9097.1283 2.8652.1957 1.7139.1209 2.8846.1529 3.5121.0959.6786-.0614 1.221-.0074 1.6271.162.2994.1253.5298.4052.6913.8398.1831.4933.3892.9776.6183 1.4528.177.3655.1909.7344.0416 1.1068-.0071.0181-.0192.034-.035.046-.0157.0121-.0347.0199-.0548.0227-.5736.0855-1.1499.1473-1.7287.1853-.6786.0449-1.2531.1071-1.7235.1866-1.1698.1988-2.341.3858-3.5134.5612-.2031.0302-.371.035-.5038.0143-.1683-.0268-.3315-.0761-.4894-.1478-.0191-.0085-.036-.0211-.0497-.0368s-.0239-.0342-.0298-.0542c-.006-.02-.0075-.0411-.0046-.0619.003-.0207.0103-.0406.0216-.0583.1562-.242.368-.4199.6352-.534.1016-.0432.1072-.0963.017-.1594-.6847-.4804-1.4792-.8173-2.3835-1.0109-.0232-.0051-.0476-.0011-.0682.0111-.0205.0123-.0357.032-.0425.055-.0633.2195-.1158.4299-.1575.6312-.0408.1944-.0607.4099-.0599.6467.0044.9711.0473 1.9362.1289 2.8952.002.0239.0098.0469.0227.0671.013.0201.0307.0367.0515.0483.5181.292.9373.6609 1.2575 1.1068.7177.9996.7324 2.0157.0443 3.0482-.0764.1157-.2986.3914-.6665.8268-.2309.2748-.4444.5556-.6405.8424-.7151 1.0446-1.4449 2.0788-2.1895 3.1026-.0052.0078-.2612.3232-.768.9461-.3116.3828-.5724.8009-.7824 1.2545-.0686.1478-.0317.261.1107.3396.2187.1218.3848.2976.4985.5275.2586.5235.4096 1.0709.453 1.642.0452.5815.0386.9936-.0195 1.2364-.0894.3732-.3276.6164-.7147.7296-.2152.0622-.5306.0743-.9463.0363-.6014-.0544-1.2349-.1564-1.9006-.3058-.3393-.0761-.7133-.0994-1.1221-.07-.0429.0033-.0828.0207-.1132.0492-.2569.2419-.5112.4865-.7628.7336-.2855.279-.5437.5201-.7746.7231-1.8805 1.652-3.6548 3.1039-5.3228 4.3559-.5779.4337-1.3078.8942-2.1895 1.3815-.8322.4605-1.7148.7867-2.6477.9785-.5876.1218-1.1421.1426-1.6637.0622-.249-.0389-.4851-.1516-.7081-.3382-.0061-.0053-.0109-.0119-.0142-.0192s-.0049-.0152-.0048-.0231.002-.0157.0055-.0227c.0035-.0071.0086-.0132.0148-.018.6179-.5011 1.3364-.9547 2.1557-1.3608.3844-.1909.8001-.4566 1.247-.797.8193-.623 1.589-1.2986 2.3093-2.027.401-.4061.9703-1.0579 1.7079-1.9556 1.2436-1.5129 2.1084-2.5389 2.5944-3.078.3532-.3906.6148-.8062.7849-1.2468.0634-.1659.0694-.3352.0182-.508-.0928-.3162-.2234-.6178-.3918-.9046-.5016-.858-1.0513-1.6848-1.6493-2.4806-.0116-.0155-.0276-.0274-.046-.0343-.0185-.0069-.0386-.0084-.0581-.0046-.4391.0864-.8553.2389-1.2484.4575-.2586.1426-.5788.1983-.9607.1672-.0245-.002-.0483-.0092-.0698-.021-.0216-.0119-.0403-.0281-.0551-.0477-.3272-.4277-.5103-.8717-.5494-1.3323-.0286-.3378.0634-.7132.276-1.1262.3246-.6316.7498-1.2312 1.2757-1.7988.0312-.0329.0655-.0614.1028-.0856.2821-.1788.5554-.3408.8201-.486.0052-.0026.1506-.0713.4361-.206.4105-.1927.7346-.4891.9724-.8891.2456-.413.4218-.8528.5285-1.3193.0582-.2514-.0295-.3508-.2629-.2981-.0399.0091-.0758.0304-.1027.0609s-.0433.0686-.047.1089c-.0235.2289-.1315.4639-.3242.705-.0214.0267-.0479.049-.0778.0654-.03.0165-.0628.0268-.0966.0305-.4148.0467-.7381-.0717-.9698-.3551-.5146-.6307-.9529-1.3401-1.3147-2.128-.0088-.0193-.0216-.0365-.0374-.0506-.0159-.0141-.0345-.0247-.0548-.0311-.0202-.0065-.0415-.0087-.0627-.0064-.0211.0022-.0415.0088-.0599.0194-.7871.4536-1.5183.9046-2.1935 1.353-.2568.1702-.7415.3983-1.454.6843-.5103.2056-1.0349.257-1.5738.1542-.0198-.0036-.0386-.0117-.0548-.0236-.0163-.0119-.0296-.0273-.0389-.0451-.2057-.394-.3259-.6778-.3606-.8514-.2534-1.2641-.2578-2.5501-.013-3.8582.0051-.029.0176-.0563.0363-.0794.0186-.0231.0428-.0412.0704-.0528.5077-.2082 1.0141-.4268 1.5191-.6558.3611-.1624.6687-.3577.923-.5858 1.057-.9495 1.8523-2.0904 2.3861-3.4227.0164-.0406.0069-.0484-.0287-.0234zm7.3457 3.7649c.1849-.1805.3736-.3896.5663-.6272 1.0188-1.252 1.9083-2.4508 2.6686-3.5964.1648-.248.256-.4964.2733-.7452.0015-.0178-.004-.0354-.0154-.0494-.0113-.014-.0277-.0232-.0458-.0258l-1.9994-.2424c-.0325-.0041-.0656.0023-.095.0183-.0293.016-.0534.0409-.069.0712-.342.6531-.726 1.2787-1.1521 1.8766-.2517.3525-.5706.7015-.9568 1.0471-.3532.318-.7085.6338-1.0661.9474-.5224.4588-.8882 1.0455-1.0974 1.76-.1024.3482-.0824.6666.0599.9551.0084.0176.0215.0328.0381.0444.0166.0115.0362.019.057.0217.3011.0398.5072.0424.6183.0078.6005-.1901 1.1334-.4873 1.5985-.8916.1927-.1685.3983-.359.617-.5716zm1.1729 2.7437c-.2378.1866-.4712.403-.7003.6493-.0198.0212-.0325.0477-.0365.0758-.0039.0281.0011.0564.0143.081l.8982 1.6796c.0087.0164.0226.0294.0398.0371.0172.0078.0366.0097.0553.0057.9685-.2281 1.8072-.6904 2.5162-1.3868.1727-.1684.2647-.4117.276-.7296.0434-1.1854.0677-2.3713.0729-3.5575 0-.0424-.0148-.048-.0443-.0169-.8036.8372-1.5981 1.6827-2.3835 2.5363-.1536.1659-.3896.3745-.7081.626zm.6457 4.3662c-.1996.0674-.3619.1507-.4869.2501-.3575.2817-.7138.5646-1.0687.8489-.158.127-.3276.2277-.509.302-.1848.0769-.3706.152-.5571.2255-.3151.1235-.5776.2643-.7876.4225-.6812.5097-1.297 1.1353-1.8472 1.8766-.0303.0414-.0199.0652.0313.0712l3.9456.4342c.0366.0041.0737.0002.1086-.0114.0349-.0117.0667-.0308.0931-.056.2083-.197.368-.3897.4791-.578.0868-.1486.1314-.2246.134-.2281.5199-.8044 1.0696-1.5885 1.6494-2.3522.1588-.2091.3432-.3945.5532-.556.1744-.1331.2877-.3391.3397-.6182.0054-.0287.0002-.0584-.0147-.0836-.0148-.0253-.0382-.0443-.066-.0538-.5259-.1832-1.0197-.2043-1.4813-.0635-.0964.0294-.2682.086-.5155.1698z"/><path d="m130.432 49.7727c-.727.0233-1.299.009-1.716-.0428-.173-.0216-.305-.1205-.396-.2968-.008-.0174-.012-.037-.011-.057s.008-.0397.019-.057c.16-.2489.334-.4869.524-.7141.157-.1901.252-.3474.283-.4718.051-.1926.041-.384-.028-.5741-.269-.737-.619-1.404-1.05-2.001-.123-.1702-.277-.3059-.463-.407-.14-.0769-.333-.1149-.579-.114-.208.0009-.417-.0048-.625-.0169-.221-.0112-.428-.006-.62.0156-1.216.1391-2.296.2242-3.237.2553-.385.013-.736-.1032-1.056-.3486-.006-.0052-.012-.0116-.016-.019-.004-.0073-.007-.0154-.008-.0238 0-.0083 0-.0168.003-.0248.002-.008.007-.0155.012-.0218.254-.2947.585-.5508.992-.7686 1.183-.635 2.434-1.2796 3.754-1.9336.036-.0175.065-.0444.087-.0778.021-.0334.032-.0719.033-.1114.013-.5849-.093-1.1764-.318-1.7742-.073-.1962-.128-.5254-.164-.9876-.025-.3257.103-.4812.383-.4666.131.0078.202.0113.212.0104.322-.0069.645-.0181.967-.0337.74-.0354 1.317.2441 1.733.8385.281.4009.637.8208 1.069 1.2597.053.0545.264.2355.635.5431.217.1814.409.3862.577.6143.137.1875.206.3931.207.6169.001.2713-.037.5611-.112.8696-.132.5426-.222 1.242-.268 2.0982-.037.6575.099 1.2247.407 1.7017.143.222.466.5244.97.9072.411.3127.755.5987 1.031.8579.315.2955.455.6476.42 1.0562-.015.1962-.102.4212-.259.6753-.129.209-.264.4147-.403.6169-.151.2203-.264.4864-.338.7983-.002.0099-.002.0203-.001.0304.002.0101.006.0198.011.0285.006.0087.013.0163.022.0222.008.0059.018.01.028.0122.398.0864.791.1892 1.18.3085.374.1149.651.2527.83.4134.163.1451.296.3149.4.5093.107.2005.144.4035.112.6091-.056.3491-.238.6727-.546.9707-.454.4381-.978.8727-1.571 1.3038-.028.0209-.05.0489-.064.081-.014.0322-.019.0673-.014.1017.061.4234.255.753.582.9889.605.4363.708.8428.31 1.2195-.216.2048-.52.3292-.913.3733-.417.0466-.837.035-1.259-.035-.165-.0277-.448-.0126-.848.0453-.275.0398-.543.1236-.803.2515-1.212.5953-2.353 1.3042-3.424 2.1267-.016.0125-.029.0283-.037.0463-.009.0179-.014.0376-.014.0574l.024 1.9362c0 .0179.006.0353.018.0489s.029.0225.047.025c1.518.216 2.779-.2393 3.78-1.366.608-.6826 1.21-1.3694 1.808-2.0606.014-.0162.031-.0291.05-.0376s.039-.0125.058-.0117l.984.0506c.02.0008.04.0067.058.0173.017.0106.033.0255.045.0436.316.4708.458.9905.426 1.5591-.013.2263-.02.3451-.02.3564-.006.2592-.013.5184-.021.7776-.006.2695-.053.4631-.139.5806-.123.1676-.31.2786-.56.333-.416.089-.768.1599-1.054.2126-.397.0726-.746.1525-1.049.2397-1.324.3811-2.667.6765-4.029.8865-.528.0812-.971.1132-1.329.0959-.514-.0242-.953-.111-1.318-.2605-.062-.0259-.193-.1253-.393-.2981-.127-.1114-.224-.2397-.29-.3849-.141-.3153-.228-.5953-.26-.8398-.057-.432-.076-.9435-.059-1.5345.012-.4337.008-.8151-.014-1.1443-.033-.4934-.052-.8748-.057-1.1444-.024-1.1621-.064-3.8811-.122-8.157 0-.0084.002-.0167.005-.0245s.008-.0149.014-.0208.013-.0106.021-.0137c.008-.0032.017-.0047.026-.0045.289.0026.579.0065.869.0116.39.007.753.0912 1.091.2528.234.1114.413.2825.535.5132.127.2393.211.4873.254.7439.032.1952.072.3737.12.5352.043.1435.135.2968.277.4601.202.2342.376.4877.521.7608.094.1788.123.3559.085.5313-.026.1253-.066.2463-.119.3629-.087.1909-.137.3072-.15.3486-.266.8217-.272 1.6796-.018 2.5739.074.2618.229.4147.467.4588.379.0708.747.0319 1.104-.1167.476-.1987.92-.4471 1.332-.7452.506-.3672.885-.7007 1.136-1.0005.54-.6437.754-1.4381.643-2.3833-.028-.2411-.163-.3767-.405-.407-.088-.0103-.196-.022-.324-.035-.105-.0103-.212-.0043-.321.0182-.433.0864-.803.1399-1.111.1607-.228.0155-.458-.0337-.688-.1478-.018-.0085-.032-.0224-.041-.0394-.009-.0171-.012-.0365-.009-.0552.04-.2272.124-.4376.253-.6311.196-.2964.395-.591.596-.8839.162-.235.275-.4752.337-.7206.185-.7283.3-1.4688.346-2.2213.001-.008 0-.0161-.003-.0236-.003-.0076-.008-.0144-.014-.0202-.005-.0057-.013-.0102-.02-.0132-.008-.0029-.017-.0043-.025-.0039z"/><path d="m141.315 51.1226c-.042.0368-.091.0579-.138.0596l-.943.0376c-.021.0009-.042-.0027-.062-.0106-.019-.0079-.037-.0199-.052-.0352-.015-.0154-.027-.0339-.035-.0543s-.013-.0423-.013-.0645v-4.5839c0-.0344.013-.0675.037-.0928.024-.0252.056-.0407.091-.0433.718-.0441 1.391-.0458 2.02-.0052.274.0173.498.1067.674.2683.105.0967.245.2795.421.5482.239.3663.372.7741.4 1.2234.002.0403-.01.0818-.034.1179-.646.9668-1.434 1.8451-2.366 2.6348z"/><path d="m95.4155 53.5775c.2447-.2748.4374-.4593.5779-.5534.2934-.1944.5073-.4515.6418-.7712.008-.0184.0114-.0386.0098-.0589-.0015-.0204-.0081-.0401-.0189-.0577-.3098-.5132-.6856-.9733-1.1273-1.3802-.1094-.1003-.43-.4398-.962-1.0187-.3168-.3439-.4673-.7245-.4517-1.1418.0008-.0209.0057-.0415.0144-.0604s.0211-.0358.0364-.0497c.2213-.2057.4877-.299.7992-.28.4565.0268.9108.0687 1.3629.1258.946.1192 1.8116.4367 2.597.9525.1337.0873.2651.1979.3944.3318.1215.1244.2417.2501.3606.3771.478.5089.772 1.08.883 1.7133.035.2031.019.4096-.05.6195-.055.1668-.175.3232-.362.4692-.2184.1693-.4389.3369-.661.5028-.2283.1702-.4682.3046-.7199.4031-.8565.3335-1.6909.5758-2.5032.727-.296.0553-.6192.0463-.9698-.0272-.0197-.0039-.0378-.0133-.0519-.0272-.0141-.0138-.0237-.0314-.0275-.0505-.0556-.2644.0204-.5128.2278-.7452z"/><path d="m145.093 51.5891c-.147-.0855-.187-.2056-.121-.3603.14-.3283.426-.5482.859-.6596.365-.0942.734-.1478 1.108-.1607.262-.0087.518-.0424.767-.1011.951-.2229 1.892-.1668 2.825.1684.019.0073.037.0188.051.0336.015.0147.026.0325.033.052.161.4579.066.8441-.284 1.1586-.029.0277-.07.0446-.114.048-.81.0682-1.62.1265-2.432.1749-.456.0268-.911.0125-1.365-.0427-.009-.0018-.163-.0134-.462-.035-.296-.0208-.584-.1128-.865-.2761z"/><path d="m90.6489 67.3491c4.4806.0596 8.4262.0618 11.8371.0065.764-.0121 1.709-.0696 2.834-.1724 1.346-.1227 2.681-.0522 4.005.2113.532.1062 1.035.2903 1.509.5521.412.2281.823.4583 1.234.6907.008.0052.094.0458.257.1219.145.0665.26.1654.345.2967.11.1668.168.2545.174.2631.423.5556.657 1.1772.7 1.865.016.241-.036.4627-.155.6648-.452.7664-1.123 1.106-2.011 1.0187-.262-.0251-.547-.1275-.854-.3072-.382-.2229-.761-.451-1.138-.6843-.382-.2367-.755-.419-1.119-.5469-2.517-.8882-4.997-1.3919-7.441-1.5111-1.5327-.0743-3.7595-.1166-6.6806-.127-.8878-.0035-1.6606-.0462-2.3184-.1283-.7698-.0968-1.5361-.2182-2.2989-.3642-.6543-.1253-1.2249-.321-1.7118-.5871-.2135-.1166-.3337-.308-.3606-.5741-.002-.0202.0006-.0407.0076-.06s.0182-.0368.0328-.0515c.1753-.1719.3532-.3412.5337-.508.1779-.1633.3788-.3028.6027-.4186.7672-.3974 1.5413-.7806 2.3223-1.1496.8704-.4121 1.6376-.8043 2.3015-1.1767 1.0718-.6014 2.1448-1.2006 3.2192-1.7976.4921-.2739 1.2553-.6856 2.2898-1.2351.9823-.5227 1.9547-1.0579 2.9157-1.6057.127-.0726.237-.1646.331-.2761.234-.2782.467-.5305.698-.7568.15-.1478.355-.2834.615-.407 1.082-.5149 1.939-1.3124 2.57-2.3924.223-.3827.317-.772.282-1.1677-.001-.0193-.008-.0379-.02-.0538-.011-.016-.027-.0287-.045-.0369-.68-.2998-1.455-.3637-2.325-.1918-.352.0691-.65.1568-.895.2631-.202.0873-.415.2575-.642.5106-.184.2065-.37.4108-.558.613-.029.0303-.064.0519-.106.0648l-.398.1244c-.039.0119-.075.0362-.103.07-.221.2653-.44.5327-.656.8022-.181.2255-.385.413-.6145.5625-.8036.521-1.4619.9025-1.9748 1.1444-1.6358.7724-3.6778 1.6554-6.126 2.649-.3818.1547-.7151.1611-.9997.0194-.1857-.0933-.3923-.3149-.6196-.6648-.2873-.4432-.5281-.9094-.7225-1.3984-.1449-.3629-.2183-.7391-.22-1.1288-.0017-.4726.0382-.9426.1198-1.4101.0286-.1624.0733-.2734.1341-.333.0781-.0761.177-.099.2967-.0687.0643.0164.1432.0656.237.1477.2551.2203.502.3612.7407.4225 1.4718.3767 3.0104.3741 4.6159-.0078 1.9709-.47 4.012-.9447 6.1239-1.4243.082-.0181.159-.0509.23-.0985.373-.2462.722-.5413 1.045-.8851.029-.0311.066-.0516.107-.0583.289-.0519.58-.0856.872-.1011.297-.0147.538-.0618.723-.1413.152-.0665.301-.1413.446-.2242.159-.0907.31-.1551.454-.1931.504-.1313 1.005-.2678 1.505-.4095.194-.0553.375-.0584.544-.0091.455.1296.866.3326 1.232.6091.341.2575.675.6497 1.002 1.1768.301.4855.537.9499.708 1.3932.054.1408.064.2985.031.473-.026.1348-.087.2756-.184.4225-.29.4381-.714.839-1.271 1.2027-.749.4899-1.46.8454-2.133 1.0666-.274.0899-.499.1979-.677.324-.301.2134-.594.4363-.88.6687-.275.2247-.575.4057-.9.5431-.287.1209-.436.184-.446.1892-.89.4052-1.719.7033-2.489.8942-.395.0977-.653.178-.773.2411-.8865.4622-1.7777.9154-2.6742 1.3595-.2777.1374-.5919.2462-.9425.3266-.9884.2281-1.9482.5456-2.8794.9525-.6301.2756-1.5374.7305-2.722 1.3647-.3098.165-.5502.3331-.7211.5042-.0304.0311-.023.0471.0221.0479z"/><path d="m141.988 56.8575c-.145-.0994-.26-.2203-.347-.3629-.084-.1382-.127-.2933-.129-.4653-.006-.4086.204-.613.631-.613h.414c.726-.0458 1.449-.0194 2.169.0791.071.0095.158.0523.26.1283.008.006.06.041.156.105.246.1615.266.435.059.8203-.089.1659-.205.3093-.348.4303-.254.216-.578.3335-.972.3525-.329.0164-.655-.0099-.978-.079-.325-.0692-.63-.2009-.915-.3953z"/><path d="m142.051 62.0494c-.146-.1028-.331-.2644-.555-.4847-.217-.2134-.295-.4432-.234-.6894.049-.197.193-.3482.434-.4536.256-.1141.529-.1828.817-.2061.988-.0786 1.739-.0557 2.255.0687.333.0803.603.2704.809.5702.171.248.3.4955.386.7426.093.267.113.553.062.858-.009.056-.031.1093-.063.1561-.033.0468-.075.086-.124.1147-.221.1288-.458.2044-.711.2268-.164.0139-.408.0173-.733.0104-.354-.0086-.697-.0812-1.03-.2177-.524-.2152-.962-.4471-1.313-.696z"/><path d="m140.445 73.1866c.214.0778.446.057.698-.0622.153-.0717.331-.2061.534-.4031 1.191-1.1577 2.065-2.5263 2.62-4.1057.354-1.0083.354-1.9984-.001-2.9704-.147-.3992-.448-.5958-.904-.5897-.65.0086-1.301.0177-1.952.0272-.255.0035-.473-.0821-.652-.2566-.169-.1642-.159-.3171.028-.4588.254-.1918.55-.2782.891-.2592.281.0147.558.0026.831-.0363.369-.0527.643-.0747.821-.0661 1.095.0553 2.148.2795 3.159.6727.85.33 1.409.6212 1.679.8735.536.502.645 1.2083.329 2.1189-.273.788-.821 2.1216-1.644 4.0008-.055.127-.109.343-.162.648-.047.2713.08.4523.382.543.229.0683.532.095.91.0804 1.794-.0709 3.584-.0221 5.371.1464.179.0164.495.076.948.1788.378.0864.713.2446 1.005.4744.237.1866.374.3953.411.626.032.1969 0 .3844-.096.5624-.08.1469-.211.27-.395.3694-.346.1857-.723.273-1.132.2618-.401-.0121-.801-.0428-1.199-.092-2.272-.2808-4.543-.5737-6.812-.8787-1.014-.1357-1.877-.2225-2.589-.2605-2.391-.1262-4.669-.0648-6.836.184-.55.0631-1.875.2428-3.975.5391-.811.1141-1.665.2601-2.564.4381-1.539.3041-3.08.594-4.623.8696-1.637.2929-3.372.3901-5.207.2916-.726-.0389-1.357-.2449-1.891-.6182-.017-.0116-.03-.0272-.038-.0451s-.011-.0373-.008-.056c.029-.1728.11-.2786.245-.3175.737-.2117 1.748-.4169 3.033-.6156 1.127-.1754 2.255-.3482 3.383-.5184 1.12-.1702 2.227-.4087 3.323-.7154.016-.0046.03-.0128.042-.0241.012-.0112.021-.0251.026-.0405.005-.0153.006-.0316.004-.0475-.003-.0158-.01-.0307-.019-.0434-.699-.9055-1.276-1.8991-1.732-2.9808-.319-.7595-.511-1.5492-.576-2.3691-.029-.3681.012-.7279.123-1.0796.077-.2384.239-.3767.487-.4147.325-.0492.633.0169.924.1983.615.3819 1.148.8558 1.599 1.4217.935 1.1725 1.723 2.4369 2.362 3.7934.208.4389.515.8113.922 1.1172.146.1088.239.0747.279-.1024.062-.2791.063-.5435.004-.7932-.274-1.1379-.448-2.2913-.522-3.4603-.035-.5504-.013-1.0969.065-1.6394.053-.3742.169-.6532.347-.8373.192-.1995.433-.3339.724-.403.186-.0441.283-.067.292-.0687 1.461-.4078 2.953-.6048 4.476-.591.197.0018.727.0562 1.588.1633 1.361.1702 2.066.9392 2.114 2.3069.041 1.1508-.247 2.2909-.865 3.4201-.029.0527-.179.2722-.449.6584-.152.2177-.278.454-.377.7089-.098.2566-.018.432.241.5262zm-3.643-6.2428c-.229-.0268-.443.0138-.645.1218-.186.1011-.353.2302-.5.3875-.206.222-.296.4916-.27.8087.077.9539.414 1.8559 1.01 2.706.013.0184.03.0331.05.0428.02.0096.043.0139.065.0123s.044-.0089.062-.0213c.019-.0124.034-.0294.044-.0493.489-.9608.781-1.9682.876-3.0223.025-.2687-.024-.4938-.146-.6752-.119-.178-.302-.2817-.546-.311z"/></g></svg>