<svg fill="none" height="120" viewBox="0 0 200 120" width="200" xmlns="http://www.w3.org/2000/svg" xmlns:xlink="http://www.w3.org/1999/xlink"><clipPath id="a"><path d="m32 34h136v52h-136z"/></clipPath><g clip-path="url(#a)" fill="#fff" fill-opacity=".5"><path d="m91.8714 40.2374c-1.7638.9845-3.6356 1.6477-5.6154 1.9896-.7006.1209-1.4053.2066-2.1143.257-1.3855.0981-2.771.1102-4.1565.0361-.4412-.0236-.7153-.0548-.8223-.0934-.3002-.1075-.4964-.3419-.5886-.7032-.0686-.2702-.0185-.5361.1503-.7977.1943-.3013.4859-.4414.8748-.4201.5139.0283 1.028.0504 1.5423.0662 1.4842.0468 2.9606-.0406 4.4292-.2624 2.6167-.3947 4.9824-1.3859 7.0971-2.9735.2427-.182.5406-.427.8937-.735.9642-.8419 1.9221-1.6936 2.8737-2.5551.0397-.0363.0507-.0286.0332.023-.3863 1.1235-.7713 2.2384-1.1549 3.3446-.3367.9706-.6832 1.8231-1.0394 2.5574-.4358.8986-.9566 1.7381-1.5623 2.5185-.2491.3214-.5023.6155-.7594.8822-1.0274 1.066-2.2177 1.8807-3.5709 2.444-.8449.3514-1.7343.6136-2.668.7865-.8628.1599-1.8009.2633-2.8143.3102-1.1539.0536-2.4965.0404-4.028-.0396-2.2944-.1193-4.0042-.1997-5.1291-.2411-1.637-.0598-3.2036-.0451-4.7.0444-1.4145.0847-2.8568.2893-4.3269.6139-2.0811.4597-4.0592 1.2076-5.9342 2.2437-1.4484.8005-2.8002 1.7479-4.0555 2.8423-.9177.8004-1.7253 1.674-2.4228 2.6206-.3703.5027-.7094 1.0629-1.0172 1.6806-.3101.6216-.5245 1.2766-.6434 1.9648-.0796.4601-.0783.9196.004 1.3786.0781.4345.2531.7979.5251 1.0902.256.275.5783.4747.9669.5992.5032.1611 1.0082.1319 1.5149-.0875.5177-.2245 1.0438-.5521 1.5782-.9827.4503-.3624.7446-.6047.8829-.7268.6488-.5747 1.295-1.1527 1.9389-1.7337 1.1973-1.081 2.4567-2.0778 3.7782-2.9906 1.485-1.025 3.1637-1.8941 5.036-2.6071.1235-.0473.2496-.1221.3783-.2245.1337-.1064.229-.2165.2857-.3304.08-.1595.1059-.3297.0777-.5105-.0243-.1572-.0885-.2842-.1925-.3811-.109-.1017-.2434-.1635-.4034-.1856-.1654-.0232-.33-.0191-.4938.0124-1.0723.2068-2.1087.535-3.1091.9845-1.1307.5078-2.1636 1.0634-3.0989 1.6669-.2982.1927-.6167.4082-.9554.6465-1.7032 1.1991-3.2368 2.6004-4.6006 4.2037-.0019.0024-.0445.0565-.128.1625-.2617.3325-.5948.456-.9994.3705-.1848-.039-.3423-.1331-.4726-.2824-.1184-.1367-.199-.2969-.2417-.4805-.0735-.3175.0015-.611.2252-.8804 2.4278-2.9258 5.3268-5.2148 8.6971-6.867 1.1768-.5767 2.4181-1.0281 3.724-1.3543.3322-.0828.6608-.1349.9857-.1566.3585-.024.6875-.0002.9869.0715.8366.2009 1.4285.6977 1.776 1.4903.1672.3825.247.7636.2394 1.1434-.008.4049-.1051.7957-.2914 1.1723-.3071.6221-.756 1.1027-1.3469 1.4418-.251.1442-.5108.2687-.7794.3735-.2091.0812-.3149.1223-.3171.1235-1.5292.6287-2.9623 1.4099-4.2995 2.3435-.672.4692-1.3588 1.0005-2.0605 1.5937-.9734.8222-1.7686 1.5159-2.3858 2.0812-.5104.4672-1.008.8933-1.4925 1.2781-.4099.3254-.7179.5577-.924.6967-.4423.2982-.9113.5411-1.4069.7286-.3897.1474-.7594.2368-1.1091.2683-.8659.0776-1.6878-.1141-2.4657-.575-.7981-.4727-1.3595-1.1375-1.684-1.9943-.1959-.5176-.3039-1.0644-.324-1.6403-.0126-.3585.015-.7505.0828-1.176.1356-.8532.3958-1.6785.7806-2.4759.4065-.843.8748-1.6149 1.4051-2.3157.9574-1.2654 2.0503-2.3901 3.2789-3.3741 1.4046-1.1247 2.9046-2.0914 4.5-2.9002 1.5977-.8092 3.2792-1.4322 5.0446-1.8691 1.211-.2997 2.4059-.5146 3.5845-.6446 1.0553-.1166 2.2711-.1862 3.6475-.2086 1.1767-.0193 2.3529-.0018 3.5285.0526 1.1718.0543 2.3435.1126 3.5149.1749 1.1306.0599 2.1162.0973 2.9565.1122.4945.0091 1.0566.003 1.6863-.0183 1.1814-.0394 2.3469-.1999 3.4966-.4816 2.4613-.6035 4.3655-2.0029 5.7126-4.1984.0103-.0169.0072-.0208-.0092-.0118z"/><path d="m85.5838 52.5956c.0244-.0414.0169-.0487-.0223-.0219-2.5608 1.7542-5.3278 3.0339-8.3012 3.8391-.7268.1966-1.4581.3747-2.1937.5342-.9424.2041-1.8834.4148-2.8228.6323-.4857.1127-.9686.2372-1.4486.3735-1.6968.481-3.2899 1.2044-4.7794 2.1704-.9276.6015-1.7673 1.2342-2.5189 1.898-.9455.8347-1.6834 1.4749-2.2137 1.9204-.9867.8289-2.0162 1.5959-3.0886 2.301-.7603.4999-1.5537.9356-2.38 1.3071-.635.2856-1.2906.5056-1.9668.6601-.853.1942-1.709.2434-2.568.1477-.3753-.0418-.7488-.1158-1.1206-.2222-.9253-.2647-1.8116-.6914-2.6589-1.2799-.6666-.4629-1.2175-.986-1.6525-1.5695-.5177-.6945-.9156-1.4701-1.1937-2.327-.2286-.7027-.377-1.4036-.4452-2.1024-.1585-1.6242-.0055-3.2148.4589-4.7716.4255-1.4265 1.0316-2.7655 1.8183-4.017.8461-1.3465 1.8369-2.5673 2.9725-3.6625 1.5707-1.5143 3.2922-2.8105 5.1646-3.8887.3044-.1753.6394-.3632 1.0051-.5638 1.9589-1.0727 4.004-1.9246 6.1355-2.5556.3615-.1072.7305-.2053 1.1068-.2943 2.2061-.5208 4.4541-.82 6.744-.8976 1.8606-.063 3.6897-.054 5.4875.0272.4704.0212.7072.0323.7102.0331.256.05.4652.1887.6275.416.1158.1623.1741.3439.1748.5448.0008.1871-.0449.3638-.1371.53-.104.1879-.2522.3238-.4446.4078-.1253.0547-.3127.0801-.5623.0762-.4095-.0067-.8186-.0181-1.2274-.0343-1.3044-.0516-2.6091-.0632-3.9143-.0349-1.1897.0257-2.3758.1062-3.5583.2417-2.5478.2912-5.0078.9362-7.38 1.9353-1.6632.7-3.2615 1.5332-4.7948 2.4995-1.4499.9139-2.7882 1.9774-4.0149 3.1903-1.3268 1.3122-2.407 2.8137-3.2406 4.5045-.5558 1.1275-.9358 2.292-1.14 3.4935-.118.6949-.1579 1.4237-.1194 2.1863.048.9526.2598 1.8634.6354 2.7324.3273.7575.7839 1.3831 1.3698 1.8767.3897.3282.8529.6319 1.3897.9112 1.3386.6957 2.7386.847 4.2.4538.7912-.2127 1.5577-.5237 2.2994-.933.7044-.3884 1.3653-.8031 1.9829-1.2439.6979-.4979 1.3769-1.0221 2.0371-1.5724.768-.6413 1.5257-1.2955 2.2731-1.9624.9025-.806 1.9355-1.5683 3.0989-2.2868 1.5973-.9864 3.3131-1.7298 5.1474-2.2301.8229-.2246 1.561-.4069 2.2143-.5472.8834-.1899 1.7657-.3849 2.6469-.585.9101-.2064 1.8097-.454 2.6988-.7428 1.7509-.5688 3.4198-1.3295 5.0069-2.2821 1.1139-.6685 2.1882-1.3986 3.2228-2.1905.237-.1812.5383-.4221.904-.7226 1.0873-.8927 2.1711-1.7893 3.2515-2.6899.0152-.0126.0192-.0094.012.0095-.4777 1.2642-.9631 2.5252-1.456 3.783-.6876 1.7534-1.5612 3.4013-2.6206 4.9435-1.0876 1.5825-2.363 2.9816-3.8263 4.1973-1.3364 1.1105-2.8343 2.0286-4.4937 2.7542-.1269.0555-.2438.0951-.3509.1188-.1184.026-.239.024-.3617-.0059-.2712-.067-.475-.2153-.6114-.445-.1261-.2131-.1705-.4471-.1331-.702.0518-.3518.2554-.6041.6108-.7569 2.3772-1.0223 4.433-2.5159 6.1674-4.4809.8309-.9411 1.56-1.9504 2.1875-3.0278z"/><path d="m41.6188 52.0939c-.2995.1962-.6035.4105-.9121.6429-2.2163 1.6703-3.9133 3.7869-5.0908 6.3499-.1558.3388-.4038.535-.744.5885-.1844.0292-.3602.0034-.5274-.0774-.1536-.0736-.2844-.1863-.3926-.338-.2229-.3124-.2436-.6651-.0623-1.0583 1.24-2.6878 2.9998-4.9402 5.2794-6.757 1.4617-1.1649 2.9829-2.0739 4.5635-2.7271 1.1996-.4952 2.3887-.9773 3.5674-1.4465.0484-.0193.0564-.0081.024.0337-.4469.581-.8869 1.1617-1.32 1.742-.0031.0035-.221.2885-.6537.855-.8088 1.0585-1.5103 2.1901-2.1046 3.3948-.9009 1.8278-1.4444 3.758-1.6303 5.7903-.0373.4117-.0564.8046-.0571 1.1789-.0019 1.4575.2324 2.855.7028 4.1925.5284 1.5016 1.3214 2.7695 2.3789 3.8036.8629.8442 1.8413 1.4722 2.9354 1.8839.3238.1217.6831.2397 1.0777.3539.3311.0961.5505.1854.6583.2677.2027.1544.3219.3642.3577.6293.0324.2399-.0089.4631-.124.6695-.1893.34-.5089.4987-.9588.4763-.061-.0032-.2141-.043-.4595-.1194-.0944-.0295-.2457-.0762-.4537-.14-2.5162-.7706-4.4916-2.266-5.9263-4.4862-.9828-1.5214-1.6209-3.2358-1.9142-5.1433-.3158-2.0508-.2438-4.0861.216-6.1058.3489-1.5325.8817-3.0082 1.5982-4.4271.0229-.0449.0136-.0538-.0279-.0266z"/><path d="m165.241 52.8528c-.075-.0647-.104-.1464-.088-.2453.135-.8339.275-1.6592.418-2.4759.016-.0926.033-.1715.051-.2369.024-.0855.063-.1535.116-.2039.109-.1012.226-.1182.354-.0508.015.0075.102.0731.263.1968.426.3273.852.6553 1.278.9838.14.1076.224.2055.253.2937.037.1138.017.2204-.061.3197-.039.0496-.117.1111-.234.1843-.672.4204-1.347.8352-2.026 1.2445-.122.0741-.231.0707-.324-.01z"/><path d="m108.894 66.8662c.002-.1316.014-.2622.037-.3918.78-4.5622 1.558-9.125 2.333-13.6884.03-.1737.025-.2996-.013-.3776-.063-.1288-.19-.1932-.38-.1932-4.132 0-8.265 0-12.3972 0-.1802 0-.3113.0216-.3932.065-.139.0732-.223.1944-.252.3634-.8853 5.1952-1.7735 10.4045-2.6646 15.6277-.002.013-.0085.0247-.0182.0331-.0098.0085-.0221.0131-.0349.013h-1.6046c-.004 0-.008-.0009-.0117-.0027-.0036-.0018-.0069-.0044-.0095-.0076s-.0045-.0069-.0056-.011c-.0011-.004-.0013-.0082-.0006-.0123.8861-5.1973 1.7726-10.3805 2.6594-15.5498.1295-.7536.5179-1.2947 1.1652-1.6232.2103-.1064.436-.173.6771-.1998.0663-.0071.2985-.0106.6966-.0106h12.5798c.19 0 .333.0031.429.0094.474.0308.834.2356 1.082.6146.132.2025.208.429.227.6795.01.1379-.012.3705-.068.6979-.773 4.5579-1.549 9.1154-2.327 13.6725-.025.15.009.2661.104.348.064.0552.164.0861.299.0928.102.0047.209.0049.321.0006.005-.0002.011.0008.015.003.005.0022.01.0055.013.0096.003.0042.006.0091.007.0143.002.0053.002.0108.001.0162l-.21 1.2232c-.001.0099-.006.0189-.014.0254-.007.0065-.017.01-.026.01-.292 0-.581-.0031-.867-.0094-.439-.0095-.783-.1726-1.032-.4893-.218-.2765-.324-.5941-.317-.9525z"/><path d="m117.096 57.8758c-.187-.0103-.365-.0501-.535-.1194-.168-.0685-.316-.1717-.444-.3096-.266-.2856-.399-.6219-.4-1.0087 0-.0666.051-.4091.153-1.0276.138-.8355.281-1.6703.427-2.5043.035-.2032.074-.378.118-.5241.048-.1659.122-.3264.221-.4816.342-.5342.807-.8547 1.396-.9614.14-.0256.52-.0384 1.14-.0384h7.52c.004 0 .009.0011.014.0032.004.0021.008.0052.011.009.003.0039.005.0083.007.0132.001.0048.001.0098 0 .0148l-.207 1.2296c-.002.0127-.008.0241-.018.0323-.009.0082-.021.0127-.034.0127-2.608 0-5.206 0-7.791 0-.183 0-.314.0218-.393.0655-.131.0721-.215.1931-.252.3629-.066.297-.125.6504-.178 1.0601-.001.0037-.001.0074 0 .011s.003.0069.005.0097c.003.0028.006.0051.009.0066s.007.0022.01.0022l8.342.0035c.005.0001.009.0011.013.003.004.002.008.0048.01.0084.003.0035.005.0077.006.0121.002.0045.002.0092.001.0138l-.206 1.2202c-.002.0119-.008.0227-.017.0305s-.02.012-.031.012l-8.346.0036c-.009 0-.016.0029-.023.0083-.006.0054-.01.0129-.012.0212-.106.5555-.167.9236-.183 1.1044-.014.1533.033.2628.139.3286.06.037.161.0555.303.0555h8.64c.152 0 .264-.0216.338-.065.073-.0433.134-.1024.181-.1772.033-.0536.059-.1324.078-.2364.255-1.4414.41-2.3357.464-2.6827.037-.2443.076-.4649.115-.6618.051-.2573.117-.4694.2-.6365.265-.5408.676-.9042 1.232-1.0902.187-.063.436-.0977.746-.104.329-.0071.667-.0083 1.014-.0035.008.0001.015.002.022.0054s.013.0084.018.0145.008.0132.01.0209.003.0157.002.0236l-.203 1.2001c-.002.0139-.009.0265-.02.0355-.01.0091-.023.0141-.037.0142-.201 0-.399 0-.595 0-.204 0-.347.0206-.429.062-.148.0745-.239.2076-.272.3995-.168.9899-.336 1.9799-.504 2.9699-.083.4892-.17.8304-.262 1.0234-.173.366-.435.6624-.784.8893-.339.2202-.718.3296-1.139.328-2.605-.0095-5.219-.0142-7.842-.0142-.009 0-.017.0029-.023.0083s-.011.0129-.012.0213c-.112.5928-.262 1.157-.449 1.6923-.001.0024-.001.005-.001.0075s.001.0049.003.0069c.001.0021.003.0038.005.005s.004.0018.007.0019h9.123c.346 0 .602.028.767.0839.538.1816.845.6017.922 1.2604.013.1107 0 .2685-.038.4733-.04.2116-.06.3201-.061.3256-.253 1.5194-.512 3.0379-.775 4.5553-.062.3526-.129.6079-.201.7659-.111.2438-.265.4611-.462.6517-.303.2935-.647.4775-1.031.5519-.114.0221-.489.0331-1.124.0331-.559 0-1.124 0-1.694 0-.004 0-.008-.0009-.011-.0025s-.006-.0039-.009-.0068c-.002-.0028-.004-.0062-.005-.0098 0-.0036-.001-.0074 0-.011l.209-1.2403c.002-.0083.006-.0158.012-.0212.007-.0054.015-.0084.023-.0084h1.826c.218 0 .367-.0171.446-.0514.16-.0693.259-.2048.295-.4065.167-.927.457-2.63.87-5.109.027-.158.019-.2758-.021-.3534-.064-.1221-.18-.1832-.349-.1832-.542-.0004-1.07.0016-1.585.0059-.015.0002-.029.0053-.041.0146-.011.0093-.02.0222-.023.0368-.558 2.2987-1.625 4.2497-3.199 5.853-.214.2178-.425.4105-.631.5779-.222.1796-.452.3477-.69.5041-.219.1437-.451.259-.694.3456-.124.0438-.266.0656-.426.0656-.55 0-1.098 0-1.642 0-.037 0-.039-.0084-.006-.0254.462-.2356.897-.5088 1.307-.8196 1.335-1.0124 2.411-2.2626 3.231-3.7505.47-.856.826-1.7755 1.066-2.7583.002-.0056.002-.0115.001-.0171-.001-.0057-.004-.011-.007-.0156-.004-.0045-.008-.0082-.013-.0108-.005-.0025-.01-.0038-.016-.0038l-2.028.0035c-.009 0-.017.0027-.024.0077s-.012.012-.014.0201c-.501 1.5053-1.258 2.8232-2.269 3.9538-1.103 1.2314-2.409 2.1578-3.919 2.779-.951.3916-1.954.6045-3.009.6388-.007.0002-.013-.001-.018-.0036-.006-.0025-.011-.0063-.015-.0111-.004-.0047-.007-.0103-.008-.0164-.002-.006-.002-.0124-.001-.0185l.214-1.2197c.001-.0082.006-.0156.012-.0211.006-.0054.014-.0086.022-.009 1.105-.0559 2.139-.3642 3.102-.9248 2.008-1.1692 3.41-2.8858 4.205-5.1498.001-.0033.002-.0068.001-.0103 0-.0034-.001-.0067-.003-.0095-.002-.0029-.005-.0052-.008-.0068-.003-.0015-.006-.0023-.009-.0023h-2.137c-.01 0-.019.0027-.028.0079-.008.0052-.015.0127-.02.0216-.66 1.2626-1.539 2.2995-2.636 3.1106-.341.2525-.668.4526-.98.6003-.365.1726-.747.304-1.147.3942-.004.0009-.008.0008-.012-.0004-.005-.0012-.008-.0034-.011-.0065-.004-.003-.006-.0068-.007-.0109-.002-.0042-.002-.0086-.001-.0129l.21-1.2268c.003-.0129.008-.0251.016-.0355s.018-.0187.03-.0242c1.216-.5554 2.157-1.4294 2.821-2.6218.532-.9557.89-2.0243 1.074-3.2057 0-.0037 0-.0074-.001-.011s-.002-.007-.005-.0098c-.002-.0029-.005-.0053-.008-.007-.004-.0017-.007-.0027-.011-.0029z"/><path d="m145.183 60.9198-2.441-.0035c-.005 0-.01-.0012-.015-.0033-.004-.0022-.008-.0053-.012-.0092-.003-.0039-.005-.0084-.006-.0133-.002-.0049-.002-.01-.001-.015l.212-1.2196c.001-.0081.006-.0155.012-.0208s.014-.0082.022-.0082l2.457-.0141c.008-.0002.017-.0029.024-.0077s.013-.0115.017-.0195c.418-.9069.83-1.8165 1.235-2.7288.085-.1895.07-.331-.044-.4243-.066-.054-.177-.081-.333-.081-.772 0-1.562 0-2.368 0-.005 0-.01-.0012-.015-.0034-.004-.0022-.008-.0054-.012-.0094-.003-.004-.006-.0086-.007-.0137-.001-.005-.002-.0103-.001-.0154l.213-1.2333c.001-.0079.005-.0152.012-.0204.006-.0053.013-.0083.022-.0085 1.008-.0177 2.016-.0183 3.025-.0018.261.0044.462.0351.603.0922.357.1442.589.4107.696.7995.048.1749.053.3536.016.536-.035.1693-.094.3417-.176.517-.4.8568-.79 1.7128-1.169 2.5681-.003.0063-.004.0132-.003.02 0 .0069.002.0135.006.0193.004.0057.008.0104.014.0137.006.0032.012.0049.019.0049h2.436c.004 0 .007.0009.011.0025.003.0016.006.0039.008.0068.003.0029.004.0062.005.0098s.001.0074.001.011l-.209 1.2344c-.002.01-.007.019-.014.0255-.008.0065-.017.01-.027.01l-2.463.0035c-.008 0-.016.003-.022.0083s-.01.0126-.012.0207c-.302 1.7865-.607 3.5724-.915 5.3578-.059.3403-.129.5999-.212.7788-.273.5889-.718.9748-1.335 1.1576-.167.0496-.385.0744-.654.0744-1.061 0-2.122.0008-3.183.0024-.213.0004-.414-.0406-.602-.1229-.184-.0808-.344-.2039-.48-.3693-.224-.2734-.336-.5874-.338-.9419 0-.0808.047-.3985.14-.9532.598-3.5494 1.024-6.045 1.277-7.4868.056-.3211-.027-.5082-.25-.5614-.03-.0074-.195-.0118-.494-.013-.414-.0023-.828.0016-1.242.0119-.008.0003-.016.0035-.022.009s-.01.0129-.011.0211c-.459 2.7158-.92 5.431-1.384 8.1457-.088.5141-.179.869-.272 1.0648-.21.4392-.545.7735-1.005 1.0028-.226.1126-.465.1717-.717.1772-.419.0091-.851.0136-1.298.0136-.004 0-.009-.001-.013-.0031-.004-.002-.008-.0049-.011-.0086-.003-.0036-.005-.0079-.007-.0125-.001-.0046-.001-.0095 0-.0142l.213-1.2285c.002-.0082.006-.0157.012-.0211s.014-.0084.023-.0084c.251-.0044.502-.0087.753-.013.313-.0051.497-.1649.551-.4792.742-4.3275 1.481-8.6502 2.217-12.9681.001-.0056.001-.0113 0-.0167-.002-.0055-.004-.0106-.008-.0149-.003-.0044-.008-.0079-.013-.0103s-.01-.0036-.016-.0036c-1.387 0-2.764.0037-4.131.0112-.413.002-.721-.1605-.925-.4875-.123-.1966-.179-.4133-.169-.65.001-.013.035-.2273.102-.6429.043-.264.088-.5289.136-.7948.003-.0142.01-.0271.021-.0364s.024-.0144.038-.0144h1.147c.008 0 .017.002.025.0058.008.0039.015.0095.02.0164.006.007.01.0151.012.0238.002.0088.002.0179 0 .0267-.042.221-.083.4463-.121.676-.027.1635-.024.2842.008.3622.055.1359.172.2039.349.2039h3.703c.016 0 .031-.006.043-.0168s.02-.0257.023-.0423l.211-1.2126c.001-.0082.005-.0156.012-.021.006-.0054.014-.0084.022-.0085l1.589-.013c.008-.0001.015.0016.022.0049s.013.0081.017.0142c.005.006.009.0131.011.0207.001.0076.002.0156 0 .0234l-.207 1.2208c-.001.0037-.001.0075 0 .0111s.003.0069.005.0098.005.0052.009.0068c.003.0016.006.0024.01.0025h3.285c.007-.0001.013.0014.019.0043s.011.0071.015.0124.007.0115.009.0182.002.0137.001.0206l-.202 1.2007c-.001.0122-.007.0233-.016.0313s-.02.0124-.032.0125h-3.28c-.014 0-.028.0053-.039.0149-.012.0096-.019.0229-.022.0377l-.505 2.9545c-.001.005 0 .0101.001.0149.001.0049.003.0094.007.0133.003.0038.007.0069.011.0089.005.0021.009.0032.014.0031.624-.0071 1.236-.0059 1.839.0035.334.0051.585.0386.752.1005.525.1938.82.6157.887 1.2657.011.1072-.003.2653-.042.4745-.036.1907-.054.2884-.055.2931-.421 2.4763-.841 4.9528-1.262 7.4295-.055.325-.082.5009-.082.5277.005.2021.111.3199.317.3533.03.0048.17.0071.42.0071.677.0004 1.355.0018 2.033.0042.267.0012.448-.0963.542-.2925.025-.0512.065-.2354.121-.5525.307-1.7405.602-3.483.885-5.2278.001-.0035.001-.0072 0-.0106-.001-.0035-.003-.0067-.005-.0095-.002-.0027-.005-.0049-.008-.0065-.003-.0015-.007-.0023-.01-.0024z"/><path d="m144.506 53.2286c-.212-.2088-.326-.4499-.341-.7233-.005-.0878.026-.34.093-.7564.044-.2702.093-.5397.147-.8083.002-.0085.006-.0161.013-.0215.006-.0055.014-.0085.022-.0087l1.575-.01c.009-.0001.019.0021.027.0063.009.0043.016.0104.022.0181s.011.0167.013.0264.003.0198.001.0296c-.043.2217-.083.4494-.12.683-.026.162-.021.2817.016.3593.061.1277.18.1915.355.1915 1.233.0004 2.467.0006 3.701.0006.005 0 .011.0012.016.0036.004.0024.009.0059.012.0102.004.0044.006.0095.008.0149.001.0055.001.0112 0 .0168l-.212 1.2119c-.002.012-.009.0228-.018.0306-.008.0078-.02.012-.031.012-1.527 0-3.062-.0004-4.604-.0012-.271 0-.502-.0952-.695-.2854z"/><path d="m160.344 53.7037.457-2.7531c.003-.014.01-.0267.02-.0359.011-.0092.024-.0143.038-.0143l1.573.0035c.008.0001.016.002.024.0056.007.0036.014.0088.019.0154.005.0065.009.0141.011.0224.002.0082.002.0168.001.0252l-.465 2.7312c0 .0035 0 .0072.001.0108.001.0035.002.0068.004.0096.003.0028.006.0051.009.0067s.006.0024.01.0024l5.813.0036c.006-.0001.011.0012.017.0037.005.0025.009.0062.013.0108.004.0045.006.0099.008.0156.001.0058.001.0118 0 .0177l-.209 1.2072c-.002.0127-.009.0241-.018.0323-.01.0082-.021.0127-.034.0127h-5.791c-.01-.0001-.021.0039-.029.0112-.009.0072-.014.0173-.016.0283-.199 1.2433-.358 2.4907-.474 3.7423-.098 1.0526-.112 2.0995-.042 3.1407.004.0535.022.0594.054.0177 1.314-1.6865 2.363-3.5457 3.148-5.5776.006-.0153.016-.0285.029-.0376.014-.0092.029-.014.045-.0138l1.593.0071c.004-.0001.007.0007.01.0023.002.0015.005.0038.007.0066.002.0027.003.006.003.0094.001.0034 0 .0068-.001.01-.676 2.0351-1.645 3.8945-2.904 5.5782-.466.6213-.991 1.2165-1.576 1.7857-.007.0061-.011.0139-.013.0225-.002.0085-.002.0176.001.026.305.9652.865 1.6829 1.678 2.1533.307.178.661.3195 1.063.4242.523.1363 1.075.2031 1.655.2004.007 0 .013.0014.019.0042.006.0027.011.0068.015.0118s.007.0109.009.0172c.001.0063.002.0129.001.0194l-.283 1.651c-.001.0081-.005.0156-.011.0211-.007.0055-.015.0086-.023.009-.784.0256-1.547-.076-2.287-.3049-.391-.1206-.743-.2695-1.056-.4467-1.018-.5776-1.743-1.4478-2.176-2.6107-.002-.0051-.005-.0096-.009-.0134-.003-.0037-.008-.0065-.013-.0081-.005-.0017-.01-.0021-.016-.0014-.005.0008-.01.0028-.014.0058-1.147.8095-2.402 1.3276-3.764 1.5541-.538.0894-1.113.1138-1.726.0732-.599-.0393-1.172-.204-1.72-.494-.006-.0035-.012-.0088-.016-.0152-.004-.0065-.007-.0139-.008-.0217 0-.0077.001-.0155.004-.0227s.007-.0135.013-.0184c.38-.3143.726-.6565 1.039-1.0264.009-.0101.02-.017.033-.0196.013-.0025.027-.0006.038.0055.341.1749.685.2802 1.032.3161.268.0276.621.013 1.056-.0437.44-.0568.87-.1643 1.289-.3227.86-.3234 1.638-.7894 2.336-1.3981.007-.0057.012-.0132.015-.0217s.004-.0177.003-.0267c-.18-1.1117-.251-2.1913-.214-3.2388.062-1.7247.229-3.4371.5-5.1374.001-.004 0-.0082-.001-.0121-.001-.004-.003-.0077-.005-.0108-.003-.0032-.006-.0057-.009-.0074-.004-.0018-.008-.0027-.012-.0027h-2.074c-.004-.0001-.009-.0012-.013-.0033-.005-.0021-.009-.0051-.012-.0089-.003-.0039-.005-.0083-.006-.0132-.002-.0048-.002-.0099-.001-.0148l.206-1.2232c.002-.0103.007-.0196.015-.0263.007-.0067.017-.0103.027-.0103l2.054-.0036c.008.0001.015-.0029.021-.0083s.01-.013.012-.0212z"/><path d="m152.754 62.5542c.008.0497.024.0528.048.0095.481-.8635.87-1.7527 1.167-2.6674.316-.9722.569-1.9618.76-2.9687.071-.3786.232-1.3051.482-2.7797.031-.1827.037-.3094.018-.3799-.029-.1095-.098-.184-.207-.2234-.054-.0197-.146-.0295-.277-.0295-1.192 0-2.394 0-3.608 0-.003-.0001-.007-.0009-.01-.0025-.003-.0015-.006-.0038-.009-.0066-.002-.0029-.003-.0062-.004-.0097s-.001-.0072-.001-.0108l.209-1.2279c.003-.012.009-.0228.018-.0306.009-.0077.02-.012.032-.0119 1.39 0 2.771-.0014 4.142-.0042.171-.0004.336.0251.495.0763.158.0508.303.131.433.2405.266.2222.427.5034.484.8438.031.1859.012.4869-.056.9029-.062.3746-.125.7487-.19 1.1221-.001.0032-.049.2882-.145.8551-.182 1.0837-.433 2.1509-.751 3.2015-.247.8123-.548 1.6026-.904 2.3708-.386.8331-.861 1.6082-1.424 2.3252-.427.5436-.919 1.0158-1.474 1.4164-.897.6472-1.915.9839-3.053 1.0099-.005.0001-.01-.0009-.014-.0029-.005-.0021-.009-.0052-.012-.0091s-.006-.0085-.007-.0135c-.002-.005-.002-.0102-.001-.0153l.21-1.2208c.002-.0082.006-.0155.012-.021s.014-.0087.023-.0092c.892-.0547 1.666-.3921 2.321-1.0122.007-.0059.011-.0136.013-.0221.002-.0084.001-.0172-.002-.0252-.296-.7626-.468-1.5551-.518-2.3772-.025-.4329-.03-.8661-.014-1.2994.036-.9636.137-1.9189.301-2.8659.126-.7268.189-1.0922.19-1.0962.082-.5018.166-1.0031.255-1.5038.002-.0127.009-.0241.018-.0323.01-.0082.022-.0127.034-.0126l1.596.0035c.005 0 .01.0011.014.0033.005.0022.009.0054.012.0093.003.004.005.0086.007.0136.001.0049.001.0101 0 .0152-.184 1.0711-.359 2.1235-.527 3.1572-.089.5496-.155 1.1019-.197 1.6569-.069.9057-.032 1.7918.111 2.6585z"/><path d="m101.271 57.5402c.012.0512.031.0542.057.0089l2.174-3.7665c.008-.0135.019-.0247.032-.0324.013-.0078.028-.0119.042-.0119l1.381.0124c.02.0004.024.0094.014.0272l-3.221 5.5652c-.008.0144-.014.0304-.016.047-.003.0167-.002.0336.002.0499l.581 2.4333c.015.0619.007.1198-.025.1738l-.978 1.6817c-.013.022-.022.0207-.028-.0042l-.592-2.4688c-.01-.0386-.024-.0407-.044-.0065l-2.1813 3.7688c-.006.0107-.0147.0195-.0251.0256s-.0223.0093-.0343.0093h-1.4057c-.0175 0-.0217-.0077-.0126-.023l3.215-5.551c.029-.05.037-.1095.024-.1655l-1.3138-5.5149c-.0017-.007-.0018-.0143-.0004-.0214.0014-.007.0043-.0136.0085-.0193.0042-.0056.0096-.0101.0157-.0132s.0128-.0047.0196-.0046l1.3874.007c.008.0002.016.0033.023.0088.006.0054.01.0129.012.0214z"/><path d="m106.154 57.5418 2.188-3.7659c.007-.0121.017-.0221.029-.029.011-.007.025-.0106.038-.0106h1.371c.044 0 .054.0191.032.0573l-3.226 5.5747c-.01.0167-.013.0364-.008.0549l1.325 5.5871c.002.005.002.0101.001.0152-.001.005-.003.0097-.006.0137-.003.0041-.007.0074-.011.0096-.005.0023-.01.0034-.015.0034l-1.398-.0035c-.008 0-.016-.0028-.022-.0079-.007-.0052-.011-.0124-.013-.0205l-.897-3.7528c-.013-.0516-.032-.0548-.059-.0095l-2.18 3.7682c-.005.008-.011.0146-.019.0191-.008.0046-.016.007-.025.0069h-1.403c-.03 0-.037-.0134-.022-.0401l3.229-5.5753c.016-.0276.021-.0608.013-.0922l-.589-2.4847c-.004-.0131-.004-.0267-.002-.0401s.006-.0263.013-.0379l.99-1.706c.022-.0374.038-.0348.048.0077l.588 2.4535c.007.0264.017.0279.03.0047z"/><path d="m132.002 57.6041c-.294-.2616-.409-.5955-.347-1.0016.068-.4361.141-.871.222-1.3047.001-.0083.006-.0158.012-.0212s.014-.0084.022-.0084l1.198-.0065c.004 0 .007.0008.011.0024.003.0016.006.004.009.007.002.0029.004.0064.005.0102s.001.0078.001.0117c-.037.2336-.075.4592-.112.6766-.031.1797-.032.3087-.002.3871.042.1099.124.1753.247.1962.021.0035.118.0053.292.0053h1.405c.007 0 .015.0018.022.0052.007.0033.013.0082.017.0143.005.0061.009.0132.011.0208.002.0077.002.0157.001.0235l-.2 1.1919c-.002.0165-.011.0315-.023.0424-.012.0108-.028.0167-.044.0166-.68 0-1.349 0-2.006 0-.293 0-.54-.0896-.741-.2688z"/><path d="m132.82 59.6414c.001-.0058.003-.0111.008-.0149.004-.0037.009-.0058.015-.0058l1.626-.0035c.005 0 .009.0011.014.0032.004.0022.008.0053.011.0092s.005.0084.007.0133c.001.0049.001.0101 0 .0151-.366 2.1351-.731 4.2695-1.093 6.4031-.088.5164-.179.8708-.271 1.063-.17.3522-.425.6409-.766.8663-.261.1725-.539.2783-.835.3173-.052.0071-.343.0106-.872.0106-.463 0-.926 0-1.389 0-.005 0-.01-.0011-.015-.0034-.004-.0022-.008-.0055-.012-.0095-.003-.0041-.005-.0089-.007-.014-.001-.0051-.001-.0104 0-.0156l.209-1.222c.002-.01.007-.019.014-.0255.008-.0065.017-.01.027-.01.53 0 1.057-.0016 1.581-.0047.319-.002.507-.1635.562-.4846.395-2.2801.79-4.5759 1.186-6.8876z"/><path d="m58.5385 80.3027c-.1222-.1198-.2019-.2654-.2388-.4367-.088-.4109-.004-.7406.252-.9892.0971-.0946.2594-.1848.4868-.2706.2549-.0966.5098-.1925.7646-.2878 2.7185-1.018 5.2532-2.3956 7.604-4.1328 1.2415-.9175 2.3762-1.9589 3.404-3.1242.5318-.6027.9987-1.2332 1.4006-1.8915.2327-.3817.4425-.7967.6291-1.245.2419-.5819.3732-1.1901.3937-1.8247.0309-.9467-.3196-1.7184-1.0514-2.3152-.6099-.4968-1.2933-.6741-2.0503-.5318-.336.0634-.6857.1845-1.0491.3634-.3989.1961-.7829.4199-1.152.6712-.5135.3491-1.0126.7196-1.4972 1.1115-1.1055.8939-2.2083 1.7913-3.3085 2.6922-.5459.4467-1.2416.9644-2.0869 1.5529-1.443 1.005-2.9617 1.8021-4.556 2.3914-1.1482.4243-2.3465.6928-3.5948.8054-.2728.0249-.4819.0129-.6275-.036-.2308-.0776-.4021-.2216-.5137-.432-.1459-.2761-.167-.5631-.0634-.8609.0815-.2336.235-.4079.4606-.523.1127-.0575.2916-.0988.5365-.1241 1.744-.178 3.4004-.6746 4.9692-1.4896.8019-.4164 1.5754-.8834 2.3205-1.4011.5219-.3628 1.0357-.7374 1.5412-1.1239.2457-.1879.547-.429.904-.7233 1.3809-1.1384 2.42-1.9882 3.1171-2.5491.4781-.3845 1.0282-.7759 1.6503-1.1742.6583-.4219 1.3187-.7422 1.9812-.9608.4015-.1324.7737-.2112 1.1165-.2364.8766-.0646 1.7177.1424 2.5235.6211 1.0792.6409 1.7971 1.5399 2.1537 2.6969.1112.3604.1779.7467.2 1.1588.0457.8631-.0766 1.7077-.3669 2.5338-.3299.9372-.7745 1.8121-1.3337 2.6248-.7901 1.1479-1.7101 2.2057-2.76 3.1732-.7855.7236-1.5731 1.3709-2.3629 1.9417-2.5988 1.8787-5.3948 3.3554-8.388 4.4301-.3641.1307-.595.1993-.6925.2056-.2617.0165-.5002-.0802-.7155-.2901z"/><path d="m36.5621 76.0529c-1.9364-2.0816-3.209-4.536-3.8177-7.3633-.4697-2.1809-.5075-4.3274-.1132-6.4397.0275-.1474.0939-.2831.1995-.4072.0956-.1126.2108-.2011.3457-.2653.2922-.1395.5843-.1221.8765.052.2762.1651.4322.4115.468.7392.0103.0962.0014.2305-.0268.403-.0221.1332-.0427.2667-.0617.4007-.3882 2.6965-.06 5.2526.9845 7.6682.6873 1.5888 1.6755 3.0142 2.9646 4.2764 1.2335 1.2082 2.6893 2.183 4.3674 2.9244 2.7684 1.2236 5.6376 1.8332 8.6075 1.8289 1.0804-.0016 2.2076-.0849 3.3817-.25.491-.0693.7777-.0987.86-.088.331.0425.5779.245.7406.6074.0826.1852.0948.3898.0365.614-.0666.2553-.1944.4497-.3834.5832-.1204.0851-.3248.1511-.6131.198-1.1764.191-2.3945.2972-3.6543.3185-2.7158.0461-5.3406-.367-7.8743-1.2392-.3886-.1339-.7474-.2657-1.0766-.3953-1.528-.6015-2.9444-1.3961-4.2491-2.3837-.6857-.5188-1.3398-1.1129-1.9623-1.7822z"/><path d="m53.3971 85.9999h-.2714c-.3897-.0748-.6487-.2702-.7771-.5861-.1185-.2915-.113-.5791.0165-.8628.0976-.2135.2564-.3669.4766-.4603.1204-.0512.3253-.0845.6149-.0998 1.6175-.0851 3.2181-.3057 4.8017-.6619 4.4137-.9931 8.4124-2.8714 11.996-5.6349 1.3242-1.0215 2.5672-2.1983 3.7291-3.5307 1.1581-1.3279 2.1056-2.7707 2.8423-4.3284.3524-.7457.6322-1.5554.8394-2.4292.213-.8978.2915-1.7562.2355-2.5752-.0286-.4156.0803-.7311.3268-.9466.2324-.2037.5094-.2764.8309-.2181.2971.0536.5127.2248.6468.5135.0747.1608.1168.3944.1263.7009.0412 1.3461-.1489 2.675-.5703 3.9868-.2864.8931-.6272 1.7178-1.0222 2.4742-.8484 1.6258-1.8806 3.1113-3.0966 4.4566-.2343.2596-.4994.5423-.7954.848-1.6404 1.6923-3.4785 3.1718-5.5143 4.4383-4.7577 2.9608-9.9029 4.5994-15.4355 4.9157z"/><path d="m40.3257 73.2842c-1.0011-.9789-1.8181-2.0217-2.4508-3.1283-.7299-1.2775-1.2166-2.6636-1.46-4.1582-.0305-.1867-.0231-.3624.0222-.5271.0461-.1674.1309-.3126.2543-.4355.136-.1355.2977-.221.4852-.2564.1756-.0335.3487-.0174.5194.0484.213.0823.3749.2238.4857.4243.0575.1036.113.3049.1663.6039.1688.9478.4589 1.8312.8703 2.6502 1.0202 2.0296 2.4787 3.6518 4.3754 4.8668.1692.1083.2855.2003.3492.2759.1074.128.1731.2677.1971.419.072.4561-.0613.8034-.4 1.0417-.3432.2411-.7042.2437-1.0829.0077-.8411-.5243-1.6182-1.1351-2.3314-1.8324z"/><path d="m65.4362 72.4188c-2.4701 1.8831-5.1831 3.2349-8.1389 4.0554-.3935.1092-.7631.2051-1.1086.2878-.867.208-1.744.3579-2.6308.4497-.8362.0863-1.6743.1349-2.5143.1459-.4076.0056-.7884-.0045-1.1423-.0301-1.0362-.0741-2.0594-.2387-3.0697-.494-.3295-.0831-.557-.1771-.6823-.2819-.2126-.1776-.324-.4254-.3343-.7433-.0091-.2777.0945-.5251.3109-.7422.1569-.1576.3449-.2452.564-.263.1116-.009.3068.0207.5857.0893 1.808.4451 3.6366.5836 5.4857.4154.3554-.0319.7328-.0835 1.132-.1548 3.6194-.6445 6.9432-2.0495 9.9714-4.215 1.4095-1.0081 2.7204-2.1387 3.9326-3.3918.7109-.7347 1.1489-1.2023 1.3143-1.4028.2522-.3061.5617-.4318.9286-.377.1638.0244.3127.0937.4468.208.1208.1032.2139.2348.2794.3947.1612.3912.0905.7591-.212 1.1038-.5253.5976-1.1619 1.2886-1.9097 2.0729-.9969 1.0448-2.0665 2.0024-3.2085 2.873z"/><path d="m130.133 74.745c-.323.455-.683.8771-1.078 1.2663-.049.0489-.094.0761-.134.0816-.052.0079-.099-.0081-.14-.0479-.006-.0064-.011-.0143-.014-.023-.003-.0088-.004-.0181-.003-.0272.012-.0855.061-.1694.148-.2517.371-.3534.734-.8021 1.087-1.3461.005-.0075.008-.0161.009-.0251.001-.0089 0-.018-.004-.0263-.105-.2648-.226-.5218-.362-.7712-.071-.1312-.05-.243.063-.3356.071-.0583.13-.0475.177.0325.129.2198.239.4479.331.6843.018.0476.037.0474.055-.0006.139-.3735.239-.7456.298-1.1163.002-.0076.001-.0153-.001-.0227s-.005-.0143-.01-.0202c-.005-.0058-.011-.0105-.017-.0137-.007-.0032-.014-.0048-.022-.0048-.275 0-.55 0-.824 0-.052 0-.09-.0112-.115-.0337-.042-.0374-.048-.0859-.017-.1454.04-.078.103-.1168.187-.1164l.847.0042c.009 0 .017-.003.023-.0084s.01-.0129.012-.0212l.104-.6021c.014-.0764.057-.1241.131-.143.071-.0185.125-.0055.16.039.025.0311.031.0782.019.1412-.037.1903-.069.3774-.097.5614-.001.0057-.001.0115.001.017s.004.0106.008.0148c.004.0043.009.0075.014.0096.005.002.011.0028.016.0023.312-.0315.622-.0278.931.0112.112.0142.192.0408.241.0798.082.0654.111.1582.087.2783-.146.7123-.25 1.4308-.313 2.1557-.019.221-.001.438.055.6511.03.1115.087.1263.172.0444.08-.0769.139-.1688.178-.276.11-.3081.189-.6248.236-.9502.018-.1213.08-.1706.186-.1477.109.0236.152.0876.128.192-.013.056-.02.0861-.021.0904-.067.4204-.199.8175-.396 1.1913-.026.0485-.074.104-.145.1667-.058.0516-.12.0864-.186.1045-.29.0792-.452-.0581-.485-.4118-.03-.3167-.031-.6325-.004-.9472.005-.0607.038-.3377.1-.8309.048-.3841.094-.6592.137-.8255.029-.1111.013-.1906-.049-.2387-.035-.0272-.1-.0429-.196-.0473-.226-.011-.461-.0139-.706-.0088-.011.0003-.022.0047-.031.0124s-.015.0183-.018.0301c-.1.5232-.26 1.0203-.478 1.4915-.005.0117-.008.0246-.009.038 0 .0133.002.0268.007.0394l.491 1.2427c.047.1189.023.1954-.071.2292-.109.039-.188.0225-.237-.0496-.006-.0075-.032-.0735-.081-.198-.112-.2911-.218-.5779-.317-.8603-.014-.0394-.033-.0422-.058-.0083z"/><path d="m127.871 74.138c-.329.1489-.659.2964-.988.4426-.048.0213-.088.0274-.12.0183-.034-.0094-.063-.0278-.088-.0549-.006-.0067-.01-.0148-.013-.0237-.002-.0089-.003-.0184-.001-.0278.017-.0992.073-.1691.166-.2097.374-.1619.738-.325 1.092-.4893.013-.0056.023-.0139.032-.0242.008-.0103.014-.0223.016-.0349l.147-.8125c.001-.0036.001-.0074 0-.011s-.003-.007-.005-.0098c-.002-.0029-.005-.0052-.009-.0068-.003-.0016-.007-.0025-.01-.0025l-.872-.0136c-.02-.0004-.038-.0076-.05-.0201-.079-.078-.082-.1501-.01-.2163.038-.0343.092-.052.164-.0532.271-.0031.549-.0039.836-.0023.009.0002.018-.0032.025-.0096s.012-.0154.014-.0253l.116-.6659c.003-.0189.011-.037.022-.0533s.026-.0303.043-.0413c.098-.0642.177-.049.236.0455.009.0156.013.035.009.0544l-.114.6382c-.002.007-.001.0142 0 .0211.002.0069.005.0133.01.0188.004.0055.01.0099.016.0129s.013.0045.02.0045h.682c.075 0 .116.0386.122.1158.006.0721-.022.1237-.084.1548-.033.0166-.084.0248-.153.0248-.217 0-.433 0-.649 0-.008 0-.015.0026-.02.0074-.006.0047-.009.0113-.011.0186l-.119.6648c-.004.0225.003.0292.022.0201l.52-.2571c.098-.048.163-.0234.197.0739.025.0721-.013.1385-.116.1991-.215.1277-.439.2447-.671.351-.008.0039-.015.0098-.021.0172s-.009.0162-.011.0254c-.087.5263-.182 1.0504-.284 1.5724-.026.1363-.067.2322-.123.2878-.079.0796-.182.1201-.307.1217-.25.0032-.497-.0437-.742-.1406-.018-.0073-.033-.0195-.043-.0349-.042-.0662-.045-.1257-.01-.1785.027-.0401.071-.064.131-.0715.078-.0102.155.0006.23.0325.144.0603.288.0836.432.0698.068-.0067.107-.0434.119-.1099l.246-1.3952c.003-.0201-.004-.026-.021-.0177z"/><path d="m114.358 75.7944c.005.0367.02.0408.043.0124.455-.5487.846-1.1183 1.175-1.7089.054-.0977.128-.1124.221-.0443.091.0662.104.1507.041.2535-.4.6488-.845 1.2636-1.333 1.8442-.009.0108-.016.0238-.018.0379-.003.014-.002.0285.002.0419.092.2789.215.5277.367.7463.096.1371.212.2319.35.2843.081.0311.145.0084.191-.068.064-.1064.113-.2182.148-.3356.012-.0402.04-.1592.085-.3569.032-.1426.058-.2864.078-.4314.01-.0717.026-.1221.048-.1513.037-.0496.089-.0721.156-.0673.092.0063.132.0569.119.1518-.041.2939-.103.5785-.187.8539-.073.2371-.172.4298-.299.5779-.175.2049-.377.2399-.605.1052-.184-.1087-.339-.2746-.464-.4976-.114-.2017-.207-.4067-.28-.6151-.001-.0047-.004-.009-.007-.0124-.004-.0034-.008-.006-.013-.0073-.005-.0014-.009-.0017-.014-.0007s-.009.0031-.013.0062c-.515.4113-1.045.7611-1.588 1.0495-.059.0311-.114.0486-.165.0526-.156.0126-.187-.0483-.093-.1826.029-.0406.07-.0753.124-.104.553-.2978 1.081-.6563 1.581-1.0755.018-.0151.032-.0348.04-.0572s.011-.0467.007-.0704c-.12-.7934-.142-1.5961-.067-2.408 0-.0038 0-.0077-.002-.0113-.001-.0037-.003-.007-.005-.0099-.003-.0028-.006-.0051-.009-.0066s-.007-.0023-.011-.0023l-.861-.0089c-.024-.0002-.048-.0095-.066-.026-.018-.0166-.029-.0393-.032-.0638-.013-.1197.03-.1881.127-.205.006-.0012.073-.0018.202-.0018h.68c.01.0001.02-.0038.028-.0108.007-.0069.012-.0166.013-.027.047-.4196.102-.8218.167-1.2067 0-.0047.004-.0346.01-.0898.016-.141.091-.2034.225-.1873.082.0099.117.0587.104.1465l-.186 1.3343c-.001.0037-.001.0075 0 .0111.001.0035.003.0069.006.0097.002.0029.005.0052.009.0068.003.0016.007.0025.01.0026.61.0122 1.219.0157 1.828.0106.003 0 .025-.0014.066-.0041.107-.0075.162.048.167.1666.003.0886-.058.1329-.186.1329h-1.925c-.011 0-.022.0042-.03.0119-.008.0076-.013.0182-.014.0295-.068.7422-.05 1.4674.055 2.1757z"/><path d="m115.954 73.0486c-.024-.0033-.048-.012-.068-.0254-.021-.0135-.039-.0314-.052-.0526-.207-.3222-.439-.6214-.696-.8976-.014-.0144-.022-.0323-.023-.0502-.004-.141.062-.2137.198-.218.016-.0006.032.0023.047.0085s.029.0156.04.0275c.272.2872.51.5868.712.8988.046.0713.064.1351.053.1914-.019.0958-.089.135-.211.1176z"/><path d="m144.128 72.2466c-.028-.0256-.039-.0579-.036-.0969.003-.0315.018-.0581.046-.0798.067-.0539.164-.0788.29-.0744 1.312.0445 2.767-.0162 4.364-.182.072-.0079.133.0002.181.0242.116.0571.115.1274-.002.2109-.043.0304-.097.0491-.161.0562-1.518.1706-3.04.2296-4.566.1773-.054-.002-.092-.0138-.116-.0355z"/><path d="m162.804 73.9187c.058-.0343.053-.0514-.013-.0514l-2.833.0041c-.174.0004-.227-.0587-.157-.1773.052-.0894.129-.1308.228-.1241.054.004.083.006.087.006h2.295c.011 0 .022-.0041.031-.0115s.014-.0178.017-.0293l.124-.705c.001-.0064.001-.0129-.001-.0192-.001-.0062-.004-.0121-.008-.017-.004-.005-.009-.009-.015-.0117-.005-.0027-.011-.0041-.018-.0041-.56 0-1.126.0048-1.697.0142-.068.0012-.13-.0201-.184-.0638-.064-.0512-.064-.102 0-.1525.093-.0725.196-.1057.31-.0998.077.0039.116.0059.119.0059.508-.0047 1.013-.001 1.516.0112.012.0003.023-.0037.032-.0113s.015-.0183.017-.0301c.023-.156.049-.3049.078-.4467.018-.0855.05-.144.095-.1755.069-.0492.14-.0358.212.0402.006.0069.011.0152.014.024.003.0089.003.0181.002.0268l-.095.5259c-.001.0049-.001.0099 0 .0147s.003.0093.006.0131.007.0069.011.0091c.004.0021.008.0033.013.0033.532-.0043 1.055-.0057 1.569-.0041.003 0 .031.0021.084.0065.073.0059.136-.0172.187-.0692.043-.0437.066-.0663.069-.0679.06-.052.118-.1064.174-.1631.065-.065.14-.1097.224-.1341.059-.0166.108-.0109.145.0171.041.0307.054.0742.039.1306-.009.0323-.031.0668-.067.1034-.455.4609-.951.8684-1.489 1.2226-.048.0315-.043.0473.014.0473l1.844.0035c.019 0 .037.0075.05.0207.078.0799.079.1511.003.2133-.037.0311-.091.0471-.161.0479-.733.0102-1.466.0147-2.199.0136-.019-.0001-.037.0055-.053.0159-.466.3026-.946.5702-1.44.8031-.098.0456-.093.0681.014.0673.771-.0043 1.539-.0055 2.304-.0035.264.0008.398.1061.402.3161.001.028-.023.1716-.071.4308-.085.4656-.169.9316-.251 1.3981-.035.2076-.078.347-.129.4183-.093.1328-.234.1992-.423.1992-.908 0-1.817 0-2.725 0-.244 0-.388-.0069-.432-.0207-.181-.0563-.247-.2218-.2-.4964.094-.5416.194-1.1066.299-1.6947.006-.0359-.008-.0475-.041-.0349-.382.1442-.757.2815-1.123.4119-.071.0248-.133.036-.188.0337-.176-.0075-.202-.0788-.079-.2139.037-.0406.087-.0713.151-.0922 1.168-.3798 2.273-.8779 3.313-1.4944zm.098-1.1109-.13.728c-.001.0049-.001.0099 0 .0147s.003.0093.007.0132c.003.0038.006.0069.011.009.004.0022.009.0033.014.0033h.464c.056 0 .109-.0166.151-.0473l.944-.6831c.062-.0449.055-.0674-.022-.0674h-1.405c-.008 0-.016.003-.022.0084s-.011.0129-.012.0212zm1.381 2.2903c-.049-.0294-.104-.0449-.16-.0449-.905 0-1.798-.0004-2.679-.0012-.079 0-.149.0188-.212.0562-.055.0327-.095.0894-.12.1702-.058.1875-.097.3963-.117.6263 0 .0044 0 .0089.002.0131.001.0042.003.008.006.0112.003.0033.006.0059.01.0076s.008.0025.012.0024l3.179-.01c.008 0 .016-.0028.023-.0081.006-.0053.01-.0126.012-.0209.037-.1722.069-.3453.097-.5194.001-.0043.008-.0349.022-.0916.021-.0843-.004-.1479-.075-.1909zm-3.357 2.1155c.902.013 1.81.0169 2.722.0118.004-.0004.04.0016.105.0059.087.0055.158-.0173.213-.0685.045-.0414.076-.1186.095-.2317.039-.2237.077-.4406.117-.6506.001-.0055.001-.0112 0-.0167-.002-.0055-.004-.0106-.008-.0149-.003-.0044-.008-.0079-.012-.0103-.005-.0024-.011-.0036-.016-.0036l-3.18.0036c-.009 0-.017.0028-.024.008-.006.0052-.011.0124-.012.0204l-.139.7811c-.02.1092.027.1643.139.1655z"/><path d="m98.2888 72.8821c-.1619.2821-.3492.5442-.5618.7865-.0445.0508-.0927.0809-.1445.0904-.1082.0193-.1495-.0272-.124-.1395.0095-.0425.0335-.0888.072-.1388.3672-.4731.6522-.9484.8548-1.4259.0488-.115.1206-.1865.2155-.2145.0085-.0026.0176-.0031.0265-.0016.0089.0016.0174.0051.0249.0105.0865.0622.1027.1428.0486.2417-.0294.0535-.045.0825-.0469.0868-.0446.0958-.0929.1948-.1451.2973-.0037.0069-.0056.0147-.0054.0227.0001.0079.0022.0156.0062.0224.0039.0068.0095.0125.0161.0164.0067.0038.0143.0059.0219.0058h1.4132c.0582 0 .1012.0089.1292.0266.056.0355.066.0886.029.1596-.038.0728-.098.1097-.1822.1105l-1.6046.0159c-.0087.0002-.0173.0028-.0249.0075-.0076.0048-.014.0116-.0185.0197z"/><path d="m96.9306 74.0113c-.0385-.0606-.0915-.0914-.1589-.0922l-.4966-.0029c-.0119-.0001-.0234.0043-.0325.0124-.0092.0081-.0153.0195-.0172.0319-.1322.8352-.392 1.6301-.7794 2.3849-.2049.3995-.4689.7455-.792 1.0382-.0526.0473-.1135.0682-.1829.0627-.0998-.0079-.1371-.0501-.1119-.1265.0102-.0319.036-.0681.0771-.1087.3227-.3195.5758-.6608.7594-1.0241.3356-.6641.5686-1.3655.6989-2.1042.072-.4089.1426-.8117.212-1.2084.0012-.0065.0008-.0132-.0011-.0196-.0019-.0063-.0052-.0121-.0097-.0169-.0046-.0047-.0102-.0083-.0163-.0104-.0062-.002-.0128-.0026-.0192-.0015-.1196.02-.2389.0195-.3577-.0018-.0192-.0034-.0359-.0136-.0469-.0284-.0564-.0776-.0545-.145.0057-.2021.0339-.0319.0854-.0484.1543-.0496.2575-.0032.5206-.0039.7892-.0024.0037.0001.0075-.0008.0109-.0026.0033-.0018.0062-.0044.0084-.0076s.0036-.0069.0041-.0108c.0006-.0038.0001-.0078-.0012-.0115-.0361-.1059-.0807-.2003-.1337-.283-.0548-.0855-.083-.1495-.0845-.1921-.0042-.104.0645-.1564.2063-.1571.0254-.0002.05.0065.0709.0191.021.0127.0374.0308.0473.0524l.2589.5613c.004.0085.0097.0157.0167.0208.007.0052.0148.008.0227.0082l.6812.0029c.0097.0002.0192.0021.0277.0057.0085.0035.016.0086.022.015.0773.0831.0777.1556.0011.2175-.0377.0307-.0924.047-.164.049-.3596.0106-.7335.0132-1.1217.0077-.0131-.0001-.0259.0045-.036.013s-.017.0205-.0194.0337l-.1252.6872c-.0012.0063-.001.0128.0006.019.0016.0061.0045.0119.0086.0168.004.0049.0091.0088.0149.0114.0057.0026.0119.0038.0182.0036.1825-.0051.3566-.0039.5223.0036.1478.0067.2522.036.3131.088.0717.0607.1054.1446.1012.2517-.0004.0111-.0145.0966-.0423.2565-.2027 1.1653-.344 1.9486-.424 2.35-.056.2809-.1905.4932-.4034.637-.1379.0934-.304.1432-.4983.1495-.1771.0056-.3531-.0179-.528-.0703-.1143-.0346-.1366-.1018-.0669-.2015.0652-.0929.1492-.1223.252-.088.1292.0429.1947.0646.1966.065.2792.039.4853-.0441.6183-.2494.0621-.0957.1206-.2917.1754-.5879.1246-.6717.2461-1.3442.3646-2.0174.0008-.0036.0076-.0307.0206-.0816.0118-.0472.0083-.0856-.0103-.1152z"/><path d="m95.2902 73.1294-.788-.8142c-.0137-.0143-.0229-.0316-.0263-.0497-.0297-.1548.0326-.2302.1869-.2263.0409.0008.08.0165.1103.0443.291.2648.5476.5366.7697.8155.0121.0152.0184.0341.0177.0532-.0038.1571-.0779.2251-.2223.2038-.0174-.0026-.0342-.012-.048-.0266z"/><path d="m147.791 73.3801c.326.0043.662.0055 1.008.0035.146-.0008.244.0601.292.1826.032.0796.035.183.011.3103-.038.2009-.112.3874-.222.5595-.041.0639-.089.1054-.143.1247-.104.0363-.163-.0104-.175-.14-.002-.0175.004-.0362.016-.052.078-.1036.139-.2161.184-.3374.036-.0954.042-.174.018-.2358-.031-.0843-.103-.1241-.216-.1194-.045.002-.069.003-.073.003-1.49-.0036-2.98-.0036-4.469 0-.094 0-.162.0155-.206.0467-.063.0449-.103.1117-.121.2003-.028.139-.057.287-.087.4438-.005.0279-.016.0543-.033.077-.016.0228-.038.0413-.063.0541-.085.045-.146.0371-.184-.0236-.022-.0354-.029-.0871-.019-.1548.017-.1202.047-.2805.09-.481.039-.1781.122-.3061.248-.3841.079-.0489.214-.0727.403-.0715.251.0012.502-.003.752-.0124.004-.0002.008-.0011.011-.0027.004-.0017.007-.004.009-.0069.003-.0029.005-.0062.006-.0099.001-.0036.002-.0074.002-.0112-.017-.2124-.075-.4117-.174-.598-.004-.0085-.007-.0177-.007-.0269-.001-.0092.001-.0182.005-.0263.064-.1403.146-.1749.246-.104.051.0354.091.0961.12.182.065.1863.112.3776.143.5738.001.0082.005.0158.011.0213s.014.0086.022.0088l1.009.0094c.007.0001.014-.0014.02-.0042.006-.0029.012-.0071.016-.0124.005-.0053.008-.0115.011-.0183.002-.0068.003-.014.002-.0212-.012-.1647-.047-.3317-.104-.5011-.001-.0012-.015-.0345-.044-.0998-.046-.1025-.019-.1874.082-.2547.089-.0587.153-.044.194.0443.118.26.186.5334.205.8202 0 .0085.004.0165.009.0224.006.0059.013.0093.02.0095l.654.013c.061.0012.115-.0241.162-.0757.225-.2454.426-.5182.602-.8184.028-.0477.072-.0841.123-.1028.11-.0394.174-.0161.191.0697.01.0461-.003.0985-.038.1572-.152.2529-.331.4936-.539.7221-.028.0311-.022.0469.02.0473z"/><path d="m111.675 75.2859c.001.002.003.0037.005.005.001.0012.004.002.006.0022.002.0001.004-.0003.006-.0012.002-.001.003-.0024.004-.0043.394-.6113.683-1.2712.865-1.9795.031-.1202.047-.1871.047-.2009.003-.0721-.031-.1211-.101-.1471-.032-.0123-.085-.0182-.158-.0178-.521.0048-1.042-.0004-1.563-.0153-.115-.0032-.128-.066-.039-.1885.059-.0812.137-.1188.235-.1129.061.0035.093.0053.096.0053.571-.0071 1.074-.002 1.508.0154.166.0067.274.0725.323.1973.03.0765.029.1887-.005.3369-.188.8473-.534 1.6315-1.038 2.3524-.005.0069-.008.015-.009.0235 0 .0084.002.0169.006.0243.187.3526.353.7186.499 1.0979.033.0871.046.159.041.2157-.014.1308-.095.1608-.245.0898-.016-.008-.029-.022-.038-.0395l-.496-1.1062c-.002-.0053-.006-.0098-.01-.0132-.005-.0034-.01-.0056-.016-.0064-.005-.0007-.011 0-.016.002-.005.0021-.01.0055-.014.0099-.477.5874-1.034 1.1131-1.669 1.5771-.019.0144-.043.0232-.067.0255-.024.0022-.048-.002-.07-.0125-.114-.0539-.112-.1296.006-.2269.595-.492 1.143-1.0355 1.643-1.6303.005-.0064.008-.0145.009-.0232.001-.0086-.001-.0175-.005-.0253-.215-.4191-.433-.8371-.653-1.2539-.042-.0788-.063-.1363-.064-.1725-.003-.0717.034-.1298.11-.1743.091-.0524.16-.0321.206.0608z"/><path d="m94.0044 73.8326c-.0717-.0532-.0781-.1237-.0195-.2115.0709-.106.1599-.1182.2669-.0367.3051.2321.5855.4907.8411.7759.0545.0611.0532.1209-.004.1796-.1013.1044-.2053.1062-.312.0054-.2274-.2155-.455-.4306-.6828-.6453-.0038-.0036-.0337-.026-.0897-.0674z"/><path d="m98.4103 75.8092c-.2987-.0181-.5976-.0244-.8966-.0189-.0918.0016-.1577-.0016-.1977-.0094-.1612-.0315-.1675-.1184-.0189-.2606.0133-.0126.0308-.0195.0492-.0195l.9188-.0036c.0067.0001.0132-.0015.0192-.0045s.0112-.0074.0153-.0128.0069-.0117.0083-.0185c.0013-.0067.0012-.0137-.0005-.0203-.0175-.0705-.0461-.1401-.0857-.2086-.053-.0918-.0804-.1597-.0823-.2039-.0057-.1225.0526-.2322.1749-.3291.2552-.2025.5019-.4156.74-.6394.086-.0811.071-.1246-.0452-.1306-.3154-.0157-.6423-.0189-.9806-.0094-.1645.0043-.2194-.0607-.1645-.195.0285-.0693.0792-.104.152-.104h.8697c.1981 0 .3651.0228.5011.0685.0831.028.1374.0664.1629.1153.0362.0689.0206.1485-.0469.2387-.0464.0626-.1004.1188-.1617.1684l-.8337.6766c-.0161.0133-.0272.0323-.0316.0539-.0043.0215-.0017.0444.0076.0649l.2091.4615c.004.0084.0099.0156.0171.0206.0071.005.0153.0077.0235.0077h.9046c.0708 0 .1127.0361.1257.1082.0107.0602-.0097.1095-.0611.1477-.0313.0236-.0762.036-.1349.0372-.2217.0032-.46.0038-.7149.0018-.0065 0-.0129.0013-.0189.004-.0059.0027-.0113.0067-.0157.0116-.0044.005-.0078.0108-.0099.0172-.0021.0063-.0029.0131-.0023.0198.0206.232.0246.4459.012.6417-.0293.4499-.2107.7656-.544.9472-.1932.1048-.4014.1482-.6246.13-.2232-.0185-.4316-.0959-.6251-.2322-.0077-.0054-.0142-.0122-.0191-.0202-.0048-.008-.0079-.0168-.0089-.0259-.0183-.1501.0297-.2206.144-.2115.0384.0031.1015.0268.1891.0709.1497.0744.2935.1199.4314.1365.2541.0299.4461-.0729.576-.3085.1985-.36.2358-.7378.112-1.1333-.0027-.0084-.0078-.0158-.0146-.0212-.0069-.0054-.0151-.0085-.0236-.009z"/><path d="m146.546 76.7538c.618.2585 1.276.4113 1.974.4586.112.0075.15.0662.113.1761-.031.0941-.109.1371-.233.1288-.774-.0512-1.513-.2431-2.216-.5756-.017-.0079-.036-.0092-.053-.0035-.758.2549-1.531.4434-2.319.5655-.071.0106-.127.0079-.17-.0083-.102-.039-.108-.114-.019-.2251.026-.0326.063-.0534.103-.0579.712-.0867 1.417-.2447 2.117-.4739.019-.0063.02-.0156.004-.0278-.374-.2821-.696-.6085-.966-.9791-.004-.0054-.009-.0099-.015-.0131-.005-.0032-.012-.005-.018-.0054-.007-.0004-.014.0007-.02.0032-.006.0024-.011.0062-.016.0111-.455.4893-.97.8724-1.546 1.1493-.064.0312-.12.0445-.167.0402-.109-.0094-.133-.0768-.072-.2021.008-.0161.021-.0298.038-.039.501-.2679.914-.5515 1.239-.8509.342-.314.614-.6845.816-1.1115.003-.0062.005-.0131.004-.0201 0-.007-.002-.0138-.006-.0197-.003-.0059-.008-.0108-.014-.0142s-.013-.0051-.019-.0051c-.315 0-.635 0-.959 0-.066 0-.117-.0151-.152-.0455-.074-.0638-.058-.1331.05-.208.037-.0265.081-.0405.123-.0402l1.039.0083c.019.0002.038-.0064.053-.0186.015-.0121.026-.0292.03-.0482.026-.1327.062-.2584.107-.377.028-.0724.063-.1225.104-.15.071-.0469.135-.028.191.0567.006.0086.01.018.012.0274s.002.0186-.001.0269l-.109.409c-.002.0074-.002.0153-.001.023.001.0076.003.0148.007.021s.01.0112.016.0147c.006.0034.013.0051.019.0051h2.513c.044 0 .086.0159.12.0449.071.0614.066.1276-.017.1985-.039.0336-.088.052-.138.052h-2.597c-.012 0-.025.0038-.036.011s-.02.0175-.026.0298l-.199.4012c-.003.0063-.005.0133-.005.0204s.002.014.006.02c.003.0061.008.0111.014.0146.005.0035.012.0053.019.0053.803 0 1.585.0002 2.347.0006.069 0 .137.0087.203.026.081.0217.138.0569.17.1058.043.0673.04.1483-.009.2428-.064.1225-.144.2323-.24.3292-.338.3395-.736.6246-1.195.855-.027.0134-.026.026.002.0378zm-.694-.4686c.101.0938.213.1864.335.2778.007.0054.016.0086.025.0095.009.0008.018-.0009.026-.0048.497-.2336.933-.545 1.308-.9342.117-.1202.092-.1807-.073-.1814l-2.315-.0107c-.04 0-.048.0162-.022.0485.224.2939.463.559.716.7953z"/><path d="m93.4896 77.3234c-.024-.0295-.0273-.0658-.0098-.1087.0088-.0221.0284-.0492.0589-.0815.579-.6201 1.0438-1.3221 1.3943-2.106.0274-.0619.0741-.0924.14-.0916.1093.0015.1596.0484.1508.1406-.0034.0366-.0224.091-.0571.1631-.3387.7063-.793 1.3744-1.3629 2.0044-.0628.0697-.1301.1091-.2017.1181-.0495.0059-.087-.0069-.1125-.0384z"/><path d="m130.231 77.6087c-.012-.0062-.022-.0153-.03-.0266-.008-.0112-.014-.0243-.017-.0384l-.237-1.1375c-.015-.074-.001-.1394.041-.1961.072-.0962.146-.1192.222-.0692.044.0296.075.0851.093.1667.077.362.141.7264.193 1.0931.012.0847 0 .148-.035.1897-.055.0646-.132.0707-.23.0183z"/><path d="m131.848 77.522c-.016-.0142-.028-.0313-.036-.0514-.143-.3786-.309-.7523-.498-1.121-.009-.018-.013-.0377-.01-.0561.024-.1619.113-.2135.266-.1548.017.0061.032.0188.042.036.197.325.355.6695.474 1.0335.001.0047.017.041.046.1087.035.0824.024.1554-.034.2193-.037.0417-.077.06-.119.0549s-.085-.0282-.131-.0691z"/><path d="m126.99 77.0512c-.174.1918-.306.3293-.394.4124-.003.0032-.029.031-.077.0834-.049.0543-.11.0845-.181.0904-.058.0047-.102-.0134-.134-.0544-.044-.0567-.032-.1182.036-.1844.38-.3695.714-.7289 1-1.0784.074-.0902.162-.1308.265-.1217.009.0007.017.004.024.0094s.013.0128.016.0213c.033.0828.02.1606-.038.2334-.087.1096-.259.3057-.517.5886z"/><path d="m128.781 77.1637c-.002.0536.002.1066.01.159.024.1398-.024.2533-.143.3404-.016.0117-.035.0166-.052.0136-.045-.0071-.081-.0272-.108-.0603-.021-.0252-.031-.0627-.03-.1123.006-.3794-.008-.7577-.042-1.1351-.001-.0208.002-.0406.011-.0568.063-.1189.156-.15.279-.0933.008.0036.014.0093.02.0167.005.0073.009.016.01.0252.043.2679.058.5689.045.9029z"/></g></svg>