<svg fill="none" height="120" viewBox="0 0 200 120" width="200" xmlns="http://www.w3.org/2000/svg" xmlns:xlink="http://www.w3.org/1999/xlink"><clipPath id="a"><path d="m28 41h144v39h-144z"/></clipPath><g clip-path="url(#a)"><path d="m63.5428 71.4782c-1.0817 1.3619-2.2844 2.6021-3.6081 3.7205-.3168.2679-.3778.4834-.1829.6465l.0227.0179c.2664.1981.2596.3866-.0203.5654-2.3418 1.5036-4.729 2.525-7.1614 3.0643-1.5563.3453-3.1288.4677-4.7176.3673-4.3511-.2751-8.1796-1.8296-11.4855-4.6635-.0406-.0342-.0656-.0839-.069-.1378-.0035-.0538.0149-.1069.0508-.1469 1.3764-1.5325 2.7948-2.9777 4.2551-4.3354.0789-.0738.1982-.0791.2819-.0124 2.2344 1.7959 4.7778 2.7244 7.6302 2.7854l.1478.0023c3.4628-.0275 6.3793-1.1651 8.7495-3.413 1.0155-.9629 1.8457-2.0408 2.4906-3.2335.9235-1.7044 1.4393-3.567 1.5475-5.5879.1095-2.0208-.2461-3.9468-1.0668-5.7778-.5179-1.029-1.0736-1.9651-1.6672-2.8084-.0887-.1249-.0758-.2967.0305-.4065l.9677-.9934.963-.9849.9581-.9764c.7965-.8102 1.5879-1.6116 2.3743-2.4042l.9412-.9468.9364-.9384c.1557-.1557.3111-.3111.4664-.4661l.9292-.9257c.1544-.1535.3087-.3068.4627-.4596l.922-.9131c.1532-.1514.3063-.3025.4591-.4533.0446-.044.0899-.0763.1359-.097l.0399-.0165c.122-.0445.1369.0164.0446.1827l-.0309.053c-.0057.0094-.0117.019-.0179.0289l-.0195.0305c-2.589 4.0091-3.3376 8.3382-2.2458 12.9872l.099.4125.0604.257.0571.2485.0537.2399.0503.2314.0469.2228.0435.2143.0401.2057c.0064.0336.0127.0668.0188.0997l.0351.1929.0317.1844c.005.03.0099.0597.0146.089l.0266.1715.0232.163c.6571 5.1147-.4455 9.759-3.3079 13.9327-.0391.0564-.0995.0891-.1603.0867-.2247-.0102-.4267-.0987-.606-.2655zm-13.0412-30.2443.1624.0141c4.0482.3949 7.5941 1.9184 10.6377 4.5707.037.0325.0591.0791.0612.1288.0017.0496-.0167.0979-.051.1332l-4.2795 4.354c-.0701.0696-.1796.0758-.2555.0145-1.2305-.985-2.5785-1.7196-4.0442-2.2039-1.2967-.4292-2.6265-.6355-3.9894-.619-2.2634.0261-4.3984.6507-6.405 1.8736-2.423 1.4789-4.18 3.5458-5.2712 6.2008-.3882.9914-.6467 2.0115-.7756 3.0605l-.0214.1854c-.3232 2.7857.1933 5.3754 1.5495 7.7691.384.6782.7747 1.3096 1.1723 1.8942.0526.0779.0433.1828-.0224.2497-3.6277 3.7308-7.2243 7.3502-10.7898 10.8581-.0244.0248-.0446.0282-.0609.0103-.0146-.0166-.012-.0474.0061-.0742 2.3216-3.4488 3.2708-7.2374 2.8476-11.3658l-.0077-.0716-.0181-.1501c-.0033-.0258-.0068-.052-.0104-.0785l-.0236-.1637c-.0043-.0281-.0087-.0565-.0132-.0853l-.0291-.1774c-.0051-.0303-.0104-.061-.0159-.092l-.0345-.191-.0382-.2001c-.0067-.0341-.0135-.0686-.0204-.1034l-.0437-.2137-.0473-.2228-.051-.2318-.0546-.2409c-.1677-.736-.3272-1.4741-.4786-2.2142-.8708-5.3857.2433-10.2541 3.3424-14.6054.0345-.0497.0981-.0672.1501-.0412l.5009.2455c.0544.0263.1183.0127.1542-.033 1.0952-1.4045 2.3364-2.6591 3.7237-3.7638.0523-.0409.0718-.1075.0466-.1589l-.1724-.3467c-.1006-.202-.0691-.4271.0731-.522 3.8615-2.6035 8.0057-3.7386 12.4327-3.4052zm104.4654 17.6095.034 13.355c0 .0574-.043.1062-.101.1134-1.018.1349-2.103.1108-3.253-.0722-.071-.011-.136-.0337-.197-.0681-.194-.1045-.338-.2297-.432-.3755-.073-.1142-.112-.2937-.116-.5386-.039-2.8132-.071-5.6271-.097-8.4417-.003-.2876.087-.5242.27-.7099l3.413-3.4708c.319-.3233.479-.2538.479.2084zm-81.5287-8.5469 22.9832.0392c.0439-.0001.086.0185.1169.0514.0308.033.0479.0776.0474.124l-.0325 2.8538c0 .0649-.0508.1176-.1136.1176l-8.2931.0619c-.0269.0005-.0525.0119-.0712.0317-.0186.0197-.0288.0462-.0282.0735l.0365 5.784c.0011.0756.0625.1362.1379.1362l.8762.0082 7.3379.0537c.0589.0008.1073.0465.1115.1052.0906.9891.0913 1.9782.0021 2.9673-.0063.059-.0553.1035-.1136.1032l-7.1351.0021-1.1155.0103c-.056 0-.1014.0462-.1014.1032l.0081 5.9841c1.2913.0784 2.5825.0832 3.8738.0144.3407-.0179.6254-.1148.8539-.2909.2366-.1816.4874-.412.7524-.6913 2.2987-2.4118 4.6429-4.8247 7.0321-7.2388l.799-.8047c.138-.1375.109-.2063-.088-.2063l-3.3947-.0124c-.0597 0-.1084-.0486-.1095-.1094l-.0345-2.3585c-.0005-.0442.0172-.0867.0492-.1181s.0756-.0491.1212-.0491l.915-.0004 1.3523-.002 1.765-.0055 1.722-.0086c.42-.0028.762-.1554 1.026-.4581l.217-.2497c.355-.3673.71-.736 1.065-1.106.505-.5283 1.088-.8605 1.748-.9967l.041-.0071.049-.007.058-.0066.102-.0094.121-.0089.191-.0108.166-.0075.25-.0089.284-.0079.669-.0125c.772-.011 1.575-.0007 2.409.0309.187.0083.227.0901.12.2456-.333.4892-.736.9411-1.208 1.3556l-.11.095c-.378.3205-.716.6548-1.015 1.0029-.105.1224-.077.1836.084.1836l1.916.0015 1.264.0027 1.251.0041c.394.0013.77-.0668 1.128-.2043.203-.0792.396-.2361.577-.4707l.041-.0555c.352-.4815.768-.9183 1.25-1.3103.043-.0363.099-.0538.154-.0488.055.0051.106.0323.14.0756l3.618 4.5129c.066.0825.047.1238-.059.1238l-13.996.0515c-.066 0-.13.026-.177.0723l-1.069 1.0587-.833.8289-.613.611-.6.6019-.785.7885-.575.5807-.749.7602-.73.744-.71.7279-.6902.7117-.6706.6955-.4899.5111-.6361.6673-.3106.3276-.6064.643-.2958.3155-.5768.6188-.281.3034c-.4488.4868-.9489.7937-1.5004.9206l-.0836.0176-.036.0039-.0985.0061-.2576.0085-.2741.0053-.6826.0075-.3873.0024c-5.7424.0316-11.4849.0275-17.2273-.0124l-5.5815-.0433c-.2177-.0014-.2495-.0805-.0953-.2373l3.46-3.5183c.0598-.0608.1425-.0926.2282-.0879.0858.0047.167.0455.2241.1127.1149.1362.2441.251.3874.3446.1257.0825.2853.1245.4786.1259 2.4284.0123 4.842.0158 7.2406.0103.0531 0 .1039-.0214.1413-.0594.0373-.038.058-.0894.0575-.1428l-.0609-5.8232c-.0011-.0562-.048-.1012-.1054-.1011l-8.2912-.0743c-.0563-.0011-.1014-.0479-.1014-.1053v-2.9673c0-.0581.0472-.1052.1055-.1052l8.2911-.0248c.0549 0 .0994-.0452.0994-.1011v-5.7592c0-.1154-.0932-.2093-.2089-.2105l-8.2323-.0639c-.0264-.0005-.0515-.0121-.0698-.0323-.0182-.0201-.0282-.0471-.0276-.075l.0304-2.8476c.0011-.0938.0735-.1692.1623-.1692zm54.2957 14.0069c1.842.0661 3.684.1211 5.527.1651.066.0013.13.0237.183.064.585.4512 1.123.9623 1.612 1.5332.173.2022.367.3817.582.5385.245.1789.367.4994.367.9616.003 1.5091-.003 2.9921-.018 4.4489-.001.1044-.082.1887-.183.1898l-4.875.0559c-.026.0007-.05-.01-.067-.0294s-.025-.0456-.022-.0719c.221-1.7869.26-3.6908.115-5.7117-.015-.2008-.092-.2304-.231-.0887l-5.549 5.6416c-.171.1733-.372.2601-.605.2601h-5.228c-.184 0-.212-.0662-.083-.1982 1.43-1.4766 2.861-2.9504 4.292-4.4214l2.153-2.211.33-.3839c.012-.0133.023-.0269.035-.0409.425-.4925.98-.7263 1.665-.7016zm8.117-5.6106c.081 0 .146.0767.146.1713l-.006 1.6343c.024.1375.112.1919.262.163l8.719.0412c.058-.0002.107.0453.113.1053.08.8997.068 1.798-.036 2.6949-.007.0593-.055.1047-.114.1073l-.838.0203-.627.013-.732.0119-.542.0063-.505.0033c-.04.0001-.08.0002-.12.0003l-.423-.0003-.363-.0025-.226-.0029-.214-.0038-.298-.0075c-.031-.001-.062-.002-.093-.003-.182-.0063-.311.0197-.386.0782l-.02.0167.203.2579.62.5947.725.703.385.3783.326.3245.196.1989.166.1715.11.1174.092.0999.055.0634c.591.6892 1.228 1.3303 1.911 1.9232.264.2297.511.3707.742.423.31.0702.604.0509.883-.0578.246-.0954.364-.2727.353-.532l-.003-.0416c-.031-.3549-.023-.672.023-.9513.043-.2641.192-.5275.446-.7903 1.015-1.0538 2.061-2.0972 3.138-3.1303.137-.1335.216-.1039.235.0887.074.733.108 1.4776.103 2.234l-.046 2.7328v.2861l-.001.4118-.003.263-.003.2537-.005.2445-.006.2352-.007.2261-.009.2168-.009.2075-.011.1983-.011.1891c-.025.3549-.188.6569-.491.9059-.049.04-.112.0619-.179.0619h-7.177c-.063 0-.124-.0286-.167-.0784l-.097-.1145c-.017-.0196-.034-.0395-.052-.0596l-.166-.1878-.12-.1329-.127-.139-.134-.1452-.142-.1513-.227-.2384-.243-.2523-.26-.266-5.305-5.3677-1.353-1.3582c-.048-.0476-.111-.0743-.176-.0743l-11.865-.0495c-.031-.0003-.061-.0113-.083-.0304-.021-.0192-.032-.0447-.031-.0707l.008-.196-.059-2.4927c-.001-.0498.017-.0982.05-.134s.079-.0559.127-.0559l8.997-.0516c.06-.001.111-.0451.122-.1052.088-.5166-.056-.9746-.434-1.3739l-.045-.0458c-.249-.2476-.199-.3721.148-.3735zm26.364-2.8249c.041.9547.04 1.9307-.002 2.9281-.019.4663-.243.9258-.673 1.3784-.293.3095-.59.6156-.89.9181l-.303.3035-.316.2806c-.389.3453-.583.7855-.582 1.3206l.002.1854.002.1086.005.1404.007.1134.006.0606c.003.0273.007.0502.01.0685.06.2902.278.4326.653.4271l1.008-.0159 1.488-.0291.496-.0107c.149-.0027.284-.0883.353-.2229.176-.3452.141-.6995-.104-1.0627-.036-.0528-.093-.0892-.158-.1011-.619-.1196-1.277-.1485-1.973-.0866-.195.0165-.238-.0578-.13-.2229.143-.216.312-.4189.505-.6087l.177-.1732.113-.1087.151-.1407.067-.0601.036-.0299.028-.0219c.268-.1912.613-.2895 1.036-.295 2.13-.0248 4.26-.0083 6.389.0495.061.0012.112.0432.124.1011.097.4663.097.9334 0 1.4011-.012.0575-.063.0988-.124.099h-1.915c-.384 0-.632.086-.744.258-.14.2146-.161.5337-.063.9574.04.1687.177.2891.335.2931l2.324.0536c.063.0026.115.0406.132.0949.134.461.151.9255.052 1.3938l-.02.0878c-.463.0165-.926.0138-1.389-.0082l-.147-.0064-.138-.004-.128-.0018-.119.0006-.109.0028c-.017.0006-.034.0014-.051.0022l-.094.0063c-.12.0098-.214.0257-.283.0477-.524.1692-.628.5881-.312 1.2567.028.0581.082.0989.146.1094.833.1265 1.67.1499 2.511.0701.029-.0029.057.0054.079.023.021.0176.034.0429.034.0699l.049 1.3c.003.0865-.034.1698-.101.2286-.068.0588-.16.0876-.252.0788-.777-.077-1.508-.0818-2.192-.0144-.125.0125-.23.0984-.268.2187-.134.4237-.13.7532.01.9884.115.1913.365.2827.751.2745.549-.0097 1.098-.022 1.647-.0372.127-.0041.255-.0385.385-.1031.092-.0468.186-.0888.282-.1259.058-.0223.124-.0078.168.0371l1.657 1.7107c.081.0839.064.1258-.053.1258l-12.781-.0082-2.716.0579c-.046.001-.09-.0168-.123-.0494-.033-.0327-.051-.0774-.051-.1241l.012-9.7665c0-.07.018-.1366.053-.1919.188-.3068.412-.5791.673-.8171l.6-.5469 2.76-2.8094 1.85-1.8829c.087-.0881.133-.0695.138.0557zm-54.813 5.0432 12.711.002c.119 0 .215.0985.217.2208.027 2.8091.01 5.5205-.049 8.1343-.007.2623-.199.5986-.577 1.0088l-.13.1384-.157.1632-.152.1552-.146.1472c-.024.0239-.048.0474-.071.0706l-.139.1354-.133.1273-.128.1195c-.021.0192-.041.0381-.062.0567l-.12.1075c-.097.0863-.19.1643-.276.234-.242.1936-.553.2718-.934.2347l-.068-.0077-15.161.0351-2.7275-.0475c-.0562-.0013-.1037-.0487-.1116-.1114-.1149-.9368-.1021-1.7622.0385-2.4762.0771-.3921.3002-.7669.6693-1.1246 1.4023-1.3592 2.7973-2.7334 4.1843-4.1229l.042-.0404c.157-.1392.237-.0998.24.1183l-.01.6423c.027.216.148.3233.363.3219l4.136-.0079 5.396-.0044 1.109-.0001c.148 0 .276-.1035.309-.2497.092-.3907.091-.8219-.002-1.2938-.024-.1205-.127-.208-.248-.2105l-4.312-.0949-5.853-.0722c-.123-.0014-.147-.0516-.073-.1506.622-.8199 1.303-1.5188 2.042-2.0965.053-.0402.117-.0619.183-.0619zm-59.184-8.7513c.0269-.0017.0532.0077.0728.0261s.0307.044.0306.0709l-.0243 5.1587c-.0012.0641-.0356.124-.0913.1589-.2434.1541-.4942.2944-.7524.4209-.3083.1527-.5388.3164-.6916.4912-.6517.7456-.8917 1.5971-.72 2.5546.1041.5819.3312 1.0661.6814 1.4527.3719.4099.8471.6981 1.4258.8646.1078.0305.1824.1308.1826.2455.0072 2.1191-.0182 4.254-.0761 6.4047l-.0233.8072c-.0081.2669-.0629.3233-.1643.1692-.023-.0344-.0439-.0811-.0629-.1403-.2095-.6796-.5949-1.1838-1.156-1.5125l-.0612-.0355-.1302-.0734c-.0225-.0125-.0455-.0251-.0689-.0379l-.1456-.0782c-.0251-.0133-.0506-.0267-.0766-.0402l-.161-.083-.1712-.0863-.1815-.0894c-.0311-.0151-.0626-.0304-.0945-.0459l-.1969-.0942-.4004-.1886c-.0627-.03-.1237-.0595-.183-.0885l-.1728-.086c-.028-.0141-.0555-.0281-.0826-.042l-.1575-.082c-.0508-.027-.0998-.0534-.1472-.0795l-.137-.0768c-.1539-.0882-.287-.171-.3991-.2485-1.9538-1.3523-3.1667-3.2569-3.6386-5.7138-.0649-.3384.0818-.6081.4401-.8089-.0973-.6438-.0973-1.2567 0-1.8386.1975-1.908.9648-3.532 2.302-4.8719 1.4508-1.4527 3.1951-2.2471 5.2327-2.3833zm111.585 16.9393c-.019-.0001-.038.0077-.051.0216-.014.0139-.022.0327-.022.0524l-.003.7883c0 .0197.008.0386.022.0526.013.014.032.0219.051.0219l3.42.0122c.019 0 .038-.0077.051-.0216.014-.0139.022-.0327.022-.0524l.003-.7883c0-.0197-.008-.0386-.022-.0526-.013-.014-.032-.0219-.051-.022zm-44.505-1.4322h-10.616c-.036 0-.065.0296-.065.0661v1.1431c0 .0365.029.0661.065.0661h10.616c.017 0 .033-.007.046-.0194.012-.0124.019-.0292.019-.0467v-1.1431c0-.0176-.007-.0343-.019-.0467-.013-.0124-.029-.0194-.046-.0194zm-65.7804-17.7624.0106.0329c.3078.9918.9344 1.6698 1.8797 2.0339l.0795.0296c2.2607.8103 3.9752 2.276 5.1434 4.3973.4814.8749.7741 1.8124.8782 2.8125.0109.1086-.0492.2101-.1455.2511l-.0248.0089c-.1961.0578-.2819.2036-.2576.4375l.0262.2481.0002.0036c.0243 1.0923-.0994 2.0264-.3712 2.8023-1.1926 3.4006-3.5736 5.3802-7.1432 5.9387-.0726.0109-.1463-.011-.2014-.0599s-.0861-.1198-.0846-.1939c.0259-1.2817.0392-2.5552.0397-3.8206l-.0013-.7629-.0161-.2244c-.0246-.3112.1346-.5257.4775-.6435l.0458-.0148c.5395-.1637.9647-.4856 1.2757-.9657.2583-.3976.4124-.8859.4624-1.4651.1339-1.5421-.5935-2.5821-2.1823-3.12-.0698-.0234-.1166-.0903-.1156-.1651.0284-2.5656.0419-5.0769.0406-7.5338 0-.0578.0067-.1045.0203-.1403.0461-.1134.1007-.0755.1638.1136zm110.3844 16.1604c-.029-.0001-.056.0114-.076.0319s-.032.0482-.032.0773l-.001.6066c0 .029.011.0569.031.0774.021.0206.048.0321.076.0322l3.213.0057c.029 0 .056-.0115.076-.0319.02-.0205.032-.0483.032-.0773l.001-.6067c0-.029-.011-.0568-.032-.0774-.02-.0205-.047-.0321-.076-.0321zm-8.209-16.3483c.098 0 .177.0813.177.1816l.05 6.4298.096-.0061c.301-.5187.43-1.0779.385-1.6777l-.075-.9904v-3.7205c0-.056.021-.1097.058-.1489s.087-.0606.139-.0596l2.239.0351c.056.0013.102.0499.105.1115.129 2.1543.133 4.3092.014 6.4649-.021.3811-.117.7181-.286 1.0111-.436.7611-.987 1.4327-1.65 2.0148l-.112.0962-6.354 6.3431c-.117.117-.175.0915-.175-.0763l-.012-3.2645c0-.2269.083-.423.248-.5881l2.476-2.47c.133-.1315.214-.3109.227-.5034.125-1.9232.158-3.9007.099-5.9326l-.05-2.7341-.004-.4003c-.001-.057.047-.1041.107-.1053zm-2.858.1589c.035 2.1583.051 4.2877.047 6.3884l-.001.8048.019.4789c.022.4482-.079.8412-.304 1.179l-.043.0622-.075.0817-.407.4259-.359.3724c-.38.3962-.78.778-1.201 1.1453-.197.1733-.297.1327-.3-.1218l-.012-1.3289-.008-9.5415c0-.082.064-.1494.146-.1527.875-.0331 1.707.0357 2.498.2063zm9.831 3.1943c.062 0 .123.0259.17.0722l2.106 2.1399c.049.0524.051.1346.004.1877-1.543 1.7141-3.158 3.3566-4.844 4.9276-.151.1417-.227.108-.227-.1011v-2.635c0-.2642.19-.5703.57-.9183.444-.4072.846-.7979 1.207-1.1721.125-.129.124-.3359-.002-.4622-.279-.2847-.563-.553-.852-.8047-.366-.3206-.676-.659-.929-1.0153-.103-.1458-.066-.2187.11-.2187zm7.409 0c.104-.0027.205.0382.282.1135l2.071 2.0573c.068.0666.069.1782.004.2517-1.374 1.5311-2.814 3.0354-4.32 4.5129-.169.1664-.347.2896-.534.3693-.03.0133-.064.0111-.092-.006-.027-.017-.044-.0465-.044-.0786l-.012-2.4246c-.001-.3164.131-.6156.396-.8976l1.46-1.5517c.04-.0428.04-.1094 0-.1507l-1.911-2.0181c-.077-.0811-.06-.1224.049-.1238zm3.675-2.9652c.145.2063.226.5495.243 1.0296.026.6796.041 1.3592.045 2.0388l.002.3105.004.322.005.3337.006.3452.013.5396c.001.0614.003.1233.004.1856.041 1.5325.009 3.0499-.097 4.5521-.005.0913-.079.1631-.17.1651-.775.0192-1.509.0068-2.203-.0372l-.328.0145c-.215.0096-.322-.0908-.319-.3013.001-.0388.001-.0752.001-.1091l-.002-.0945c-.002-.0581-.006-.1064-.011-.1449l-.004-.0271c-.053-.3067-.039-.6032.042-.8893.064-.2256.22-.4636.467-.714.702-.714 1.402-1.4272 2.101-2.1398.031-.0315.049-.0738.05-.1176s-.016-.0854-.046-.1156l-2.673-2.7052c-.166-.1679-.389-.2532-.669-.2559l-3.235-.0351c-.057 0-.104-.049-.104-.1094v-2.2615c.001-.0621.046-.1147.106-.1239.506-.0729 1.032-.1052 1.58-.0969l.278.0029.415.0017.579-.0015.673-.0055.753-.0097.981-.0164.454-.0087c.475-.0096.828.15 1.059.4788zm-25.985 4.5107c.784.0372 1.236.3625 1.355.9761l.001.0472v.0929l-.003 1.3188c-.004.8419.01 1.6659.043 2.472.001.0441-.015.087-.045.1186-.031.0316-.072.0492-.116.0486l-2.973-.0165c-.081 0-.146-.0656-.146-.1465v-1.4259c0-.1014-.082-.1837-.183-.1837l-16.667.0537c-.037 0-.071.0146-.097.0406s-.04.0612-.039.0976l.01 1.4238c.001.0583-.041.1082-.099.1156-.982.1307-1.962.1224-2.941-.0248-.06-.0082-.106-.0569-.112-.1176-.162-1.4843-.163-2.8215-.002-4.0114.057-.4155.328-.6906.812-.8254zm-34.067-5.9325c.078 0 .099.0283.064.085l-.011.0161c-.286.388-.367.8378-.246 1.3495.014.0584.067.0993.128.0991l10.682.0516c.059.0008.108.0469.114.1073.076.9478.07 1.9005-.016 2.8579-.01.0969-.091.1698-.187.1672-4.252-.0867-8.527-.0647-12.824.066-.457.0137-.909.2593-1.355.7367-.396.4223-.816.8309-1.261 1.2257-.183.1623-.275.1196-.276-.128l-.01-1.723c0-.0539-.045-.0979-.1-.099l-6.5284-.0661c-.0574-.0011-.1034-.0497-.1034-.1093v-2.9488c0-.0763.0608-.1382.1359-.1382h6.2649c.306 0 .388-.1383.248-.4148-.164-.3206-.382-.5807-.656-.7804l-.09-.0626-.045-.0335c-.168-.134-.119-.2023.148-.2047zm46.015 1.2773 5.809.0557c.461.0041.691.247.691.7284v4.1848c0 .1293-.047.1506-.142.064-.642-.5845-1.268-1.2055-1.879-1.8628l-.228-.2482c-.238-.2627-.496-.5014-.775-.716-.052-.0414-.116-.0639-.182-.064l-3.241-.0248c-.102-.0011-.184-.0824-.183-.1815l.018-1.8324c0-.0277.012-.0543.033-.0737s.05-.0301.079-.0295zm-31.812-1.2878 5.722.0992c.062.0011.112.0485.113.1073l.018 1.1515c.002.1004.075.1823.167.1877 2.415.139 4.728.128 6.94-.033.035-.0023.066-.0204.086-.0494.02-.0289.026-.0654.016-.0991-.148-.4836-.373-.8355-.674-1.0559l-.048-.0337c-.204-.1347-.194-.2047.031-.2101l5.698.012c.03.0001.058.0112.079.0306.021.0195.032.0457.031.0726l-.059 1.1452c-.004.0618.017.1222.056.1674s.093.0712.151.072l2.681.0537c.06.0011.107.0488.107.1073v2.3338c0 .1029-.086.1866-.194.1878l-2.566.0392c-.082.0016-.159.0427-.209.1114-.049.0688-.066.1577-.044.2414.112.4375.016.6411-.288.6108l-.255-.0254-.023-.0014c-1.436.0055-2.872.0014-4.308-.0124-.057.0002-.105-.0443-.112-.1032l-.059-.7077c-.008-.0881-.08-.1551-.166-.1548l-6.916-.0413c-.058 0-.105.0462-.105.1032l-.008.7181c-.002.1097-.087.1981-.191.1981h-4.594c-.1-.0001-.182-.0853-.184-.1919l-.009-.6707c0-.0592-.047-.1073-.105-.1073h-2.789c-.056 0-.101-.0452-.101-.1011l.024-2.4225c0-.06.045-.1092.102-.1114l2.784-.1094c.026-.0013.05-.014.066-.0348.016-.0207.021-.0473.015-.0725-.129-.56-.408-.9659-.836-1.2177l-.054-.0307c-.163-.0883-.182-.1383-.056-.1502l.042-.0024c.007-.0002.016-.0003.024-.0003z" fill="#fff" fill-opacity=".5"/></g></svg>