<svg fill="none" height="120" viewBox="0 0 200 120" width="200" xmlns="http://www.w3.org/2000/svg"><g fill="#fff" fill-opacity=".5"><path d="m108.134 38.0474c0 3.3376-.011 6.6864 0 10.024.011 2.072.045 4.144.101 6.216.045 1.4.134 2.8.213 4.1888.045.728.089 1.4448.179 2.1728.078.6832.213 1.3664.325 2.0496.056.3696.123.7504.201 1.12.045.1792.101.3696.202.5264.045.0672.202.0896.302.112.068.0112.146-.0448.213-.0448 1.019-.0336 2.05-.1008 3.069-.0896.795.0112 1.59.0896 2.374.1792.796.0896 1.591.2016 2.386.3472.706.1232 1.411.3024 2.117.4592.549.1232 1.109.2352 1.657.392.661.1904 1.3.4256 1.949.6496.381.1344.773.2688 1.143.4256.47.2016.929.4144 1.388.6384.292.1344.572.2912.84.4592.896.5376 1.748 1.1312 2.229 2.0944.269.5376.325 1.1424.247 1.736-.168 1.2768-.807 2.3184-1.68 3.2256-.672.6944-1.423 1.2768-2.263 1.7472-.638.3584-1.265.728-1.915 1.0304-.672.3136-1.378.5488-2.072.8064-.426.1568-.862.3136-1.299.4368-.549.1568-1.098.3024-1.647.448-.425.112-.862.2352-1.288.336-.336.0784-.683.1456-1.03.2128-.605.112-1.198.2352-1.803.336-.65.1008-1.311.168-1.96.2464-.762.0896-1.523.1904-2.285.2688-.336.0336-.672.056-.997.0896-.851.056-1.702.1232-2.553.1792-.18.0112-.348 0-.527.0112-.145.0112-.224-.056-.235-.2016-.011-.0784-.022-.1568-.022-.2352-.034-.6272-.079-1.2544-.112-1.8816-.034-.5376-.045-1.0752-.09-1.624-.101-1.3888-.213-2.7664-.325-4.1552-.067-.8512-.123-1.6912-.19-2.5424-.045-.5936-.101-1.1984-.157-1.792-.078-.8736-.157-1.7472-.246-2.6208-.023-.2576-.068-.504-.101-.7616-.034-.28-.045-.5488-.079-.8288-.033-.3024-.089-.6048-.134-.9072 0-.0224-.011-.0448-.011-.0672-.067-.6272-.123-1.2544-.202-1.8704-.089-.6832-.19-1.3664-.28-2.0384-.101-.7056-.179-1.4112-.291-2.1056-.101-.6272-.213-1.2656-.325-1.8928-.078-.448-.134-.896-.201-1.344-.112-.672-.224-1.344-.336-2.016-.079-.4816-.157-.9632-.236-1.4448-.1-.56-.212-1.1312-.324-1.6912-.068-.3584-.135-.7168-.191-1.0752-.112-.5936-.224-1.1872-.325-1.792-.089-.4704-.156-.9408-.257-1.4-.101-.504-.224-1.008-.325-1.512-.078-.3696-.134-.728-.202-1.0976-.1-.4928-.201-.9856-.302-1.4784-.09-.4704-.179-.9296-.28-1.4-.034-.1904.056-.28.224-.3472.974-.3696 1.949-.7392 2.934-1.0976 1.053-.392 2.106-.7616 3.17-1.1536.493-.1792.986-.3696 1.478-.56.202-.0784.258-.0448.247.1904 0 .4592-.023.9184-.023 1.3888v.3248c-.022 0-.044 0-.067 0zm5.287 31.0912c-.415-.0224-.46.0336-.448.3248 0 .0336.011.0784.011.112.101.7392.201 1.4672.302 2.2064.045.3024.09.6048.135.9072.1.6832.201 1.3776.291 2.0608.078.5712.145 1.1424.224 1.7136.033.2128.19.2688.358.1456.392-.28.773-.5712 1.165-.8512.638-.4592 1.266-.9296 1.904-1.3888.65-.4816 1.299-.952 1.949-1.4336.358-.2688.728-.5376 1.086-.8176.123-.0896.123-.1792-.022-.2352-.527-.2352-1.042-.4816-1.568-.7168-.515-.224-1.053-.4368-1.568-.6496-.347-.1456-.695-.3024-1.053-.4368-.627-.2352-1.254-.4592-1.893-.672-.302-.1232-.649-.2016-.873-.2688z"/><path d="m56.5702 43.9038c0 1.3104-.0224 2.6208 0 3.9312.056 2.6768.112 5.3648.2016 8.0416.0336 1.1648.1232 2.3408.2016 3.5056.0448.616.112 1.2208.1792 1.8256.0448.4256.0896.8512.1792 1.2768.112.56.2464 1.1088.392 1.6576.0784.2912.1792.336.4816.2688.0224 0 .0448-.0112.0672-.0112 1.12-.0336 2.24-.0784 3.3488-.0896.5376 0 1.0864.0336 1.6128.1008.6944.0784 1.3776.2016 2.072.3136.784.1232 1.5568.2576 2.3296.4032.448.0896.896.2128 1.3328.3248.4928.1232.9856.2576 1.4784.4032.4368.1232.8848.2688 1.3104.4144.4592.1568.9184.3248 1.3664.5152.392.168.784.3696 1.1648.5488.728.3472 1.4.7728 2.0384 1.2656.4368.3472.84.7392 1.0976 1.232.2912.56.3808 1.1872.3024 1.8144-.1008.7616-.3584 1.4672-.7728 2.1168-.4368.672-.9744 1.2544-1.5792 1.7696-.9408.8064-2.0048 1.4448-3.1136 1.9712-.784.3696-1.6128.672-2.4304.9856-.4704.1792-.9408.336-1.4224.4816-.4928.1456-.9856.2688-1.4784.392-.4816.1232-.9632.2576-1.4448.3584-.392.0896-.784.1344-1.1872.2128-.4592.0896-.9072.1904-1.3776.2576-.672.1008-1.344.2016-2.016.28-.8064.1008-1.624.2016-2.4416.2912-.4032.0448-.7952.0672-1.1984.0896-.9072.056-1.8256.1232-2.7328.1792-.336.0224-.336 0-.3584-.336-.056-.952-.1232-1.8928-.1792-2.8448-.056-.8176-.112-1.6352-.168-2.4416-.0784-1.008-.1568-2.0272-.2352-3.0352-.056-.6608-.0896-1.3328-.1456-1.9936-.0896-1.0304-.1904-2.0496-.2912-3.08-.0448-.4928-.0896-.9744-.1456-1.4672-.0784-.6608-.168-1.3104-.2464-1.9712-.0784-.6496-.1232-1.3104-.2016-1.96-.0672-.6048-.168-1.2208-.2464-1.8256-.1008-.7504-.2016-1.4896-.3136-2.24-.1008-.6384-.224-1.2768-.3248-1.9152-.0784-.4928-.1344-.9856-.2016-1.4672-.0784-.5264-.1792-1.0528-.2688-1.5792-.1232-.7616-.2576-1.512-.3808-2.2736-.0896-.5712-.1792-1.1312-.28-1.7024-.1568-.8064-.3248-1.6128-.4816-2.4304-.0896-.4928-.168-.9856-.2576-1.4672s-.2016-.9632-.3024-1.456c-.0784-.3808-.1456-.7728-.224-1.1536-.1008-.504-.2016-.9968-.3024-1.5008-.112-.5488-.2352-1.0976-.336-1.6576-.0448-.2128.112-.28.2688-.336.6048-.224 1.1984-.448 1.8032-.672.56-.2128 1.12-.4144 1.68-.616.4256-.1568.8624-.3248 1.288-.4928.5712-.2128 1.1312-.4144 1.7024-.6272.2352-.0896.4592-.1792.6944-.2576.112-.0448.2352-.0896.3584-.112.2128-.0448.2688.0112.2576.224-.0224.6272-.0336 1.2544-.056 1.8928-.0112.4816-.0112.952-.0112 1.4336v4.2c-.0336.0336-.0448.0336-.056.0336zm5.2416 25.2336c-.3808-.0112-.4368.056-.4032.336.0336.2352.0784.4704.112.7168.0448.2688.0672.5488.112.8176.0784.4928.1568.9744.2352 1.4672.0896.616.168 1.2432.2464 1.8704.1008.7056.2128 1.4112.3136 2.128.0336.2016.1904.2688.3584.1568.056-.0336.1008-.0896.1568-.1232.7952-.5824 1.5792-1.1648 2.3744-1.7472.6048-.448 1.2096-.9072 1.8256-1.3552.5488-.4032 1.0976-.784 1.6464-1.1984.224-.168.2016-.2576-.0336-.3696-.1008-.0448-.2016-.0896-.3024-.1344-.5936-.2464-1.176-.4928-1.7696-.7392-.672-.2912-1.344-.5936-2.0272-.8624-.6608-.2576-1.344-.4928-2.016-.7168-.3024-.1344-.616-.1904-.8288-.2464z"/><path d="m138.632 41.1836c.381.0448.773.0784 1.154.1232.201.0224.302.1792.313.3696.079.9744.146 1.9376.213 2.912.067 1.0752.135 2.1504.202 3.2256.056.8288.112 1.6576.179 2.4864.09 1.0864.179 2.1728.258 3.248.033.4032.056.8176.078 1.2208.056.7728.134 1.5456.19 2.3184.079.952.135 1.904.213 2.8448.056.8176.112 1.6352.179 2.4528.056.84.112 1.6688.18 2.5088.089 1.0752.179 2.1392.268 3.2144.101 1.3216.191 2.6432.303 3.9648.089 1.176.19 2.352.291 3.528.022.2464-.022.3024-.269.3472-1.008.1568-2.016.1792-3.024.0112-.224-.0448-.302-.1456-.313-.3584-.09-1.1536-.191-2.3072-.292-3.4608-.033-.336-.067-.672-.089-1.008-.067-.7952-.123-1.5904-.202-2.3744-.089-.8736-.224-1.736-.313-2.6096-.09-.7952-.157-1.6016-.247-2.3968-.112-1.0304-.235-2.0608-.358-3.1024-.056-.4816-.112-.952-.179-1.4336-.101-.6832-.213-1.3552-.303-2.0384-.078-.5488-.134-1.0976-.213-1.6464-.1-.7392-.224-1.4784-.324-2.2176-.09-.6272-.157-1.2544-.258-1.8816-.09-.5824-.213-1.1648-.302-1.7472-.079-.4704-.135-.952-.213-1.4336-.101-.6384-.224-1.2656-.325-1.904-.09-.5152-.157-1.0416-.246-1.5568-.101-.5264-.213-1.0528-.314-1.5792-.09-.4704-.168-.952-.246-1.4224-.023-.1344.022-.224.179-.2464.101-.0112.201-.056.302-.056.919-.0896 1.848-.168 2.767-.2464.257-.0224.515 0 .772 0-.011-.0224-.011-.0336-.011-.056z"/><path d="m87.2033 41.1953c.2576.0224.6384.056 1.0192.112.224.0336.3136.2016.336.4032.0336.3136.0672.6272.0784.9408.0672 1.1648.1344 2.3184.2016 3.4832.056.8736.1232 1.7472.1904 2.6208.0784 1.0528.1792 2.0944.2576 3.1472.1232 1.5344.2352 3.0688.3472 4.592.112 1.456.2128 2.9008.3136 4.3568.056.84.112 1.6912.1904 2.5312.1008 1.176.224 2.3408.3136 3.5168.0896 1.1424.1568 2.2736.2464 3.416.0784 1.0752.1792 2.1616.2576 3.2368.0448.5936.0672 1.1872.1008 1.7808.0112.1008.0448.2016.0672.3024.0448.1904-.0224.28-.224.3136-.8624.1456-1.7136.1904-2.5872.0784-.1904-.0224-.3808-.0336-.56-.0896-.0784-.0224-.1792-.1232-.1792-.1904-.0784-.7392-.1344-1.4896-.2128-2.2288-.0784-.84-.168-1.6688-.2576-2.5088-.0336-.3472-.056-.7056-.0896-1.0528-.0672-.8176-.1232-1.624-.2128-2.4416-.0896-.8064-.2128-1.6016-.3136-2.408-.0896-.7952-.1456-1.5904-.2464-2.3744-.1008-.8176-.224-1.6352-.3248-2.4528-.0784-.6272-.1344-1.2656-.2128-1.8928-.0896-.6944-.2128-1.3776-.3136-2.072 0-.0336-.0112-.056-.0112-.0896-.0784-.6384-.1456-1.2768-.2352-1.9152-.112-.8288-.2352-1.6464-.3696-2.4752-.0784-.5376-.1792-1.064-.2576-1.5904-.0896-.616-.168-1.2208-.28-1.8368-.1568-.896-.3248-1.792-.4816-2.6992-.0896-.5376-.1568-1.0864-.2576-1.624-.0896-.4816-.1904-.952-.2912-1.4336-.056-.2912-.1232-.5712-.1568-.8624-.0112-.0672.056-.1904.112-.2128.1344-.056.2912-.0784.448-.0896.896-.0896 1.8032-.168 2.6992-.2464.2688-.0224.5264-.0224.896-.0448z"/><path d="m150.564 70.2576c0 1.9376.011 3.864 0 5.8016 0 .728-.045 1.4448-.056 2.1728 0 .1568-.078.2353-.224.2465-.112.0112-.235.0111-.347.0111-.795.0336-1.59.0672-2.386.112-.302.0112-.593.0449-.896.0673-.19.0224-.268-.0561-.291-.2577-.056-.6944-.112-1.3776-.19-2.072-.101-.8848-.224-1.7695-.314-2.6543-.101-.9408-.157-1.8928-.246-2.8448-.056-.7056-.123-1.4113-.191-2.1169-.056-.616-.112-1.2207-.168-1.8367-.067-.7168-.134-1.4225-.19-2.1393-.112-1.4448-.224-2.9007-.325-4.3455-.022-.4032 0-.392.415-.4256.873-.0672 1.747-.1904 2.62-.224.695-.0224 1.389.0224 2.084.0672.347.0224.414.336.448.616.044.3696.078.7392.1 1.12.045.7728.09 1.5455.101 2.3184.045 2.1279.067 4.2448.101 6.3728-.022.0112-.034.0111-.045.0111z"/><path d="m84.8035 76.8985c.0112.6496 0 .5488-.6384.6608-.7504.1344-1.512.2352-2.2624.336-.3248.0448-.6496.0784-.9744.112-.168.0224-.224-.0896-.2464-.224-.1008-.5264-.1904-1.064-.2912-1.5904-.0784-.392-.168-.784-.2464-1.176-.1008-.4816-.1904-.9632-.28-1.4448-.1008-.4928-.1904-.9744-.2912-1.4672-.1008-.504-.1792-1.008-.28-1.5008-.0784-.4032-.168-.7952-.2464-1.1984-.0896-.4592-.1904-.9184-.2688-1.3776-.1456-.7952-.2688-1.5904-.4144-2.3744-.1008-.5152-.224-1.0192-.3136-1.5344-.0784-.448-.1344-.9072-.2128-1.3552-.0784-.4816-.168-.9632-.2464-1.4448-.0784-.4592-.1568-.9072-.224-1.3664-.0448-.2688 0-.3136.2688-.3696.6272-.1232 1.2544-.224 1.8704-.3696.7168-.1792 1.456-.2128 2.184-.2688.2464-.0112.4928-.0112.728.0112.2688.0224.4592.224.504.5264.1344.8736.28 1.7472.4032 2.6208.1008.6832.1904 1.3664.2688 2.0608.1008.8848.168 1.7696.2688 2.6544.112 1.12.2464 2.24.3584 3.36.0896.9072.1456 1.8144.2128 2.7104.0672.84.112 1.6688.1904 2.5088.0448.5152.1232 1.008.1792 1.5008z"/><path d="m128.934 60.0315c-.012-.3696-.023-.3808.336-.448.571-.1232 1.153-.2128 1.713-.3584.695-.1792 1.411-.1792 2.117-.28.37-.0448.728-.0336 1.064.112.112.0448.224.1904.258.3136.313 1.2096.481 2.4528.593 3.696.067.7728.179 1.5456.258 2.3184.101.9408.179 1.8704.269 2.8112.112 1.1088.246 2.2176.347 3.3152.089.952.134 1.9152.213 2.8672.056.8176.123 1.6464.19 2.464 0 .0672.034.1232.056.1904.056.2352-.056.392-.302.4256-.672.0896-1.344.1792-2.016.2688-.493.0672-.975.1568-1.468.2464-.224.0336-.291-.0224-.336-.2352-.089-.4592-.212-.9296-.302-1.3888-.056-.2688-.078-.5488-.134-.8176-.112-.5936-.247-1.1872-.359-1.7808-.168-.8512-.313-1.7136-.481-2.5648-.101-.5152-.224-1.0416-.325-1.5568-.079-.3696-.135-.728-.191-1.0976-.089-.4704-.168-.9296-.257-1.4-.112-.5936-.213-1.176-.325-1.7696-.101-.5376-.224-1.0864-.325-1.624-.067-.3248-.123-.6608-.179-.9856-.134-.8176-.269-1.6464-.392-2.464-.011-.0672-.011-.1568-.022-.2576z"/><path d="m98.9857 70.4503v6.2048c0 .5376-.0448 1.064-.056 1.6016 0 .1344-.0672.2016-.1904.224-.056.0112-.1008.0112-.1568.0224-.8064.0336-1.624.0784-2.4304.112-.336.0224-.672.056-1.008.0672-.2912.0112-.336-.0336-.3584-.3136-.0336-.4032-.056-.8176-.1008-1.232-.056-.6496-.1232-1.3104-.1904-1.96-.0784-.7952-.1792-1.5904-.2576-2.3968-.1344-1.344-.2688-2.6768-.392-4.0208-.1008-1.0528-.1792-2.1168-.2688-3.1696-.0672-.7392-.1232-1.4784-.1792-2.2288-.0672-.9408-.1344-1.8816-.2016-2.8112 0-.0672 0-.1344 0-.2016.0224-.3024.0672-.336.3808-.3584.9072-.0784 1.8032-.1792 2.7104-.2352.504-.0336 1.008.0112 1.512.0336.224.0112.448.0448.6608.1232.1008.0336.224.168.2464.28.0896.4368.1792.8736.1904 1.3216.0672 2.9792.112 5.9584.168 8.9376-.0336 0-.056 0-.0784 0z"/><path d="m149.963 53.9526v3.2255c0 .224-.067.2912-.291.2576-.661-.0672-1.321-.1456-1.982-.2128-.179-.0224-.191-.1344-.191-.2688-.022-.7056-.033-1.4111-.056-2.1055-.033-1.4448-.056-2.9009-.089-4.3457-.011-.3248.011-.3472.325-.3248.638.0336 1.288.0672 1.926.112.347.0224.414.0784.414.4256.011 1.0752 0 2.1505 0 3.2257-.011.0112-.033.0112-.056.0112z"/><path d="m95.8125 52.9103c0-.8176 0-1.624 0-2.4416 0-.28.0224-.3136.3024-.2912.6384.0336 1.2768.0448 1.904.1232.4144.0448.4928.0672.4928.504-.0336 2.016-.0448 4.032-.1008 6.0368-.0224.728.0448.616-.6048.56-.5488-.0448-1.1088-.112-1.6576-.1792-.1456-.0112-.168-.112-.1792-.2352-.0224-.6384-.0672-1.288-.0784-1.9264-.0112-.7168 0-1.4336 0-2.1504-.0336 0-.056 0-.0784 0z"/><path d="m80.3877 49.5156h.9856c.28 0 .336.0448.3696.3248.0672.6272.1232 1.2544.1792 1.8816.1008 1.1424.1904 2.2736.28 3.416.0224.3024.0224.616.0448.9184 0 .0672.0112.1456.0336.2128.0672.28.0224.336-.2688.336-.6496-.0112-1.2992-.0224-1.9488-.0224-.1456 0-.2016-.0672-.2128-.1904-.0448-.2912-.1008-.5936-.1344-.8848-.0896-.7504-.168-1.512-.2464-2.2736-.056-.5376-.112-1.0752-.168-1.6128-.056-.5712-.1232-1.1424-.1792-1.7136 0-.0336-.0112-.0784-.0112-.112-.0448-.2016-.0112-.2576.2128-.2688.336 0 .6944 0 1.064-.0112 0 .0112 0 .0112 0 0z"/><path d="m131.922 49.5156h1.008c.291 0 .359.0784.381.3584.101 1.288.213 2.5648.314 3.8528.067.8624.145 1.7248.212 2.5872.023.2464-.033.3024-.28.2912-.414-.0224-.817-.0672-1.232-.0784-.19-.0112-.392.0224-.582.056-.269.0448-.358-.0112-.392-.28-.09-.6496-.168-1.3104-.246-1.96-.068-.5488-.09-1.0976-.18-1.6352-.1-.56-.145-1.1088-.179-1.6688-.022-.4144-.101-.8176-.157-1.232-.022-.2016.068-.28.258-.28.381.0112.728 0 1.075-.0112 0 .0112 0 .0112 0 0z"/><path d="m94.1697 50.2758h.224c.1904-.0112.28.0784.2912.2688.0672 1.4.1232 2.8112.2016 4.2112.0336.7392.112 1.4784.1568 2.2064.0224.3472-.0112.3696-.3696.3808-.448.0224-.896.056-1.3328.0784-.3136.0224-.3808-.0224-.4144-.3248-.0896-.84-.168-1.6912-.2576-2.5312-.056-.616-.1232-1.2208-.1792-1.8368-.056-.5264-.112-1.0416-.1792-1.568-.0112-.1344-.0784-.2576-.056-.3808.0112-.0896.112-.2352.1904-.2464.5824-.112 1.1648-.2016 1.7472-.2912-.0224.0112-.0224.0224-.0224.0336z"/><path d="m130.444 56.3918c.011.4144-.012.4256-.437.4704-.448.0448-.896.1232-1.344.1904-.179.0224-.235-.0336-.269-.2128-.146-.7504-.325-1.5008-.482-2.2512-.089-.4256-.156-.8624-.246-1.288-.101-.4704-.224-.9296-.314-1.4-.1-.4816-.179-.9632-.257-1.4448-.011-.056.078-.1568.134-.1792.616-.168 1.221-.3136 1.837-.4704.291-.0672.392.0224.437.3248.101.6832.224 1.3664.336 2.0384.067.4592.123.9072.19 1.3664.112.784.235 1.5568.347 2.3408.023.1792.045.3472.068.5152z"/><path d="m77.033 57.0753c-.056-.056-.168-.1344-.2016-.2352-.1008-.392-.1792-.784-.2576-1.176-.1232-.5824-.2352-1.1648-.3472-1.7472-.0784-.4032-.1568-.8176-.2352-1.2208-.0896-.4256-.1904-.8512-.28-1.2768-.0672-.3024-.1344-.616-.1792-.9184-.0112-.0672.0784-.2016.1456-.224.5936-.168 1.176-.3136 1.7696-.4592.3808-.0896.4928-.0112.5488.448.0784.5488.1232 1.0976.2016 1.6464.0896.6048.2128 1.2096.3024 1.8144.0896.6272.168 1.2432.2576 1.8704.0336.2576.1008.504.1456.7504.056.2912 0 .4256-.2688.4704-.504.1008-1.0192.168-1.6016.2576z"/><path d="m146.538 56.1602v.9408c0 .1568-.056.2464-.224.2576-.504.0224-1.008.056-1.512.0896-.201.0112-.302-.0448-.313-.2576-.045-.504-.101-1.008-.157-1.5008-.101-.8512-.213-1.6912-.325-2.5424-.011-.0672 0-.1456-.011-.224-.056-.5152-.112-1.0304-.168-1.5456-.022-.2016-.034-.4144-.011-.616.011-.0784.101-.2016.168-.2128.649-.1008 1.299-.1904 1.949-.28.19-.0224.257.0672.268.2464.068 1.0976.135 2.1952.202 3.304.045.8176.09 1.624.134 2.3408z"/></g></svg>