<svg fill="none" height="120" viewBox="0 0 200 120" width="200" xmlns="http://www.w3.org/2000/svg" xmlns:xlink="http://www.w3.org/1999/xlink"><clipPath id="a"><path d="m34 44h133v33h-133z"/></clipPath><g clip-path="url(#a)" fill="#fff" fill-opacity=".5"><path d="m41.9528 43.9991 1.061-.0147c6.7749 1.7698 13.5277 3.6182 20.2583 5.5452.4474.1276.7738.3103.9794.548.4775.548.2891.9851-.5653 1.3112-.0865.0325-.186.0367-.2841.0117-5.3865-1.4594-10.768-2.9405-16.1444-4.4432-1.4429-.4046-2.5441-.5677-3.3039-.4891-1.6383.165-2.8857.9743-3.7421 2.4279-.2781.4714-.4665 1.0116-.5652 1.6205-.0948.5716-.1431 1.1491-.1451 1.7325-.0202 5.0816.004 10.1622.0725 15.2419.0141 1.1334.1612 1.9996.4413 2.5987.5481 1.1727 1.4489 1.9594 2.7023 2.3601.657.2102 1.6041.2583 2.8414.1444 3.9396-.3634 7.8793-.7297 11.8189-1.099 1.5557-.1454 2.7164-.3909 3.4822-.7366 2.5612-1.1511 3.7592-3.3187 3.594-6.5028-.0564-1.0961-.0383-3.4522.0544-7.0685.0009-.022-.0017-.0428-.0074-.0607-.0058-.0179-.0147-.0324-.0259-.0424-.0161-.0157-.0332-.0265-.0513-.0324-.0232-.0079-.0508-.003-.0776.0139-.0267.0168-.0508.0444-.0675.0774l-5.3775 11.1434c-.0294.0611-.0754.1139-.1337.1531-.0583.0393-.1268.0637-.1988.0709l-4.1472.3918c-.052.005-.1042-.0064-.1485-.0325-.0442-.026-.0781-.0654-.0963-.1118l-5.7281-14.4759c-.2116-.5323-.3173-.5136-.3173.056l-.0182 14.9826c.0003.0404-.015.0796-.0429.11-.0278.0304-.0663.05-.1082.055-.4816.0609-.9653.113-1.4509.1562-.6509.0589-1.1769.0196-1.5779-.1179-1.1285-.3869-1.6998-1.2345-1.7139-2.5427-.0221-1.8779-.0171-6.5185.0151-13.9219.0041-.9606.1129-1.6697.3265-2.1273.3869-.8211 1.0197-1.2916 1.8983-1.4114.5259-.0707 1.4841.0904 2.8746.4832 1.07.3025 2.1562.5972 3.2585.884.0739.0192.1419.0548.1987.1039.0567.0492.1005.1105.1277.1789l4.912 12.375c.0604.1473.1249.1493.1934.0059l4.6641-9.6053c.0184-.0381.049-.0693.0871-.0889.0382-.0197.0819-.0267.1245-.0202.5501.0865 1.0912.2092 1.6232.3683.0342.0099.4101.1012 1.1275.2741.7315.1767 1.2886.549 1.6715 1.1167.266.3967.399.9939.399 1.7914v8.0791c0 .0275.0091.3978.0272 1.1108.0363 1.3357-.1743 2.5261-.6317 3.5711-1.4066 3.2175-3.9749 4.9951-7.705 5.333-5.4247.4911-10.8475.9969-16.2683 1.5174h-.9068c-4.252-.5755-6.6641-2.9386-7.2364-7.0891v-18.3415c.6952-4.4707 3.3462-6.9939 7.9528-7.5694z"/><path d="m96.6389 54.7696-.3174 2.0478c-.0124.0816-.0545.1561-.1183.2098-.0639.0536-.1454.0827-.2293.0819l-3.6515-.0118c-.0439-.0001-.0871-.0104-.1267-.0303-.0396-.0198-.0748-.0486-.1031-.0846s-.0492-.0783-.0611-.124c-.012-.0457-.0148-.0938-.0083-.1412l.2569-1.9063c.0026-.0187.0006-.0377-.0058-.0558-.0065-.018-.0172-.0347-.0315-.0489s-.0319-.0257-.0515-.0335c-.0196-.0079-.0409-.012-.0623-.0121l-12.8376-.0501c-.0595.0001-.1172.0229-.1623.0641s-.0744.098-.0825.1598l-.2962 2.0891c-.0074.0523-.035.1003-.0778.135-.0428.0346-.0979.0537-.155.0535h-3.7693c-.0357-.0002-.0709-.0076-.1034-.0218s-.0614-.0349-.0849-.0605c-.0234-.0257-.0409-.0558-.0511-.0883-.0103-.0326-.0132-.0668-.0085-.1004l.2902-2.0066c.0043-.028.0025-.0567-.0053-.084-.0079-.0272-.0216-.0525-.0403-.0741-.0186-.0215-.0418-.0388-.0678-.0507-.026-.0118-.0544-.018-.0831-.018h-2.7779c-.0341 0-.0678-.0073-.0988-.0215s-.0586-.035-.081-.061c-.0223-.0259-.0389-.0565-.0485-.0895-.0097-.0331-.0122-.0678-.0074-.102l.2116-1.5882c.0132-.0964.0603-.1849.1326-.2489.0723-.0639.1649-.0991.2603-.0987h2.7991c.0488-.0003.0962-.0195.1334-.0542.0372-.0346.0618-.0824.0691-.1344l.2811-1.9329c.0058-.0401.0279-.0769.0622-.1039s.0787-.0424.1252-.0434l3.8328-.0118c.0336-.0005.0668.0063.0975.0201.0306.0137.058.034.0801.0595s.0385.0555.048.088c.0095.0326.012.0669.0072.1005l-.2691 1.8475c-.0026.0184-.001.0371.0047.0549s.0153.0342.0282.0482.0288.0252.0466.0328.0371.0115.0566.0114l12.9252.0353c.0477.0011.0946-.0172.1319-.0513.0373-.0342.0624-.0819.0706-.1343l.3204-1.9181c.0065-.0411.0291-.0787.0639-.1062.0349-.0275.0796-.0431.1265-.0441l3.7059-.0383c.0409-.0002.0815.0079.1189.0239.0375.016.0709.0394.0981.0687s.0476.0638.0597.1012c.012.0374.0156.0768.0104.1156l-.2418 1.8209c-.0025.021-.0008.0423.0051.0625.006.0202.016.0388.0294.0547.0134.0158.0299.0285.0485.0373.0185.0087.0387.0133.0591.0134l3.6605-.0059c.017-.0002.035.0034.05.0106.016.0071.031.0177.042.0311.012.0133.021.0291.026.0463.006.0172.008.0354.006.0535l-.172 1.7413c-.009.0848-.049.1636-.112.2208-.064.0572-.147.0888-.233.0886l-3.5758.0147c-.0415.0009-.0814.0161-.1128.043-.0315.0269-.0525.0638-.0595.1043z"/><path d="m123.799 66.4601c.898 1.3534 1.83 2.6842 2.796 3.9924.397.5382.624.8338.683.8869.292.2632.663.4066 1.112.4301.022.0012.043.0064.062.0155.019.009.037.0217.051.0373s.025.0338.032.0536.01.0407.009.0616c-.014.2848-.038.5392-.072.7631-.006.0275-.024.2554-.055.6836-.032.4361-.284.6472-.755.6335-.424-.0098-.647-.0148-.671-.0148-.909.0256-1.648-.2828-2.216-.9251-1.717-1.9447-3.377-4.1378-4.982-6.5794-.028-.044-.065-.0804-.105-.1057-.041-.0253-.085-.0386-.127-.0387l-1.624-.0029c-.041-.0003-.081.0163-.112.0466-.032.0304-.053.0724-.06.1184l-1.012 7.2718c-.007.053-.033.1018-.074.1371-.041.0354-.093.0547-.147.0544h-3.918c-.019.0001-.039-.0039-.057-.0117-.018-.0079-.035-.0195-.048-.0341-.013-.0145-.023-.0316-.029-.0501-.006-.0186-.007-.0381-.005-.0573l.998-7.2659c.004-.0298.001-.0599-.007-.0886-.009-.0286-.023-.0549-.043-.0773-.019-.0223-.043-.0402-.07-.0522-.027-.0121-.056-.0181-.086-.0177l-1.717.0059c-.046.001-.091.0117-.135.0315-.043.0197-.082.0481-.115.0834-1.28 1.379-2.582 2.7373-3.906 4.075-.016.0157-.332.3545-.949 1.0165-.613.6541-1.295 1.2355-2.046 1.7443-.871.5873-1.969.8053-3.295.6541-.026-.0027-.051-.0102-.074-.0222-.023-.0119-.043-.028-.059-.0473-.016-.0192-.028-.0413-.035-.0648-.006-.0235-.008-.048-.004-.072l.235-1.7001c.006-.045.024-.0891.052-.1289s.067-.0743.112-.1009c.57-.3359 1.043-.7042 1.42-1.1049.361-.385.543-.5795.547-.5834 1.157-1.1334 2.348-2.3218 3.573-3.5652.184-.1846.142-.276-.124-.274l-4.591.0472c-.028.0002-.056-.0055-.082-.0167s-.049-.0278-.068-.0485c-.018-.0207-.032-.045-.04-.0714s-.011-.0542-.007-.0815l.272-1.8268c.006-.041.027-.0786.059-.1057.031-.0271.072-.0419.114-.0416l11.151-.0353c.05.0001.098-.0142.135-.0402.037-.0259.061-.0619.067-.1013l.218-1.4025c.003-.0188.001-.038-.006-.0564-.006-.0183-.017-.0354-.032-.0499s-.033-.0262-.054-.0343-.043-.0124-.065-.0126l-11.151-.0501c-.028-.0002-.056-.0062-.081-.0175-.026-.0113-.048-.0276-.067-.048-.018-.0204-.032-.0443-.04-.0701-.008-.0257-.01-.0529-.006-.0795.377-2.5555.742-5.0963 1.094-7.6224.16-1.1334.415-1.9584.765-2.475.47-.6914 1.102-1.1992 1.898-1.5233.526-.2141 1.307-.3202 2.343-.3182 7.609.0236 15.191-.002 22.746-.0766.035-.0004.07.0067.102.0206.032.014.06.0346.083.0604s.04.0562.05.089.012.0673.007.1011c-.357 2.3551-.696 4.7084-1.019 7.0596-.195 1.43-.477 2.4328-.846 3.0083-.826 1.2866-2.17 1.9181-4.032 1.8946-2.376-.0315-4.751-.0167-7.125.0442-.049.0018-.095.0174-.131.0443s-.059.0633-.065.103l-.236 1.4172c-.003.0189-.002.0381.005.0565.006.0184.017.0354.032.05.014.0145.032.0262.053.0343.02.0081.042.0123.064.0124h11.202c.027.0001.053.0059.078.0171.024.0112.046.0276.063.048.018.0203.031.0443.038.0702.008.0259.009.0531.006.0798l-.273 1.7355c-.011.073-.049.1396-.106.1877s-.13.0746-.205.0745l-5.193.0147c-.103 0-.127.0413-.072.1238zm-8.482-13.9248c.003-.0245 0-.0493-.007-.0728-.008-.0235-.021-.0452-.038-.0636s-.038-.0331-.062-.0431c-.023-.01-.049-.0151-.075-.015-1.904-.0216-3.861-.0108-5.87.0324-1.132.0255-1.781.5746-1.946 1.6471-.053.3437-.116.7267-.191 1.1491-.003.0213-.002.0432.004.064.006.0209.017.0402.031.0567s.032.0298.052.039c.02.0091.042.014.064.0141h7.521c.045-.0002.088-.0155.121-.0432.034-.0277.055-.0657.06-.1071zm12.224.05c.004-.0322.001-.0649-.008-.0959-.01-.0311-.026-.0597-.048-.084s-.049-.0437-.079-.0569-.062-.0198-.095-.0195l-7.406.0442c-.047.0009-.092.0159-.127.0423-.035.0265-.057.0626-.063.1021l-.375 2.6606c-.003.0183-.001.037.005.0547.007.0177.017.0341.031.048.013.014.03.0252.049.0329s.039.0117.06.0117l7.466.0177c.068.0003.133-.0241.184-.0687.051-.0445.083-.1061.091-.1729zm-20.452 4.5788c-.07-.0002-.138.0256-.192.0727-.053.0472-.088.1124-.098.1836l-.351 2.4603c-.004.0313-.002.0631.007.0934.008.0302.023.0581.043.0818.02.0238.045.0428.073.0557.028.013.058.0197.089.0196h7.481c.061.0001.12-.0226.167-.0638.046-.0413.076-.0982.084-.1602l.32-2.5339c.004-.026.001-.0525-.006-.0776-.008-.0251-.022-.0483-.039-.0681-.018-.0197-.04-.0356-.064-.0466-.025-.0109-.051-.0167-.078-.0169zm11.912.1709-.359 2.6724c-.002.0185-.001.0373.005.055s.015.0339.028.0476.028.0246.045.0318c.018.0072.036.0106.055.01 1.92-.0197 3.791-.0275 5.613-.0236.621.002 1.056-.057 1.306-.1768.433-.2062.728-.5706.885-1.0931.158-.5225.253-1.0283.288-1.5174.001-.0199-.001-.04-.008-.0588-.007-.0189-.018-.0362-.032-.0509s-.032-.0264-.051-.0344-.04-.0121-.061-.0121h-7.535c-.044.0003-.086.0156-.119.0432-.032.0276-.054.0656-.06.1071z"/><path d="m140.236 70.7736c.327.5009.759.7592 1.297.775l2.509.0707c.021.0005.042.0049.061.0129.019.0079.037.0191.051.033.013.0139.024.0301.03.0476.007.0174.008.0358.006.0538l-.257 2.0153c-.005.0398-.027.0766-.062.1041-.035.0274-.08.0438-.128.0462-1.27.0707-2.786.0619-4.55-.0265-1.968-.0982-3.17-.8643-3.606-2.2982-.193-.6306-.17-1.8484.07-3.6536.471-3.5632.944-7.1186 1.418-10.6661.003-.0253.001-.0511-.007-.0755s-.021-.0469-.039-.066c-.018-.019-.04-.0341-.064-.0443-.025-.0102-.051-.0151-.078-.0145l-3.026.0236c-.042 0-.085-.0097-.123-.0285-.039-.0189-.074-.0465-.102-.0811-.028-.0345-.049-.0752-.061-.1193s-.015-.0906-.01-.1365l.194-1.5881c.013-.1123.066-.2161.15-.2921.084-.0759.193-.1187.306-.1204l3.032-.0354c.042-.0006.082-.0167.114-.0454s.052-.068.058-.1107l.574-4.2193c.008-.061.039-.117.086-.1576.048-.0407.108-.0632.171-.0634h3.585c.034-.0002.067.0065.097.0196.031.0132.058.0326.08.0568.023.0242.039.0528.05.0838.01.031.013.0638.009.0961l-.544 4.2311c-.002.0194 0 .039.006.0576s.016.0357.029.0501c.013.0145.029.026.047.0339.018.0078.037.0118.057.0116h3.682c.02 0 .04.004.059.0117.019.0078.035.0191.049.0333s.024.0309.03.049c.007.0182.009.0373.007.0563l-.185 1.9505c-.006.07-.04.135-.095.1824s-.126.0737-.201.074l-3.491-.0207c-.078-.0007-.154.0261-.213.0755s-.097.1179-.107.1927c-.5 3.9325-.952 7.7559-1.355 11.4704-.084.7661.046 1.4143.39 1.9446z"/><path d="m155.107 70.3896c.08.2868.18.2937.299.0206l6.698-15.4451c.019-.0429.049-.0795.086-.1052s.08-.0393.123-.0392l4.196-.056c.035-.0003.07.0083.101.0251.03.0168.056.0412.075.0709s.03.0638.032.0991c.001.0352-.006.0705-.021.1025-2.678 5.4607-5.378 10.9754-8.101 16.5442-.391.7955-.883 1.4044-1.475 1.8268-.455.3221-1.113.4999-1.974.5333-.832.0314-1.714.0334-2.645.0059-.083-.0027-.163-.031-.228-.0808s-.113-.1186-.134-.1962l-5.381-18.6921c-.008-.0284-.01-.0584-.005-.0875s.017-.0565.034-.0801c.018-.0235.041-.0425.068-.0553.026-.0129.055-.0193.084-.0187l3.679.0412c.045.001.088.0162.123.0432.036.0271.061.0646.074.1071z"/><path d="m71.0069 60.1864 12.6622.0177c.0263-.0002.0521-.0061.0757-.0175.0235-.0114.0442-.0278.0604-.0482.0163-.0203.0277-.0441.0334-.0694.0058-.0254.0057-.0517-.0002-.0771l-.5652-2.6105c-.0068-.0326-.006-.0663.0023-.0986s.0239-.0623.0456-.088.049-.0463.0799-.0604c.031-.0141.0647-.0213.0989-.0211l3.7512.0118c.0422-.0002.0834.0139.1169.0401s.0572.0629.0675.1042l.6861 2.7402c.0106.0398.0346.0751.0684.1006.0339.0256.0756.0399.119.0409l11.4199.0353c.0252-.0001.0502.0049.0732.0147s.0435.0241.0602.042c.0166.0179.029.0389.0362.0617s.0092.0467.0057.0702l-.266 1.8179c-.0059.0409-.0278.0784-.0617.1054-.0338.0271-.0774.042-.1227.042h-21.289c-.0437.0002-.0858.0155-.1186.0431-.0327.0276-.054.0656-.0598.1071-.3204 2.255-.6257 4.4884-.9159 6.7002-.1269.9684.1733 1.6873.9008 2.1568.4171.2691 1.068.4036 1.9527.4036 6.0454.0118 12.0909.0236 18.1363.0354.0219.0002.0436.0043.0636.012.02.0078.0379.019.0524.0329.0146.014.0256.0303.0321.048.0066.0176.0087.0362.0061.0544l-.2358 1.7296c-.0118.087-.059.167-.133.2249-.0739.058-.1695.0901-.269.0903-6.1885 0-12.3085 0-18.36 0-1.9809 0-3.2958-.1296-3.9447-.3889-1.0781-.4321-1.8207-1.2149-2.2277-2.3483-.2116-.5952-.264-1.3819-.1572-2.3601.2297-2.0723.5199-4.1535.8705-6.2435.0062-.0367.004-.0742-.0062-.11-.0103-.0359-.0284-.0691-.0531-.0974s-.0555-.051-.0901-.0666c-.0347-.0156-.0724-.0236-.1105-.0235h-2.8021c-.0258 0-.0512-.0057-.0746-.0167-.0233-.011-.0442-.0271-.061-.0472-.0169-.02-.0294-.0436-.0368-.0692s-.0094-.0525-.0059-.0791l.2055-1.6765c.0082-.0728.0417-.1401.0941-.189.0525-.0489.1201-.076.19-.0762z"/></g></svg>