<svg fill="none" height="120" viewBox="0 0 200 120" width="200" xmlns="http://www.w3.org/2000/svg"><g fill="#fff" fill-opacity=".5"><path d="m95.0506 39.293c8.1264 0 14.9854 5.4047 16.9394 12.6908-2.893-5.5049-8.808-9.2848-15.5988-9.2848-9.6374 0-17.4979 7.6062-17.4979 16.9325-.0002 1.4323.1875 2.8584.5582 4.2417-1.2402-2.3549-1.8886-4.9775-1.889-7.6404-.0073-9.3336 7.8508-16.9398 17.4881-16.9398z"/><path d="m140.4 68.4215v-8.2464c-.819-.8039-1.706-1.4025-2.532-1.5002-2.437-.2883-5.048 1.9058-4.758 5.7614.29 3.8557 1.572 5.1311 4.144 5.4561.521.0659 1.845-.4887 3.154-1.4661m0-15.9575h2.386v18.3887h-2.386v-1.3756c-.914 1.1459-2.121 1.9693-3.576 1.9693-3.385 0-6.144-2.0451-6.144-7.0857 0-5.0407 2.759-7.2177 6.144-7.2177 1.409 0 2.635.7941 3.576 1.9131z"/><path d="m127.162 57.5898h-2.35v13.3481h2.35z"/><path d="m126.014 52.2891c.276 0 .546.0821.776.2361.23.1539.409.3727.514.6287.106.256.133.5376.079.8092-.054.2717-.187.5212-.383.7169-.195.1957-.444.3288-.715.3825-.271.0538-.552.0257-.807-.0806-.255-.1064-.473-.2862-.627-.5167-.153-.2306-.234-.5015-.234-.7785.001-.3709.148-.7264.41-.9884.262-.2621.617-.4092.987-.4092z"/><path d="m158.828 63.5203v.5303h-10.134c0 .5106.039.8893.039 1.0164 0 0 .75 5.9227 6.656 4.0657 0 0 1.411-.4422 2.603-2.3431l.661.2223s-.661 3.2252-3.837 4.0193-7.312-.0855-8.374-5.3021c-2.053-10.7385 13.081-11.6548 12.386-2.199m-10.064-.7061h7.776c.011-.9422-.242-1.8687-.732-2.673-.389-.5538-.92-.9926-1.537-1.2707-.616-.278-1.296-.3852-1.968-.3102-1.652.1661-2.761 1.466-3.236 2.8832-.147.4422-.248.8982-.303 1.3609"/><path d="m169.702 67.8297-.02-3.5184c-.338-.1686-1.167-.4374-3.007-.4374-2.681 0-3.308 2.5631-3.308 2.5631-.131 3.0933 2.866 3.3596 4.144 3.0468.858-.2052 1.706-1.0921 2.193-1.6541m-7.395-6.7926-.529-.2199s.751-4.6668 6.218-3.7945c0 .1222 3.79.5009 3.878 3.8898.09 3.6235.09 9.6782.09 9.6782h-2.25v-1.3805c-.758.6499-2.193 1.6028-2.193 1.6028-4.453 1.4123-6.094-1.637-6.349-2.2552-.256-.6182-.529-4.8183 3.085-5.7883 2.869-.7721 4.765-.1808 5.426.0977v-.7599c-.039-4.9795-5.789-4.0486-7.376-1.0702z"/><path d="m112.26 52.4308.356 2.8808c-.018-.0513-.032-.1027-.047-.1564.356 4.0718-.812 8.1307-3.278 11.386l-2.379-14.1714-5.662-.1589c-.868 10.6897-4.2605 15.1635-7.7825 17.1818-1.3795.7916-2.547 1.053-3.9607 1.3169 11.9872 1.0824 13.1422-11.623 13.3252-9.7123l.989 10.372c-2.552 1.4688-5.4076 2.3306-8.3451 2.5191-8.287.5376-17.5758-6.0009-19.8353-14.1495.6508 9.3874 11.0998 17.5385 20.3204 16.9399 9.355-.606 16.952-8.0069 16.952-17.5654.007-.191.047-.3793.117-.5571l1.545 12.4783 5.977-.1564-2.93-18.6062z"/><path d="m174.61 50.3484c.417-.0005.825.1231 1.172.3551.347.2321.618.5622.778.9484.159.3863.201.8115.12 1.2217s-.282.787-.577 1.0828c-.295.2957-.671.497-1.08.5785s-.833.0394-1.219-.1209c-.385-.1602-.714-.4315-.946-.7794-.231-.348-.355-.7569-.354-1.1752.001-.5595.223-1.0957.618-1.4913s.93-.6184 1.488-.6197zm0-.2859c.473 0 .935.1406 1.328.404.393.2633.7.6377.881 1.0757s.228.9199.136 1.3849c-.092.4649-.32.892-.654 1.2272-.335.3352-.761.5635-1.225.656s-.944.045-1.381-.1364-.811-.4886-1.073-.8828c-.263-.3942-.403-.8576-.403-1.3317.001-.6353.253-1.2442.702-1.6934.448-.4493 1.055-.7022 1.689-.7035z"/><path d="m55.917 64.5306h-4.1069v3.3719h4.1045zm-3.3977-5.478c-.2973.1955-.5508.3445-.7068.435v3.1177h4.1045v-2.0549c-.1828-2.546-2.6348-1.7934-3.3977-1.4953m6.7174 3.6406.9189-.8308.4875-.2638 3.2319 3.9411-1.9669 1.2681s-.6118-1.1093-1.2845-2.199c-.602-.9774-1.4868-1.8057-1.3796-1.9034m-9.7884-5.0895h2.3545v.7745c.7092-.7501 1.2674-3.2277 1.2674-3.2277l2.4008.2199c.0317.7673-.4704 1.5345-1.1212 2.1991.5173-.0545 1.0378-.0716 1.5575-.0513 1.5038.0293 2.0376 1.488 2.2229 2.3505.6727-.6426 2.4373-2.5656 2.4081-4.9772l2.4008.0856s.0146 1.2681-1.0554 2.8514c.546-.176 1.6331-.3934 3.3709-.2224 2.664.2615 2.5763 3.4207 2.5763 3.4207s-.0439 5.7322-.1755 6.6973-.524 1.8814-1.7062 3.1959c-1.1821 1.3145-5.0234.8307-5.0234.8307v-.9284s.2438-.0489 1.7915-.2175 1.8963-2.3163 2.0084-2.2772.4363-5.6491.4363-6.6997-.0439-.6108-.7873-2.1013c-.6166-1.2412-2.9053-.5937-3.656-.3445-.742.6963-1.5702 1.2942-2.4642 1.7788v10.0373h-2.3594v-1.1777h-4.0923v1.1826h-2.357z"/><path d="m34.6471 67.6879 1.0261-.5937c.2688.03.5264.1247.7507.2761.3169.2443 4.4604 2.4434 7.027 2.4165l-.4875 1.8203s-5.4451-.2004-8.3285-3.9094m-9.0499-11.0586h4.6992c-.3315-.4643-1.0139-1.4098-1.0456-1.2901l1.8963-.3152c.7198.3985 1.347.9457 1.8402 1.6053h3.1296c.6654-.4887 1.3844-1.6151 1.5428-1.725.1974-.1393 2.4374 0 2.3691.2761l-1.5136 1.4489h4.9308v1.7103h-7.8532c-.0195.2859-.0365.5742-.0439.8601h6.9222v1.7103h-6.9417v1.0556h6.9417v1.7103h-7.0513c-.0409.3799-.1011.7575-.1804 1.1313h8.7843v1.7104h-9.3205c-1.8914 4.7205-9.613 4.7938-9.613 4.7938v-.9773s3.3514-.2663 4.9869-1.488c.8127-.6216 1.4862-1.4074 1.9767-2.3066h-7.0416v-1.7103h7.763c0-.0415.022-.0782.0317-.1173.0597-.3348.0931-.6739.0999-1.014h-6.3347v-1.7103h6.3762c0-.3494 0-.7086 0-1.0556h-6.3762v-1.7103h6.3689c0-.3763-.0122-.6768-.0147-.8601h-7.3291z"/></g></svg>