<svg fill="none" height="120" viewBox="0 0 200 120" width="200" xmlns="http://www.w3.org/2000/svg" xmlns:xlink="http://www.w3.org/1999/xlink"><clipPath id="a"><path d="m30 44h141v33h-141z"/></clipPath><g clip-path="url(#a)"><path d="m39.6205 44.0031 1.0454.0214.2146.0029.1143.0006c3.9241-.0029 7.8479-.0007 11.7713.0067.0132 0 .0257.006.0338.0163.0082.0103.0112.0238.0082.0366l-1.2234 4.8816c-.0164.065-.0677.1151-.1325.1291-3.7836.8138-7.5561 1.6346-11.3176 2.4624-.5771.1265-1.0003.2718-1.2697.4359-.6036.367-.9796.888-1.128 1.5628l-.0121.0588-.0034.0208-.0049.0378-.0062.0627-.0072.0984-.0067.1204-.006.1424-.0065.2001-.0066.2736-.0067.4153-.0048.4868c-.0258 3.6583-.0247 7.3163.0033 10.9739.0036.4988.0555.8848.1557 1.1577.3246.8823 1.0103 1.4378 2.057 1.6666 3.8667.8454 7.7412 1.6908 11.6234 2.5363.0337.0074.0606.0339.0695.0684l1.2334 4.9235c.003.0128 0 .0263-.0082.0366-.0081.0104-.0206.0164-.0338.0164l-2.0372.0205-1.7546.0147-1.5014.0098-1.2749.0061-.8097.0025-.9041.0015h-.9011l-.9212-.0025-1.0723-.0057-.4042-.0032-.8581-.0092-.6181-.0089-.5749-.0105-.3843-.0085c-2.3172-.0552-4.2977-.8715-5.9414-2.4491-1.3544-1.2994-2.2116-2.8504-2.5716-4.6531-.009-.0451-.0176-.0919-.0259-.1405l-.0161-.0994c-.0284-.1865-.0518-.396-.0701-.6287l-.0095-.1292c-.0015-.0219-.003-.044-.0044-.0663l-.008-.136c-.0012-.0231-.0024-.0464-.0036-.0698l-.0064-.1429c-.001-.0243-.002-.0486-.0029-.0732l-.0049-.1499c-.0008-.0253-.0014-.0508-.0021-.0766l-.0034-.1567-.0025-.1612-.0014-.1659c-.0265-4.7826-.0335-9.5652-.021-14.3478.0052-1.9035.4671-3.5962 1.3858-5.0781.3849-.621.8502-1.189 1.3956-1.704 1.5281-1.44 3.389-2.242 5.5826-2.4061.147-.0109.3064-.0186.4781-.0231l.1502-.0031c.1788-.0028.3699-.0023.5734.0013zm35.3788.0371c1.947.1391 3.6496.841 5.1078 2.1058 1.8424 1.5971 2.8605 3.6051 3.0545 6.0239l.007.0933.0046.0887.0048.1437.005.2488.006.5742.0029.8325-.0004 12.7126-.0026.5275-.0045.4385-.0051.2867-.003.122-.0051.1562-.0068.1418-.0032.0474c-.2032 2.704-1.364 4.8661-3.4825 6.4863-.611.4672-1.244.8384-1.8992 1.1136-1.1246.4718-2.3114.7001-3.5604.6849l-.1121-.0019-.0313.0002-.0376.0011-.068.0033-.0821.0053-.0624.0047-.0628.0038-.07.0028-.0774.0016-.0846.0006c-4.3548.0073-8.7077.0003-13.0588-.021-.0082-.0001-.0158-.0039-.0208-.0101-.0049-.0063-.0066-.0143-.0046-.0219l1.2455-4.9533c.0102-.0407.0426-.0722.0839-.0817l2.5163-.5451c2.9315-.636 5.8483-1.2725 8.7504-1.9095l.1251-.0281c.1226-.0284.2379-.0573.3458-.0868l.1055-.0296c.3435-.0996.6056-.2056.7862-.3179.7935-.493 1.1921-1.292 1.1958-2.3972.0132-4.0674.0051-8.1345-.0243-12.2012-.003-.423-.0516-.7626-.1458-1.0187-.2407-.6482-.6573-1.1161-1.2499-1.4038l-.0133-.0064-.0295-.013c-.0052-.0022-.0105-.0044-.016-.0067l-.0537-.0209-.0404-.0145-.044-.015-.0729-.0235-.081-.0247-.1208-.0346-.1002-.0273-.1084-.0284-.1573-.0397-.1719-.0416-.1864-.0437-.2011-.0457-.1603-.0356-.1686-.0368c-3.5649-.7718-7.1339-1.547-10.7069-2.3254-.0278-.006-.05-.0278-.0574-.0563l-1.2389-4.9379c-.0034-.0141-.0001-.0291.009-.0405.009-.0114.0228-.018.0374-.018 3.273.0018 6.5502.001 9.8317-.0025l2.6468-.0033.8061.0009.7066.0045.2918.0046.1598.0049zm24.8412 3.2426c.0204 0 .0397.009.0525.0247.0127.0158.0174.0364.0126.0559l-2.3463 10.0203c-.0084.0342-.0011.0702.0199.0982 1.1446 1.537 1.7876 3.2426 1.9289 5.1166.0604.7991.0449 1.5334-.0464 2.203-.1766 1.3023-.6805 2.488-1.5116 3.5571-.5167.6637-1.1737 1.2104-1.9709 1.6401-.4284.2318-.8564.3683-1.2841.4095-.0142.0015-.0284-.0031-.0391-.0128-.0107-.0096-.0169-.0234-.0172-.038l-.0177-2.5219c.0001-.0682.0377-.1314.0983-.1655 1.1491-.649 1.8355-1.6294 2.0592-2.9414.1627-.9528.1473-1.9034-.0463-2.8519-.2952-1.4414-.9857-2.6514-2.0714-3.63-.0252-.0223-.0358-.0571-.0276-.0905l1.8726-8.1076c.003-.0131-.0002-.0268-.0088-.0373s-.0216-.0167-.0353-.0168l-2.9404-.0265c-.016-.0003-.0314.0059-.0429.0171-.0114.0112-.0178.0265-.0178.0425v23.5084c0 .0384-.0307.0695-.0685.0695l-2.5517-.0209c-.0319-.0006-.0574-.0267-.0574-.0585v-26.1672c0-.0371.0307-.0673.0685-.0673zm43.1335 0c.017-.0003.033.0062.045.018.011.0119.018.028.018.0449v2.0661l-.001 6.1877c-.001.6866-.001 1.3729-.001 2.059 0 .713-.137 1.3976-.412 2.0539-.347.8278-.919 1.4102-1.718 1.7471-.613.2583-1.283.3889-2.009.3919-2.022.008-4.044.0106-6.066.0077-.029 0-.053.0245-.054.0552l-.012 3.0163c0 .0254.01.0497.027.0675.018.0179.041.0277.066.0274 2.472-.0095 4.899-.007 7.282.0078.061.0003.123.0004.187.0002l.194-.0011c.033-.0003.066-.0007.099-.0011l.204-.0033.21-.0047c.039-.0006.074.0261.083.064l.613 2.5606c.003.0131 0 .0269-.009.0374-.008.0105-.021.0167-.034.0167l-8.857.0066c-.03 0-.054.0252-.054.0563l-.007 3.0748c0 .05.041.0905.091.0905h9.565c.036 0 .068.0243.075.0585l.602 2.5572c.003.0131 0 .0268-.008.0372s-.021.0163-.034.0158c-2.988-.0285-5.976-.0322-8.963-.0112l-.996.0079c-.743.0066-1.48.007-2.21.0011-3.685-.0309-7.364-.0298-11.037.0033-.02-.0002-.04-.0096-.052-.0255-.013-.0159-.018-.0365-.013-.0562l.581-2.5285c.007-.0312.035-.0532.066-.053l9.595-.0132c.03-.0006.054-.0256.054-.0563l.001-3.0208c0-.0672-.054-.1219-.122-.1225l-8.733-.022c-.018-.0001-.034-.0079-.045-.0212-.011-.0134-.015-.0308-.011-.0473l.6-2.5473c.008-.0318.037-.0542.071-.054l8.185-.0067c.034 0 .061-.0271.061-.0607l-.007-3.0516c0-.0299-.024-.0541-.055-.0541-2.951-.0044-5.902-.0191-8.854-.0442-.378-.0036-.785.0111-1.222.0442-.027.0018-.053-.0074-.073-.0254-.019-.018-.03-.0432-.03-.0695v-14.3942c0-.023.009-.0451.025-.0613s.038-.0251.061-.0248c1.722.025 3.45.0294 5.186.0132l.168-.0014.33-.0023.324-.0015.319-.0006.312.0003.306.0011.3.002.148.0013c2.447.0229 4.893.0255 7.339.0077l1.214-.0101.458-.0021.312-.0004.318.0004.324.0012c.054.0003.109.0006.164.0009l.333.0024c1.711.0148 3.439.0103 5.183-.0132zm27.274 10.1892c.033 0 .061.0225.068.054l.596 2.5418c.003.0131 0 .0268-.008.0373-.009.0106-.022.0167-.036.0168l-15.989.0199c-.033.0001-.061.0224-.068.054l-2.432 10.6296c-.005.0254.001.0521.017.0725s.041.0323.067.0323h14.308c.009-.0001.018-.0045.024-.012s.009-.0172.007-.0266l-1.675-7.1154c-.004-.0135-.001-.0278.007-.0388s.02-.0174.034-.0175l2.577-.0177c.051-.0007.097.035.109.0861.531 2.175 1.043 4.3555 1.536 6.5415l.025.1158.024.1113.022.107.02.1026.018.0981.016.0938.015.0894.012.0849.011.0806.009.0762.007.0718c.001.0116.001.023.002.0342l.004.0652c.004.0735.004.138 0 .1935-.035.5048-.231.9282-.588 1.2704-.278.2663-.647.4532-1.108.5606-.343.0795-.695.1144-1.053.1049l-.431-.0111c-5.814-.0095-11.611-.0025-17.39.021-.025 0-.049-.0115-.065-.0315s-.021-.0462-.016-.0711l3.093-13.2949c.003-.0129 0-.0265-.008-.0369-.009-.0105-.021-.0168-.035-.0172l-4.294-.0276c-.014-.0004-.028-.007-.037-.0182-.008-.0112-.012-.0256-.008-.0392l.611-2.5374c.008-.0316.037-.054.07-.054zm-55.043-10.1815c.014 0 .027.0064.036.0169s.012.0242.009.0372l-.583 2.5539c-.007.0324-.036.0557-.07.0563l-.482.011c-.031.0006-.055.0262-.055.0574-.047 5.6354-.048 11.2708-.001 16.9062.001.2031-.001.4058-.007.6081-.043 1.4252-.482 2.6779-1.317 3.758-.51.6593-1.173 1.1821-1.99 1.5684-1.011.4782-2.078.7144-3.2.7087-.032 0-.06-.0222-.067-.0532l-.548-2.3353c-.007-.0291-.001-.0597.017-.0837.017-.024.044-.039.074-.0411.91-.0706 1.693-.2891 2.348-.6555 1.06-.5923 1.7-1.4694 1.923-2.6312.027-.1407.046-.3166.058-.5277l.005-.1085c.001-.0185.001-.0374.002-.0564l.016-.599.003-.1758v-.038c-.037-5.4058-.04-10.8113-.008-16.2164 0-.0148-.006-.0291-.016-.0397s-.025-.0166-.039-.0166c-1.627-.0054-3.254-.0119-4.881-.0196l-2.461-.0119-.89.0249c-.327.0088-.672-.0037-1.033-.0375-.039-.0041-.071-.0319-.08-.0695l-.606-2.5208c-.003-.0135 0-.0275.009-.0382.008-.0108.021-.017.035-.017zm-6.206 5.0151c.032 0 .058.0257.058.0574v12.0191l.006.3852c.009.5702-.05 1.114-.178 1.6312-.103.4135-.306.791-.609 1.1324-.386.4341-.841.7314-1.367.8918-.066.02-.144.038-.234.0541l-.07.0116c-.012.0019-.025.0038-.037.0056l-.077.0105c-.013.0017-.027.0034-.04.005l-.084.0095c-.015.0015-.029.003-.044.0044l-.091.0084-.096.0075-.1.0069-.105.0061-.109.0053-.173.0067-.121.0035-.125.0028c-.022.0004-.043.0007-.065.0011-1.273.0198-2.566.0239-3.881.0121-.041 0-.074-.0331-.074-.074v-16.149c0-.0305.025-.0552.055-.0552zm-2.682 2.6765h-2.195c-.034 0-.061.0276-.061.0618v10.8028c0 .0341.027.0618.061.0618l.519-.0007.606-.0026c.289-.0015.532-.0865.73-.255.135-.1148.237-.2663.305-.4547.063-.1766.095-.362.095-.5563l.002-5.7524v-3.8429c0-.0342-.027-.0618-.062-.0618zm-44.636 4.8286c.0195 0 .0354.0158.0354.0353v1.1986c0 .0195-.0159.0353-.0354.0353h-10.0875c-.0195 0-.0353-.0158-.0353-.0353v-1.1986c0-.0195.0158-.0353.0353-.0353zm71.185-9.8515c-.043 0-.077.0334-.078.0751l-.02 3.1112c0 .0187.008.0366.021.0499.014.0133.032.0208.051.0208l5.441.0066c.033.0001.062.0225.069.0541l.591 2.5429c.004.0175 0 .0361-.011.0504-.012.0142-.029.0225-.048.0224h-6.053c-.033 0-.061.0272-.061.0607l.007 3.1311c0 .0496.04.0899.091.0905 2.032.0133 4.003.0063 5.913-.0209.32-.0044.559-.0383.717-.1016.247-.0993.442-.2564.585-.4712.135-.2024.223-.4993.265-.8907.03-.2855.044-.5997.041-.9426-.02-2.2507-.022-4.5019-.007-6.7534 0-.0152-.012-.0276-.027-.0276zm-10.278.0011c-.049 0-.088.0391-.088.0872v9.0436c0 .0432.034.0783.077.0783l7.459.0066c.03 0 .055-.0247.055-.0551v-3.1665c0-.0341-.028-.0618-.062-.0618l-6.031-.0066c-.014-.0002-.027-.0064-.036-.0169s-.012-.0242-.009-.0372l.583-2.5539c.007-.0324.036-.0554.068-.0552l5.424-.0132c.031 0 .056-.0243.056-.0541l.007-3.0936c0-.0409-.034-.074-.075-.074zm45.768-2.6554c.034 0 .063.0214.071.0518l.618 2.5473c.004.0136.001.0279-.008.0389s-.023.0174-.037.0174h-19.487c-.014 0-.027-.0062-.035-.017-.009-.0107-.012-.0248-.009-.0382l.601-2.5605c.007-.0315.036-.0537.068-.053l.417.0039.475.0024.44.0009.524-.0002.642-.0017 1.019-.0049 1.452-.01.972-.0026.554-.0005 4.767.0061z" fill="#fff" fill-opacity=".5"/></g></svg>