<svg fill="none" height="120" viewBox="0 0 200 120" width="200" xmlns="http://www.w3.org/2000/svg" xmlns:xlink="http://www.w3.org/1999/xlink"><clipPath id="a"><path d="m37 35h126v50h-126z"/></clipPath><g clip-path="url(#a)"><path clip-rule="evenodd" d="m44.9984 74.1128c.943.0229 1.7691.0995 2.4784.2299 1.4349.2638 2.7534.7972 3.9556 1.6001.0806.0538.1337.1066.1592.1586.0405.0829.0394.1635-.0034.2419-.1508.276-.3907.5816-.7195.9167-.0138.0139-.0356.0159-.0513.0047-1.4554-1.0197-3.1104-1.6223-4.9648-1.8078-1.4049-.1407-2.7601-.0287-4.0657.336-.4218.1179-.829.2901-1.2217.5168-.4132.2388-.7573.5074-1.0324.8058-.5371.5838-.8387 1.2744-.9047 2.0719-.0374.4543.005.8979.1271 1.3307.2619.9319.8443 1.6536 1.7472 2.1653.6769.3835 1.4012.6404 2.1728.7708.8195.1385 1.6452.1931 2.477.164 2.0344-.0708 3.8804-.679 5.5381-1.8246.1007-.0694.1804-.0643.2392.0155l.084.1135c.1872.1994.3599.41.5179.6317.0392.0552.0597.1145.0615.1781.0014.0543.0005.1085-.0027.1627-.0013.0225-.0105.0433-.026.0584-.0293.0287-.0668.0603-.1127.0949l-.0359.0264c-.0187.0135-.0386.0274-.0597.0418l-.0436.0292-.0468.0303-.0498.0314-.0529.0325c-.0091.0055-.0183.011-.0277.0166-1.3174.793-2.6851 1.2973-4.1032 1.5128-1.5105.2298-3.0199.2242-4.5282-.0168-.8623-.138-1.6977-.4041-2.5063-.7984-.6715-.3275-1.2507-.7545-1.7376-1.2809-.594-.6416-.971-1.3813-1.1309-2.2191l-.0314-.1678-.0219-.122-.0145-.0844-.0128-.0782-.0112-.0722-.0096-.066-.0079-.0599-.0044-.0366-.0052-.0497c-.0005-.0052-.0009-.0102-.0013-.0152-.0136-.1548-.0112-.3095.007-.464l.0077-.0584.0871-.4991c.1867-1.0659.6821-1.9543 1.4861-2.6653.6674-.5901 1.4589-1.0354 2.3745-1.336 1.2532-.4122 2.5956-.6011 4.0273-.5666zm113.0406.1008c1.745.2093 3.343.7935 4.793 1.7527.076.0502.124.1087.142.1754.027.0968.016.1779-.034.2433-.225.293-.463.5833-.713.871-.018.0211-.05.0249-.073.0087-1.228-.8683-2.584-1.4312-4.07-1.6888-1.535-.2662-3.06-.2259-4.577.1209-.694.1586-1.336.4337-1.926.8253-1.001.6653-1.537 1.5983-1.608 2.7991-.062 1.0546.275 1.9538 1.012 2.6975.406.4091.893.7308 1.462.9651.404.1662.773.2872 1.108.3629.984.2209 1.981.3114 2.992.2715 1.984-.0784 3.825-.6924 5.521-1.8421.053-.0353.123-.0285.167.0162.217.2159.427.461.63.7352.076.1026.115.1911.116.2654.001.0847-.03.155-.094.211l-.185.1203c-1.348.8746-2.824 1.4279-4.429 1.66-1.346.1944-2.753.1935-4.22-.0027-1.318-.1761-2.523-.6315-3.616-1.3663-.276-.1854-.527-.3976-.755-.6364-.762-.8011-1.185-1.7525-1.268-2.8542-.104-1.3709.275-2.5405 1.138-3.5087.28-.3141.622-.6089 1.025-.8844.715-.4888 1.503-.8421 2.363-1.0598.86-.2182 1.778-.3378 2.753-.3589.85-.0184 1.632.0153 2.346.1008zm-41.454.084c.048 0 .087.0382.087.0854l.004 9.002c0 .0267.022.0484.05.0484l10.451.008c.008 0 .016.0038.02.0103.005.0064.006.0146.003.022l-.478 1.2191c-.009.0231-.033.0383-.059.0383h-11.524c-.019 0-.034-.015-.034-.0336v-10.3387c0-.0338.028-.0612.062-.0612zm-16.6201 0c.0239 0 .0471.0094.0641.026s.026.0392.026.0627v8.9994c0 .0263.022.0477.048.0477h10.441c.016-.0001.031.0076.04.0205.008.013.01.0295.004.044l-.489 1.2009c-.008.0195-.027.0323-.048.0323h-11.5149c-.0196 0-.0355-.0156-.0355-.035l.0041-10.3602c0-.0091.0035-.0178.0098-.0242s.0148-.01.0237-.01zm-6.436-.0006c.0099 0 .0178.0078.0178.0174v10.3992c0 .0097-.0079.0175-.0178.0175h-1.4841c-.0098 0-.0177-.0078-.0177-.0175v-10.3992c0-.0096.0079-.0174.0177-.0174zm-30.1662.0006c.053 0 .1025.026.1319.0693l2.1389 3.1555 2.1201 3.1297 1.4029 2.0721 1.0467 1.5465c.062.0919.0763.2245.0431.3979-.0066.0362-.0389.0625-.0766.0625h-1.4479c-.04 0-.0773-.02-.099-.0531l-1.6632-2.5249c-.0246-.0372-.0665-.0597-.1114-.0598h-8.7489c-.0486.0001-.0942.0246-.1209.0652l-1.6741 2.541c-.0115.0172-.0313.0276-.0526.0276l-1.506.004c-.0406 0-.0738-.032-.0745-.0719-.0014-.0784.0059-.1557.0219-.2319.0132-.0654.0446-.1348.0943-.2083 2.2166-3.2957 4.4339-6.5694 6.6519-9.8212.0455-.0668.1093-.1002.1913-.1002zm10.7333 0c.7668 0 1.5351.0004 2.3049.001l1.5415.0018c.5145.0007 1.0297.0016 1.5455.0026.6441.0009 1.2878.0193 1.931.0551 1.1561.065 2.2701.3103 3.342.7359.5566.2209 1.0563.5298 1.4991.9267.7494.6716 1.2024 1.5041 1.3591 2.4974.0738.4664.0938.9354.0601 1.4072-.1152 1.6313-.8338 2.843-2.1558 3.6351-.3421.2047-.755.3913-1.2388.5598-.7471.2599-1.519.4265-2.3157.5-.6487.0596-1.2992.0912-1.9515.0948-1.9528.0107-3.9228.0161-5.9098.0161-.0476 0-.0861-.0379-.0861-.0847v-10.2755c0-.0405.0333-.0733.0745-.0733zm65.197.0155c.022.0008.042.0118.054.0296l6.756 9.961c.014.0197.021.0415.021.0625l.001.299c0 .0364-.031.0659-.069.0659h-1.474c-.03 0-.059-.0157-.076-.0417l-1.696-2.5645c-.012-.0172-.032-.0275-.054-.0275l-8.746-.0041c-.069.0001-.132.0345-.17.0914l-1.646 2.5034c-.017.0267-.048.0427-.08.0423l-1.494-.0033c-.021 0-.039-.0133-.043-.0323-.045-.1667-.019-.321.078-.463 2.232-3.2944 4.463-6.5894 6.694-9.8851.011-.0177.031-.0288.053-.0296.631-.0309 1.261-.0322 1.891-.004zm-63.674 1.2964c-.0239.0007-.043.0197-.043.043v7.7184c0 .0367.0303.0665.0676.0665 1.3785 0 2.751-.0047 4.1176-.0141.8022-.0058 1.6005-.0627 2.3949-.1707.6064-.0824 1.189-.2359 1.7479-.4603.4897-.1972.8796-.4239 1.1698-.6802.4428-.3906.7403-.8716.8924-1.4428.1563-.5852.1947-1.1689.1155-1.7514-.1658-1.2182-.8163-2.0793-1.9515-2.5833-.6273-.2782-1.3003-.4666-2.0192-.5652l-.0999-.0132-.0702-.0087-.0731-.0085-.1148-.0126-.0802-.0082-.0829-.0081-.1298-.0119-.1362-.0116-.0943-.0075-.1468-.0111-.1532-.0108c-.0663-.0045-.134-.0087-.2032-.0126l-.1404-.0075c-.0237-.0012-.0476-.0024-.0716-.0035l-.1463-.0065-.1501-.0058-.1541-.0051c-.026-.0008-.0521-.0015-.0785-.0023l-.1599-.004c-.027-.0006-.0541-.0012-.0814-.0018-1.3497-.0273-2.7248-.0269-4.1251.0014zm62.585-.0337c-.019-.0004-.039.0113-.052.031l-3.357 5.129c-.023.0341-.013.0511.028.0511h7.064c.036 0 .045-.015.025-.045l-3.364-5.1264c-.013-.0202-.033-.0325-.053-.0329zm-75.6578-.0073-.2139.0127c-.0197.0013-.0393.0141-.0526.0343l-3.3707 5.1337c-.015.0224-.0089.0336.0185.0336h7.0482c.0569 0 .0699-.0235.0389-.0705-.6979-1.0651-1.3962-2.1297-2.0951-3.1936l-1.0487-1.5954c-.0166-.0253-.0328-.0494-.0486-.0723l-.0309-.044c-.0708-.0989-.1323-.1708-.1843-.2157-.0183-.0159-.0402-.0241-.0608-.0228zm64.9608-40.5451c5.329 0 10.657.009 15.983.0269.013 0 .016.0054.008.0161l-5.779 8.0289c-.029.0399-.047.0836-.057.1311-.676 3.6478-1.36 7.2849-2.051 10.9113-.17.8907-.349 1.7793-.538 2.666-.108.5031-.255.9942-.443 1.4731-.246.6268-.623 1.1438-1.132 1.5511-.396.3172-.852.5853-1.367.8044-.532.2267-1.078.4176-1.636.5726-.645.1787-1.294.3407-1.948.4859l-.659.1458-.539.118-.41.0895-.696.1506-.711.1528-.725.1547-.741.1568-.756.1588-.616.1286-.783.1625-.798.1645-.649.1331-.825.1682-.841.1703-.855.1723-.87.1743-1.065.2119-.903.1788-1.104.2173-1.126.2202-.38.0741c-4.04.7867-8.091 1.5132-12.153 2.1794-.056.0091-.112.0142-.168.0153h-.034c-.067-.0008-.134-.0075-.2004-.02l-.1373-.0269-1.1333-.1809-.7116-.1154-.4839-.0797-.4385-.0737-.2255-.0389-.5477-.0957-.5543-.0977-.7024-.1248-.5694-.102-.7212-.1303-.5845-.1064-.74-.1357-.7505-.1387-.761-.1417-.7714-.1448-.7818-.1477-.9521-.1814-.8049-.1544-.8154-.1574-.8258-.1605-1.0048-.1965-.6783-.1335-.8572-.1695-.8829-.1756-.7089-.1421-.7009-.1412-.6926-.1406-.6845-.1397-.8442-.1737-.5003-.1036-.4958-.1032-.6539-.137-.4851-.1022-.4805-.1018-.6335-.1351-.4698-.1008-.4652-.1004-.6131-.1332-.6049-.1325-.4484-.0988-.5906-.1312-.5826-.1304-.8045-.1821-.5377-.1236-.1949-.0461-.0814-.0202c-.9207-.2379-1.7853-.5569-2.5938-.957-.3121-.1546-.6287-.3696-.9498-.6452-.466-.4009-.8056-.8678-1.0188-1.4005-.1963-.4901-.3585-1.0441-.4865-1.662-.2724-1.3118-.5325-2.6261-.7803-3.9428-.5544-2.9476-1.1045-5.8959-1.6502-8.8448-.036-.1949-.0754-.3889-.1182-.582-.0255-.1142-.0736-.2204-.1442-.3185l-2.4347-3.3833-2.4417-3.3916c-.2717-.3773-.5435-.7548-.8155-1.1324-.0159-.0219-.0102-.0329.0171-.0329 23.576-.0148 47.14-.0224 70.693-.0229zm11.366 1.539h-77.4611c-.0237 0-.0287.0094-.015.0282 1.5151 2.121 3.0152 4.2319 4.5002 6.3327.061.0856.1002.1801.1175.2836.6751 4.0148 1.3586 8.0282 2.0506 12.0403l.0241.1378.0243.1355.0244.1333.0246.1309.0247.1287.0249.1264.0251.1241.0253.1218.0254.1196c.0042.0197.0085.0394.0127.0589l.0257.1162.0258.1139.026.1115.0261.1094c.0044.018.0088.0359.0131.0538l.0264.1058c.0044.0175.0089.0349.0133.0521l.0266.1025.0268.1002.027.0979c.0045.0162.009.0322.0135.0481l.0272.0946.0274.0922.0275.0899.0277.0877c.0046.0144.0092.0287.0139.043.2196.6729.6024 1.1812 1.1486 1.5248.3868.2433.8291.4387 1.327.5861l.0664.0181.1154.0291.221.0531.3546.0826.6447.1469.4542.1021.5543.123.4119.0906.4254.0927.5282.1142.5474.1173.5668.1205.7856.1656.925.1931 1.082.2243 1.0598.2184.8908.1824.8745.1781.9998.2022.9775.1962.9555.1903.8013.1583.6553.1286.8985.175.6282.1213.739.1415.9424.179.804.1515.7872.1472.6431.1193.7564.1393.3719.068.6105.1109.7171.1292.7004.1249.5707.1007.6695.117.5451.0941.6387.109.3131.0529.4108.0688.4034.067.5911.0967.3847.0621.5631.0896.1839.0289c.0699.0111.1465.017.2305.017h.032c.128-.0019.272-.0157.432-.0419l.993-.1633.726-.1206.71-.1189.807-.1365.675-.1152.873-.151.741-.1297.516-.0912.404-.0721.593-.1067.386-.0703.565-.1039.368-.0684.361-.0676c5.338-1.0052 10.662-2.0761 15.972-3.2129l1.102-.237.605-.1319.532-.1174.425-.0956.335-.0769.235-.0551.179-.0432.151-.0378.017-.0043c.607-.1564 1.119-.3636 1.538-.6217.411-.2544.724-.5793.939-.9744.218-.4009.381-.8492.489-1.345l.013-.0623c-.013-.09.002-.174.046-.252l.024-.1038.064-.3213.001.0158-.001-.0227c-.003-.0831.013-.1631.049-.24.21-1.0668.406-2.1362.587-3.2084l.127-.7519.255-1.5066c.043-.2514.086-.503.128-.7547l.258-1.5122.259-1.5159.26-1.5197.262-1.5233c.043-.2542.087-.5086.131-.7631.006-.0359.02-.0686.041-.0981l4.536-6.3838c.017-.0237.01-.0356-.019-.0356zm-51.1931 19.5901 11.9516.004c.0264 0 .0478.0214.0478.0477v8.1714c0 .0151-.0067.0294-.0185.0391-.0117.0097-.0272.0139-.0423.0113-3.9586-.6389-7.937-1.3557-11.9352-2.1506-.0273-.0054-.0471-.029-.0471-.0564l.013-6.0363c0-.0167.0137-.0302.0307-.0302zm28.0911 1.562 1.164.0031 3.724.0117.27-.0003.306-.0018.291-.0028.317-.0038.112-.0016c.657-.0094 1.315-.0106 1.973-.0035l.282.0035c.418.006.824.0068 1.219.0025l.147-.0018c.819-.0118 1.637-.0136 2.456-.0055l.351.0041c.674.009 1.348.0148 2.023.0175.008 0 .015.0036.02.0098.004.0062.005.0141.002.0211-.088.2164-.201.3853-.338.5067-.278.2478-.626.4317-1.046.5518-.638.1823-1.281.3452-1.93.4886l-.58.1277-.39.0853-.391.0852-.591.128-.396.0853-.399.0854-.601.1282-.404.0855-.405.0855-.612.1284-.41.0856-.413.0857-.622.1286-.417.0857-.42.0858-.633.1288-.424.0859-.426.0859-.644.129-.864.1721-.654.1292-.438.0862-.44.0862-.665.1293-.445.0863-.447.0864-.675.1295-.452.0865-.682.1297-.457.0865-.909.1711-.669.1252-.788.1468-1.029.1899-.878.1607-.736.1337-.959.1724-.817.1455-.457.0808-.451.0792-.773.1345-.433.0746-.741.1266-.414.07-.709.1185-.298.0493c-.008.0014-.017-.001-.023-.0066s-.01-.0138-.01-.0223v-6.6445c0-.0088.004-.0173.01-.0235s.015-.0096.024-.0094l.38.0026.418.0018.524.0009.533-.0001 1.076-.0028.856-.004 1.186-.0065 1.865-.0053 1.551-.0013 3.434.0026zm-14.248.8533c-.018 0-.033.0144-.033.0322l.004 4.7904c0 .0081.004.0157.01.0209.007.0052.015.0073.024.006l.481-.0816.611-.1044.496-.0856.63-.1093.768-.1348.52-.0921.66-.1175.67-.1202.679-.123.969-.1768.988-.1821.574-.1065.726-.1355.885-.1662.9-.1702 1.067-.2035 1.088-.2089.736-.1423.429-.0839.415-.0823.402-.0805.388-.0789.375-.0771.361-.0754.279-.0591.204-.0437.199-.043.257-.0564.349-.0778.617-.1401.29-.0675.224-.0539.135-.0338.024-.0063c.615-.1622 1.215-.3674 1.801-.6156.371-.1573.698-.3853.98-.6841.016-.0171.013-.0256-.011-.0256zm-14.7539-.8528c.0092 0 .0181.0036.0246.01.0066.0064.0102.0152.0102.0242l-.0048 1.6795c0 .0185-.0152.0336-.0341.0336h-12.6068l-.0594-.0004c-.0095-.0001-.0189-.0003-.0282-.0005l-.0535-.0014c-.1031-.0038-.183-.012-.2395-.0246-.59-.1299-1.179-.2625-1.767-.3979-.2857-.0658-.5674-.1449-.8453-.2372-.3207-.1066-.6125-.2641-.8753-.4724-.1986-.1582-.3396-.3473-.423-.5672-.004-.0104-.0026-.0221.0038-.0312.0064-.0092.0171-.0146.0284-.0145zm44.3849-3.1754c.009 0 .017.0039.023.0105.005.0066.007.0153.006.0237l-.483 2.3979c-.002.012-.013.0208-.026.0208h-30c-.03 0-.055-.0243-.055-.0544v-2.3649c0-.0186.015-.0336.034-.0336zm-62.7048-4.1203 18.3151.004c.0192 0 .0348.0153.0348.0343v4.8716c0 .0186-.0152.0336-.0341.0336h-17.4343c-.0354.0001-.0658-.0252-.0718-.0598l-.8391-4.8495c-.0014-.0085.0011-.0171.0067-.0237.0057-.0066.0139-.0104.0227-.0105zm57.0838-.0089.021.0001c2.078.0153 4.173.0195 6.287.0128.01-.0002.02.0042.027.012.006.0078.009.0181.008.0283l-.563 3.2662c-.004.0213-.023.0369-.046.0369l-7.152.0047c-.011-.0001-.021-.0046-.027-.0123-.007-.0077-.01-.0179-.009-.028l.346-2.4301c.001-.0064-.001-.0127-.005-.0175-.005-.0048-.011-.0075-.017-.0074-6.767.005-13.533.009-20.299.0121-.866.0005-1.721-.0076-2.566-.0242-.017-.0003-.034.0061-.046.0179-.012.0117-.019.0278-.019.0446l-.004 2.4033c0 .0183-.015.0332-.034.0336l-.782.0033c-.019 0-.034-.015-.034-.0336v-3.2722c0-.0207.017-.0376.038-.0376l23.152-.0002.25-.0008.272-.0017.243-.0027.284-.0038.37-.0035.161-.0006zm-25.8865 1.5929c.0098 0 .0178.0078.0178.0174v1.7285c0 .0097-.008.0175-.0178.0175h-11.9768c-.0098 0-.0178-.0078-.0178-.0175v-1.7285c0-.0096.008-.0174.0178-.0174zm33.1735-7.326c.009.0001.017.004.023.0106s.008.0153.006.0237l-.829 4.879c-.004.0248-.026.0431-.051.0431h-18.34c-.011 0-.023-.0047-.031-.013-.009-.0084-.014-.0196-.014-.0314v-4.8743c0-.01.004-.0196.012-.0266.007-.0071.017-.0111.027-.0111zm-33.1742 1.5961c.0162 0 .0294.0127.0294.0283l.0041 3.2735c0 .0148-.0055.0291-.0158.0396s-.0243.0164-.0389.0162l-.7694-.0081c-.0092 0-.0181-.0038-.0246-.0104-.0065-.0067-.0102-.0158-.0102-.0252l-.0164-2.4866c-.0004-.0186-.0156-.0336-.0342-.0336l-23.2806-.004c-.0095-.0001-.0186.0039-.025.0108-.0063.0069-.0094.0162-.0085.0255l.2617 2.5c.001.0087-.0019.0175-.0081.024-.0061.0066-.0148.0103-.024.0103l-7.3652-.0041c-.0198 0-.0366-.014-.0397-.0329l-.5712-3.2796c-.0018-.0108.0013-.0219.0085-.0303.0073-.0084.0179-.0133.0291-.0134zm13.0842-.0006c.01 0 .018.0078.018.0174v1.7299c0 .0096-.008.0174-.018.0174h-12.093c-.01 0-.017-.0078-.017-.0174v-1.7299c0-.0096.007-.0174.017-.0174zm-45.5292-3.2292 32.432.0081c.0078 0 .0153.003.0208.0084s.0086.0128.0086.0205l-.0041 2.383c0 .0182-.0153.033-.0341.033l-31.8957.0168c-.0039 0-.0076-.0015-.0102-.0041l-.0021-.0027c-.0009-.0008-.002-.0013-.0031-.0014l-.0017.0001c-.0391.0036-.0763-.0007-.1113-.0128-.0194-.0066-.0336-.0245-.0369-.0463l-.3909-2.3697c-.0014-.0081.001-.0164.0065-.0228.0055-.0063.0136-.01.0222-.0101zm45.5322-4.0954c.01 0 .018.0081.018.0181v4.9032c0 .0101-.008.0182-.018.0182h-12.096c-.01 0-.018-.0081-.018-.0182v-4.9032c0-.01.008-.0181.018-.0181zm.89 1.5793 20.985.004c.023 0 .028.0092.015.0276l-1.197 1.6834c-.015.0203-.038.0323-.064.0323-1.103-.0014-2.208-.0014-3.314 0-5.46.0063-10.935.0063-16.425 0-.01 0-.02-.004-.027-.011-.008-.0071-.012-.0167-.012-.0267v-1.672c0-.0208.018-.0376.039-.0376zm-14.0038-1.5793c.0332 0 .0601.0264.0601.0591v3.1915c0 .0184-.014.034-.0328.0363-.2833.0323-.5501.0343-.8001.0061-.0193-.0024-.0337-.0186-.0335-.0377l-.0082-2.3602c-.0004-.019-.0162-.0342-.0356-.0342l-25.7131-.0041c-.0078.0001-.0151.0041-.0191.0106-.0039.0066-.004.0146 0 .021l1.3884 2.3716c.0058.0104.0058.023-.0001.0332s-.0168.0165-.0286.0166h-7.4957c-.0377 0-.0731-.018-.095-.0484l-2.2884-3.2225c-.0182-.0259-.0114-.0389.0205-.0389z" fill="#fff" fill-opacity=".5" fill-rule="evenodd"/></g></svg>