<svg fill="none" height="120" viewBox="0 0 200 120" width="200" xmlns="http://www.w3.org/2000/svg" xmlns:xlink="http://www.w3.org/1999/xlink"><clipPath id="a"><path d="m23 42h154v30h-154z"/></clipPath><g clip-path="url(#a)"><path clip-rule="evenodd" d="m56.0136 42.0343c.7884.0057 1.6719.1214 2.6503.3471 2.3984.5534 4.0263 1.9372 4.8838 4.1515.2941.7618.4832 1.5926.5672 2.4924l.0123.1425.004.0653.0056.1322.0051.1732.0074.38.0079.6646.0073 1.2383.0053 2.0804.0011 1.0843-.0005 1.4336-.0029 1.2888-.0067 1.4485-.009 1.1957-.0106.9777-.013.8842-.0048.274c-.018.9571-.1546 1.9395-.4098 2.9471-.2581 1.0172-.6055 1.8981-1.0423 2.6429-1.3839 2.3651-3.5662 3.6437-6.5469 3.836l-.0924.0058c-.0347.0016-.0686-.0109-.0939-.035-.021-.02-.0344-.0466-.0382-.0752l-.0012-.0173v-2.75c-.0002-.0459.0319-.0854.0766-.0943 2.2169-.4695 3.7261-1.6652 4.5278-3.5872.2846-.6819.4765-1.5185.5757-2.51.0832-.8361.1031-1.7.0596-2.5914-.0023-.0393-.0246-.0746-.0589-.0935-.0147-.0081-.0307-.0126-.0469-.0137l-.0162.0001c-.0162.0012-.0321.006-.0467.0143l-4.9476 2.8757c-.0085.0049-.0176.0082-.0269.0098l-.0142.0013c-.0141 0-.0283-.0037-.041-.011-.0218-.0127-.0365-.0345-.0403-.0591l-.001-.0125v-2.73c.0001-.1165.0585-.2252.1547-.2909l.0212-.0133 4.9844-2.9386c.0372-.0224.0607-.0627.0624-.1072.0501-1.56.0444-3.12-.017-4.68-.0006-.0153-.009-.0293-.0223-.0369l-.0105-.0043-.011-.0014-.011.0013c-.0036.0009-.0071.0023-.0105.0042l-4.9972 2.8771c-.0126.0075-.0265.0118-.0406.013l-.0141.0001c-.0141-.001-.0281-.0052-.0408-.0125-.0254-.0147-.0424-.0402-.0466-.0689l-.0011-.0145v-2.7143c0-.1148.0579-.2224.1534-.288l.021-.0134 4.8554-2.8415c.093-.0541.1432-.1604.1289-.2683l-.0041-.0231c-.4163-1.912-1.5237-3.1088-3.3219-3.5906l-.0997-.0257-.0666-.0158-.0727-.0161-.0788-.0164-.1295-.0251-.1432-.0258-.103-.0175-.166-.0269-.2424-.037-.1978-.0284-.2115-.0292-.2251-.0298c-.0361-.0053-.0645-.0328-.0719-.0679l-.0018-.0135c-.0473-.9171-.0416-1.8338.017-2.75.002-.0355.0285-.0638.0622-.0691zm25.7602 11.0414c.7837.1115 1.5032.3829 2.1583.8143.432.2848.7828.7034 1.0522 1.2557.3649.7486.5474 1.5415.5474 2.3786l.0031 7.0893.0011 7.1593c0 .0357-.0256.0655-.0593.0717l-.013.0011h-13.551l-.3588-.0017-.3907-.0041-.2365-.0041-.2685-.0068-.1467-.0048-.2204-.0095-.1904-.0112-.0998-.0076-.0605-.0054-.0818-.0086-.0709-.0092-.0413-.0065c-.0064-.0011-.0127-.0022-.0188-.0033-.7969-.1486-1.5216-.4872-2.1739-1.0157-.4689-.3791-.8295-.861-1.0819-1.4458-.3111-.7238-.467-1.5661-.468-2.5271l-.0014-11.3732c0-.7604 0-1.5212 0-2.2825 0-.025.0099-.049.0274-.0667.0176-.0177.0414-.0276.0662-.0276l13.8403.0007.383.0022.3932.0042.3786.0073.2345.0071.1628.0071.0836.0046.073.0051.0807.0073zm18.9622-.0759.398.0031c2.146.019 4.316.0285 6.51.0286l.732-.0003c.978-.0009 1.96-.0037 2.947-.0083.032 0 .062.0125.085.0348.018.0186.03.0426.033.0682l.001.0155-.001 2.7472c0 .0506-.038.0925-.087.0991l-.014.0009-7.538.0086c-.041-.0004-.076.0304-.081.0714-.005.0348-.009.0726-.012.1133l-.007.0853c-.001.0148-.002.03-.003.0455l-.005.0969-.003.1047-.003.1125-.001.1202v15.0187c0 .0398-.029.0728-.067.079l-.012.001h-2.96c-.052 0-.102-.0207-.139-.0577-.033-.0324-.053-.0748-.057-.1199l-.001-.0195-.026-15.5343c0-.0641-.047-.117-.107-.1247l-.016-.001h-7.5099c-.0525 0-.095-.0429-.095-.0957l.0085-2.7872c0-.0402.0323-.0728.0723-.0728 1.4725.0007 2.9447-.0049 4.4166-.0169l1.1038-.0103c.8257-.0089 1.6383-.0109 2.4377-.0059zm-76.2868-10.9784c1.0664.0372 2.1077.0553 3.124.0543l5.6545-.0068c3.7696-.004 7.5393-.0066 11.3089-.0079l5.6545-.001c.0391 0 .0709.032.0709.0714l.0099 2.7643c0 .0316-.0248.0572-.0553.0572l-11.5897.0343c-.0697 0-.1262.0562-.1262.1257l-.0085 7.2243.0009.0145c.0064.0475.0438.0852.091.0916l.0144.001 12.7993.0086c.0911 0 .166.0697.175.159l.0009.0181v2.6272c0 .0633-.0471.1156-.1079.1233l-.0155.0009h-12.605c-.0184.0001-.0357.009-.0466.0239s-.0141.0342-.0087.0519c.6663 2.1464 1.6275 4.1203 2.8835 5.9215l.049.0699c1.2514 1.7801 2.7092 3.2916 4.3732 4.5343 1.6006 1.1952 3.3921 2.1419 5.3744 2.84.0409.0145.0682.0535.0681.0971v2.8229c-.0001.0302-.0138.0587-.0372.0775-.0117.0095-.0252.016-.0395.0193l-.0144.0024h-.0147c-.0049-.0003-.0098-.001-.0147-.0021-1.1146-.2562-2.155-.599-3.1211-1.0286-2.4902-1.1063-4.6663-2.5473-6.5284-4.3228-1.9321-1.8422-3.526-4.0446-4.782-6.6072-.0213-.0434-.0411-.0658-.0593-.0671l-.0068.0005c-.0153.0034-.0294.0223-.0424.0567l-.0064.0185c-.0331.1034-.0697.2072-.1097.3113l-.0411.1043c-.0846.2086-.1827.4187-.2944.6301-1.9683 3.7219-4.7382 6.6805-8.3098 8.8757-1.557.9581-3.2095 1.6324-4.9575 2.0229-.0055.0012-.0111.0021-.0166.0026l-.0167.0004c-.0276-.0011-.0546-.0112-.0766-.0293-.0309-.0253-.0489-.0634-.0489-.1037v-2.6743c0-.0668.0416-.1262.1035-.1486 1.2855-.4572 2.4848-1.0264 3.5978-1.7076 2.3182-1.4188 4.2623-3.3234 5.8322-5.7138 1.1884-1.8086 2.0538-3.7709 2.5965-5.8871.0096-.0374.0016-.0771-.0217-.1078-.0199-.0262-.0491-.0434-.0812-.0481l-.0162-.0013-11.9017-.0328c-.0555-.0007-.101-.042-.1082-.0952l-.001-.0148v-2.6672c0-.0788.0592-.1436.1352-.1519l.0165-.0009h12.2832c.0438 0 .0794-.0358.0794-.08v-7.2957c0-.0442-.0356-.08-.0794-.08l-11.014-.0172c-.0603 0-.1092-.0492-.1092-.11v-2.7143c0-.0363.0146-.0712.0405-.0965.0216-.0211.0495-.034.0791-.0372zm146.6518 11.0029c.032 0 .063.0128.085.0356.023.0227.035.0536.035.0858v5.5725l-.004 6.9132c-.001.7305.122 1.3586.367 1.8843.125.2663.301.4854.526.6571.206.1563.453.2735.742.3515.45.1211.957.1824 1.521.184l.106-.0004.108-.0018.224-.0063.148-.0021.232-.0012.23.0002.629.0041.712.0081c.029.0003.058.0007.088.0011.035.0007.063.0269.069.0611l.002.0132.017 2.9286c0 .0391-.032.0713-.071.0728-.738.0169-1.475.0268-2.213.0297l-.553.0008c-.369-.0003-.738-.0024-1.107-.0062-1.305-.0133-2.418-.3914-3.341-1.1343-1.08-.8695-1.624-2.0628-1.629-3.58l-.009-2.3077-.007-2.3156-.006-2.3235c0-.3879-.001-.7761-.002-1.1646l-.003-2.3353c-.001-1.1695-.002-2.3421-.002-3.5176 0-.0494.036-.0904.083-.0975l.014-.001zm-19.172 18.7857c-.076 0-.145-.0439-.179-.1124l-.008-.0176-2.73-6.9014c-.014-.0357-.046-.0602-.084-.0639l-.014-.0004-.167.0091c-1.002.0597-1.989.2174-2.96.4731l-.161.0435c-1.791.4934-3.337 1.2954-4.639 2.4062-1.261 1.0762-2.293 2.4422-3.095 4.0981l-.008.0135c-.019.0278-.048.0463-.081.051l-.016.0012-3.08-.0071c-.039-.0004-.076-.0178-.101-.0473l-.01-.0134c-.025-.0374-.03-.0848-.013-.1265l2.311-5.6737 3.438-8.4483c.19-.4673.38-.9342.57-1.4008.291-.7143.7-1.3291 1.227-1.8443.541-.5305 1.157-.8924 1.85-1.0857 1.118-.3115 2.184-.1286 3.198.5485.3.2005.574.435.82.7036l.057.0626c.201.2275.385.4784.549.7529l.062.1059.035.0654.053.1069.049.1056.071.1571.082.185.131.3059.198.4737.231.564.981 2.4045 1.959 4.8012 1.957 4.7911.977 2.3918c.011.0268.008.0576-.008.082-.013.0203-.035.034-.058.0381l-.015.0013zm8.154-18.7771c.058 0 .105.0441.112.1012l.001.0145v12.1614c0 .6191.066 1.1819.199 1.6886.106.4067.265.7257.478.9571.256.2791.574.4686.954.5686.435.1143.919.1746 1.452.1809l.108.0005.49-.001 1.484-.0017c.166-.0001.332-.0001.499-.0001.039 0 .072.029.078.067l.001.013v2.9557c0 .0351-.025.0642-.058.0703l-.013.0011h-4.112c-1.151 0-2.193-.3781-3.128-1.1343-1.096-.8857-1.645-2.1028-1.648-3.6514-.007-4.6314-.01-9.2629-.01-13.8943 0-.0536.043-.0971.095-.0971zm-44.448-.0267.06.0013c.162.006.325.032.491.0782.353.0972.651.2462.893.4472.534.4441 1.09.8176 1.666 1.1207.793.4171 1.625.7007 2.497.8507.596.1028 1.203.1548 1.821.1562l.143-.0006c.286-.003.575-.0167.865-.0413 1.562-.1324 2.965-.6667 4.211-1.6029l.076-.0571.148-.1095c.073-.0532.144-.1039.214-.1523l.136-.0934c.134-.0903.26-.1709.378-.242.359-.2142.718-.3295 1.078-.3457.627-.0292 1.108.1712 1.442.6011.081.1031.152.2194.216.3489.145.2981.225.7305.238 1.2972.018.8047.021 1.6095.01 2.4143l-.016 1.253-.007.7391-.001.3037v.1142c.012 3.8742.014 7.749.004 11.6242 0 .0411-.032.0743-.071.0743l-3.084.0172c-.035 0-.064-.0253-.07-.0586l-.001-.0129-.008-13.86c-.001-.0285-.015-.055-.038-.0708-.012-.0079-.026-.0126-.039-.0139l-.014-.0002-.014.0021-.013.0043c-1.958.829-3.916 1.2433-5.876 1.2428-1.959-.0004-3.919-.4157-5.88-1.2457l-.013-.0043-.015-.0015-.014.0013c-.009.0018-.018.0054-.026.0108-.02.0135-.032.0364-.032.0609l-.009 13.8428c0 .056-.044.1014-.099.1014l-3.056.0086c-.035 0-.064-.0253-.07-.0586l-.001-.0128v-16.1468l.002-.1431c0-.0234.001-.0465.001-.0693l.004-.134c0-.0218.001-.0433.002-.0646l.006-.1247.007-.1186.009-.1123c.027-.3097.072-.5452.135-.7066.039-.1008.085-.1948.137-.2822.245-.4111.631-.6733 1.159-.7864.138-.03.277-.0446.418-.0438zm-41.3556 10.7681h-5.2595c-.0717-.0001-.1309.0571-.1347.13-.069 1.2314-.0052 2.3891.1914 3.4729.0879.4885.3129.8738.675 1.1557.4122.3219.8991.5019 1.4606.54.6454.0438 1.3126.0664 2.0017.0679l.2073-.0002c.2774-.0011.5583-.0056.8426-.0134.078-.0016.1404-.0657.1404-.1443v-5.0829c0-.0694-.0558-.1257-.1248-.1257zm8.2956 0h-5.3148c-.0494 0-.0894.0403-.0894.09v5.18c0 .0497.04.09.0894.09h5.3148c.0494 0 .0894-.0403.0894-.09v-5.18c0-.0497-.04-.09-.0894-.09zm62.391-7.016-.044.001c-.178.0071-.356.0521-.534.135-.281.13-.503.3279-.669.5937l-.032.0538-.023.0489-.131.3113-.202.4866c-.68 1.6491-1.383 3.3102-2.111 4.9834l-.274.628c-.013.0299-.012.0443.002.0432l.006-.0011c.007-.0019.016-.0059.026-.0121 2.152-1.2562 4.43-1.9505 6.835-2.0828.017-.0009.032-.0095.041-.0233s.011-.0311.006-.0467l-.058-.1609-.171-.4738-.168-.4604-.165-.4472-.163-.4338-.106-.2818-.106-.2759-.104-.27-.102-.264-.102-.2582-.1-.2522-.099-.2463-.097-.2404c-.017-.0396-.033-.0789-.049-.118-.17-.4152-.443-.6962-.819-.8429-.144-.0558-.288-.0866-.432-.0922zm-70.6001-.914h-5.4538c-.0211 0-.0383.0173-.0383.0386v5.1028c0 .0213.0172.0386.0383.0386h5.4538c.0212 0 .0383-.0173.0383-.0386v-5.1028c0-.0213-.0171-.0386-.0383-.0386zm2.8758.0014c-.0399 0-.0723.0333-.0723.0743v4.9486c0 .0413.0163.0809.0453.1101s.0683.0456.1093.0456h5.1929c.0775.0001.1409-.0613.1432-.1386.0303-1.0162.008-1.9819-.0666-2.8971-.0388-.4733-.1532-.8786-.3432-1.2157-.1758-.3143-.4391-.5495-.7899-.7057-.3327-.1477-.6905-.2219-1.0734-.2229-.5129-.0019-1.0314-.0027-1.5556-.0025l-.7906.0012c-.2649.0006-.5313.0015-.7991.0027zm-7.9297-13.8457 2.5667.0329c.035.0007.0638.0258.0698.0587l.0011.0127.0085 3.0529c0 .0647.0514.1171.1149.1171h7.4674c.0621 0 .1127-.0516.1134-.1157l.0213-3.0357c.0008-.0413.0336-.0743.0738-.0743l2.6475-.0172.0183.001c.0364.004.0706.0208.0969.0479.0262.0271.0426.0627.0468.1006l.001.0191.0071 2.9929c0 .0346.0254.0635.0593.07l.013.0014 2.8532.0514c.0401.0008.0729.0339.0751.0757.0596.9039.0652 1.8086.017 2.7143-.002.0364-.0288.0657-.0633.0718l-.0133.0011-2.8587.0228c-.0319.0004-.0622.0136-.0839.0366-.0217.0229-.0329.0536-.031.0849.0444.8162.0402 1.6514-.0128 2.5057-.0027.0448-.0362.0808-.079.0874l-.0146.0012h-2.6829c-.047 0-.0859-.0349-.0926-.0804l-.001-.0139v-2.5043c0-.0307-.0121-.0601-.0336-.0818-.0216-.0217-.0508-.0339-.0813-.0339l.0128.0007-.0063-.0005-7.4682.0083c-.0418 0-.0758.0318-.0766.0715l-.0369 2.5528-.0012.0133c-.0059.0345-.0323.0615-.0654.0671l-.0128.0011h-2.6702c-.0592 0-.1082-.0442-.1153-.1012l-.0009-.0146-.0085-2.4742c-.0008-.0636-.0477-.1157-.1081-.1234l-.0153-.0009-2.8446-.0086c-.04 0-.0723-.0326-.0723-.0729l-.0086-2.7057c-.0006-.0394.0311-.0726.0724-.0757.9208-.0743 1.8798-.0947 2.8772-.0614l.0155-.0008c.0204-.0027.0396-.012.0545-.0266.015-.0147.0247-.0337.028-.0542l.0013-.0156v-2.96c-.0001-.0592.0238-.1159.0661-.1575.0371-.0365.0857-.0586.1371-.0631z" fill="#fff" fill-opacity=".5" fill-rule="evenodd"/></g></svg>