<svg fill="none" height="120" viewBox="0 0 200 120" width="200" xmlns="http://www.w3.org/2000/svg"><path clip-rule="evenodd" d="m114.742 45.7192c-.567-.1622-1.162-.2105-1.748-.1422-.587.0684-1.154.252-1.669.5403s-.969.6756-1.334 1.1397-.634.9958-.793 1.5645l-2.119 7.4895h-10.1054l1.4238-4.9776c.2444-.5829.363-1.2108.3481-1.8427-.015-.6319-.1631-1.2536-.4348-1.8243s-.6608-1.0776-1.1418-1.4877c-.481-.41-1.0432-.7139-1.6497-.8917-.6066-.1779-1.2438-.2257-1.8701-.1404s-1.2275.3018-1.7644.6354c-.5369.3337-.9973.7768-1.3511 1.3006s-.5931 1.1163-.7023 1.7389l-6.0425 21.0332c-.2002.6722-.2405 1.3819-.1178 2.0724.1226.6906.4049 1.3429.8242 1.9051.4194.5621.9643 1.0186 1.5913 1.3329s1.3187.4778 2.0201.4775c.9767-.0019 1.9261-.323 2.7035-.9144s1.3402-1.4207 1.6027-2.3615l2.1299-7.478h10.1053l-1.423 4.966c-.33 1.1482-.191 2.3801.387 3.4258.577 1.0458 1.545 1.8202 2.692 2.1537.401.1254.818.1955 1.238.2084.972-.0107 1.914-.3355 2.686-.926.772-.5904 1.333-1.4148 1.597-2.3499l5.997-21.0333c.168-.5708.222-1.1692.158-1.7609-.064-.5916-.244-1.1648-.53-1.6866-.287-.5217-.673-.9818-1.138-1.3536-.464-.3719-.998-.6482-1.57-.8131zm-36.6134-.0001c-.5678-.1605-1.1616-.2076-1.7476-.1386s-1.1526.2528-1.6676.5409c-.5149.2881-.968.6749-1.3334 1.1382-.3654.4632-.636.994-.7962 1.5619l-3.2528 11.4716-8.103-12.6755c-.4576-.7362-1.119-1.3238-1.9039-1.6916-.7849-.3677-1.6596-.4999-2.5181-.3805-.8603.1362-1.663.5177-2.3119 1.0988-.6488.5811-1.1162 1.337-1.3461 2.1772l-5.9731 21.0332c-.3292 1.1482-.1901 2.38.3871 3.4258.5771 1.0458 1.5451 1.8202 2.6921 2.1537.4015.1254.8182.1955 1.2386.2084.9758-.0057 1.9234-.3283 2.7-.9191s1.3403-1.418 1.6062-2.3569l3.2528-11.4716 8.1031 12.7334c.4574.7381 1.12 1.3268 1.9067 1.6944.7867.3675 1.6635.4978 2.5231.375s1.6648-.4934 2.3172-1.0665c.6523-.5731 1.1235-1.3239 1.356-2.1605l5.95-21.1374c.1682-.5708.222-1.1692.1582-1.7609-.0639-.5916-.2441-1.1648-.5302-1.6866-.2862-.5218-.6727-.9818-1.1373-1.3536-.4646-.3719-.9981-.6482-1.5699-.8132zm73.1544.4503c.507.3002.949.6979 1.301 1.1702.719.9528 1.031 2.1513.868 3.3335-.163 1.1823-.787 2.252-1.736 2.9753l-9.862 7.5011 6.332 6.876c.811.8781 1.243 2.0418 1.199 3.2369-.043 1.1951-.558 2.3245-1.431 3.1414-.43.4027-.936.7162-1.488.9221-.552.206-1.14.3004-1.729.2778s-1.167-.1618-1.702-.4095-1.015-.5989-1.413-1.0335l-9.724-10.534c-.032-.032-.057-.0712-.082-.1115-.021-.0325-.042-.0658-.068-.0968-.049-.0434-.096-.0898-.139-.1389l-2.57 9.0522c-.266.9389-.829 1.7661-1.606 2.3569s-1.724.9134-2.7.9191c-.419-.0016-.836-.06-1.239-.1736-1.147-.3335-2.115-1.108-2.692-2.1538-.577-1.0457-.716-2.2776-.387-3.4258l5.939-20.9985c.139-.5914.398-1.1483.759-1.637.362-.4886.819-.8988 1.343-1.2057.525-.3069 1.106-.5042 1.709-.5799s1.215-.0282 1.799.1396c.585.1678 1.129.4524 1.599.8366.471.3841.859.8599 1.141 1.3984.282.5386.451 1.1287.498 1.7346s-.029 1.2151-.224 1.7906l-1.32 4.7693 12.652-9.6427c.469-.3571 1.004-.6179 1.573-.767.57-.1492 1.164-.1839 1.748-.1021.583.0818 1.145.2785 1.652.5787z" fill="#fff" fill-opacity=".5" fill-rule="evenodd"/></svg>