<svg width="60" height="120" viewBox="0 0 60 120" fill="none" xmlns="http://www.w3.org/2000/svg">
<g clip-path="url(#clip0_829_10346)">
<path d="M-123.907 46.3085C-123.745 46.3682 -123.571 46.3816 -123.403 46.348L-123.34 46.3331C-123.039 46.2512 -122.855 46.361 -122.79 46.6624C-122.776 46.7253 -122.715 46.7665 -122.652 46.7558C-122.237 46.6788 -121.944 46.8433 -121.774 47.2494L-121.753 47.3014C-121.65 47.5767 -121.46 47.6693 -121.183 47.5791C-121.101 47.5529 -121.023 47.5447 -120.947 47.5546C-120.449 47.6135 -120.222 47.3915 -120.267 46.8885C-120.276 46.7825 -120.241 46.6776 -120.17 46.6008C-120.099 46.5241 -120 46.4829 -119.898 46.488L-116.093 46.6846C-116.002 46.6775 -115.913 46.6916 -115.828 46.7267L-115.786 46.746C-115.413 46.8181 -115.1 46.746 -114.847 46.5297C-114.802 46.4917 -114.731 46.4992 -114.685 46.5469L-114.422 46.8271C-114.402 46.8489 -114.372 46.8597 -114.338 46.8569C-114.305 46.8541 -114.272 46.838 -114.246 46.8124C-114.142 46.7141 -114.02 46.6518 -113.88 46.6256C-113.838 46.6172 -113.77 46.6313 -113.691 46.6644L-113.202 46.8861C-113.153 46.9076 -113.084 46.9107 -113.007 46.8953L-112.968 46.8861C-112.149 46.6665 -111.401 46.8582 -110.723 47.4612C-110.626 47.5473 -110.577 47.6758 -110.593 47.8052C-110.689 48.6097 -110.711 49.3191 -110.659 49.9335C-110.485 51.975 -110.473 53.9321 -110.622 55.8048C-110.637 55.9934 -110.799 56.1356 -110.988 56.1243C-111.411 56.103 -111.516 56.2636 -111.303 56.606C-111.219 56.7414 -111.244 56.9177 -111.362 57.0263C-111.678 57.3163 -111.729 57.6423 -111.516 58.0044C-110.716 59.3692 -110.638 60.8102 -111.283 62.3274C-111.296 62.3591 -111.291 62.3951 -111.271 62.4229C-111.251 62.4507 -111.219 62.4665 -111.185 62.465C-110.738 62.4413 -110.52 62.6217 -110.532 63.0063L-110.563 63.4775C-110.509 66.9461 -110.535 70.4138 -110.639 73.8807C-110.64 73.9065 -110.655 73.9298 -110.678 73.9427C-110.7 73.9556 -110.729 73.9563 -110.752 73.9446C-111.527 73.5661 -112.345 73.3842 -113.206 73.399C-113.294 73.4006 -113.371 73.4277 -113.425 73.4752C-113.576 73.6115 -113.51 73.6894 -113.229 73.7088L-113.189 73.7111C-112.868 73.7275 -112.813 73.8086 -113.022 73.9544C-113.135 74.0326 -113.354 74.0982 -113.679 74.1513L-113.815 74.1718C-113.839 74.1752 -113.863 74.1784 -113.887 74.1816L-114.04 74.2002C-114.093 74.2061 -114.147 74.2119 -114.204 74.2174C-114.512 74.2469 -114.906 74.2141 -115.388 74.1191C-115.837 74.0322 -116.291 73.9921 -116.751 73.9986C-116.814 73.9986 -116.89 73.9782 -116.98 73.9372L-117.265 73.8069C-117.326 73.7789 -117.41 73.7825 -117.496 73.8168C-118.013 74.0298 -118.631 74.1576 -119.348 74.2002C-119.59 74.2153 -119.784 74.1648 -119.929 74.0487L-119.965 74.0183C-120.019 73.9672 -120.079 73.9432 -120.112 73.9593C-120.133 73.9691 -120.146 73.988 -120.149 74.0158C-120.153 74.0467 -120.136 74.0863 -120.102 74.1215C-119.926 74.3067 -119.93 74.4409 -120.113 74.5241L-120.312 74.6023L-120.446 74.6522L-120.476 74.6622C-120.603 74.7064 -120.726 74.6974 -120.844 74.6352C-120.918 74.5975 -120.917 74.5549 -120.842 74.5074L-120.805 74.4846L-120.738 74.4413C-120.728 74.4344 -120.718 74.4276 -120.709 74.4209L-120.656 74.3822L-120.612 74.3466C-120.474 74.2275 -120.502 74.1646 -120.697 74.158L-120.757 74.1576L-120.826 74.1603L-120.904 74.1661C-120.918 74.1673 -120.932 74.1687 -120.946 74.1701L-121.038 74.1805C-121.138 74.192 -121.241 74.1952 -121.348 74.1903C-121.922 74.1582 -122.481 74.2346 -123.025 74.4194L-123.141 74.4607C-123.452 74.577 -123.764 74.613 -124.077 74.5688L-125.878 74.3181C-126.002 74.3007 -126.118 74.3568 -126.162 74.4558C-126.261 74.6638 -126.405 74.7818 -126.595 74.8097C-126.673 74.8203 -126.751 74.7872 -126.796 74.7236L-127.396 73.8905C-127.454 73.8084 -127.548 73.7676 -127.634 73.7873C-128.078 73.8905 -128.47 73.8971 -128.811 73.8069C-128.883 73.7877 -128.963 73.7902 -129.042 73.8143C-129.264 73.8852 -129.419 73.8314 -129.509 73.6527L-129.526 73.6177C-129.576 73.497 -129.713 73.4286 -129.855 73.453L-131.633 73.7602C-131.686 73.7697 -131.754 73.7595 -131.827 73.7315L-131.864 73.716C-132.303 73.5221 -132.726 73.5416 -133.133 73.7747L-133.191 73.8094C-133.341 73.9028 -133.416 73.861 -133.414 73.6841C-133.409 73.4137 -133.472 73.3179 -133.603 73.3965L-133.684 73.4428L-133.722 73.4637L-133.747 73.4766L-133.756 73.4801C-134.378 73.716 -135.022 73.7611 -135.687 73.6152C-135.767 73.5972 -135.846 73.5997 -135.925 73.6226C-136.521 73.7897 -137.122 73.8119 -137.728 73.689C-137.797 73.6759 -137.866 73.639 -137.937 73.5784C-138.096 73.4457 -138.282 73.3793 -138.494 73.3793C-138.525 73.3794 -138.553 73.367 -138.573 73.3452C-138.593 73.3235 -138.602 73.2946 -138.598 73.2663L-138.581 73.151L-138.549 72.9286L-138.522 72.7168L-138.498 72.5158L-138.477 72.3256L-138.461 72.146L-138.448 71.9772L-138.439 71.8191L-138.433 71.6717C-138.429 71.5061 -138.432 71.3623 -138.443 71.2405L-138.448 71.1896C-138.571 70.0836 -138.551 68.9818 -138.389 67.8841C-138.38 67.82 -138.319 67.7732 -138.246 67.7759C-137.988 67.7825 -137.874 67.6727 -137.905 67.4466L-137.92 67.3369L-137.93 67.2437L-137.937 67.167C-137.941 67.1214 -137.941 67.0868 -137.939 67.0632C-137.879 66.2948 -137.848 65.5247 -137.848 64.753C-137.848 64.6892 -137.904 64.6375 -137.974 64.6375C-138.309 64.6359 -138.474 64.4835 -138.467 64.1804L-138.462 63.8638L-138.462 63.8248L-138.463 63.8191C-138.511 63.1941 -138.531 62.5684 -138.52 61.9421L-138.514 61.6654L-138.516 61.6178L-138.53 61.4628C-138.531 61.4494 -138.532 61.4352 -138.534 61.4205C-138.555 61.1907 -138.435 61.0147 -138.172 60.8923L-138.121 60.87C-137.931 60.7915 -137.791 60.6232 -137.748 60.4202C-137.684 60.1368 -137.742 59.8665 -137.922 59.6092L-138.005 59.4876C-138.174 59.2346 -138.27 59.0498 -138.293 58.9334C-138.349 58.6499 -138.353 58.3648 -138.305 58.0781C-138.245 57.721 -138.228 57.4465 -138.254 57.2548C-138.337 56.6699 -138.453 56.0907 -138.6 55.5173C-138.614 55.4668 -138.643 55.41 -138.687 55.347L-138.716 55.3084C-138.842 55.1462 -138.841 54.9815 -138.713 54.8144C-138.659 54.7421 -138.638 54.6621 -138.657 54.6006L-138.77 54.2221C-138.791 54.1512 -138.772 54.0771 -138.723 54.0304C-138.441 53.7666 -138.489 53.5209 -138.865 53.2931C-138.934 53.2512 -138.959 53.1641 -138.922 53.0941C-138.65 52.5665 -138.504 52.0053 -138.485 51.4106L-138.443 50.1769C-138.4 49.4854 -138.465 48.8039 -138.637 48.1321C-138.901 48.0174 -138.986 47.8134 -138.892 47.5202C-138.845 47.3688 -138.751 47.3094 -138.611 47.3422L-138.58 47.3506L-138.519 46.9328C-138.514 46.9025 -138.496 46.8758 -138.469 46.8594C-138.442 46.843 -138.408 46.8384 -138.377 46.8468C-137.804 46.9993 -137.284 46.9692 -136.816 46.7565L-136.743 46.7214C-136.558 46.628 -136.399 46.6264 -136.266 46.7165C-136.189 46.7705 -136.112 46.8009 -136.05 46.8025C-134.765 46.8566 -133.479 46.9082 -132.193 46.9574L-132.035 46.9434L-131.719 46.9131C-131.505 46.8918 -131.302 46.9508 -131.112 47.0901C-131.052 47.1334 -130.976 47.1582 -130.894 47.1613L-128.634 47.2597C-128.552 47.2627 -128.477 47.2361 -128.425 47.1859C-127.469 46.2848 -126.347 46.0358 -125.059 46.4388C-125.011 46.427 -124.962 46.4246 -124.912 46.4317L-124.875 46.4388C-124.656 46.193 -124.333 46.1496 -123.907 46.3085ZM-133.431 63.4453C-133.457 63.4507 -133.478 63.4683 -133.488 63.4923L-135.252 67.7145C-135.336 67.916 -135.277 68.1505 -135.107 68.292C-134.785 68.5574 -134.476 68.8051 -134.18 69.0348L-133.887 69.2587C-133.695 69.404 -133.509 69.5413 -133.328 69.6708C-132.971 69.9263 -132.614 70.0541 -132.257 70.0541C-131.712 70.0525 -131.094 69.9395 -130.403 69.715L-127.948 68.9187C-127.913 68.9076 -127.886 68.8785 -127.877 68.8421C-127.869 68.8058 -127.88 68.7677 -127.907 68.7418L-133.363 63.4652C-133.381 63.4473 -133.406 63.4399 -133.431 63.4453ZM-135.397 51.821C-135.446 51.8496 -135.479 51.8991 -135.486 51.9552C-135.494 52.0113 -135.475 52.0679 -135.436 52.1085C-130.536 57.2647 -125.679 62.4101 -120.866 67.5449C-120.37 68.0741 -119.878 68.6074 -119.39 69.1448C-119.085 69.4791 -118.6 69.6691 -117.935 69.715C-117.798 69.7244 -117.666 69.7323 -117.537 69.7386L-117.284 69.7492C-117.243 69.7507 -117.202 69.7519 -117.162 69.753L-116.925 69.7575C-116.347 69.7636 -115.869 69.7314 -115.491 69.6609C-115.416 69.6484 -115.351 69.5979 -115.317 69.5258C-114.689 68.2019 -114.183 66.7126 -113.799 65.0578C-113.705 64.6531 -113.823 64.3254 -114.152 64.0747L-114.226 64.0191L-114.383 63.9047C-114.411 63.8852 -114.438 63.8656 -114.467 63.8458L-114.642 63.7248L-114.831 63.5994C-114.895 63.5568 -114.962 63.5136 -115.031 63.4696L-115.244 63.3355L-115.47 63.197C-115.508 63.1735 -115.547 63.1499 -115.587 63.1261C-116.127 62.8 -116.579 62.6018 -116.94 62.5313C-116.999 62.5188 -117.035 62.4573 -117.022 62.3937C-116.986 62.2233 -117.047 62.0841 -117.206 61.9759C-121.297 59.1857 -125.422 56.4479 -129.582 53.7625C-129.989 53.4994 -130.441 53.1706 -130.94 52.7762L-131.274 52.5104C-131.783 52.109 -132.214 51.8071 -132.567 51.6047C-133.402 51.1263 -134.345 51.1984 -135.397 51.821ZM34.2421 51.6269L36.1189 53.1063C36.1776 53.1533 36.2051 53.2309 36.1902 53.3079C36.1263 53.6093 36.0632 53.9108 36.001 54.2123C35.9388 54.5088 35.906 54.8128 35.9027 55.1241L35.8976 55.5649L35.8917 55.9976L35.8814 56.6313L35.8736 57.0435L35.8603 57.6466L35.8505 58.0384L35.8342 58.6108L35.8225 58.9822L35.8033 59.5239L35.7896 59.8749L35.7674 60.386L35.7517 60.7165L35.7267 61.197L35.709 61.5071L35.681 61.957L35.6613 62.2466L35.6304 62.6658L35.6087 62.9351L35.5748 63.3236L35.5513 63.5725L35.5392 63.6938C35.3852 65.2126 35.1396 66.4005 34.8022 67.2574C34.4485 68.1536 33.8695 68.8655 33.0654 69.393C32.9818 69.4481 32.8742 69.4481 32.7927 69.393C31.5183 68.5462 30.1319 67.9858 28.6336 67.7118L28.4667 67.6825C28.0589 67.6154 27.986 67.4949 28.2481 67.3213C28.3103 67.2797 28.3902 67.2583 28.4765 67.2598C29.3445 67.2844 30.2125 67.2844 31.0805 67.2598C31.4784 67.2484 31.7863 67.1394 32.0042 66.933C32.4496 66.5102 32.7272 65.9016 32.8369 65.1069C33.4151 60.9044 33.6419 57.1762 33.5174 53.9223C33.5149 53.8536 33.4595 53.7982 33.3897 53.7945C31.9368 53.7086 30.4827 53.6679 29.0273 53.6726L28.474 53.6764L28.2868 53.6647L28.108 53.6519C27.7412 53.6257 27.5684 53.7937 27.5897 54.1558L27.6087 54.5129L27.6093 54.5588C27.5258 56.887 27.1549 58.9645 26.4965 60.7913C25.5024 63.5439 23.8983 65.8721 21.6841 67.7759C20.9504 68.4067 20.1217 68.863 19.198 69.1448C19.008 69.2022 18.9016 69.1825 18.8787 69.0858C18.8635 69.0262 18.8999 68.9466 18.972 68.8819C23.4299 64.9595 25.5303 59.9779 25.2731 53.937C25.2702 53.867 25.2168 53.8085 25.1454 53.7969C23.3095 53.4824 21.463 53.2407 19.6058 53.0719C19.5272 53.0654 19.4715 53.0416 19.4388 53.0007C19.4011 52.9515 19.3995 52.9032 19.4339 52.8557C19.4687 52.8039 19.5489 52.7722 19.6451 52.7721C21.5256 52.761 23.4061 52.7551 25.2867 52.7541L27.188 52.7556L29.2921 52.8385C30.545 52.8876 31.7863 52.7729 33.0163 52.4944C33.5076 52.383 33.8449 52.1135 34.0284 51.6858C34.046 51.6454 34.0808 51.6149 34.1226 51.6033C34.1644 51.5918 34.2086 51.6005 34.2421 51.6269ZM53.5164 62.293L55.4546 63.8118C55.5096 63.8542 55.5277 63.9335 55.4989 64.0059C55.1795 64.8071 55.0567 65.5837 55.1304 66.3358C55.2057 67.1173 55.2106 67.7939 55.1451 68.3658C55.1358 68.4435 55.0926 68.5129 55.0272 68.555C54.5392 68.8663 54.0061 69.0588 53.428 69.1325C53.3537 69.1415 53.2792 69.1076 53.2339 69.0441C52.7384 68.3529 52.0466 68.0578 51.1584 68.1585L51.0746 68.1691C50.3982 68.2625 49.6628 68.2887 48.8686 68.2478C48.7341 68.24 48.6026 68.29 48.5074 68.3854C48.0128 68.8769 47.5166 69.1915 47.0187 69.3291C46.9221 69.3562 46.8183 69.3377 46.737 69.2788C46.6557 69.22 46.6057 69.1272 46.6011 69.0269C46.5444 67.8355 46.518 66.6779 46.522 65.5539L46.5243 65.118L46.466 63.9789C46.4464 63.5578 46.484 63.14 46.579 62.7255C46.5965 62.6527 46.6587 62.6005 46.7313 62.5977C47.3194 62.5806 47.7878 62.7062 48.1365 62.9744L48.1905 63.018C48.5132 63.2899 48.8456 63.4218 49.1879 63.4136L49.6522 63.4038C50.7773 63.4759 51.8598 63.2981 52.8998 62.8705C53.1242 62.7771 53.238 62.6329 53.2413 62.438C53.2429 62.2004 53.3346 62.1521 53.5164 62.293ZM-60.5891 53.2636C-58.7811 54.0501 -57.5937 55.4296 -57.0271 57.4023C-56.1574 60.4366 -56.5669 63.2047 -58.2553 65.7066C-59.3624 67.345 -60.9322 68.4198 -62.9646 68.931C-65.2459 69.5045 -67.3586 69.3554 -69.3026 68.4837C-70.8584 67.7841 -72.0793 66.7314 -72.9653 65.3257C-73.8955 63.8478 -74.3304 62.1774 -74.2698 60.3146C-74.1944 58.047 -73.4296 56.1882 -71.9753 54.7382C-70.8682 53.6372 -69.4361 52.8958 -67.6788 52.5141C-65.2943 51.9963 -62.931 52.2462 -60.5891 53.2636ZM-98.015 52.4723C-95.506 52.5771 -92.9954 52.6058 -90.4832 52.5583C-88.0937 52.5124 -86.0106 52.9933 -84.2336 54.0009C-82.4764 54.9987 -81.4069 56.5913 -81.0253 58.7785C-80.6913 60.6922 -80.8509 62.4339 -81.5044 64.0035C-81.9957 65.1864 -82.781 66.2055 -83.8602 67.0608C-84.9542 67.9291 -86.1588 68.4862 -87.4739 68.7319C-88.9444 69.0072 -90.6936 69.0931 -92.7214 68.9895L-93.6307 68.9395L-94.3947 68.9008L-94.9771 68.8747L-95.5102 68.854L-96.0848 68.8364L-96.5093 68.8277L-96.8135 68.8248L-97.0861 68.8253L-97.2698 68.828L-97.3824 68.8309L-97.5365 68.8369L-97.6294 68.842L-97.7539 68.8513L-97.8735 68.8618L-97.9455 68.8656C-98.1798 68.8739 -98.229 68.8258 -98.0931 68.7215L-98.0493 68.6902L-97.9954 68.6558C-97.9446 68.6246 -97.8873 68.6074 -97.8234 68.6041C-97.4517 68.5861 -97.1675 68.5288 -96.971 68.4321C-96.6696 68.2863 -96.5034 68.0471 -96.4723 67.7145C-96.3773 66.7314 -96.3364 65.8008 -96.3495 64.9226L-96.3841 62.5392L-96.409 60.3175L-96.4197 58.7304L-96.4215 58.0977L-96.4213 57.4887L-96.4179 56.8126L-96.4124 56.3238L-96.4046 55.9027L-96.392 55.4869L-96.3818 55.264L-96.3789 55.215C-96.3364 54.4859 -96.4453 53.8518 -96.7057 53.3128C-96.7405 53.2414 -96.7995 53.1841 -96.8727 53.1506C-97.2478 52.9851 -97.6416 52.8835 -98.0543 52.8458L-98.1527 52.8361L-98.2414 52.8254L-98.3204 52.8138C-98.3451 52.8098 -98.3682 52.8056 -98.3897 52.8013L-98.4494 52.7879C-98.4586 52.7856 -98.4673 52.7832 -98.4756 52.7808L-98.5208 52.766C-98.6487 52.7178 -98.6312 52.6558 -98.4683 52.5801L-98.412 52.5557L-98.3461 52.5304L-98.2705 52.5042C-98.1919 52.478 -98.1067 52.4674 -98.015 52.4723ZM6.10693 53.448C7.08794 54.2344 7.58415 55.3559 7.59563 56.8124C7.60545 58.1428 7.20175 59.4216 6.38454 60.6488C5.26817 62.3256 4.0938 63.6687 2.8614 64.6781L2.45673 65.0034C2.36765 65.0754 2.28027 65.1466 2.19463 65.217L1.94289 65.4258L1.70148 65.6299L1.4704 65.8291C1.39511 65.8948 1.32152 65.9596 1.24966 66.0236L1.03928 66.2133C0.868256 66.3695 0.707993 66.5206 0.558517 66.6667L0.384308 66.8397C0.299774 66.925 0.219131 67.0085 0.142365 67.0902C0.0850372 67.1509 0.0973358 67.1795 0.179214 67.1763L0.613556 67.1585L1.15616 67.1391L1.65698 67.1246L2.11606 67.1148L2.5334 67.1099L2.81898 67.1094L3.08112 67.1116L3.2428 67.1146L3.39404 67.1187L3.53487 67.1241L3.66524 67.1307L3.72652 67.1345C4.8549 67.2082 5.79167 67.0804 6.53683 66.7511C7.1557 66.477 7.60876 65.9718 7.89604 65.2357L7.92972 65.1463C7.95755 65.0676 7.99113 65.0062 8.03044 64.9619C8.15117 64.8237 8.2175 64.8412 8.22945 65.0143L8.23141 65.0742L8.22977 65.1444C8.22861 65.1695 8.22687 65.1963 8.2245 65.2249C8.14262 66.2211 7.91579 67.2549 7.54402 68.3264C7.47546 68.5239 7.29686 68.6632 7.08711 68.6828C3.78548 68.9875 0.592743 69.017 -2.49107 68.7713C-3.03644 68.727 -3.10522 68.5222 -2.69743 68.1569L-1.03462 66.6616L0.709839 65.0996C2.33444 63.6512 3.48331 62.0972 4.15642 60.4374C4.86719 58.6893 4.96954 56.9484 4.46349 55.215C4.26369 54.5285 3.88373 54.005 3.32364 53.6446C2.84706 53.3382 2.25912 53.1858 1.55981 53.1874C-0.15979 53.1891 -1.17026 54.1246 -1.47159 55.9941C-1.49124 56.112 -1.52074 56.2013 -1.56004 56.2619C-1.66158 56.4159 -1.76312 56.4119 -1.86465 56.2497C-1.90396 56.1874 -1.92607 56.1079 -1.93098 56.0113C-1.98175 55.1888 -2.02188 54.3261 -2.05136 53.4234C-2.05415 53.3131 -1.99034 53.2115 -1.88922 53.1653C-0.67894 52.6181 0.4953 52.2986 1.63351 52.2069C3.40388 52.0659 4.89502 52.4797 6.10693 53.448ZM-50.2592 52.283C-48.9183 52.4781 -47.5718 52.586 -46.2197 52.6066L-45.7622 52.6105L-42.4694 52.6271C-40.4615 52.6632 -38.4562 52.5927 -36.4532 52.4158C-36.4213 52.4123 -36.3895 52.422 -36.3652 52.4425C-36.341 52.463 -36.3266 52.4925 -36.3255 52.5239C-36.2911 53.4627 -36.305 54.3999 -36.3673 55.3354C-36.3754 55.4337 -36.3959 55.514 -36.4287 55.5763C-36.5171 55.7417 -36.608 55.7204 -36.7014 55.5124C-36.7218 55.4673 -36.7395 55.4058 -36.7542 55.3277L-36.7628 55.2789C-36.9184 54.3417 -37.5063 53.8445 -38.5266 53.7871C-39.6664 53.7232 -40.8071 53.6921 -41.9486 53.6937C-42.0178 53.6937 -42.0739 53.7498 -42.0739 53.8191C-42.0919 58.0527 -42.1001 62.2864 -42.0984 66.5201C-42.0984 66.9756 -42.0542 67.4278 -41.9658 67.8767C-41.9052 68.1749 -41.6907 68.36 -41.3222 68.4321L-39.9932 68.6951C-39.8916 68.7147 -39.89 68.7442 -39.9883 68.7835C-40.2466 68.886 -40.6019 68.9271 -41.0543 68.9068L-41.299 68.8938L-41.5809 68.8835L-42.0046 68.8735L-42.6995 68.8636L-43.8885 68.8558L-44.8479 68.854L-45.916 68.8548C-45.9519 68.8548 -45.9858 68.8545 -46.0179 68.8537L-46.1086 68.8504C-46.1227 68.8497 -46.1364 68.8489 -46.1496 68.848L-46.2232 68.8414C-46.4042 68.8209 -46.4639 68.7771 -46.4024 68.7098C-46.3814 68.6869 -46.3369 68.6636 -46.2688 68.6401L-46.2046 68.6198L-46.1289 68.5994L-46.0417 68.5789L-45.9428 68.5582L-45.8325 68.5373L-45.7105 68.5163L-45.5771 68.4952L-45.432 68.4739C-45.2629 68.4501 -45.1235 68.3299 -45.0758 68.1667C-44.8793 67.4966 -44.7819 66.7839 -44.7835 66.0285C-44.7966 61.9685 -44.7941 57.9085 -44.7761 53.8485C-44.7761 53.7807 -44.83 53.7257 -44.8965 53.7257C-46.151 53.7404 -47.4055 53.7453 -48.66 53.7404C-49.0137 53.7388 -49.3666 53.8322 -49.7188 54.0206C-49.9005 54.1172 -50.0471 54.2655 -50.1585 54.4654C-50.2371 54.6067 -50.3115 54.7503 -50.3819 54.8963L-50.4508 55.043C-50.5049 55.1642 -50.5638 55.2576 -50.6277 55.3231C-50.8531 55.5472 -50.9585 55.4711 -50.9441 55.0948L-50.939 55.0062L-50.9298 54.9078C-50.8381 54.0493 -50.667 53.2071 -50.4164 52.3813C-50.3956 52.315 -50.3292 52.2735 -50.2592 52.283ZM-23.1804 52.111C-22.3943 53.6446 -21.6818 55.2174 -21.0431 56.8297C-20.0965 59.2135 -19.1688 61.6048 -18.2598 64.0035C-18.2169 64.114 -18.1132 64.1865 -17.9994 64.1853L-14.1475 64.1288C-14.0578 64.1289 -13.9793 64.1545 -13.9289 64.2001C-13.7534 64.3599 -13.8065 64.4643 -14.0881 64.5132L-14.1279 64.5196C-15.2284 64.685 -16.3363 64.9054 -17.4516 65.1807C-17.5213 65.1988 -17.566 65.2668 -17.5548 65.338C-17.3828 66.3456 -16.9882 67.209 -16.3707 67.9283C-16.1447 68.1921 -15.8794 68.3707 -15.5748 68.4641C-15.2604 68.5591 -14.9336 68.6074 -14.5946 68.6091C-14.5324 68.6091 -14.48 68.6189 -14.4374 68.6385C-14.2933 68.7008 -14.2949 68.7639 -14.4423 68.8278C-14.4833 68.8458 -14.5332 68.8556 -14.5922 68.8573C-15.9903 68.898 -17.3891 68.9135 -18.7884 68.9036L-19.4881 68.8966C-19.8664 68.8917 -19.8828 68.7565 -19.5373 68.4911C-19.4237 68.4033 -19.376 68.263 -19.4193 68.1446L-20.4339 65.4191C-20.4602 65.3494 -20.5293 65.3027 -20.6083 65.3011L-26.7792 65.2347C-27.056 65.2315 -27.2476 65.3642 -27.3541 65.6329C-27.4793 65.9504 -27.6019 66.3093 -27.7219 66.7096L-27.7729 66.8813L-27.983 67.4835C-28.2401 68.2191 -27.9469 68.5804 -27.1035 68.5673C-27.0265 68.5656 -26.9569 68.5771 -26.8947 68.6017L-26.8239 68.6304C-26.813 68.635 -26.8024 68.6396 -26.7924 68.6441L-26.7371 68.6705L-26.6923 68.6952C-26.5667 68.7711 -26.5974 68.8231 -26.7843 68.8514L-26.8485 68.8596C-26.8601 68.8608 -26.8721 68.8619 -26.8845 68.863L-26.9643 68.8688C-26.9785 68.8696 -26.9931 68.8704 -27.0081 68.8711L-27.1035 68.8745C-28.6593 68.9105 -30.2152 68.9097 -31.771 68.872C-31.848 68.8687 -31.8987 68.8458 -31.9233 68.8032C-31.939 68.7773 -31.9365 68.7447 -31.9166 68.7155C-31.8966 68.6863 -31.8617 68.6641 -31.8226 68.6558L-31.7512 68.6421L-31.666 68.6279L-31.5125 68.6054L-31.328 68.5815L-31.034 68.5476C-30.5722 68.4968 -30.171 68.1847 -29.8303 67.6113C-29.4127 66.91 -29.0639 66.1768 -28.7838 65.4117L-28.3392 64.1976C-27.1996 61.3154 -26.0452 58.4394 -24.8761 55.5696L-24.1678 53.8349L-23.9444 53.2243C-23.8068 52.8491 -23.6176 52.4747 -23.3769 52.1012C-23.3065 51.9914 -23.241 51.9947 -23.1804 52.111ZM-93.3721 53.679C-93.5121 53.7036 -93.615 53.8231 -93.6178 53.9641C-93.68 58.0535 -93.6964 62.1774 -93.6669 66.3358C-93.6636 66.9043 -93.4466 67.3188 -93.0159 67.5793C-92.4099 67.9463 -91.7098 68.1454 -90.9155 68.1765C-89.9051 68.2142 -88.9159 68.0987 -87.948 67.83C-85.9254 67.2664 -84.6291 65.9728 -84.0592 63.9494C-83.4254 61.7015 -83.5777 59.5937 -84.5161 57.6259C-84.9583 56.6986 -85.5111 55.9424 -86.1743 55.3575C-86.8933 54.7202 -87.7334 54.2557 -88.6948 53.9641C-90.2277 53.5004 -91.7868 53.4054 -93.3721 53.679ZM-66.6568 53.2735C-68.2831 53.3996 -69.4442 54.0927 -70.1403 55.3526C-71.2457 57.3564 -71.579 59.5273 -71.1401 61.8653C-70.9485 62.8926 -70.7045 63.7323 -70.408 64.3844C-70.0395 65.1987 -69.5106 65.9163 -68.8211 66.5373C-67.4978 67.7251 -65.9813 68.2699 -64.2715 68.1716C-63.5935 68.1323 -62.9924 67.9758 -62.4684 67.7022C-61.8657 67.3893 -61.3826 66.9698 -61.019 66.4439C-60.2837 65.3773 -59.83 64.1919 -59.6581 62.8877C-59.5025 61.7211 -59.5098 60.5382 -59.6802 59.3389C-59.857 58.097 -60.2779 56.9681 -60.9428 55.9523C-62.2399 53.9731 -64.1446 53.0801 -66.6568 53.2735ZM53.0914 64.3696H48.6106C48.5699 64.3696 48.5369 64.4027 48.5369 64.4434V67.2451C48.5369 67.2646 48.5447 67.2834 48.5585 67.2972C48.5723 67.311 48.5911 67.3188 48.6106 67.3188H53.0914C53.1109 67.3188 53.1297 67.311 53.1435 67.2972C53.1573 67.2834 53.1651 67.2646 53.1651 67.2451V64.4434C53.1651 64.4027 53.1321 64.3696 53.0914 64.3696ZM41.0517 51.5088L41.6545 51.5249L42.2423 51.538L42.815 51.5482C43.0976 51.5526 43.3746 51.5559 43.6459 51.558L43.7268 51.5604C44.0175 51.5757 44.0822 51.6618 43.921 51.8185C43.8816 51.8566 43.8202 51.8851 43.7456 51.9005L43.7073 51.907C43.5419 51.93 43.3912 51.9848 43.2553 52.0717C43.1881 52.1127 43.1472 52.1854 43.1472 52.2634L43.1079 55.5713C43.1083 55.6097 43.1297 55.6447 43.1655 55.6656C43.2014 55.6864 43.2475 55.6907 43.2897 55.677L44.6924 55.2322C44.7584 55.2104 44.8411 55.2288 44.9135 55.2813C45.3016 55.5582 45.5628 55.99 45.6971 56.5765C45.709 56.6283 45.6977 56.6826 45.6662 56.7246C45.6348 56.7665 45.5866 56.7915 45.535 56.7928L43.4592 56.837C43.256 56.841 43.0934 56.9961 43.0931 57.186L43.1079 63.0008C43.1079 63.0704 43.1636 63.1272 43.2332 63.1285C43.9996 63.14 44.7374 63.0032 45.4465 62.7181C45.5808 62.6641 45.6946 62.6436 45.788 62.6567C46.0074 62.6878 46.0558 62.8025 45.9329 63.0008C45.8838 63.081 45.8052 63.1408 45.6971 63.1802C45.6043 63.2151 45.5108 63.2482 45.4165 63.2796L45.2746 63.3252C45.119 63.3727 44.9806 63.4284 44.8594 63.4923C43.2364 64.3672 41.6192 65.3191 40.0077 66.348C39.9584 66.3796 39.8985 66.3898 39.8415 66.3764C39.7846 66.363 39.7355 66.327 39.7055 66.2768C39.3305 65.6591 39.0783 65.0062 38.9489 64.318C38.9167 64.1448 39.0382 63.9761 39.2216 63.9396L40.9952 63.5857C41.0639 63.5727 41.1141 63.5102 41.1156 63.4358C41.1762 61.3124 41.1369 59.1914 40.9977 57.073C40.993 57.0009 40.9401 56.9418 40.8699 56.9304C40.458 56.8649 40.0434 56.8427 39.6262 56.8639L39.4697 56.8739C39.0488 56.905 38.9374 56.8108 39.1356 56.5913C39.1844 56.5378 39.2615 56.505 39.3493 56.5003C39.9291 56.4708 40.4662 56.3095 40.9608 56.0162C41.0292 55.9768 41.0707 55.9051 41.0689 55.8294L40.9461 51.6195C40.9454 51.5899 40.9564 51.5614 40.9763 51.5405C40.9963 51.5196 41.0235 51.5082 41.0517 51.5088ZM-23.9222 56.7117L-26.6343 63.8855C-26.6501 63.9265 -26.6453 63.9725 -26.6215 64.0095C-26.5977 64.0464 -26.5578 64.0697 -26.5139 64.0723C-24.6862 64.1935 -22.9175 64.2074 -21.2077 64.1141C-21.1673 64.1114 -21.1302 64.0904 -21.1079 64.0574C-21.0856 64.0244 -21.0807 63.9834 -21.0947 63.9469L-23.7429 56.7117C-23.8019 56.5528 -23.8616 56.5528 -23.9222 56.7117ZM51.5339 55.6205C51.6219 55.644 51.6918 55.7104 51.7208 55.7979C51.7498 55.8854 51.7341 55.9828 51.6789 56.058L50.9763 57.0041C50.9272 57.0697 50.9452 57.1057 51.0303 57.1123C51.728 57.1614 52.3716 57.3761 52.9612 57.7562C53.5875 58.1599 54.2074 58.5725 54.8211 58.994L55.2802 59.3119C56.3955 60.0917 57.5378 60.1032 58.7071 59.3463C58.8431 59.2594 58.92 59.275 58.938 59.393C58.9489 59.4662 58.9165 59.5449 58.8521 59.6019L56.6289 61.5286C56.3062 61.8088 55.9582 61.8113 55.5848 61.536L50.6226 57.8692C50.5666 57.8266 50.4873 57.8318 50.4359 57.8815C50.0821 58.2289 49.7265 58.5747 49.3692 58.9192L48.8317 59.4347C48.1766 60.0639 47.6116 60.548 47.1367 60.8872C46.2081 61.5524 45.3565 62.0013 44.5818 62.234C44.3083 62.3175 44.2289 62.2315 44.3436 61.9759C44.3721 61.9093 44.4305 61.8508 44.5081 61.8113C44.8684 61.6228 45.241 61.3541 45.6259 61.0052C47.2931 59.5011 48.6082 57.698 49.5711 55.5959C49.6055 55.5194 49.6797 55.4689 49.7628 55.4657C50.4244 55.4329 51.0148 55.4845 51.5339 55.6205ZM52.2193 59.6461C52.7745 60.0033 53.0103 60.4669 52.9268 61.0371C52.9173 61.1082 52.8555 61.1627 52.7794 61.1674C51.2547 61.2689 49.7292 61.278 48.2028 61.1944C48.1308 61.1911 48.0767 61.1731 48.0407 61.1403C47.9752 61.083 47.9825 61.0256 48.0628 60.9683C48.0988 60.9421 48.1463 60.9282 48.2053 60.9265C49.5253 60.8937 50.7683 60.4686 51.9344 59.651C52.0195 59.5916 52.1322 59.5896 52.2193 59.6461ZM-138.841 57.6161C-138.777 57.6314 -138.724 57.6859 -138.703 57.7586C-138.664 57.9012 -138.702 57.9487 -138.816 57.9012C-138.892 57.8696 -138.942 57.7999 -138.946 57.7218C-138.953 57.6333 -138.918 57.5981 -138.841 57.6161ZM-138.63 56.8591C-138.63 56.9083 -138.639 56.9566 -138.659 57.0041L-138.674 57.0387L-138.702 57.1002L-138.729 57.1515C-138.813 57.3054 -138.865 57.289 -138.885 57.1022L-138.89 57.041C-138.895 56.9615 -138.872 56.8826 -138.826 56.8174L-138.789 56.7673C-138.678 56.6269 -138.625 56.6575 -138.63 56.8591ZM-118.729 51.5826C-119.792 51.8841 -120.833 52.1487 -121.851 52.3764C-121.97 52.404 -121.99 52.4536 -121.909 52.5254L-121.89 52.5411C-120.127 53.9763 -118.355 55.31 -116.577 56.5421C-116.555 56.5577 -116.526 56.5608 -116.501 56.5503C-116.476 56.5398 -116.458 56.5172 -116.454 56.4905C-116.33 55.8273 -116.214 55.1625 -116.107 54.4961L-115.879 53.0228C-115.887 52.6705 -116.041 52.3568 -116.339 52.0815C-116.692 51.7555 -117.076 51.5466 -117.488 51.4548C-117.786 51.3893 -118.2 51.4319 -118.729 51.5826ZM50.3179 51.2017C50.3235 51.2562 50.2948 51.3077 50.2467 51.3295C49.5343 51.6686 49.2289 52.1249 49.3304 52.6984C49.3434 52.7727 49.4073 52.8274 49.4827 52.8286L52.4232 52.8753C52.4617 52.8763 52.4988 52.8607 52.5241 52.8331C52.5493 52.8054 52.5601 52.7685 52.5534 52.7328L52.3176 51.4671C52.2989 51.3693 52.3202 51.2679 52.3751 51.1931C52.4301 51.1184 52.5124 51.0788 52.5976 51.0862C53.2516 51.1425 53.8638 51.1112 54.4344 50.9923L54.5654 50.9633C54.7488 50.9207 54.8806 50.9117 54.9609 50.9363C55.1164 50.9838 55.1697 51.1067 55.1205 51.3049C55.1045 51.372 55.0418 51.4251 54.9609 51.4401C54.2894 51.5613 54.0298 51.9816 54.1821 52.7008C54.1968 52.7733 54.2555 52.8292 54.3295 52.8409C55.073 52.9671 55.7257 52.7688 56.2874 52.2462C56.3754 52.1638 56.5121 52.1617 56.6043 52.2413C57.0072 52.5902 57.2578 53.0326 57.356 53.5684C57.3662 53.6265 57.3505 53.6861 57.313 53.7312C57.2755 53.7763 57.2202 53.8022 57.162 53.8019H54.3369C54.2324 53.8019 54.1477 53.8866 54.1477 53.9911V55.4632C54.148 55.653 54.0173 55.8175 53.8333 55.8589L52.9342 56.0678C52.8265 56.0924 52.7135 56.0664 52.627 55.9971C52.5405 55.9278 52.4899 55.8227 52.4895 55.7114V54.0869C52.4895 53.9376 52.3719 53.8166 52.2267 53.8166L49.495 53.8141C49.4114 53.8137 49.3429 53.8681 49.3402 53.937L49.3157 54.8169C49.3097 54.9861 49.2388 55.129 49.129 55.1929C48.731 55.4272 48.3199 55.5181 47.8957 55.4657C47.8184 55.4551 47.7541 55.405 47.7287 55.3354C47.619 55.0552 47.6165 54.7456 47.7213 54.4064C47.7729 54.2379 47.6847 54.0583 47.5199 53.996C46.4112 53.5831 45.3458 53.3374 44.3239 53.2587C44.2289 53.2504 44.1546 53.2009 44.147 53.1408C44.1388 53.0621 44.2174 53.022 44.3828 53.0203L45.074 53.0135L45.7825 53.0084L46.5086 53.005L47.2521 53.0033C47.3775 53.0032 47.5036 53.0031 47.6304 53.0031C47.6649 53.0035 47.6979 52.9887 47.7205 52.9627C47.7432 52.9367 47.7534 52.9021 47.7484 52.868L47.5199 51.2656C47.5156 51.235 47.5245 51.2041 47.5444 51.181C47.5642 51.1578 47.5929 51.1447 47.6231 51.1452L47.7281 51.1447L47.9303 51.1428L48.2135 51.1377L48.3891 51.1327L48.5539 51.1265L48.7081 51.119L48.8517 51.1103L48.9846 51.1003C49.0059 51.0985 49.0267 51.0967 49.0471 51.0949L49.164 51.083C49.1826 51.0809 49.2008 51.0788 49.2185 51.0766L49.3195 51.0629L49.4098 51.0479C49.5089 51.0297 49.5863 51.009 49.642 50.9857L49.6645 50.9756C50.0575 50.7855 50.2753 50.8609 50.3179 51.2017ZM-138.696 51.386C-138.681 51.5351 -138.723 51.5695 -138.821 51.4892C-138.866 51.4518 -138.893 51.3907 -138.895 51.3221L-138.897 51.0254L-138.895 50.647L-138.892 50.5038L-138.886 50.3924L-138.881 50.3295L-138.877 50.2975L-138.87 50.2644L-138.865 50.2522C-138.86 50.2453 -138.855 50.2467 -138.85 50.2563L-138.843 50.2718L-138.832 50.3099L-138.82 50.3658L-138.812 50.413L-138.798 50.4985L-138.779 50.6403L-138.752 50.8621L-138.703 51.3199C-138.7 51.3416 -138.698 51.3636 -138.696 51.386ZM-121.438 46.1857C-121.081 46.2758 -120.974 46.4871 -121.117 46.8197C-121.129 46.8494 -121.154 46.8722 -121.184 46.8825C-121.215 46.8929 -121.248 46.8897 -121.276 46.8738C-121.525 46.7378 -121.66 46.5781 -121.679 46.3946C-121.686 46.3314 -121.661 46.2688 -121.613 46.2272C-121.565 46.1855 -121.5 46.17 -121.438 46.1857Z" fill="white" fill-opacity="0.5"/>
</g>
<defs>
<clipPath id="clip0_829_10346">
<rect width="198" height="29" fill="white" transform="translate(-139 46)"/>
</clipPath>
</defs>
</svg>
