<svg fill="none" height="120" viewBox="0 0 200 120" width="200" xmlns="http://www.w3.org/2000/svg" xmlns:xlink="http://www.w3.org/1999/xlink"><clipPath id="a"><path d="m46 33h108v64h-108z"/></clipPath><g clip-path="url(#a)"><path d="m145.464 35.2003c-.04.0392-.094.0656-.162.0792-1.014.208-2.026.4244-3.037.649-.26.0573-.335.1342-.225.2307.047.0415.122.0605.204.052 1.053-.1191 2.085-.3415 3.096-.6671.249-.0815.452-.0038.608.2329l.659.9928c.037.0538.099.0949.176.1153l.069.0201c.269.0833.287.1648.054.2444l-.061.0191-.071.019-.083.0203-.084.022-.075.0224c-.368.1171-.4.2533-.097.4085l.063.0302.071.0308c.07.0293.127.0778.162.1379.205.3453.407.692.605 1.0403.159.28.376.4924.651.6372l.065.0322c.145.0694.199.1364.162.2013-.039.0678-.147.1372-.324.208-.025.0098-.044.031-.05.057-.007.0259-.001.0535.016.0742.309.3633.421.7026.337 1.0177l-.016.0544-.021.0635-.027.0724-.032.0814-.058.139-.069.1593-.111.2438-.096.2065-.071.1489c-.168.3482-.379.6158-.633.8028-.268.1975-.567.3746-.897.5314-.159.0752-.347.0447-.475-.0769-.201-.1929-.42-.2864-.657-.2804-.12.003-.212-.0075-.277-.0316-.357-.1403-.335-.2592.067-.3568l.082-.0186c.015-.003.029-.0061.045-.0091.088-.018.152-.0726.148-.1266-.006-.0619-.075-.1018-.207-.1199-.442-.0588-.832-.0091-1.168.1493l-.776.3663c-.904.3106-1.766.7169-2.585 1.219-.073.0451-.12.1097-.124.1718-.007.1644.164.2051.513.1221.11-.0262.225.0177.29.1109l.076.1102c.013.0195.026.0396.04.0602l.085.1307.092.1444c.072.115.132.251.18.4081l.022.0804c.143.5337.372 1.0289.689 1.4857.039.0571.058.1289.054.2036-.027.4764.141.9875.504 1.5333.056.0862.158.1307.261.113 1.735-.3211 3.346-.0949 4.833.6785.066.0347.121.0776.164.1289l.04.049c.135.1771.094.2314-.125.163l-.062-.0207c-.021-.0078-.044-.0166-.069-.0262-.034-.0145-.072-.0325-.115-.054l-.09-.0478c-1.055-.5844-2.18-.8363-3.374-.7558l-.13.0098-.48.011c-.318.0076-.608.1108-.869.3099-.184.1417-.166.208.056.199.277-.0111.554-.0242.829-.0392l.433-.026.115-.0149.67-.0998.271-.0418c.448-.0708.815-.0301 1.1.1222 2.076 1.1066 3.843 2.3459 5.301 3.7178.395.3694.71.8888.947 1.5582.022.0623.08.1064.149.1131.217.0196.361.1191.432.2985l.174.4362.001.0025c.209.3543.379.7244.511 1.1104.099.288.101.5895.007.9046-.291.9709-.665 1.9087-1.121 2.8133l-.603 1.2008c-.679 1.4067-1.392 2.7952-2.139 4.1657-.918 1.6856-1.833 2.9965-2.745 3.9327-.869.8925-1.684 1.4677-2.446 1.7255-.639.2156-1.29.2722-1.953.1696-.635-.0965-1.324-.1492-2.068-.1583-.136-.0015-.261.0793-.317.2058-.18.4116-.275.8715-.284 1.3795-.045 2.4379.08 4.8652.374 7.282l.376 3.0824c.12 1.1112.243 2.2223.371 3.3334.009.0777-.011.1508-.054.2013-.153.1764-.266.1063-.34-.2103-.003-.0151-.005-.0356-.007-.0616l-.003-.0593c0-.0111-.001-.0228-.001-.0351-.002-.1026-.035-.1448-.099-.1267-.025.0072-.044.0264-.055.0532-.011.0269-.011.0591-.001.0893.156.4674.239.9076.249 1.3207.023.8805.178 1.6938.466 2.4401.025.0657.025.1402 0 .2104-.114.3178-.159.6471-.136.9878l.008.0931c.003.0297.002.0724-.003.128l-.008.0729-.012.0854-.016.0978-.02.1102-.024.1227c-.005.0215-.009.0435-.014.066-.037.1823-.041.38-.012.5933l.012.0806c.12.6966.061 1.378-.178 2.0444-.061.1719-.141.2872-.24.346-.12.0672-.259.082-.416.0445l-.048-.0128c-.236-.0693-.445-.0259-.627.1301l-.037.0327c-.229.2201-.501.3264-.816.3189-.084-.0015-.158.0195-.207.0588-.239.1876-.145.3151.282.3826l.093.0131c.116.0151.136.0679.061.1583-.156.193-.33.1998-.522.0204-.158-.148-.4-.1594-.571-.0271-.458.3512-.781.2909-.97-.181-.027-.0657-.086-.1092-.151-.1108-.198-.003-.392.0204-.583.0701l-.166.0416-.096.0225-.122.0261-.067.0124-.054.0082-.042.0041c-.007.0003-.012.0005-.017.0005-.487-.0044-.706-.2911-.658-.86l.005-.0559c.063-.5669.01-1.0366-.16-1.4089-.028-.0634-.017-.137.027-.1877l.219-.2533c.043-.051.068-.1215.069-.199.011-.4207.138-.7885.383-1.1036l.468-.6084c.439-.7884.551-1.6382.336-2.5492l-.023-.0945c-.153-.5895-.189-1.1865-.106-1.7911.007-.0512.026-.0949.056-.1311.129-.1533.182-.1342.159.0573l-.009.0594-.013.0687c-.066.3287-.047.5925.057.7915.117.2239.217.1986.3-.0759l.019-.0677c.003-.012.006-.0244.009-.0372l.018-.081.018-.0899.017-.0987c.002-.0172.005-.0348.008-.0527l.016-.112c.021-.1537-.022-.3086-.117-.4293l-.027-.032c-.147-.1612-.208-.4018-.186-.7219l.006-.0651c.072-.7192-.014-1.4142-.257-2.0851l-.01-.0227-.03-.054-.067-.1095-.071-.1101c-.088-.1387-.06-.2525.086-.3414.053-.0324.128-.0324.198 0 .255.1163.349.0764.283-.1197l-.02-.0522-.027-.0588c-.035-.0716-.045-.1463-.029-.2103.022-.095.049-.1885.081-.2805.033-.0949.046-.1884.038-.2804-.084-1.2097-.179-2.4185-.286-3.6263l-.094-1.0263-.021-.2469-.02-.2546-.019-.2622-.017-.2699-.016-.2775-.015-.2851-.013-.2927-.018-.4535-.015-.4706-.012-.4878-.007-.3347-.005-.3424-.004-.35-.003-.3577-.001-.5507.001-.3768.003-.5794.006-.5966c.001-.0672.002-.1348.003-.2027.001-.0708-.016-.1409-.052-.2103-.456-.8699-.557-1.7851-.302-2.7454.021-.071.014-.1454-.018-.2081l-.514-1.0128-.176-.3405-.117-.2226-.104-.1936-.038-.0668c-.762-1.3337-1.285-2.7503-1.569-4.2499l-.042-.228-.021-.0895-.018-.0718-.047-.1727-.045-.1549-.072-.2404-.087-.2792c-.113-.3558-.154-.7274-.124-1.1149.045-.5834.059-1.1684.043-1.7549-.005-.1869-.066-.2073-.183-.0611-.441.5488-.691 1.1873-.751 1.9155-.006.0677.011.1403.049.2081l.774 1.3456c.036.0605.053.1344.05.2125-.029.7124-.041 1.4248-.036 2.1371l.006.5268.034 1.9537.011.4395.003.0697c.057 1.0252.225 2.0354.504 3.0304.022.0823.07.1448.126.1674.104.0422.17-.0043.199-.1393l.006-.0303c.012-.0783.058-.1379.114-.147.126-.0211.184.061.174.2465-.003.0829.006.1553.029.2171.262.7417.181 1.4345-.243 2.0783-.03.0451-.078.0838-.139.1114l-.032.0129c-.171.0649-.299.1802-.383.3461-.038.0735-.093.1258-.15.1447-.191.0573-.258-.0226-.203-.2397.014-.053.043-.1193.087-.1989l.061-.1065.031-.0602c.02-.0384.035-.0732.047-.1044l.014-.044c.045-.1586-.035-.1982-.241-.1189l-.056.0234c-.01.0043-.02.0089-.031.0137l-.065.0315-.07.0369-.077.0422-.082.0477c-.014.0084-.028.017-.043.0259-.054.0326-.076.1023-.05.1628.064.1483.112.3007.143.4573l.02.1114.056.25c.049.2156-.061.2638-.331.1447-.058-.0259-.127-.0069-.162.0452-.177.2664-.303.2285-.379-.1137l-.008-.0378c-.176-.879-.425-1.5906-.749-2.1348-.101-.1689-.192-.1877-.275-.0566-.031.0489-.04.1244-.025.2081.104.5231-.173.8111-.83.8639-.028.0023-.053.0171-.069.0403-.016.0231-.021.0523-.014.0795.232.7855.233 1.4851.002 2.0987-.092.2456-.198.2621-.319.0494l-.016-.0291c-.243-.4628-.53-.8955-.86-1.298-.275-.3374-.475-.7158-.598-1.1351l-.027-.0975c-.05-.1975-.136-.3761-.259-.5359-.043-.0559-.052-.1298-.025-.1923.179-.4131.271-.845.277-1.2958 0-.0437-.021-.1131-.063-.208-.049-.1097-.051-.2567-.008-.4411l.015-.0565c.128-.4622.167-.9933.117-1.5933l-.014-.1493-.007-.0479c-.019-.1052-.047-.1001-.085.0153l-.016.052c-.142.5201-.265 1.0727-.369 1.6576-.018.0991-.019.2497-.004.4519l.012.1275.015.1398c.031.2638-.013.5134-.133.7486l-.316.6219-.035.0701c-.106.2955-.217.5834-.331.8639-.037.0922-.114.1626-.209.1923-.096.0297-.199.0156-.283-.0386-.291-.1914-.562-.1975-.813-.0181-.023.0168-.052.0239-.08.0196-.028-.0042-.052-.0194-.068-.0422-.165-.2413-.335-.2569-.508-.0467l-.023.0286c-.3.395-.667.5458-1.1.4523-.027-.0055-.054.001-.075.0178-.02.0168-.032.0419-.031.0682.014.8222-.282.9995-.886.5319l-.075-.0605c-.039-.0318-.078-.0661-.119-.1028-.195-.1764-.422-.2676-.68-.2737l-.06.0001c-.249.0075-.474-.0294-.673-.1109l-.029-.0113-.052-.0182c-.144-.0455-.177-.0094-.099.1085l.029.0423.038.0484c.18.2201.141.361-.119.4229-.145.0361-.294.0618-.445.0768-.056.005-.113.0298-.163.0709l-.024.0219c-.194.1884-.389.1937-.585.0158-.371-.3377-.753-.6611-1.148-.9702-.255-.199-.546-.3467-.875-.4432l-.639-.19-.087-.0242-.102-.025-.114-.0257-.128-.0265-.141-.0272c-.025-.0046-.05-.0092-.076-.0139-.546-.0995-1.064-.2857-1.555-.5586-.026-.0149-.058-.0185-.086-.0098-.028.0086-.05.0287-.06.0551-.138.3392-.028.64.331.9023.064.0472.105.1251.11.2126l.126 1.9675c.015.2427.114.4606.297.6535.368.3875.626.7689.776 1.1444.023.0605.017.1353-.018.2057-.1.2021-.117.4101-.049.6242.034.1071.049.193.045.2578-.023.2985-.12.343-.293.1335-.037-.0453-.079-.1252-.126-.2398-.06-.1432-.142-.251-.247-.3234-.149-.104-.207-.0701-.176.1018l.237 1.2597c.008.0491-.008.1166-.045.1877l-.365.6807c-.012.0228-.033.0395-.057.0453-.024.0057-.047-.0002-.064-.0159-.149-.1499-.276-.2904-.38-.4215l-.05-.0648c-.063-.0844-.125-.1439-.187-.1786-.207-.1161-.275-.0362-.205.2397.013.0452.036.1041.069.1765l.037.0782.026.0607c.097.2471.012.2886-.256.1242l-.167-.1076c-.247-.1548-.414-.2316-.503-.2302-.456.0075-.878-.2051-1.267-.6378-.127-.1402-.273-.2585-.436-.355-.126-.0739-.199.0143-.218.2646-.014.1628-.083.1922-.207.0882-1.087-.9022-1.667-2.0673-1.74-3.4954l-.004-.1049c-.02-.5488-.07-1.0938-.151-1.6351-1.031-6.8672-.805-13.6855.678-20.4548l.076-.3443.018-.0708.032-.1233.056-.1967.09-.2974.087-.2794.159-.4879.156-.4697c.011-.0332.023-.0668.034-.1008.105-.3091.137-.6317.095-.9679-.339-2.6339-.255-5.2535.254-7.8587.076-.398.213-.6694.409-.8141.243-.1809.564-.2722.963-.2737.136-.0012.259-.0789.32-.2012.127-.2563.303-.2601.526-.0113.139.1545.253.4957.343 1.0236l.025.1559c.004.0268.008.054.012.0817l.012.0843c.189 1.3991.412 2.793.67 4.1815.005.0256.021.0473.045.0578s.051.0083.072-.0058l.423-.2641.534-.3306.499-.3057.464-.281.326-.1945.306-.1806.286-.1666.329-.1875.17-.0949.16-.0883.151-.0816.142-.075.133-.0684.123-.0617.114-.0552.105-.0485c.034-.015.066-.029.096-.0418 1.518-.6393 3.047-.7041 4.588-.1945.187.062.395.098.621.1081l.099.0027c.211.003.421.0241.63.0633.065.0112.12.0606.144.1289.142.4156.374.7483.697.9982l.065.0489c.129.0911.124.1284-.016.112l-.072-.0098-.084-.0101-.075-.0065c-.012-.0008-.023-.0014-.035-.002l-.062-.0012c-.211.0018-.245.0746-.101.2183.18.1795.611.3114 1.294.3958.349.0437.808.3196 1.377.8277.048.0432.059.1163.024.1741-.28.4735-.184.827.288 1.0607.077.0377.129.0806.156.1289.076.1417.006.2065-.212.1945-.077-.0037-.143.0357-.155.0927-.021.1009.02.1897.121.2666l.03.0206c.345.2277.372.4485.083.6626-.066.0484-.107.114-.108.1764-.004.1712.065.3205.206.448l.037.0314c.24.194.24.3581-.002.4923l-.032.0166c-.309.1582-.342.2822-.099.372l.029.0102c.245.0814.298.1854.16.3121-.018.0172-.043.0228-.068.0151-.025-.0078-.045-.028-.053-.0536-.099-.2804-.295-.4395-.588-.4772-.062-.0087-.132.019-.189.0747-.187.1824-.354.1794-.501-.0091l-.213-.2721-.012-.0151-.172-.1739c-.03-.0298-.059-.06-.089-.0907-.044-.0434-.107-.0621-.167-.0498-.06.0122-.11.0539-.133.1109-.261.6331-.062 1.0444.598 1.2338l.126.0346c.012.0034.023.0067.033.01l.059.0197c.216.0781.2.1489-.048.2126-.042.012-.091.0159-.145.0115l-.042-.0048c-.581-.0844-.952.1485-1.114.6988-.019.0623-.01.1369.025.2081.186.3784.079.6701-.322.8752-.154.0784-.311.153-.47.2239-.025.0112-.044.0332-.052.0599-.007.0267-.002.0553.014.078.303.4388.434.8933.393 1.3637-.007.081-.049.1547-.116.201-.066.0464-.15.0605-.228.0387-.318-.0904-.435.0083-.351.2963.095.3256-.125.6204-.659.8842-.111.0558-.217.1334-.317.2329l-3.616 3.6342c-.195.1972-.166.2773.086.2402l.031-.005c1.297-.2186 2.647-.3249 4.05-.3188.487.0015.949.0927 1.384.2736.678.2835 1.2.5586 1.568.8255.451.3286.772.7613.961 1.298l.031.0867.03.0791c.005.0125.01.0247.015.0366l.029.0677.027.06.027.0525c.112.2108.194.2074.245-.0101l.011-.054.01-.0616c.001-.0109.003-.0221.005-.0337l.008-.073.007-.0806.009-.1351.061-1.1195c.003-.0514.006-.1034.009-.156.015-.2744-.046-.5307-.182-.7689-.149-.2578-.229-.5209-.241-.7893l-.032-.6671c-.06-.5609.033-1.0916.277-1.5921l.326-.6671c.15-.3498.31-.6943.48-1.0335.172-.3423.279-.6981.319-1.0675.296-2.7137.938-5.1968 1.926-7.4493.411-.9347 1.12-1.7014 2.126-2.2999.047-.0272.085-.0377.115-.0317.047.0076.064.0422.052.1041-.005.0286-.02.0588-.047.0904-.639.7538-1.197 1.5627-1.672 2.4266-.224.4052-.357.8368-.398 1.2946l-.007.0985c-.026.404-.11.7953-.252 1.1737-.167.4387-.267.891-.302 1.3569-.004.0542.011.1243.045.2103.047.1191.062.2796.045.4817l-.024.2838-.026.2613-.018.1617-.018.1517-.018.1416-.019.1316-.02.1216-.019.1116-.021.1016-.02.0915c-.004.0144-.007.0285-.011.042l-.011.0396c-.103.3708.044.4364.441.1967.141-.0836.24-.2232.273-.3845.142-.7085.297-1.3817.463-2.0195.052-.2045.042-.3989-.032-.5832l-.022-.05c-.035-.0749-.049-.1493-.04-.2126.039-.2728.124-.5269.256-.7621.158-.2819.262-.5194.313-.7123.48-1.8349 1.569-3.1872 3.267-4.0571.076-.0393.155-.0453.207-.0159.085.049.085.1318.001.2484l-.041.0528-.034.0463c-.106.1522-.071.1996.106.1422l.054-.0192.062-.025c.212-.0889.403-.3113.574-.6671.027-.0548.08-.0922.14-.0995s.12.0165.159.0633c.216.2624.528.2473.934-.0452.108-.0784.095-.1221-.038-.1312-.032-.0023-.063-.0047-.093-.0074l-.083-.0085-.073-.0097c-.012-.0017-.023-.0035-.034-.0053l-.059-.0114c-.2-.0437-.209-.1103-.025-.1996l.054-.0249c.126-.0543.212-.1357.257-.2443.03-.0723.004-.1002-.077-.0836l-.036.0069-.067.0108-.057.0069c-.179.0162-.214-.0337-.106-.1498l.037-.0368c.007-.0065.014-.0131.022-.0199l.049-.0428.058-.0467c.011-.0082.022-.0164.033-.0249.06-.0464.1-.1114.11-.1809.061-.4562-.142-.5806-.608-.3732l-.14.064-.211.0909-.35.1448-.536.2167-.497.1983c-.026.0097-.053.0125-.075.0078s-.037-.0165-.042-.0327c-.005-.0181-.002-.0392.009-.0633.006-.0166.018-.0309.038-.043.741-.4601 1.502-.9179 2.283-1.3735l.392-.2276c.276-.1583.263-.2865-.04-.3845-.944-.303-1.868-.6483-2.772-1.0357-.069-.0296-.158-.06-.266-.0912l-.115-.0315c-.02-.0053-.041-.0107-.062-.016l-.134-.0324-.147-.0329-.161-.0335c-.273-.0563-.533-.1549-.779-.2957l-.091-.0548c-.057-.0362-.111-.0626-.162-.0792l-.065-.0195c-.01-.0029-.019-.0055-.029-.0079l-.052-.0122c-.176-.0353-.187.029-.034.1931l.046.0472c.008.0083.017.0168.026.0255.126.1206.255.2382.389.3528.064.0548.096.1268.081.1831-.021.0784-.083.0867-.187.0249-.478-.2789-.958-.5556-1.44-.83-.057-.0317-.13-.0255-.187.0159-.519.3784-.855.26-1.01-.3551-.017-.0694-.004-.1446.036-.208.415-.6446.87-1.2573 1.368-1.8383l.17-.1966.096-.125.094-.1242c.195-.2567.418-.3044.668-.1432l.034.0233c.112.0799.257.0954.383.0407.676-.2955 1.275-.3799 1.795-.2533.014.0035.03.007.048.0104l.057.0104.105.0153.082.0101.141.015.106.0099.178.0146.271.0193.394.0235.455.023c.032.0016.065.0031.098.0046.17.008.346-.0221.53-.0903l.069-.0273c.25-.1041.456-.1546.616-.1515 1.086.0211 2.169-.0264 3.249-.1425.051-.0058.104.0208.139.0687l.014.0217c.065.1116.167.1455.308.1018l.233-.071.006-.0014c.808-.1522 1.617-.3015 2.425-.4477l.076-.0125.067-.0086c.217-.0231.261.0261.134.1477zm-5.456 60.7322c.052.009.083.0407.092.095.01.0614-.034.127-.106.1605-.18.0814-.229.0324-.148-.147.032-.0732.098-.1177.162-.1085zm.677-4.3489c-.057.0453-.095.1131-.115.2036-.064.2849-.009.3648.165.2397.058-.0413.094-.1096.099-.1855.016-.2623-.033-.3482-.149-.2578zm-.31-2.0036c-.156.2397-.157.4236-.003.5518.029.0241.054.0603.075.1085.012.0256.027.0445.047.0566.066.0431.095.0201.086-.0691l-.003-.0237c-.025-.1568-.02-.3143.016-.4726.013-.0648.015-.1199.004-.1651-.042-.1568-.116-.1523-.222.0136zm-.009-1.1728c-.026.0126-.043.0381-.045.0669-.005.0573.003.1108.024.1606.033.0829.078.0889.133.0181.074-.0965.063-.1764-.031-.2398-.024-.0161-.055-.0183-.081-.0058zm-3.153-5.5789-.009.0007c-.058.0051-.101.0565-.096.115l.261 3.0644c.003.0281.016.0541.038.0722.021.0182.049.027.077.0246l.009-.0008c.058-.005.101-.0564.096-.1149l-.261-3.0644c-.003-.0281-.016-.0541-.038-.0722-.021-.0182-.049-.027-.077-.0246zm1.988-6.3377.001.027c.166 2.6075.426 5.2044.782 7.7908l.088.6211.062.4157.045.2821.032.1827.022.112.014.064.012.0469.007.0218c.01.0239.017.0275.021.0109l.003-.0163.004-.0387.001-.0559-.001-.0744-.005-.1647-.007-.1563-.019-.323-.028-.4009c-.064-.9061-.116-1.8122-.155-2.7183l.068-.6614c.002-.0196.004-.0396.006-.06.025-.2378-.017-.4831-.126-.736l-.031-.0691c-.06-.1252-.093-.2571-.099-.3958-.057-1.387-.251-2.6263-.581-3.7179-.009-.0331-.023-.0588-.043-.0769-.052-.0504-.077-.0202-.073.0906zm-3.268 2.2523c.008.0332.01.0694.007.1086-.026.4049.008.7984.103 1.1806l.027.1039c.104.3709.155.7018.153.9928-.003.4779.031.9543.102 1.4293.009.0603.012.1145.011.1628l-.004.0636-.006.0542c-.021.1567-.069.1716-.144.0446l-.024-.0448c-.009-.0166-.018-.0346-.027-.0543-.021-.0467-.034-.0972-.04-.1515-.129-1.2378-.233-2.4778-.311-3.7202-.003-.0422-.002-.0829.002-.1221l.008-.0667.009-.0573.008-.048.009-.0385c.022-.0789.046-.0811.074-.0065l.012.0367.012.0461.013.0555c.002.01.004.0204.006.0312zm.793-5.3608-.003.0848c-.078 2.1499-.077 4.2998.004 6.4497.003.0875.027.1629.072.2262.148.2105.233.1718.255-.1162l.005-.074c.001-.0262.001-.054.001-.0834.016-2.016-.053-4.0281-.206-6.0362l-.043-.5381-.012-.1237-.009-.0702-.006-.0359-.008-.0378c-.007-.025-.013-.027-.02-.006l-.004.0201-.005.0287-.006.0592-.006.0787zm-20.712 4.9651c.016.0377-.001.0746-.052.1108-.055.0407-.133.0398-.196-.0023-.124-.0844-.106-.1409.054-.1696.09-.0156.17.0096.194.0611zm-48.6295-42.6228.0047.0322c.0405.3016.2085.4154.504.3415.3165-.0784.633-.159.9495-.242.0717-.0187.145-.0089.2025.0272.435.2683.6855.6596.7515 1.1737.0102.0792.0411.1485.0878.1967.279.2955.624.4591 1.035.4908.0287.0016.0555.0152.0739.0376.0184.0223.0266.0513.0228.08-.1037.7241-.3306 1.3394-.6807 1.8457l-.0595.0833c-.1718.2346-.1482.4355.0709.6028l.0326.0237c.219.1492.3465.3331.3825.5518l.0861.497.0061.0299c.2175.5759.5063 1.0749.8663 1.4971l.1634.1884.2116.2395.5131.572.607.6691 3.1624 3.451c1.4265 1.4534 2.9865 2.6678 4.68 3.6432l.1959.1137.172.1024.1014.0618.132.0833.0748.0493.0641.0441c.0594.0421.1335.0457.1845.009.1918-.1393.3105-.3475.3559-.6247l.0086-.0605c.0405-.3422.2243-.4628.5513-.3618.705.2171 1.2052.5457 1.5007.986.0597.0873.0763.1973.045.2985-.081.2729-.1102.5066-.0877.7011.0225.1929.1575.3543.405.4839.543.2835 1.1055.5269 1.6875.7305.0299.0104.063.005.0886-.0144s.0404-.0503.0396-.0829c-.007-.1814-.0126-.3575-.017-.5282l-.0069-.3342c-.0034-.2181-.0044-.4266-.0031-.6256.0075-1.0071.3938-1.8356 1.1588-2.4854.05-.0426.0755-.1076.0678-.1731s-.0475-.1228-.1061-.1525c-1.1085-.5594-1.7647-1.5024-1.9687-2.8292-.1425-.9211.2002-1.2747 1.0282-1.0606.0823.0203.1586.0171.2138-.009l.6412-.2986c.0825-.0392.1523-.0588.2093-.0588 1.713.0181 2.9865.7215 3.8205 2.11.051.0852.1072.1952.1687.3302l.054.1217.0566.134.0591.1461.0306.0776c.108.2789.2265.5541.3555.8255.321.6784.318 1.3523-.009 2.0217-.0299.0628-.0879.1086-.1575.1244-.4376.1002-.8732.1188-1.3069.0559l-.1084-.0175c-.327-.0587-.6157-.0625-.8662-.0113-.206.0433-.4124.0835-.619.1207l-.3103.0535c-.393.0633-.5572.294-.4927.692.0435.2729.0855.5465.126.8209.042.297.1492.539.3217.7259.345.38.7485.6906 1.2105.9318.0621.0339.1034.0957.1103.1651l.1431 1.3922.1108 1.0242.0685.5934.0376.3061.0397.3015.012.0846c.045.3196-.0435.548-.2655.6852-.0528.0316-.0805.0954-.0697.1606l.0495.3144c.0042.027-.0056.0543-.0265.0735-.0208.0192-.0503.028-.0793.0237-.435-.0633-.8557-.1734-1.2622-.3302-.396-.1538-.7238-.2201-.9833-.199-.2295.0196-.456.0588-.6795.1176-.276.0739-.4995.1003-.6705.0792-.8535-.1041-1.5082-.5466-1.9642-1.3275-.213-.3649-.5528-.5978-1.0193-.6988-.0297-.0065-.0608.0015-.0838.0215s-.0353.0497-.0332.0802l.288 4.4371c.0037.0538.0253.1097.0618.1616l.0237.0306c.1477.1738.1853.3769.1127.609l-.0159.0468c-.0255.0694-.0233.1154.0067.138.0171.0122.0408.0123.0652.0002.0245-.012.0474-.0351.0631-.0635l.0654-.1206.0612-.111.1101-.1932.0487-.0822.0446-.0726.0404-.0629.0363-.0534.0321-.0438c.02-.0259.0372-.0455.0517-.0586.1035-.0935.1665-.089.189.0135.009.0392.0045.0852-.0135.138-.0855.2623-.1695.5246-.252.787-.0186.0561.0082.1213.0652.1583.0855.0543.138.1296.1575.2261.0118.0541.0007.1255-.0334.2142l-.0161.0391c-.0975.2277-.132.4629-.1035.7056l.0563.5043c.0045.4342-.0293.8428-.1013 1.2257-.051.2774-.0165.5285.1035.7531l1.17 2.1891c.0336.0647.0344.138.0023.1945-.3435.5985-.513 1.2453-.5085 1.9404 0 .0693.0202.1394.0607.2103.2985.5231.1478.8865-.4522 1.09-.2747.0938-.7031.1358-1.2854.1261l-.189-.0048c-.0324-.0011-.0652-.0023-.0984-.0037-.0561-.0025-.111-.0298-.1532-.0753l-.02-.0242c-.153-.205-.4013-.3045-.7448-.2985-.0872.003-.167-.0517-.198-.1357-.147-.4116-.207-.8383-.18-1.28.0765-1.2514.0233-2.4959-.1597-3.7337-.1545-1.0448-.2715-2.0934-.351-3.1457-.033-.4463.0007-.9823.1012-1.608.156-.9799.2003-1.9697.1328-2.9693-.003-.0543.003-.1055.018-.1538l.0188-.0595.0181-.0502c.0588-.1517.1045-.147.137.014l.0093.0529.0085.0624c.0014.0112.0027.0228.004.0347.0045.0483.006.1025.0045.1628l-.0259.7774-.0236.7904c-.0038.1328-.0075.2661-.011.4l-.0204.8098-.0181.8227c-.0029.1821.0604.3577.1778.493.1466.1696.2206.1534.2219-.0484l-.0015-.0597c-.0011-.0214-.0028-.0443-.005-.0688l-.0039-.0379c-.0975-.879-.1118-1.7715-.0428-2.6776.2505.4749.3143.9672.1913 1.4767-.0188.08-.0124.1566.018.2149.0855.1658.1642.1281.2362-.1131.018-.0633.0225-.1357.0135-.2171-.0395-.3452-.0531-.787-.0407-1.3254l.0068-.2366c.0015-.0405.003-.0814.0047-.1228.0105-.2503-.102-.4606-.3375-.631l.1125-2.5373c.0105-.2428-.0645-.279-.225-.1086-.18.1934-.3095.4383-.3886.7345l-.033.1331-.0138.0481c-.0385.1222-.0712.1248-.0981.0078l-.0093-.0463-.0088-.0561c-.0014-.0102-.0028-.0208-.0042-.0318-.003-.0232-.004-.0479-.003-.0744l.003-.041c.0315-.3347.0293-.6686-.0067-1.0018-.0087-.0708-.0516-.1326-.1148-.1651-.7155-.3724-1.4265-.7531-2.133-1.142-.741-.4056-1.4115-.8481-2.0115-1.3275-1.656-1.3223-3.2107-2.7583-4.6642-4.3082-.06-.0633-.1223-.101-.1868-.113-.132-.0211-.1777.0437-.1372.1944.011.0405.0503.0872.1087.1303l.0308.0213c.1549.098.1232.2878-.0951.5693l-.0309.039c-.1393.1704-.202.3907-.1733.6083.096.7433.1268 1.5424.0923 2.3972-.015.3649-.0908.6287-.2273.7915-.1605.1885-.3997.3558-.7177.5021-.1447.0669-.3128.0619-.4545-.0136-.351-.1884-.6413-.1266-.8708.1855-.0698.0919-.1959.118-.2947.061-1.365-.796-2.6228-1.6463-3.7733-2.5509-.0581-.0464-.1349-.0616-.2066-.041-.0716.0206-.1295.0745-.1556.145-.462 1.2589-.6968 2.56-.7043 3.9033-.0005.0275.0114.0537.0324.0713s.0488.0247.0756.0192c.744-.1553 1.482-.3385 2.214-.5496.9915-.2849 2.0033-.4176 3.0353-.398.3525.006.6772.0973.9742.2737.0194.0118.0306.0333.0297.0567-.0009.0235-.0138.0457-.0342.0586-.2355.1477-.2797.3437-.1327.588.0288.047.0499.1003.0633.1599l.0087.0459c.0345.2109.162.2114.3824.0014l.0293-.0286c.1411-.1403.2226-.1195.2446.0627l.0029.0301c.018.2563.1035.4372.2565.5427l.0731.0521c.0112.0082.022.0162.0323.024l.0564.0438c.0084.0068.0164.0134.024.0198l.0397.0354c.0398.0382.0569.065.0513.0805-.03.0919-.2295.153-.5985.1831-.0519.004-.0977.0354-.1204.0824-.0227.0471-.0188.1026.0101.146.276.4101.285.677.027.8006l-.0276.0119-.0429.0162-.093.0325-.1668.055-.2412.0766c-.2325.0739-.4665.0777-.702.0113l-.126-.0347-.1141-.0296c-.0181-.0045-.0356-.0087-.0526-.0128l-.0963-.0217c-.015-.0032-.0296-.0062-.0436-.0089l-.0784-.0139c-.0603-.0094-.1082-.0133-.1437-.0118-.369.0121-.7298.0807-1.0823.2058-.2632.0932-.5313.1285-.8044.1058l-.0821-.0085c-.0822-.0104-.1573-.0025-.216.0226l-1.7437.7508c-.0366.0154-.0641.0471-.0757.0872-.0116.0402-.0061.0849.0149.1231l1.17 2.076c.042.0739.0908.1282.1463.1629.27.1614.5576.2759.8628.3433l.108.0222.3319.0981c.1579.0473.3017.0214.4314-.0777l.0321-.0264c.0645-.0561.1347-.0864.1935-.0836.1335.006.2543.049.3623.1289.0616.0448.1332.0636.198.052 1.107-.1749 2.1045.0769 2.9925.7553.0221.0166.0349.043.0339.0701-.0009.027-.0154.0509-.0384.0634-.0945.0482-.1973.058-.3083.0294-.0309-.008-.064-.0039-.0886.0109-.0246.0149-.0377.0386-.0351.0637.0045.0663.045.1168.1215.1515.0246.0112.0436.0317.0526.0566s.007.0519-.0054.0746c-.1261.2321-.103.442.0693.6297l.032.0329c.0408.0398.0758.0859.1051.1382l.0209.0404c.057.1207.144.2232.261.3076.0292.0213.0461.0557.0452.0915-.0009.0359-.0195.0686-.0497.0872-.186.1145-.2888.2902-.3083.5269-.006.0739-.0292.141-.0697.2013-.1143.1696-.0609.2254.1599.1673l.0644-.0186.0727-.0244c.3006-.1074.5411-.0522.7213.1656l.0279.0357c.0466.0643.1055.1091.1665.1267.651.199 1.1505.2638 1.4985.1944l.0272-.0058.0464-.0121c.1033-.031.1093-.0677.018-.1099l-.0417-.0172c-.0079-.0029-.0161-.0058-.0248-.0088l-.0273-.009c-.519-.1643-1.0403-.3211-1.5638-.4704-.0825-.0241-.15-.0542-.2025-.0904-.1584-.1062-.1341-.1588.073-.1579l.0609.0016.0701.0042.0791.0069.0882.0095c.6735.0799 1.3327.0241 1.9777-.1674.066-.0196.1388-.0218.2183-.0068l2.8732.579c.0223.004.0409.0194.0492.0406.0082.0212.005.0452-.0087.0634-.2535.3498-.1597.5646.2813.6445.0614.0116.1043.0664.099.1267-.027.2744.0097.536.1102.7847.0028.0071.0071.0156.0128.0255l.0218.0338.0306.0421.0395.0504.0485.0587.0893.1036c.0111.0126.0225.0255.0343.0387.1232.1379.1425.2949.0579.4708l-.0197.038c-.0288.0519-.0485.1071-.059.1658l-.0062.0446c-.0259.2721-.1811.3344-.4656.1868l-.0362-.0195c-.1065-.0588-.1755-.049-.207.0294-.0137.0339-.0124.0773.0041.13l.0117.0328c.1215.3155.0407.427-.2423.3345l-.0322-.0111c-.114-.0407-.2198-.0618-.3173-.0633-.471-.009-.8242-.0889-1.0597-.2397-.351-.2247-.6818-.34-.9923-.346l-.5152-.0113c-.2475-.0306-.495-.056-.7425-.0763l-.2475-.0187c-.1811-.0113-.4336-.0548-.7573-.1306l-.1678-.0406-.1797-.0459c-.327-.0844-.7057-.1395-1.1362-.1651-.8625-.0528-1.7243-.1033-2.5853-.1515-2.0535-.1161-4.08.0663-6.0795.5473-.2146.0521-.3999.1879-.5152.3776-.5475.9046-1.158 1.7632-1.8315 2.5759-.225.2713-.3705.6957-.4365 1.2732-.0072.0638.0351.122.0967.1334.6255.1116 1.245.0761 1.8585-.1063.0252-.0075.049-.0143.0713-.0202l.0627-.0153c.2334-.0515.26.0137.0797.1956l-.0494.048c-.0201.0187-.0328.0448-.0337.0691s.0101.0434.0292.0507c.03.0106.066.0091.108-.0045.543-.1839 1.0837-.4176 1.6222-.7011.0471-.0252.1028-.0286.1528-.0091.0501.0196.0895.06.1082.1109.0816.226.2309.2644.4478.1153l.0443-.0316.0327-.0202.0423-.023.0517-.026.0955-.0442.1168-.0506.189-.0776.227-.089.1952-.0742c.0893-.0333.1719-.0333.2115 0l.1147.095c.0659.0535.1313.0817.1733.0746.336-.0603.6583-.1629.9671-.3078l.1151-.0563c.2295-.1161.4005-.0837.513.0972.0416.0661.1064.102.1598.0882l1.332-.3414c.0634-.0159.1248-.0647.171-.1357.156-.2443.225-.5028.207-.7757l-.0079-.132-.0055-.1201-.0033-.1084c-.001-.0513-.0012-.0981-.0005-.1405l.0025-.079c.0037-.0731.0108-.1285.0214-.1663.2985-1.081 1.0493-1.6728 2.2523-1.7753.201-.0181.4567.0332.7672.1538.213.0814.4185.2307.6165.4478.486.5352 1.0118 1.0282 1.5773 1.479.234.1854.4155.4063.5445.6626.09.1809.1582.4515.2047.8119.093.7417.1733 1.4843.2408 2.2275.0233.2626-.0087.5518-.0963.8676l-.0252.0868c-.105.344-.1586.6569-.1607.9386l.0009.0836c.0165.5367-.1597.6724-.5287.407-.0529-.0361-.1235-.0396-.1845-.009l-.5873.2962c-.0487.0242-.1233.0148-.198-.0248l-.6457-.346c-.052-.029-.1247-.0082-.1733.0497-.2325.2759-.477.2503-.7335-.0769l-.027-.0303-.0373-.0369c-.007-.0066-.0145-.0136-.0225-.0208l-.0527-.0465-.063-.053-.0733-.0595-.1292-.1012c-.1118-.0853-.2154-.1917-.3107-.3191l-.047-.0654c-.3225-.4689-.7823-.9174-1.3793-1.3456-.0957-.0692-.2199-.0853-.3307-.043l-.2686.0993-.5288.1967c-.0872.0326-.1739.0651-.2601.0976-.2506.0932-.5671.1524-.9493.1776l-.097.0055c-.385.0194-.7347.0894-1.0491.2101l-.0849.0342c-.849.3603-1.674.5314-2.475.5133-.0046 0-.0118.0008-.0213.0023l-.0595.0117-.058.0134-.4237.1061c-.0452.011-.1199-.0137-.198-.0656-.161-.1042-.3507-.1072-.5692-.009l-.0473.0225c-.3585.1795-.9367.3174-1.7347.4139-.2448.029-.545.0257-.9007-.0099l-.0983-.0105c-.297-.0346-.5955-.0527-.8955-.0542-.0778 0-.15-.0205-.207-.0588-.2895-.184-.5108-.4222-.6638-.7147l-.0171-.0345-.0322-.0713-.0398-.0947-.1029-.2598-.1093-.2881-.0497-.1335c-.3765-1.0117-.4605-2.061-.252-3.148.156-.813.5826-1.5869 1.2796-2.3216l.0817-.0846c.0188-.0192.0363-.0376.0525-.0551l.0443-.0503c.0067-.008.0131-.0158.0191-.0234l.032-.043c.1116-.1628.0263-.2103-.2559-.1426-.069.0181-.144.0475-.225.0882l-.3567.1819-.1885.0939-.115.0562-.2044.0971-.0894.0409-.1182.0518-.099.0403-.0554.0205-.0468.0154c-.0142.0043-.027.0078-.0384.0103-.7005.1599-1.6387.1644-2.8147.0136-.0706-.0089-.1438.0028-.2115.0339-.525.2367-1.0778.3408-1.6583.3121-.0796-.0029-.1496-.0343-.1912-.0859l-.4635-.5744c-.0391-.0481-.0476-.1244-.0225-.2013.051-.1538.0765-.3113.0765-.4727.0003-.0161-.0013-.0363-.0047-.0605l-.0095-.0537c-.002-.0098-.0042-.0201-.0066-.0309l-.0171-.0697-.022-.0805-.0272-.0912-.0322-.1019c-.036-.1101-.0555-.2239-.0585-.3415-.003-.1071.0293-.2141.0968-.3212.309-.4884.6825-.9219 1.1205-1.3003.0195-.0151.039-.0264.0585-.0339.0836-.0256.1022-.0139.0558.0349l-.0286.0275-.0394.0337c-.0075.0062-.0154.0126-.0238.0192-.186.1508-.297.343-.333.5767-.021.1357.0165.1538.1125.0543l.9157-.9499c.0521-.0537.1357-.0766.2228-.061l.648.1131c.0699.0117.1327.046.1777.0972.1318.1495.2889.1585.4715.0269l.0325-.0246c.21-.1674.4815-.2164.8145-.147.0413.0091.0751.0387.0896.0785.0146.0399.008.0844-.0176.1182l-.8752 1.1127c-.213.2728-.1478.4161.1957.4296.6465.0242 1.293-.0497 1.9395-.2216.1496-.0389.262-.0124.3374.0797l.0181.0243c.0419.0617.1035.0978.162.095l2.3918-.156c.0694-.0057.1275-.0515.1462-.1154.1425-.4779.1755-.9649.099-1.4609-.3075-2.0187-.624-4.036-.9495-6.0517-.114-.7116.2048-1.3396.9563-1.8838.294-.2126.4515-.5006.4725-.8639.129-2.3293.4177-4.7702.8662-7.3227.126-.7176.4515-1.2521.9765-1.6034.0452-.0307.1012-.0406.154-.0272.0529.0134.0975.0488.1228.0973.1339.2562.2326.2699.296.0412l.0077-.0299c.0565-.2355.194-.3562.4126-.3621l.0419.0003c.066.003.1365-.0083.2115-.0339l.6885-.2375c.0577-.0198.1317-.0037.198.043.213.1523.4478.1967.7043.1334.0677-.0178.1382.0023.1822.052.4897.5459 1.0955.8485 1.8175.9079l.0867.0059.0809-.0031.4877-.0264c.5895-.0317 1.0702.1899 1.4422.6648.1214.155.3176.2089.4613.1267l.7065-.4026c.0241-.0141.0391-.0398.0404-.0692.0013-.0295-.0112-.0591-.0337-.08-.0938-.0883-.1917-.1833-.2939-.2852l-.1564-.1579-.1627-.1681-.1689-.1784c-.0287-.0306-.0577-.0616-.0869-.093l-.1783-.1937-.1847-.2039-.1909-.2142-.1973-.2243c-.7245-.8293-1.6102-1.5311-2.6572-2.1055-.1755-.095-.3-.2163-.3735-.3641-.0765-.1508-.1455-.3204-.207-.5088-.0344-.1017-.1305-.1664-.2318-.1561l-.8077.0882c-.066.0072-.1313.0483-.18.1131-.441.5895-.8775 1.1828-1.3095 1.7798-.4425.6106-.8258 1.2393-1.1498 1.8861-.843 1.684-1.623 3.3967-2.34 5.1381-.087.211-.1335.4312-.1395.6603-.0015.0693-.0377.1337-.0967.1719-.2805.1764-.4823.392-.6053.6468l-.6288 1.2998-.6312 1.2986c-.0472.0959-.0971.2358-.1496.4199l-.0353.1292-.0362.1424c-.0061.0248-.0122.0501-.0183.076l-.0373.162c-.084.3709-.2513.6988-.5018.9837l-.1501.1724-.1714.2006-.1387.1672-.0571.071-.0488.0626-.0407.0543-.0325.0459-.0132.0198c-.4185.6438-.8895 1.2469-1.413 1.8092l-.3547.3762-.1704.1763-.1309.131-.0762.0721-.0406.0352-.0192.0143c-.3855.2548-.8145.1862-1.287-.2058-.6555-.5473-1.005-1.2302-1.0485-2.0489l-.0156-.3186c-.0024-.0543-.0047-.1093-.007-.1648l-.0123-.3402-.0101-.3546c-.009-.4026.051-.7976.18-1.1851.01-.0299.0313-.0546.059-.0682.0276-.0137.0592-.0152.0873-.0041.2235.0934.3675.2781.432.554.051.2232.1507.2481.2992.0747 1.2795-1.4986 2.4315-3.2204 3.456-5.1653.0346-.0643.0401-.1404.0152-.2094s-.0778-.1244-.1457-.1524c-.318-.1297-.6142-.1937-.8887-.1922-.0669.0004-.1321.0003-.1958-.0002l-.1865-.0031c-.1212-.0031-.2362-.0081-.345-.015l-.1585-.0118c-.4871-.042-.8338-.1277-1.0402-.2571-.7005-.4357-1.263-.6807-1.6875-.735-.4455-.0573-.7823-.1387-1.0103-.2443-.0617-.0289-.1106-.0862-.135-.1583-.1875-.5668-.471-1.0719-.8505-1.5152-.0314-.0359-.0785-.0539-.1258-.0481-.0473.0059-.0886.0349-.1104.0775-.1395.2759-.2678.5549-.3848.8368-.108.2623-.2002.5556-.2767.8797-.363 1.5574-.591 2.952-.684 4.1838-.0435.5518.0097 1.0938.1597 1.626.1305.4673.1013.8963-.0877 1.2867l-.0939.1979-.0783.1738-.0436.1025c-.0067.0162-.0131.0319-.0192.0472l-.0332.0864c-.0297.0811-.0491.1461-.0581.1951-.18.9468-.2355 1.9041-.1665 2.8721.0135.1794.0495.2178.108.1153.015-.0256.0233-.0558.0248-.0905.0375-.7372.1087-1.4714.2137-2.2026.006-.0468.0188-.0905.0383-.1312l.0261-.0489c.0829-.1474.1248-.1379.1258.0286l-.0009.0546-.006.0996-.0033.038c-.18 2.0217-.1447 4.0284.1058 6.02.0285.2217.1095.2382.243.0498l1.1137-1.5695c.033-.0482.0615-.0445.0855.0113.108.2488.1995.3242.2745.2262l.0727-.0929.038-.0456.0685-.0581.0594-.0484.0798-.0621.047-.0344c.0074-.0052.0146-.0102.0216-.015l.0396-.026.0346-.0203.0296-.0147c.0679-.0297.0893-.0068.0641.0689l-.0126.0331c-.0025.006-.0052.0122-.0081.0186l-.02.0416-.0249.0471-.03.0527-.0542.0897-.0653.1023-.0765.115c-.0363.0538-.0515.1254-.0428.2013.033.2487-.0345.5088-.2025.7802-.378.6061-.72 1.3546-1.026 2.2456-.021.0618-.0247.1199-.0112.1742.043.1822.1116.1963.2057.0422l.029-.0513c.0049-.0093.0099-.0192.015-.0294.3135-.6377.6555-1.2589 1.026-1.8634.0225-.0377.0458-.0453.0698-.0227.0205.0204.0258.055.0135.0882l-.972 2.5962c-.0321.0851-.0192.1769.0337.2397.216.2503.3653.5247.4478.8232.0147.0505.0447.1019.0875.1501l.0272.0286c.1485.1417.1785.3467.09.6151-.0272.0811.0147.1693.0945.199.2025.0769.2918.2043.2678.3822l-.0112.0865-.0081.0741c-.0011.0113-.002.0221-.0028.0323l-.0034.0554c-.0015.041.0002.0691.0052.0841.0328.1016.0938.1847.1829.2494l.0399.0265c.0718.0425.1189.1017.126.1583.0215.1742-.0821.202-.3108.0835l-.0335-.0179c-.0239-.013-.0466-.025-.0681-.0359l-.0609-.0295-.0537-.023c-.1835-.0725-.2214-.0143-.1136.1746l.033.0548.0403.0612c.0073.0107.0149.0217.0228.033.1588.2268.227.4393.2047.6375l-.0067.0455c-.0108.0615-.0144.1201-.0108.1758l.004.0413c.0315.2246-.0562.3558-.2632.3935-.0525.0092-.0968.0446-.1177.0939s-.0156.1059.0142.1503c.1646.2447.1441.4399-.0616.5856l-.0307.0205c-.194.1216-.307.3226-.3389.6032l-.0053.0572c-.0099.1518-.0616.1774-.1552.0768l-.0181-.0203c-.09-.1055-.1867-.1885-.2902-.2488-.2614-.1525-.3499-.1182-.2654.1029l.0226.0544.0287.061.0348.0676.041.0743c.0074.0129.015.0261.0228.0396l.0502.0842c.0417.0693.057.151.0418.2236-.0151.0725-.0591.1288-.1205.1541l-.6953.2894c-.0614.0243-.1368.0038-.1912-.052-.1294-.1367-.2261-.2954-.2902-.4762l-.0226-.0688c-.093-.3045-.1867-.2857-.2812.0565-.0705.2533-.2175.4252-.441.5157-.0606.0253-.1327.0017-.1733-.0566l-1.8517-2.6278c-.0441-.0619-.0511-.1383-.018-.1945l.5737-1.0109c.065-.1156.0471-.2549-.0427-.3324-.34-.2877-.5402-.6089-.6006-.9638l-.0092-.063c-.036-.2985-.1462-.5623-.3307-.7915-.0459-.0577-.067-.1287-.0585-.1967.198-1.4036.336-2.8126.414-4.2267l.008-.1965.0041-.1704.003-.2577.0001-.2927-.0028-.3277-.0097-.5571-.0162-.6358-.027-.8413c-.032-.9073-.0225-1.8145.0284-2.7218l.0275-.4357.1623-2.3831.2136-4.4882.1342-2.5973.0416-.6883.0021-.0306c.099-1.4293.321-2.9136.666-4.4529.0142-.0625.0544-.116.1106-.147.0563-.0311.1232-.0368.1842-.0158.5655.199.8587.046.8797-.4591.0027-.0566-.0248-.1274-.0765-.1967-.1245-.1598-.1455-.3769-.063-.6513l.0303-.0966c.0051-.0155.0102-.0306.0154-.0455l.031-.0856c.2295-.6008.4987-.6124.8078-.0349l.0424.0824c.0142.0287.0285.0586.0429.0897.036.0769.081.1176.135.1221.0775.007.0969-.0291.0581-.1082l-.0109-.0207c-.279-.4922-.1906-.8514.2653-1.0776l.059-.0283.1649-.0949.1071-.0633c.1995-.1176.3502-.0008.4522.3505.0341.1151.1429.1918.2633.1854.3091-.0159.4367.1666.3828.5477l-.0071.0448c-.105.6197-.0885 1.2981.0495 2.0354.0225.1236.063.1296.1215.0181.105-.1975.1515-.3943.1395-.5903-.0036-.0488-.0251-.1062-.0617-.1655l-.0238-.0358c-.1305-.1824-.1762-.3852-.1372-.6083.0142-.0746.0743-.1272.1395-.1221.102.009.1747.0799.2182.2126.06.1764.201.3422.423.4975.0599.0414.0986.1085.1058.1832.0555.5638-.147.8631-.6075.8978-.0283.0022-.0544.0162-.0709.0381-.0166.022-.022.0495-.0146.075.0756.2701.2289.4845.46.643l.0507.0331c.1215.0739.1875.1802.198.3189.0059.085.0264.1565.0585.2035.4695.677 1.098 1.1436 1.8855 1.3999.023.0083.0486.0034.0675-.0128.0189-.0161.0283-.0413.0248-.0664-.0228-.1664-.0533-.3309-.0915-.4935l-.031-.1262-.0476-.344-.0279-.2122c-.0375-.2744-.1793-.527-.4253-.7576-.225-.2126-.2842-.4651-.1777-.7576.3735-1.0222.5182-2.0813.4342-3.1774-.0051-.073-.0557-.1347-.126-.1538-.5294-.1433-.9924-.4021-1.3889-.7765l-.0736-.0715c-.0108-.0109-.025-.0233-.0426-.0371l-.0395-.0297-.0762-.0519-.062-.0396-.1098-.0667-.13-.0755-.0979-.0554-.1068-.0592-.177-.0963-.1972-.1052c-.023-.0122-.0464-.0245-.0702-.037-.06-.0317-.1043-.0902-.1215-.1606-.078-.3211-.2865-.6339-.6255-.9385-.5715-.5096-1.0688-1.0848-1.4918-1.7255-.195-.2955-.192-.6106.009-.9453l.4883-.8051c.0293-.0495.0276-.1242-.0045-.199l-.1755-.4025c-.033-.0739-.0105-.0943.0675-.0611l.4012.1739.3425.1522.1774.081.2037.0959.1282.0629.107.055.0597.0324.0502.0289.0409.0255.0169.0114c.3705.2579.7785.4131 1.224.4659l.0797.0079c.3781.0304.4539-.0779.2275-.3251l-.0493-.0512-.0574-.055-.0317-.0289c-.0203-.0182-.0395-.0359-.0574-.0531l-.0502-.0501c-.2486-.2585-.1914-.3847.1717-.3785l.0716.0027c.0126.0007.0254.0015.0386.0025l.0824.0074c.0143.0014.0289.0031.0439.0048l.0931.012c.8666.1224 2.0076.0879 3.423-.1036l.3075-.0434c.129-.0196.231-.0218.306-.0068.2475.0453.2295.1915-.054.4388-.0528.0455-.0817.1131-.0782.1831.0035.0699.039.1342.0962.1742.345.2442.8385.4455 1.4805.6038.1458.0348.2724.1248.3533.251.336.5171.693 1.0403 1.071 1.5695.1965.2774.3075.7583.333 1.4428.003.0618-.0328.126-.0945.1696-.1815.1282-.219.3212-.1125.579.0807.1942-.0895.3759-.5108.5451l-.0517.0202c-.417.1583-.7013.4486-.8528.8707-.207.5756-.4178 1.1494-.6324 1.7216l-.2179.5769-.0062.0226-.0208.0928c-.0022.0103-.0045.0213-.0069.033-.015.0679-.0518.1161-.1103.1448-.066.0331-.0916.0137-.077-.0582l.005-.021c.0527-.1859.0555-.3712.0085-.5558l-.0175-.0616c-.0263-.0823-.0326-.1591-.018-.2193l.1395-.5835.0141-.0631c.0021-.0098.0039-.0192.0056-.0282l.0082-.0499.0043-.041c.0055-.0854-.0212-.0985-.0798-.0396l-.0272.0297-.031.0386-.035.0474c-.0061.0086-.0124.0176-.0189.027-.381.5533-.6255 1.1503-.7335 1.791-.0315.1885.0022.3069.1012.3551.0238.0125.0525.0101.0777-.0063.0251-.0164.0438-.045.0506-.0774.036-.1673.114-.291.234-.3709.072-.0467.1192-.0444.1417.0068.0155.0399.0046.1049-.0292.1742-.2625.5216-.1553.9649.3217 1.3297.7365.5594 1.3763 1.1692 1.9193 1.8296.0407.049.1029.0748.1663.069.0633-.0059.1198-.0427.1509-.0984 1.1625-2.1108 2.157-4.2976 2.9835-6.5606.1035-.2865.135-.5458.0945-.778-.0135-.0844-.0112-.1583.0068-.2216.078-.2702.1637-.5374.257-.8018l.0715-.1978c.0177-.0485.0358-.0992.0543-.152l.0565-.1651.0588-.1781c.0099-.0307.02-.062.0302-.0939l.0621-.1976.0643-.2106c.273-.9076.6863-1.7843 1.2398-2.6301.3255-.496.7665-.7176 1.323-.6649.0819.0085.1554-.0124.198-.0565l.504-.5224c.2163-.2232.346-.2054.389.0537zm48.6425 41.6322c.156.0377.176.098.059.181-.063.0443-.144.0383-.185-.0136-.025-.0332-.032-.0679-.02-.104.017-.0513.081-.0787.146-.0634zm19.83-4.541c-.081.5333-.11.9753-.087 1.3261l.006.0737c.084.9273.087 1.8628.011 2.8065l-.013.1496-.011.0891-.01.0693-.008.0353c-.001.0051-.002.0099-.003.0143l-.008.0221c-.009.0236-.02.0237-.03.0005l-.008-.0219-.008-.0306c-.001-.0058-.002-.012-.004-.0186l-.012-.069-.012-.0887-.017-.1491c-.063-.6076-.073-1.2928-.029-2.0557l.001-.0335-.002-.0985-.005-.1404-.011-.1822-.024-.3518-.016-.2113c-.025-.3241.01-.6694.106-1.0357.023-.0844.057-.144.104-.1787.076-.0542.106-.0279.09.0792zm-35.305-26.439c.474.0316.902.1749 1.285.4296.516.3438.802.8308.859 1.461.056.6226-.099 1.2227-.463 1.8001-.074.1168-.113.2548-.113.398l.016 4.1205c0 .1275.074.3097.207.5067l.65.927c.031.044.024.1218-.018.1968l-.551.9928c-.05.0886-.054.2011-.011.3053.237.5744.262 1.1722.076 1.7933-.026.0856-.012.1785.038.2527.049.0743.13.1219.219.1295 1.231.1056 2.258.5714 3.08 1.3976.427.4297.742.9966.945 1.7007.744 2.5931.433 5.0973-.934 7.5126-.217.383-.589.7915-1.116 1.2257l-.322.2633-.287.2307-.192.1515-.173.1332-.154.1149-.091.0664-.079.0554c-.516.3574-1.057.5948-1.622.7124-1.9128.3979-3.6936.4816-5.3427.2511l-.1701-.0249c-.579-.089-1.0875-.0988-1.5255-.0294-.2445.0392-.501.1673-.7695.3844-.2295.187-.465.3671-.7065.5405-.0589.042-.1319.0583-.2025.0452l-.3982-.0723c-.0528-.0097-.1099-.0078-.1714.0058l-.0469.0123c-.27.0799-.4327.009-.4882-.2126-.0216-.0828-.0171-.2107.0135-.3839l.0112-.0594c.0435-.2246.0765-.4515.099-.6807.021-.2306-.012-.4515-.099-.6626-.2985-.7146-.7305-1.3388-1.296-1.8725-.183-.1734-.171-.3241.036-.4523.0583-.0355.0895-.1009.0788-.1651l-.4793-2.7025c-.0128-.0741-.0569-.139-.1204-.177s-.1397-.0452-.2081-.0197c-.3917.1456-.6695.1258-.8333-.0596l-.0217-.0263c-.0469-.0619-.1049-.1069-.1665-.1289-.303-.1041-.4215-.3152-.3555-.6333l.0199-.0875c.0038-.0153.0078-.0311.012-.0471l.0282-.101.0335-.11c.0061-.0191.0124-.0385.0189-.0584l.0418-.1234.0472-.1324.0527-.1414.0582-.1503.0637-.1593.0691-.1683.0746-.1773c.2295-.5368.3205-1.0245.273-1.4631l-.0098-.0769c-.0921-.6296.0265-1.146.356-1.5491l.0423-.0498c.1395-.1583.24-.3385.3015-.5405.2385-.7975.723-1.2272 1.4535-1.289.0749-.0059.1428-.0392.189-.0928l.5483-.6293.2178-.2477.3399-.3832.2513-.28.233-.2564.2145-.2329.2424-.2579.1732-.1797.1549-.1562.104-.1016.0938-.0884.0834-.0751.0255-.0221c.3399-.2908.3876-.6068.1431-.948l-.0284-.038c-.441-.5684-.7185-1.1586-.8325-1.7707-.0525-.2775-.2152-.4516-.4882-.5224-.5145-.1312-.5505-.4275-.108-.8888.1106-.1154.2864-.1571.4567-.1086l1.5075.4275c.0462.0134.0961.0051.1377-.0228.0415-.028.0707-.0731.0806-.1242l.6457-3.4194c.046-.238.0059-.461-.1201-.6691l-.0306-.0478c-.2595-.386-.1373-.5827.3667-.5902.0718-.0001.1397-.0305.1868-.0837.7785-.876 1.7332-1.3682 2.8642-1.4768.543-.0527.9843-.0671 1.3253-.0429zm-28.6358 25.9799c0 .0467.0113.0852.0338.1153.0495.0649.0975.0739.144.0272.0458-.0432.0486-.123.0067-.19l-.0314-.0481c-.0898-.1294-.1401-.1245-.151.0148l-.0021.0514c-.0001.0094-.0001.0192 0 .0294zm58.8198-.493c.07.0859.057.1485-.041.1877-.073.0302-.153.0187-.202-.0294-.06-.0573-.039-.1183.065-.1832.059-.0384.136-.0276.178.0249zm-26.499-11.2229c-.025.009-.044.0299-.049.0557-.022.1016-.018.202.012.3013l.015.0424c.024.0634.005.0814-.056.0543-.813-.3528-1.63-.4832-2.451-.3912-.156.0181-.187.0904-.094.2171.699.9423.69 1.8363-.027 2.6821-.936 1.1036-1.8255 2.2434-2.6685 3.4194l-.1388.1959c-.0235.0336-.0472.0676-.0711.1021l-.1457.2124-.1503.2233-.155.2344-.1596.2453-.1642.2563-.1689.2672-.1735.2783-.1782.2892c-.48.784-.9615 1.5672-1.4445 2.3497-.0133.0209-.015.0473-.0045.0697.0105.0225.0317.038.0563.0411 1.6305.2442 3.2535.245 4.8685.0023.743-.1116 1.368-.2955 1.875-.5518.589-.2986 1.129-.6822 1.62-1.1511.318-.3046.605-.7704.861-1.3976.939-2.2932.977-4.526.113-6.6985-.236-.5926-.583-1.0388-1.042-1.3388-.023-.0157-.053-.0196-.079-.0105zm-4.109.4107-1.988.4297c-.226.0488-.3742.2552-.333.4636.081.4071.0975.8104.0495 1.2099-.0405.3287-.1703.7026-.3893 1.1217-.708 1.3584-1.5532 2.6233-2.5357 3.7948-.4455.5307-.8348.8684-1.1678 1.0131-.507.2217-1.056.2284-1.647.0204-.0795-.0272-.1095 0-.09.0814.0915.3995.2715.6837.54.8526.543.3422.999.3769 1.368.104l.0099-.0079.0237-.0219.0292-.03.0345-.0383.04-.0464.0701-.0849.0822-.1033.1641-.2129.1979-.264.0887-.1199c1.8975-2.5796 3.7357-5.2602 5.515-8.0418.061-.0971.041-.1371-.062-.1199zm30.668 8.4512c-.047.0424-.063.1211-.04.2013l.008.0277.016.0479c.045.1217.086.1235.125.0054l.013-.0466.014-.0567c.002-.0102.004-.0209.006-.032.013-.0654-.001-.1249-.036-.1538-.034-.0286-.07-.0264-.106.0068zm1.1-8.8993.012.0298c.223.5382.32.9754.29 1.3116-.172 1.8951-.139 3.7865.099 5.6741.045.3528.129.6309.252.8345l.031.0496.028.0403c.068.095.099.0906.093-.0132l-.004-.0436-.008-.0529-.005-.03c-.048-.2668-.089-.5322-.124-.796-.031-.2443-.045-.5126-.04-.8051.027-1.9102.03-3.7842.009-5.6221-.001-.1023-.038-.2006-.104-.2781l-.07-.0824-.097-.1111-.087-.096-.052-.0557-.048-.0489-.044-.0423-.039-.0357-.034-.0289c-.092-.0725-.13-.0646-.115.0238l.007.0346c.004.0126.008.0263.012.0412l.017.0479zm-35.1636 1.4358-.0212.021c-1.0635 1.0794-2.1622 2.0956-3.2962 3.0484-.2155.181-.4873.3719-.8156.5727l-.1002.0606c-.0613.0365-.1246.0748-.19.1149l-.202.1256-.214.1364c-.0366.0236-.0738.0477-.1115.0722l-.232.1524c-.1779.1164-.2255.2541-.143.4132l.017.0301c.0422.0703.0628.142.0585.2035-.036.4372.0083.8677.1328 1.2913.0519.1763.1198.1875.2037.0337l.0256-.0511.0266-.061c.009-.0219.0182-.0456.0276-.0709.0459-.1213.066-.2467.0603-.3762l-.0041-.0557c-.0389-.3885.0941-.5777.3991-.5675l.0374.0021c.258.0211.4133-.1228.4658-.4319l.1707-.9889.008-.0376c.0117-.0475.022-.0548.0307-.022l.0057.0278.0052.0398.1734 1.881c.024.2653.1268.3022.3083.1108 1.1865-1.2514 2.205-2.6354 3.0555-4.1521.261-.4659.3787-.934.3532-1.4044-.0114-.2173-.0899-.2567-.2353-.1182zm-31.3817-1.3359c-.4599.2311-.6681.5899-.6246 1.0762l.0059.0545c.0049.0392.0091.0836.0126.1332l.0062.1061.0044.1199c.0006.0212.0011.0429.0016.0652l.0017.1406.0001.1278-.0014.1564-.0051.2578-.0086.2855-.0122.3132-.0101.2242-.0117.2366c-.015.297.024.5315.117.7033.123.2232.2977.4026.5242.5383.0649.0393.0952.11.0698.1628l-.1148.2397c-.0359.0735-.0465.1459-.0292.199.15.4493.1462.9348-.0113 1.4564-.0233.0772-.0072.1612.0429.223.05.0617.1271.0927.2046.0823l1.584-.2103c.0765-.009.0848-.0399.0248-.0927-.771-.6619-1.347-1.4534-1.728-2.3746-.1785-.4297-.2678-.9611-.2678-1.5943v-1.7821c0-.1703.1268-.3746.3803-.6128.054-.0513.0855-.1033.0945-.1561.03-.1523-.0533-.1786-.2498-.0791zm2.3355 6.5809c-.0137.0526.0303.1193.1058.1606.1395.0768.1867.0565.1417-.0611-.0215-.0535-.0637-.096-.117-.1176-.075-.0317-.1185-.0256-.1305.0181zm62.8858-5.2357c-.025.0129-.043.0388-.048.0682l-.009.0578-.017.1249c-.003.0219-.005.0442-.008.0671l-.015.1434-.013.1558c-.002.027-.004.0545-.006.0825l-.011.1743-.009.1866-.008.199-.007.2113-.005.2241-.003.2196-.001.2088.001.198c.001.0321.001.0637.002.0949l.005.1817.007.1709c.001.0276.003.0547.004.0814l.011.1546c.002.0249.004.0493.006.0733l.015.1384c.007.0665.016.1289.025.1873.039.2429.007.6186-.095 1.1271l-.035.165c-.006.0283-.013.0569-.019.0858l-.042.1783c-.007.0304-.015.0612-.023.0924-.009.0377-.009.0709-.002.0995.015.0648.045.0852.09.0611.035-.0167.061-.0626.07-.1212l.002-.0258c.012-.2307.092-.4244.239-.5812.053-.0567.084-.1254.085-.1922.033-1.2996.041-2.5992.025-3.8988-.002-.19-.047-.3197-.137-.389-.021-.016-.049-.0179-.074-.0049zm-11.199 1.3098-.167.0874-.156.0834-.144.0794c-.023.0129-.046.0257-.068.0382l-.127.0734-.115.0693-.104.0654-.093.0613-.081.0573c-.012.0092-.024.0182-.036.0271-.339.2548-.608.597-.806 1.0267-.126.2755-.049.399.233.3705l.035-.0041c.266-.0368.496.0424.689.2376l.038.0406c.115.1281.184.1025.205-.0769l.036-.3031c.009-.0784.042-.0836.101-.0158l.751.8729c.044.0511.112.0879.192.1041.978.1869 1.956.1696 2.934-.0521.077-.0175.134-.0794.141-.1537l.304-2.8993c.009-.0855-.051-.1647-.139-.1831-1.362-.285-2.57-.1538-3.623.3935zm25.299-11.4432-.021.0011-.109.0113-.328.0399-.599.0766c-.588.0769-1.172.1772-1.751.3008-.135.0287-.204.0837-.207.1651-.001.028.013.0544.04.0717.026.0172.061.0233.095.0165l1.428-.2631.533-.093.123-.0193c.231-.0332.471-.0196.722.0407.075.019.129.0748.137.1402.015.1131-.046.1681-.184.1651-.503-.0139-.993.0486-1.472.1876l-.119.0363c-.311.0976-.628.1687-.95.2132l-.139.0175c-.335.0377-.449.2065-.344.5065.027.0799.036.1523.027.2171l-.024.1741-.02.1644-.018.1547-.014.1449-.012.1353-.009.1255c-.002.0201-.003.0398-.004.0592l-.005.1109-.002.1013c0 .0803.002.1505.007.2106l.004.0348c.189 1.6037.176 3.2038-.039 4.8006l-.045.3184-.023.1737-.031.2737-.041.4098-.035.3819c-.003.0338-.006.0682-.009.103l-.011.1235-.015.1354-.019.1471-.021.159-.025.1709-.044.2784-.033.2004-.037.2123c-.112.6392-.171 1.2845-.175 1.9358-.002.0719.032.1397.09.1809.576.4116 1.202.5918 1.879.5405.385-.0286.732-.1937 1.041-.4952.578-.5639 1.055-1.271 1.431-2.1213.561-1.2649 1.13-2.5268 1.706-3.7857.528-1.1534.839-2.4025.934-3.7473.005-.0854-.05-.1781-.144-.242l-.387-.2601c-.05-.0334-.08-.1058-.077-.1899.008-.285-.037-.5066-.133-.6649-.135-.222-.213-.4248-.235-.6082l-.005-.0544c-.004-.0815-.038-.1499-.09-.1809l-1.074-.6468c-.067-.0414-.12-.0946-.153-.1538-.223-.4116-.545-.6257-.965-.6423zm-9 11.2737-.007.0049c-.02.0125-.034.0324-.039.0552s-.001.0468.011.0665l.931 1.4741c.013.0198.032.0337.055.0388s.047.0009.066-.0116l.008-.0048c.02-.0126.033-.0324.039-.0553.005-.0228 0-.0467-.012-.0665l-.931-1.474c-.012-.0198-.032-.0338-.055-.0389-.022-.0051-.046-.0009-.066.0116zm-4.03-1.127.003.0979c.025.7538.021 1.5084-.012 2.2637-.004.0769.036.1433.095.1583.094.0226.15-.0452.166-.2035.066-.6619.087-1.4459.061-2.352-.003-.0949-.022-.1824-.058-.2623l-.028-.0593-.025-.0512c-.009-.0157-.017-.0301-.025-.0432l-.022-.0351c-.052-.0725-.09-.0792-.116-.02l-.01.0294c-.005.0167-.009.0364-.013.0591l-.007.0496-.005.0576-.003.0656-.002.0737v.0818zm-40.6525-1.6435c-.2025.0724-.3518.2488-.4478.5292-.168.496-.2265 1.0094-.1755 1.5401.0045.0443.0082.0957.0111.1541l.0047.1263c.009.3784.1237.4124.3442.1018l.0076-.0128.0182-.036.0222-.05.0263-.0641c.0315-.0829.081-.1221.1485-.1176.0274.0025.0514.0201.065.0479.0135.0277.0153.0626.0047.0946-.066.2096-.012.2782.162.2058.0495-.0211.1028-.058.1598-.1108.5925-.5382 1.23-1.0146 1.9125-1.4293.081-.0497.099-.0346.054.0453-.039.0693-.0998.1387-.1823.208-.729.6136-1.3207 1.3403-1.7752 2.1801-.0137.0252-.0262.0491-.0377.0719l-.0314.0648c-.127.2754-.0616.3341.1961.1762l.0604-.0387c.0106-.007.0215-.0144.0326-.022l.0342-.0238c1.086-.7644 2.1878-1.6727 3.3053-2.7251.0178-.0172.0255-.0424.0205-.0668-.005-.0243-.0221-.0443-.0453-.053-.663-.2367-1.3185-.2692-1.9665-.0973-.5145.1342-.8805-.0211-1.098-.4658-.0365-.0734-.0863-.1297-.1417-.1606-.24-.1267-.4695-.1508-.6885-.0724zm43.7425-.1492c.258 1.2166.781 2.2954 1.57 3.2362.137.1613.228.1914.275.0904.025-.0541.011-.1311-.036-.2013-.663-.992-1.206-2.0443-1.629-3.157-.015-.0407-.035-.0761-.059-.1063-.115-.1495-.162-.1425-.142.0211l.009.0537c.003.0195.007.0406.012.0632zm-.772-1.4202c.112 1.0629.406 2.0715.88 3.0258.016.0332.037.0543.063.0633.017.0043.034-.003.045-.0191.012-.0161.016-.0388.011-.06-.227-1.0332-.489-1.9819-.786-2.846l-.082-.2337-.024-.0643-.022-.0548-.019-.0453c-.007-.0135-.013-.0255-.018-.0358l-.015-.0264c-.027-.0396-.042-.0313-.047.0247l-.001.0354c-.001.0066-.001.0137 0 .0212l.001.0495.004.0591zm2.83-4.0278-1.982 1.1059c-.07.0389-.112.1162-.108.199.09 2.0731.779 3.9101 2.066 5.5113.169.211.252.1809.249-.0905-.007-.587 0-1.1458.023-1.6763l.011-.2256c.08-1.5695.087-3.1231.023-4.6609-.004-.067-.041-.1278-.098-.1609s-.126-.0339-.184-.002zm-20.871 3.9056c-.649.389-1.216.8737-1.701 1.4542-.34.4055-.507.8247-.499 1.2574.001.0784.027.0874.076.0271.607-.7425 1.226-1.473 1.858-2.1914l.404-.4556.04-.0473.033-.0412.026-.0352c.004-.0053.007-.0104.01-.0153l.014-.026c.02-.0422.003-.0538-.052-.0348l-.033.0134c-.006.0027-.013.0057-.02.009l-.044.0225-.052.0286zm-13.448 1.4023c-.138.0019-.219.0207-.224.0521-.003.0257.044.0582.133.0925l.066.0231c.132.0425.314.0825.505.1113.191.0287.376.0437.515.0418.138-.0019.219-.0206.223-.0521.004-.0257-.043-.0582-.132-.0925l-.066-.023c-.132-.0426-.314-.0826-.505-.1113-.191-.0288-.376-.0438-.515-.0419zm-6.4483-.319c-.2325.0633-.2565.15-.072.2601.0632.0388.1407.0396.2003.0022.093-.0588.1132-.1274.0607-.2058-.0378-.0541-.1133-.0767-.189-.0565zm-1.8652-2.21-.0563.0616-.1068.1204c-.017.0194-.0336.0385-.0498.0573l-.0924.109c-.0292.035-.0568.0688-.0828.1013l-.0732.0937c-.0684.0898-.1224.1682-.162.2352-.1395.2367-.0735.3392.198.3075.567-.0633.7958-.2616.6863-.5947-.0247-.073-.0263-.1459-.0045-.2058l.0403-.1203.0218-.0717c.0033-.0114.0065-.0225.0094-.0333l.0159-.0614.0118-.0545.0078-.0478c.0185-.1404-.0234-.178-.1255-.1129l-.0343.024c-.006.0045-.0122.0094-.0186.0145l-.0403.0343c-.007.0062-.0142.0128-.0216.0196l-.0463.0445c-.008.008-.0162.0163-.0246.0248zm-26.4578.7287c-.1191.0585-.1273.0936-.0245.1052l.047.0034c.336.015.6068-.0174.8123-.0973l.048-.0201.037-.0187c.0683-.039.0589-.0681-.0281-.0874l-.0457-.0082c-.0085-.0012-.0175-.0024-.027-.0035-.2985-.0347-.5715.0075-.819.1266zm3.0623-.2194c-.057.0151-.0975.0536-.1215.1154-.045.1116.0127.1409.1732.0882.0332-.0113.0609-.0345.076-.0635.0151-.0291.0161-.0611.0028-.088-.0255-.0528-.069-.0701-.1305-.0521zm-12.456-3.7337c-.438 1.3539-1.0103 2.6452-1.7168 3.874-.0099.0169-.0132.0345-.009.0475.0015.009.006.0158.0135.0203.0153.0126.0445.0047.0675-.0181.438-.4402.7815-.9385 1.0305-1.4948l.0476-.1044.093-.1996c.0153-.0322.0304-.064.0455-.0952l.0889-.181.0861-.1686c.0707-.1354.1384-.2579.2033-.3675l.0386-.0642c.2295-.3694.4373-.7614.6233-1.176.0197-.0438.0214-.0937.0045-.1386-.0169-.045-.0509-.0814-.0945-.1011-.2715-.1236-.4455-.0679-.522.1673zm5.9062-2.7884-.0171.0462-.0174.0537c-.003.0095-.0059.0194-.0089.0296l-.018.0651-.0278.1118-.0285.1289-.0394.1983-.0202.1105-.0415.2438-.0322.2027-.0441.2968-.0226.1598-.0581.4326-.0605.48-.05.418-.0384.3334c-.0043.038-.0087.0763-.013.115-.0554.4939-.1587.9768-.3101 1.4487l-.0522.1569c-.165.4764-.1462.8059.0563.9883.18.1643.2767.1168.2902-.1425.036-.725.1117-1.4452.2271-2.1607l.0715-.4276.0367-.2446.0286-.2074.0397-.3084.0414-.3448.0431-.3814.0563-.5279.0711-.7087.037-.3852.0067-.0759.006-.0957.0014-.0517c0-.0078 0-.0152-.0001-.0222l-.0018-.0371c-.0052-.0593-.0211-.0696-.0476-.0311l-.0155.0258-.0177.0355-.0197.0453c-.0035.0083-.007.0171-.0107.0262zm69.4668 5.1562c-.037.0618-.053.1369-.048.2149l.012.1364.012.1205.012.1044.009.0607.01.0536.009.0464c.002.0072.004.0141.005.0206l.011.0358c.001.0054.003.0104.005.0152l.011.0251c.025.0503.054.0423.086-.0238l.013-.0318.014-.039.015-.0462.022-.0825.023-.0986.024-.1146.025-.1306c.003-.0154.006-.0311.009-.0471.013-.0769.012-.1455-.003-.2058-.054-.2292-.146-.2337-.276-.0136zm-50.111.3727c-.0118.0249.0132.0662.0696.1149.0564.0486.1395.1006.2311.1445.1906.0914.3651.1235.3898.0717.0118-.0249-.0133-.0663-.0696-.1149-.0564-.0487-.1396-.1007-.2311-.1446-.1907-.0914-.3652-.1234-.3898-.0716zm16.111-2.5324c-.774.101-1.497.3498-2.169.7463-.0653.0391-.1042.1044-.1013.1696l.0473 1.2438c.0009.027.0153.0517.0389.0671.0237.0154.0541.0199.0826.0121l1.8315-.5518c.3195-.0965.4792-.3053.4792-.6265v-.8774c-.0001-.0534-.0232-.1042-.0633-.1393s-.0933-.0511-.1459-.0439zm-41.8266-.0662-1.0373 1.9609c-.0151.0287-.0043.0643.0242.0795l.0636.034c.0285.0152.0639.0044.0791-.0243l1.0373-1.9609c.0152-.0286.0043-.0642-.0242-.0795l-.0635-.034c-.0286-.0152-.064-.0043-.0792.0243zm28.5898.8419c.0345.0347.069.0558.1035.0633.0705.0136.1095-.0121.117-.0769.0076-.0627-.0409-.1249-.1147-.147l-.0308-.0086-.0545-.0131c-.1751-.0368-.1819.024-.0205.1823zm-1.1019-.4927.0534.0517c.081.0784.1388.098.1733.0588.0173-.0188.021-.0468.0101-.0765-.0108-.0297-.0352-.058-.0664-.0773l-.0671-.0405-.0867-.0499-.0483-.0261-.0408-.0203-.0333-.0146c-.0589-.0234-.0727-.0122-.0413.0335l.0195.0258.0271.0315.0345.0372zm8.7654-.8167c.1725.2382.357.4756.5535.7124.2295.2759.3765.2223.441-.1606.0203-.12-.0262-.2328-.1147-.2782l-.783-.407c-.1835-.095-.2264-.0662-.1286.0864zm-16.2161-1.7175c-.0056.0088.0042.027.0276.0532l.0279.0289.0365.0339.0448.0387.0527.0432.093.0726.1086.0811.1228.0886.1357.0951.1474.1008.2124.1412.2275.1471.1489.094.1777.1101.1732.1048.1665.0983.1575.0905.1466.0815.1144.0612.1241.0631.0708.0338c.0109.005.0215.0098.0316.0142l.0558.0234c.0674.0265.1069.0342.1148.0215.0055-.0088-.0043-.027-.0277-.0533l-.0278-.0288-.0366-.0339-.0448-.0387-.0527-.0433-.0929-.0726-.1086-.081-.1228-.0886-.1358-.0952-.1474-.1007-.2123-.1412-.2276-.1471-.1488-.0941-.1778-.11-.1732-.1049-.1664-.0983-.1576-.0905-.1465-.0814-.1144-.0613-.1241-.0631-.0708-.0337c-.011-.005-.0215-.0098-.0317-.0143l-.0557-.0234c-.0674-.0265-.1069-.0341-.1148-.0214zm43.7334-5.1054c-.948.3784-1.87.8744-2.765 1.488-.347.2372-.695.4734-1.043.7086l-.523.3521c-.458.3045-.839.594-1.143.8684l-.068.0616-.129.1194c-.021.0195-.041.0387-.061.0578l-.116.1116-.107.1064c-.238.2422-.403.442-.493.5993-.303.5262-.47 1.1481-.5 1.8657-.003.0724.027.0905.09.0543 1.298-.7357 2.67-1.3825 4.118-1.9404.185-.0718.348-.209.463-.3912l2.439-3.8603c.15-.2383.096-.3053-.162-.2013zm23.938 5.8301c.037.0075.076.0226.115.0452l.101.059.084.0516.046.0302.039.0269.031.0235c.009.0073.017.014.023.0202l.016.0169c.018.0229.011.0345-.023.035l-.026-.0014c-.005-.0005-.01-.0012-.016-.0019l-.038-.0064-.045-.0097-.082-.0208-.1-.0282-.076-.023c-.042-.0136-.079-.0339-.112-.0611l-.043-.0375c-.127-.1174-.092-.1569.106-.1185zm-9.981-.6174c-.034.0167-.061.044-.075.0745-.013.0305-.011.0612.005.0838.036.0483.103.0332.2-.0452l.088-.0721.049-.042.059-.0541.03-.03.023-.0252.015-.0203c.018-.027.01-.0377-.022-.0322l-.026.006-.032.0109-.041.0157-.074.0326-.059.0277-.102.0506c-.013.0063-.025.0127-.038.0193zm-37.5908-3.4126c-.1098.1184-.1211.2984-.027.4297.372.5096.6315 1.0931.7785 1.7504.0147.0692.0068.1442-.0225.2148-.0141.0336-.0273.0664-.0397.0984l-.0345.0934c-.016.0455-.03.0892-.0421.131l-.0216.0811c-.1492.6165.1765.7812.9772.4939.0604-.0222.1027-.0833.108-.156l.306-3.6613c.0053-.0665-.0345-.1265-.0945-.1425-.684-.1779-1.3133.0445-1.8878.6671zm-20.8263 2.0546c-.0199.027.0371.1097.1585.2299s.2973.2681.4889.4111c.1917.1431.3834.2696.533.3516l.0335.0181.0611.0305c.0949.0447.1548.0582.1701.0375.0199-.027-.0371-.1097-.1585-.2299s-.2973-.2681-.4889-.4111c-.1916-.1431-.3833-.2696-.5329-.3516l-.0336-.0181-.0611-.0305c-.0949-.0447-.1548-.0582-.1701-.0375zm1.7418.5846c-.03.0301-.0397.061-.0292.0927.0181.0555.0966.0863.1845.0724.132-.0211.129-.0784-.009-.1719-.0483-.0319-.109-.0291-.1463.0068zm.4658-.2737c-.0292-.0021-.0578.0094-.0763.0307-.0185.0214-.0245.0497-.016.0756.024.0769.0683.1372.1328.1809.0263.0172.0587.0221.0892.0135s.0561-.03.0705-.0587c.0705-.1432.0038-.2239-.2002-.242zm56.1375-4.3013c-.009.0105-.019.0229-.03.0374l-.034.0494-.039.0615-.044.0734-.048.0855-.053.0975-.058.1095-.062.1216c-.01.0212-.021.043-.033.0653-.088.1755-.213.3689-.377.5802l-.064.0801c-.378.4711-.621.9776-.728 1.5195l-.019.102c-.063.3769-.152.6784-.267.9046-.038.0739-.054.0701-.048-.0113.055-.6316.178-1.2492.368-1.853l.053-.1643c.051-.1492.036-.2171-.045-.2035-.066.0107-.122.0672-.144.1447l-.614 2.1892c-.007.0226 0 .0468.018.0645s.045.0266.072.0237c.123-.0121.238.015.346.0814.055.0341.124.0231.156-.0249.332-.5074.61-1.1122.835-1.8145l.044-.1417c.195-.6407.518-1.3215.968-2.0421.046-.0741.06-.1506.038-.2013-.03-.0663-.094-.0445-.191.0656zm1.188 1.9811c-.045.0633-.097.1206-.155.1718-.359.3124-.616.6307-.772.9549l-.032.0696c-.064.1477-.136.2691-.216.3641-.093.107-.181.2178-.265.3324-.163.2197-.142.296.064.2288l.055-.0198c.01-.0038.02-.0079.031-.0122l1.825-.7802c.074-.0306.132-.0788.162-.1357.127-.2425.061-.3238-.197-.2438l-.066.0223c-.035.0127-.072.0277-.112.0451-.028.0121-.06.0112-.084-.0022-.025-.0135-.038-.0376-.036-.0634.003-.0528.029-.0882.079-.1064l.023-.0067c.386-.0988.505-.2965.357-.5931l-.018-.0333c-.043-.0772-.081-.1626-.113-.2562l-.024-.0717c-.081-.2714-.25-.2262-.506.1357zm-70.3238 1.73c-.1065.0693-.0735.1447.099.2261l.1113.0518.0963.0423.0813.033.0459.0169.0392.0126.0325.0085.0259.0044c.0413.0042.049-.0126.0231-.0503l-.0175-.0227-.0241-.0268-.0308-.0309-.0375-.0351-.0687-.0605-.0837-.0698-.0987-.0792c-.0608-.0475-.1384-.0557-.1935-.0203zm-1.9192-8.3313c-.0285.0256-.054.0573-.0765.095-1.2885 2.2042-2.4458 4.4762-3.4718 6.8161-.039.0919-.0705.1786-.0945.26l-.0222.0798c-.0034.0128-.0067.0252-.0098.0374l-.0169.0695-.0135.0627-.0098.0558c-.0028.0174-.0049.0338-.0064.0489l-.0028.0421c-.0036.129.0517.1437.1658.0442l.036-.0333.0395-.0401c.0069-.0072.0139-.0148.0211-.0226l.0448-.0504.0483-.0573.0792-.0987c.045-.0588.0622-.0505.0517.0249-.0495.3452-.1305.6845-.243 1.0176-.027.083-.0292.1583-.0067.2262.0285.0844.063.0837.1035-.0023.1995-.407.3607-.8277.4837-1.2619.1425-.505.3008-.9227.4748-1.2528l.0637-.1215.1218-.2361.1146-.2267.1074-.2176.1-.2082c.0161-.0339.0318-.0675.0473-.1006l.0891-.1944c.0284-.0632.0557-.1249.0818-.1851l.0745-.1758c.0118-.0285.0233-.0567.0345-.0844.5625-1.4006 1.1325-2.7975 1.71-4.1906l.0226-.0571.0166-.0486c.0411-.1328.0024-.1499-.116-.0513zm50.859 8.3336c.001.0234.012.0453.029.061s.04.0239.063.0226c.215-.0135.33-.0738.347-.1809.008-.062-.041-.1272-.12-.156-.226-.083-.333.0015-.319.2533zm20.455-3.044c-.056.0362-.106.0889-.151.1583-.326.5051-.626 1.0252-.9 1.5604-.042.0799-.022.1139.061.1018.093-.0136.167-.0705.223-.1708l.017-.035c.092-.1915.229-.3204.412-.3867.069-.0249.088-.0092.057.047l-.01.0163c-.25.398-.471.8111-.663 1.2393-.026.0573-.039.1138-.039.1696.002.1992.067.223.197.0712l.039-.0481c.007-.0088.014-.018.021-.0276.038-.0525.078-.1187.121-.1985l.043-.0844c.014-.0296.029-.0608.044-.0935l.045-.1025.047-.1117.048-.1208.05-.1299.05-.139.053-.1481.053-.1571.055-.1663.056-.1754.086-.2802.06-.1981.091-.3143.019-.0727c.063-.2617.001-.3294-.185-.2032zm7.548 2.3542c-.037.0106-.078.0158-.121.0158l-.06.0011-.049.003c-.119.0109-.13.0436-.032.098l.042.0214.052.0235c.034.0151.072.0211.112.0181.539-.0407 1.077-.0625 1.616-.0656.077 0 .148-.0241.2-.0678.145-.1221.125-.1734-.061-.1538-.051.0045-.097.0045-.139 0-.525-.0693-1.045-.0339-1.56.1063zm-16.519-.8797c.077.0215.139.0676.169.1266.048.0935.017.147-.093.1606-.065.007-.136-.0223-.191-.0792l-.043-.0474-.034-.0423c-.111-.1452-.047-.1847.192-.1183zm-5.677-.2323c-.038.0566-.064.118-.072.1706-.009.0527.001.0923.027.1101.055.0371.164-.0284.243-.1463.038-.0566.064-.118.073-.1707.008-.0526-.002-.0922-.028-.11-.055-.0371-.163.0284-.243.1463zm18.52-5.7765-.389.1388-.124.0417-.018.005c-1.554.3075-2.894 1.0945-4.019 2.361l-.018.0211-.029.0378c-.064.0866-.045.1151.057.0856l.046-.0149.323-.125c.048-.019.096-.0379.144-.0566l.277-.1114c.046-.0184.09-.0366.135-.0547l.261-.1088.099-.0259.483-.1154c.228-.0543.405-.1997.531-.4364.075-.1433.045-.2217-.09-.2352-.029-.0035-.056-.0181-.073-.0397-.016-.0216-.021-.0478-.013-.0711.056-.1723.17-.2135.343-.1236l.031.0173c.067.0393.139.0545.205.0429.879-.1507 1.696-.5179 2.452-1.1013.066-.0513.06-.0912-.018-.1199-.204-.0769-.403-.0806-.596-.0113zm-1.255 1.337c-.069.0265-.154.0755-.236.1362-.081.0606-.153.128-.198.1872-.046.0593-.062.1056-.045.1287.017.0232.066.0213.135-.0052.07-.0266.155-.0755.237-.1362.081-.0606.153-.128.198-.1873.046-.0592.062-.1055.045-.1286-.017-.0232-.066-.0213-.136.0052zm5.028-2.2823c-.052.0015-.107.0143-.164.0385-1.173.4884-2.315 1.0433-3.425 1.6644-.028.0162-.05.042-.06.0717-.011.0298-.008.0609.006.0866.078.1432.213.1621.403.0566 1.05-.5805 2.116-1.1308 3.197-1.6509.054-.0272.099-.0543.133-.0814.165-.1312.135-.193-.09-.1855zm-22.671-.0972c-1.044.0919-2.002.4447-2.875 1.0584-.033.0226-.063.0482-.088.0768l-.038.0425c-.006.0066-.012.0129-.017.019l-.026.034c-.05.0675-.044.0953.016.0834l.032-.0082c.006-.0019.012-.004.019-.0063l.043-.0167c.008-.0033.016-.0068.025-.0105l.055-.0252c.01-.0047.02-.0096.03-.0147.618-.3031 1.265-.5149 1.94-.6355.715-.1281 1.434-.2284 2.155-.3008.124-.0129.263-.0103.417.0078l.078.0103c.173.0257.339.0392.5.0407.094.0015.101-.0226.02-.0723-.379-.2337-.757-.3574-1.134-.3709l-.033.0001-.132.007-.359.0272zm4.912.6377c.214.0664.23.1349.047.2058-.077.0312-.158.0193-.198-.0294-.03-.0347-.034-.0739-.013-.1176.025-.0546.095-.0797.164-.0588zm21.211-.9001c-.228.0438-.411.1327-.549.2669-.059.056-.086.1299-.072.1945.021.0874.084.1018.191.043.192-.1056.354-.2428.486-.4116.063-.083.044-.1139-.056-.0928zm-7.531-.7372c-.344.0467-.53.2352-.558.5654-.003.0269.008.0533.029.0705.022.0172.05.023.077.0154.216-.0633.399-.1817.551-.355.205-.2352.172-.334-.099-.2963zm-18.672-8.0436.071.0266c.554.2202 1.199.2639 1.937.1312.128-.0221.26-.0064.378.0452.978.4312 1.898.9054 2.759 1.4225.151.092.237.2442.256.4568.009.0893.018.1688.029.2385l.016.0972c.008.045.017.0844.027.1184l.009.0321c.057.1734.103.3498.138.5292.034.1734.018.3483-.05.5247-.12.3151-.24.5797-.36.7938-.093.1657-.137.354-.128.5427l.004.0566c.038.3693-.057.6256-.283.7689-.056.0349-.094.0927-.105.1583-.01.0656.008.1324.051.1832.25.303.104.545-.439.7259-.082.0266-.17.0297-.252.009l-.607-.1477c-.102-.0246-.205-.0493-.309-.0739-.31-.0739-.604-.1809-.882-.3211-.441-.2201-.881-.4429-1.32-.6684l-.664-.3442-.761-.4574c-.444-.2668-.93-.4342-1.46-.502-.345-.0443-.681-.0232-1.007.063l-.089.0252c-.39.1196-.517-.0022-.381-.3654l.015-.0372c.108-.2638.133-.5254.076-.7847l-.146-.6875c-.053-.3965-.174-.7734-.365-1.1307-.03-.057-.013-.1264.039-.1583.825-.4976 1.689-.9167 2.592-1.2574.403-.151.807-.1553 1.211-.0131zm-55.1753 3.8033c-.0076.0228-.0026.048.0132.0661.0157.0182.0398.0266.0633.0221.183-.0301.3158-.1116.3983-.2442.016-.0254.0192-.0568.0086-.0849s-.0339-.0494-.0626-.0576c-.192-.0558-.3323.0437-.4208.2985zm-9.1584-.2702-.0283.0011c-.777.0347-1.5495.1078-2.3175.2194-.019.003-.04.0043-.063.004l-.036-.0018c-.093-.0075-.1253.0106-.0968.0543.0212.0308.0665.0489.1193.0475.3795-.006.7575.003 1.134.0271.4725.0317.903-.0422 1.2915-.2216l.0487-.024c.0073-.0037.0142-.0074.0207-.011l.034-.0203c.063-.0414.0571-.0657-.0178-.0729l-.0395-.0021zm62.0157-.6525-.504.0701c-.019.0027-.052-.0074-.088-.0271-.017-.009-.033-.0143-.05-.0158-.02-.0011-.039.0098-.053.03s-.022.0478-.021.0763l.034.6897c.004.0724.034.0867.088.043.163-.1357.329-.2691.497-.4003.049-.0377.111-.0712.187-.1005l.047-.0171c.247-.0844.271-.19.07-.3166-.051-.0319-.125-.0432-.207-.0317zm.096-1.427c-.065.0015-.118.0368-.126.0837-.009.0513.032.0777.122.0792.046 0 .092-.0129.137-.0385l.037-.0225c.07-.0465.065-.077-.014-.0917l-.041-.0057-.052-.0033z" fill="#fff" fill-opacity=".5"/></g></svg>