<svg fill="none" height="120" viewBox="0 0 200 120" width="200" xmlns="http://www.w3.org/2000/svg" xmlns:xlink="http://www.w3.org/1999/xlink"><clipPath id="a"><path d="m41 30h118v61h-118z"/></clipPath><g clip-path="url(#a)"><path d="m109.25 61.0325-5.144 9.9161h-.107l-.26-9.9161h-4.3026l-.1679.3568.369.2209c.356.2464.4555.4963.5015 1.1845l.583 12.0334h4.794l7.736-13.7956zm-15.3117 7.1414c-.4816 1.3566-.8598 2.2295-1.4188 2.8055-.4391.4528-1.0184.777-2.3524.777-1.0461 0-1.6291-.4202-1.6291-1.2153-.0074-.5126.1347-1.2914.6937-2.8073.4834-1.3548.8616-2.2277 1.4225-2.8037.4336-.4528 1.0147-.7788 2.3505-.7788 1.0461 0 1.6273.4202 1.6255 1.2117.011.5198-.131 1.2986-.6919 2.8109zm-.2233-7.3117h-.4464c-2.6476 0-4.1605.701-5.4022 1.9959-1.5442 1.6029-2.9944 5.937-2.9667 8.23.0295 2.3382 1.5701 3.9592 4.808 3.9592h.4742c2.6549 0 4.1678-.701 5.4095-1.9959 1.5424-1.6065 2.9631-5.9388 2.9354-8.23-.0314-2.3364-1.572-3.9592-4.8118-3.9592zm-12.9998 5.1782c-.2416.5886-.5073.7299-.856.8693-.2343.0906-.7306.1232-1.2085.1232h-1.8505l1.0073-2.8508h2.2362c.6697 0 .9428.3423.952.7317.0037.2481-.1126.7027-.2805 1.1266zm-.3321-5.0079h-6.0681l-.1218.3568.2454.2372c.2583.25.2491.547.0221 1.1845l-4.2398 12.0171h3.8745l1.6568-4.7706 1.3118.0018 1.4576 4.7688h3.8929l-1.8302-4.8811c1.0627-.1684 1.5959-.4673 2.1291-.9327.7306-.6557 1.2361-1.5757 1.6549-2.9305.6126-1.9651.2417-3.088-.1513-3.664-.5405-.7933-1.6789-1.3873-3.8339-1.3873zm40.6489 8.2625 1.074-2.8852h-4.939l.765-2.2023h5.351l1.175-3.1841h-10.101l-.14.4057.241.2337c.26.2481.249.5433.024 1.1845l-4.206 11.9754h9.439l1.14-3.2058h-5.509l.811-2.3219zm11.334-3.2546c-.242.5886-.511.7299-.855.8693-.239.0906-.728.1232-1.206.1232h-1.849l.998-2.8508h2.24c.666 0 .943.3423.948.7317.008.2481-.112.7027-.276 1.1266zm-.338-5.0079h-6.066l-.118.3568.243.2372c.26.25.247.547.024 1.1845l-4.243 12.0171h3.88l1.655-4.7688h1.31l1.459 4.7688h3.889l-1.826-4.8811c1.061-.1684 1.594-.4673 2.125-.9327.733-.6557 1.24-1.5757 1.659-2.9305.612-1.9651.242-3.088-.15-3.664-.54-.7933-1.68-1.3873-3.841-1.3873zm7.956 18.5137c-10.644 5.3991-24.841 8.373-39.983 8.373-15.1401 0-29.3354-2.9739-39.981-8.373-10.2378-5.1944-15.8798-11.9591-15.8798-19.0444 0-7.0907 5.642-13.8554 15.8798-19.0462 10.6456-5.3973 24.8409-8.3748 39.981-8.3748 15.142 0 29.339 2.9775 39.983 8.3748 10.239 5.1908 15.876 11.9555 15.876 19.0462 0 7.0853-5.637 13.85-15.876 19.0444zm1.441-40.8291c-11.085-5.6218-25.795-8.7171-41.424-8.7171s-30.3409 3.0953-41.4219 8.7171c-6.5645 3.3308-17.5791 10.5899-17.5791 21.7847 0 11.1894 11.0146 18.4503 17.5791 21.7811 11.0791 5.6218 25.7892 8.7171 41.4219 8.7171 15.631 0 30.341-3.0953 41.424-8.7171 6.564-3.3308 17.575-10.5899 17.575-21.7811 0-11.1966-11.011-18.4539-17.575-21.7847zm-2.932 37.9983c-11.452 5.8065-25.697 8.0144-38.492 8.0144-12.7969 0-27.0384-2.2079-38.4939-8.0144-6.0608-3.0772-14.1179-8.7462-14.1179-16.2136 0-7.4747 8.0552-13.1382 14.1179-16.2135 11.4555-5.8066 25.697-8.0144 38.4939-8.0144 12.795 0 27.04 2.2042 38.492 8.0144 6.066 3.0753 14.12 8.7388 14.12 16.2135 0 7.4711-8.056 13.1364-14.12 16.2136zm.594-33.5591c-11.627-5.9026-26.105-8.1611-39.086-8.1611-12.9833 0-27.4572 2.2603-39.0899 8.1611-6.5312 3.3108-14.8208 9.2876-14.8208 17.3455 0 8.0506 8.2896 14.0311 14.8208 17.3455 11.6327 5.8972 26.1103 8.1575 39.0899 8.1575 12.981 0 27.459-2.2567 39.086-8.1575 6.535-3.3144 14.825-9.2949 14.825-17.3455 0-8.0579-8.288-14.0347-14.825-17.3455zm-68.414 19.6547-10.6032 3.4231-1.2952 3.4883h9.3504l1.2177-3.2872h-6.4814l7.3578-2.4451zm42.191-15.2844h1.537c1.046 0 1.624.3442 1.637 1.1393.009.5125-.131 1.2152-.674 2.7276-.48 1.3529-.863 2.1371-1.408 2.7113-.437.4528-1.018.6538-2.352.6538h-1.284zm-3.369-1.4942-4.195 12.0171h6.19c2.653 0 4.168-.5778 5.396-1.8709 1.543-1.6011 2.952-5.7668 2.906-8.0597-.046-2.34-1.585-3.8632-4.823-3.8632h-5.623l-.118.355.243.2336c.259.2518.249.5488.024 1.1881zm23.358 3.1696h-9.351l-1.217 3.2836h6.479l-7.359 2.4523-.454 1.1755 10.603-3.4231zm-41.7911 8.8403h3.524l3.0737-8.9237 1.797 8.9237h3.5274l4.808-13.7921-3.686.0055-2.568 7.4964-1.467-7.4964h-4.9685l-.1218.355.2435.2336c.262.2518.2491.5488.0259 1.1881zm-25.2652.0072 9.5884-.0036 1.1586-3.2873h-5.5737l3.6826-10.5029h-4.808l-.12.355.2399.2336c.262.2518.2509.5488.0258 1.1881zm20.4-9.9813h.1255l.0664 4.1656h-2.5867zm-9.8172 9.9741h4.0793l1.7675-3.0482h4.2232l.0424 3.0482h3.7011l-.7989-13.7866h-5.5405l-.1236.355.1789.1756c.2915.2808.1716.6847-.9077 2.3654z" fill="#fff" fill-opacity=".5"/></g></svg>