<svg fill="none" height="120" viewBox="0 0 200 120" width="200" xmlns="http://www.w3.org/2000/svg" xmlns:xlink="http://www.w3.org/1999/xlink"><clipPath id="a"><path d="m28 38h144v45h-144z"/></clipPath><g clip-path="url(#a)" clip-rule="evenodd" fill="#fff" fill-opacity=".5" fill-rule="evenodd"><path d="m69.4408 38h-37.0387c-1.1553-.0032-2.2654.4482-3.0895 1.2565-.824.8082-1.2957 1.9082-1.3126 3.0613v36.3645c.0169 1.1531.4886 2.2531 1.3126 3.0613.8241.8083 1.9342 1.2597 3.0895 1.2564h37.0387c1.1567.0055 2.2688-.445 3.0946-1.2535s1.2986-1.9097 1.3155-3.0642v-11.9636c-6.4071.1465-14.0469 3.29-20.9486 6.584-3.644 1.7424-6.8374 3.7135-9.4879 5.3796-1.3655.8331-2.6566 1.4393-2.8155.6825-.2272-1.0619 1.2066-3.031 1.5948-3.6373 1.8099-2.4248 3.7183-4.8476 5.4639-7.3487 2.0492-2.8785-2.8154-1.5898-4.4021-1.2887-3.7184 1.1381-6.9822 2.8805-10.0269 4.6991-.8346.5299.3801-4.6168.8346-4.926 5.5403-4.1651 12.9026-7.8024 20.11-7.2725 1.5163.1526 2.8838.53 3.642 1.2887.2915.2963.473.683.5143 1.0962.0413.4133-.06.8282-.2871 1.1761-1.8964 2.9548-4.6253 5.3796-6.6785 8.2581-.2273.5299 0 .6022.7601.2268 7.2256-3.5268 13.9966-6.7526 21.7269-8.7278v-20.591c-.0169-1.1545-.4897-2.2557-1.3155-3.0642s-1.9379-1.259-3.0946-1.2536z"/><path d="m85.0273 54.831c.8185.0683 3.1332 0 3.1332 0l.1367-2.2442h-1.1583c-.2715 0-.4022.0683-.4766-.2007-.2011-.6022.2011-2.1057.2011-2.5814h-2.5842l-.2011 4.0146c.0256.2491.1322.4829.3037.6657.1714.1827.3982.3043.6455.346z"/><path d="m84.143 60.8173h2.9281l.3418-2.1759h-1.2971c-1.0216 0-.2011-2.3104-.0683-2.8544l-2.5882-.0682-.4766 3.5348c-.0664.544.4122 1.4312 1.1603 1.5637z"/><path d="m98.3867 53.0649h4.2233c1.361-.815 1.77-1.8347 1.77-3.1274h-2.866c.068.4015-.201.6805-.545 1.0197h-5.1081l-.2011 1.8367h-1.094l.3399-2.5834h-2.7229l-.4022 2.5152h-2.2543l-.2011 2.0394 1.838.0682-.1367 1.634-3.4751 5.7791-3.8812-.0683s-.6134 3.7396-.9532 3.8139h-1.7033l-.2715 2.1739c3.0648 0 4.3578.4015 5.0396-3.6693 1.4298 0 2.8596.4014 3.7445-1.1563.2735-.4757-.2715 2.7862-.8165 2.7862-.4766 0-1.8381.0682-1.8381.0682l-.4022 2.1077h3.4067s1.7697-.0682 2.1115-2.3786c.4002-2.3887 2.1759-11.0222 2.1759-11.0222h1.09l-1.9748 11.0121h-.6134l-.3398 2.176c-.0684.1344 3.2699 1.2224 3.8209-2.72.4786-3.1956 1.3634-7.7502 1.3634-7.7502l1.4982.0682-1.9064 10.6729h2.0894c.6818-.2007.9549-.5439 1.0219-1.2244l1.635-9.4485h.963l.545-2.1759h-5.3835z"/><path d="m106.96 55.2394h4.497l.273-2.0394h-2.795c-.816-.4015 0-2.1077.201-2.8544l-2.859-.0683c-.202 1.4272-.952 4.2816.683 4.9621z"/><path d="m107.915 59.1825c-.68-.4757-.069-1.9029.068-2.8544h-2.656l-.272 2.5834c-.137 1.1542.137 2.2422 1.227 2.2422l1.769.0683c-.201 1.2907-.339 4.3498-1.566 4.7593h-2.791l-.28 2.3104h4.36c.953-.4014 1.564-1.0879 1.77-2.0394l1.512-7.0698z"/><path d="m121.804 52.9276 4.563.0683c1.158-.1345 1.158-1.2225 1.361-2.2422l-13.272-.1365-.553 2.2361 4.496.0663-2.248 13.0475-5.856-.0682-.342 2.3104 13.554.0682c.954-.2007 1.362-.4014 1.43-2.2421h-5.584z"/><path d="m148.643 50.5487-18.457-.0682-.272 2.3726h5.856l-2.177 13.0476-7.015-.0683-.273 2.3104h19.342c1.089 0 .816-1.3589.884-2.2421h-9.671l2.317-12.9854h6.401l-.535 3.9524h3.133l.954-5.779c-.079-.3352-.282-.6082-.487-.54z"/><path d="m144.01 60.9506h-3.678l-.402 2.5152h5.916c1.975-.8853 1.77-3.8139 1.838-5.0986h-2.996c.004.815-.133 2.1739-.678 2.5834z"/><path d="m158.044 61.0882h-3.133l.68-3.3984 4.018-4.4181.136-1.9049h-2.246l-.068-1.359h-2.657l-.682 1.2927h-3.268l-.341 2.2422h5.789l-5.313 5.3716-1.564.0682-.411 2.3104h2.112l1.022-.6122-1.43 7.8868 2.588-.1365 1.09-5.0304h3.336z"/><path d="m160.899 63.4689 2.18-11.0141h5.447c.272.1365-.068 1.088-.068 1.4272l-1.635 9.0429h2.793l2.383-12.8468h-10.555c-.545.0683-.682.273-.885.6805l-2.317 12.6461z"/><path d="m167.095 64.1445-2.385-.0682c.437-.6339.738-1.3506.887-2.1057l1.429-7.8867-2.725-.0683-1.701 8.8322-3.338 3.4666-1.703.0683-.543 2.0394 2.519.0683c.954-.1365 1.633-.4015 2.11-.9515l2.588-2.9247-.34 2.8565c0 .5439.272.8149.885.9514h4.768l.201-2.1759h-2.039c-1.353.1425-.75-1.0137-.613-2.1017z"/></g></svg>