<svg fill="none" height="120" viewBox="0 0 200 120" width="200" xmlns="http://www.w3.org/2000/svg" xmlns:xlink="http://www.w3.org/1999/xlink"><clipPath id="a"><path d="m27 45h146v30h-146z"/></clipPath><g clip-path="url(#a)" fill="#fff" fill-opacity=".5"><path d="m87.7195 51.0013v18h-3.2435v-14.125h-.0432l-5.795 14.125h-2.1623l-5.9248-14.125h-.0433v14.125h-2.984v-18h4.6707l5.3625 13.3333h.0865l5.6653-13.3333zm2.6813 1.375c0-.5.173-.9167.5622-1.25s.8217-.5 1.3407-.5c.5622 0 1.0379.1667 1.3838.5.346.3333.5622.75.5622 1.25s-.1729.9167-.5622 1.25c-.3892.3333-.8216.5-1.3838.5-.5623 0-.9947-.1667-1.3407-.5-.346-.375-.5622-.7917-.5622-1.25zm3.503 3.7083v12.9167h-3.157v-12.9167zm9.5572 10.7084c.476 0 .995-.0834 1.557-.3334.562-.2083 1.081-.5 1.557-.8333v2.8333c-.519.2917-1.081.5-1.73.625s-1.341.2084-2.119.2084c-1.989 0-3.5894-.5834-4.8003-1.7917-1.2542-1.2083-1.8596-2.75-1.8596-4.5833 0-2.0834.6487-3.7917 1.9028-5.125 1.2542-1.3334 3.0271-2 5.3621-2 .606 0 1.211.0833 1.774.2083.605.125 1.081.3333 1.427.5v2.9167c-.476-.3334-.995-.625-1.471-.7917-.519-.1667-1.038-.2917-1.557-.2917-1.254 0-2.248.375-3.027 1.1667-.7782.7917-1.1242 1.8333-1.1242 3.1667 0 1.2916.3892 2.3333 1.1242 3.0416.735.7084 1.73 1.0834 2.984 1.0834zm12.066-10.9167c.259 0 .476 0 .692.0417.216.0416.389.0833.519.125v3.0833c-.173-.125-.389-.25-.735-.3333-.346-.0834-.692-.1667-1.168-.1667-.778 0-1.427.3333-1.946.9583s-.822 1.5834-.822 2.9167v6.5h-3.157v-12.9167h3.157v2.0417h.044c.302-.7083.735-1.25 1.297-1.6667.605-.375 1.297-.5833 2.119-.5833zm1.384 6.875c0-2.125.649-3.8333 1.859-5.0833 1.255-1.25 2.984-1.875 5.19-1.875 2.076 0 3.719.5833 4.887 1.7916 1.168 1.2084 1.773 2.8334 1.773 4.875 0 2.0834-.649 3.75-1.86 5-1.254 1.25-2.94 1.875-5.103 1.875-2.076 0-3.719-.5833-4.93-1.75-1.211-1.2083-1.816-2.8333-1.816-4.8333zm3.287-.125c0 1.3333.302 2.375.951 3.0833.649.7084 1.557 1.0834 2.725 1.0834 1.124 0 2.032-.3334 2.638-1.0834.605-.7083.908-1.75.908-3.1666 0-1.375-.303-2.4167-.908-3.1667-.606-.7083-1.514-1.0833-2.595-1.0833-1.168 0-2.033.375-2.681 1.125-.736.7916-1.038 1.8333-1.038 3.2083zm15.136-3.125c0 .4167.13.7917.432 1.0417.303.25.908.5416 1.903.9166 1.254.5 2.162 1.0417 2.638 1.625.519.625.779 1.3334.779 2.2084 0 1.2083-.476 2.1666-1.471 2.9166-.951.75-2.292 1.0834-3.935 1.0834-.562 0-1.168-.0834-1.86-.2084s-1.254-.2916-1.73-.5v-3c.563.375 1.211.7084 1.86.9167s1.254.3333 1.816.3333c.692 0 1.254-.0833 1.557-.2916.346-.2084.519-.5.519-.9584 0-.4166-.173-.75-.519-1.0833-.346-.2917-1.038-.625-1.989-1-1.168-.4583-1.989-1-2.465-1.5833-.476-.5834-.735-1.3334-.735-2.25 0-1.1667.475-2.125 1.427-2.875.951-.75 2.205-1.125 3.719-1.125.476 0 .995.0416 1.557.1666s1.081.25 1.47.375v2.9584c-.432-.25-.908-.5-1.47-.7084-.562-.2083-1.125-.2916-1.644-.2916-.605 0-1.081.125-1.383.3333-.303.2917-.476.5833-.476 1zm7.092 3.25c0-2.125.649-3.8333 1.86-5.0833 1.254-1.25 2.984-1.875 5.189-1.875 2.076 0 3.72.5833 4.887 1.7916 1.168 1.2084 1.773 2.8334 1.773 4.875 0 2.0834-.648 3.75-1.859 5-1.254 1.25-2.941 1.875-5.103 1.875-2.076 0-3.719-.5833-4.93-1.75-1.168-1.2083-1.817-2.8333-1.817-4.8333zm3.287-.125c0 1.3333.303 2.375.951 3.0833.649.7084 1.557 1.0834 2.725 1.0834 1.124 0 2.033-.3334 2.638-1.0834.605-.7083.908-1.75.908-3.1666 0-1.375-.303-2.4167-.908-3.1667-.605-.7083-1.514-1.0833-2.595-1.0833-1.167 0-2.032.375-2.681 1.125-.692.7916-1.038 1.8333-1.038 3.2083zm20.931-4.0417h-4.714v10.4167h-3.2v-10.4167h-2.249v-2.5h2.249v-1.7916c0-1.3334.476-2.4584 1.384-3.3334s2.076-1.2916 3.503-1.2916c.389 0 .735.0416 1.038.0416s.562.0834.778.1667v2.625c-.086-.0417-.302-.125-.562-.2083-.259-.0834-.562-.125-.908-.125-.649 0-1.168.2083-1.514.5833s-.519 1-.519 1.75v1.5417h4.714v-2.9167l3.157-.9167v3.8334h3.201v2.5h-3.201v6.0416c0 .7917.173 1.3334.433 1.6667.302.3333.778.5 1.427.5.173 0 .389-.0417.649-.125.259-.0833.475-.1667.648-.2917v2.5c-.216.125-.519.2084-.994.2917-.476.0833-.909.125-1.384.125-1.341 0-2.336-.3333-2.984-1-.649-.6667-.995-1.7083-.995-3.0833z"/><path d="m41.7903 45h-14.7903v14.25h14.7903z"/><path d="m58.134 45h-14.7902v14.25h14.7902z"/><path d="m41.7903 60.75h-14.7903v14.25h14.7903z"/><path d="m58.134 60.75h-14.7902v14.25h14.7902z"/></g></svg>