<svg width="64" height="17" viewBox="0 0 64 17" fill="none" xmlns="http://www.w3.org/2000/svg">
<g clip-path="url(#clip0_415_15032)">
<path fill-rule="evenodd" clip-rule="evenodd" d="M7.06046 5.53063e-09H15.5992C15.7052 -1.7514e-05 15.807 0.0415883 15.8827 0.115863C15.9583 0.190139 16.0018 0.291145 16.0037 0.397146V3.19923H4.1039L3.19928 4.10384V6.39846H16.0037V13.1058C16.0026 13.3181 15.9181 13.5215 15.7683 13.6721L13.6723 15.7682C13.5217 15.9179 13.3183 16.0024 13.106 16.0035H0.397167C0.291166 16.0016 0.190158 15.9581 0.115882 15.8825C0.0416059 15.8068 0 15.705 1.7158e-05 15.599V12.7969H12.7971L15.3638 10.2375V9.59769H1.7158e-05V7.06037C-0.0018968 6.64926 0.156382 6.25357 0.441295 5.95719L2.64768 3.75082L3.67733 2.72118L5.9352 0.470691C6.08226 0.321641 6.25746 0.203281 6.45062 0.122481C6.64379 0.04168 6.85108 4.77476e-05 7.06046 5.53063e-09ZM60.8023 5.53063e-09H63.6045C63.7033 0.00918969 63.7951 0.0550552 63.8618 0.128562C63.9285 0.202069 63.9653 0.297888 63.9648 0.397146V16.0035H58.0811C57.7566 15.9964 57.4419 15.8906 57.1791 15.7C56.9163 15.5095 56.7178 15.2433 56.6102 14.9371L51.5429 0.639846H51.2266V16.0035H48.4245C48.3185 16.0016 48.2175 15.9581 48.1432 15.8825C48.0689 15.8068 48.0273 15.705 48.0273 15.599V5.53063e-09H53.911C54.2416 0.00062836 54.564 0.103433 54.8339 0.294336C55.1038 0.48524 55.308 0.754907 55.4187 1.06641L60.4861 15.3637H60.8023V5.53063e-09ZM31.5293 10.0684C31.6786 9.91996 31.7971 9.74348 31.8778 9.5491C31.9586 9.35472 32.0002 9.14628 32 8.93578V4.10384L32.9047 3.19923H44.8045V0.397146C44.8025 0.291145 44.7591 0.190139 44.6834 0.115863C44.6078 0.0415883 44.506 -1.7514e-05 44.4 5.53063e-09H35.8612C35.6518 4.77476e-05 35.4445 0.04168 35.2514 0.122481C35.0582 0.203281 34.883 0.321641 34.736 0.470691L29.2715 5.93512C29.1224 6.08218 29.0041 6.25737 28.9233 6.45053C28.8425 6.6437 28.8008 6.85099 28.8008 7.06037V15.599C28.8008 15.705 28.8424 15.8068 28.9166 15.8825C28.9909 15.9581 29.0919 16.0016 29.1979 16.0035H41.9214C42.1338 16.0024 42.3372 15.9179 42.4878 15.7682L44.5838 13.6721C44.7336 13.5215 44.8181 13.3181 44.8192 13.1058V9.59769V6.39846H38.3986V9.59769H44.1646V10.2375L41.5978 12.7969H29.4186V12.1571L31.5293 10.0684ZM25.6017 0.397146V3.19923L23.9983 3.236V12.7969H25.6017V15.599C25.6017 15.705 25.5601 15.8068 25.4858 15.8825C25.4115 15.9581 25.3105 16.0016 25.2045 16.0035H19.6003C19.4943 16.0016 19.3933 15.9581 19.319 15.8825C19.2447 15.8068 19.2031 15.705 19.2031 15.599V12.7969H20.7991V7.06037C20.7991 6.85099 20.8408 6.6437 20.9216 6.45053C21.0024 6.25737 21.1207 6.08218 21.2698 5.93512L23.3585 3.83908V3.19923H19.2031V0.397146C19.2031 0.291816 19.245 0.190801 19.3194 0.116321C19.3939 0.041842 19.4949 5.53063e-09 19.6003 5.53063e-09H25.2045C25.3098 5.53063e-09 25.4109 0.041842 25.4853 0.116321C25.5598 0.190801 25.6017 0.291816 25.6017 0.397146Z" fill="#FF4B00"/>
</g>
<defs>
<clipPath id="clip0_415_15032">
<rect width="64" height="16.0035" fill="white"/>
</clipPath>
</defs>
</svg>
