<svg width="343" height="21" viewBox="0 0 343 21" fill="none" xmlns="http://www.w3.org/2000/svg">
<g clip-path="url(#clip0_415_14992)">
<g clip-path="url(#clip1_415_14992)">
<path fill-rule="evenodd" clip-rule="evenodd" d="M131.908 7.30706H123.173V0.00115204H120.807V7.30706H111.117L112.482 9.64495H120.807V19.5585H123.173V9.64495H131.908V7.30706ZM164.889 3.01166V0.876091H145.1V3.01166H148.944V11.1044L144.008 19.5567H146.51L151.105 11.6888V9.55326H160.84V17.5111H154.995L156.246 19.6466H163.024V7.39521H151.105V3.01166H164.889ZM197.898 19.5585H195.623L191.87 13.1293L190.323 14.006V19.5585H185.341L184.204 17.6028H188.458V14.6804L178.085 20.5476V18.5244L188.458 12.7247V11.241L178.085 17.0183V14.9951L187.457 9.57751V9.42015H185.182L178.017 13.489V11.5108L181.634 9.46511H179.063V7.01482L178.79 7.50937H176.516L180.883 0.00115204H183.158L182.589 0.96778H195.919L193.849 4.18238H196.942V9.46511H189.732L190.346 10.4992V11.9828L194.395 9.73487L195.282 11.241L193.576 12.1627L197.898 19.5585ZM188.981 7.50937H194.941V6.13811H188.981V7.50937ZM192.325 3.01343H181.452L180.724 4.2723H191.506L192.325 3.01343ZM187.002 6.22803H181.042V7.59929H187.002V6.22803ZM221.006 16.9059V9.46511H230.878V0.00115204H219.027V20.2329L225.533 16.5687L224.555 14.8827L221.006 16.9059ZM221.006 1.95689H228.899V3.75526H222.075V5.711H228.899V7.50937H221.006V1.95689ZM231.859 12.1184L228.629 13.9842L231.882 19.5592H229.607L224.262 10.4324H226.559L227.628 12.2757L230.881 10.4324L231.859 12.1184ZM212.681 0.00115204H212.066V19.5585H214.045V15.6695V8.476H216.115L218.049 2.4964V0.00115204H214.045H212.681ZM214.045 8.476V1.95689H216.07L214.045 8.476ZM217.55 9.46334V17.601H215.184L214.047 15.6677H215.571V9.46334H217.55Z" fill="white"/>
</g>
<g clip-path="url(#clip2_415_14992)" filter="url(#filter0_b_415_14992)">
<rect x="248.656" y="0.83886" width="5.03179" height="19.2885" fill="white"/>
<rect opacity="0.84075" x="262.926" y="0.84005" width="4.0993" height="18.4" fill="white"/>
<rect opacity="0.695168" x="275.969" y="0.84005" width="3.45874" height="18.4" fill="white"/>
<rect opacity="0.563255" x="287.789" y="0.84005" width="2.87832" height="18.4" fill="white"/>
<rect opacity="0.44501" x="298.383" y="0.84005" width="2.35804" height="18.4" fill="white"/>
<rect opacity="0.340432" x="307.754" y="0.84005" width="1.8979" height="18.4" fill="white"/>
<rect opacity="0.249523" x="315.898" y="0.84005" width="1.4979" height="18.4" fill="white"/>
<rect opacity="0.172282" x="322.82" y="0.84005" width="1.15804" height="18.4" fill="white"/>
<rect opacity="0.108709" x="328.516" y="0.84005" width="0.878322" height="18.4" fill="white"/>
<rect opacity="0.0588048" x="332.988" y="0.84005" width="0.658741" height="18.4" fill="white"/>
<rect opacity="0.0225683" x="336.234" y="0.84005" width="0.499301" height="18.4" fill="white"/>
</g>
<g clip-path="url(#clip3_415_14992)" filter="url(#filter1_b_415_14992)">
<rect width="5.03179" height="19.2885" transform="matrix(-1 0 0 1 94.3438 0.83886)" fill="white"/>
<rect opacity="0.84075" width="4.0993" height="18.4" transform="matrix(-1 0 0 1 80.0742 0.84005)" fill="white"/>
<rect opacity="0.695168" width="3.45874" height="18.4" transform="matrix(-1 0 0 1 67.0312 0.84005)" fill="white"/>
<rect opacity="0.563255" width="2.87832" height="18.4" transform="matrix(-1 0 0 1 55.2109 0.84005)" fill="white"/>
<rect opacity="0.44501" width="2.35804" height="18.4" transform="matrix(-1 0 0 1 44.6172 0.84005)" fill="white"/>
<rect opacity="0.340432" width="1.8979" height="18.4" transform="matrix(-1 0 0 1 35.2461 0.84005)" fill="white"/>
<rect opacity="0.249523" width="1.4979" height="18.4" transform="matrix(-1 0 0 1 27.1016 0.84005)" fill="white"/>
<rect opacity="0.172282" width="1.15804" height="18.4" transform="matrix(-1 0 0 1 20.1797 0.84005)" fill="white"/>
<rect opacity="0.108709" width="0.878322" height="18.4" transform="matrix(-1 0 0 1 14.4844 0.84005)" fill="white"/>
<rect opacity="0.0588048" width="0.658741" height="18.4" transform="matrix(-1 0 0 1 10.0117 0.84005)" fill="white"/>
<rect opacity="0.0225683" width="0.499301" height="18.4" transform="matrix(-1 0 0 1 6.76562 0.84005)" fill="white"/>
</g>
</g>
<defs>
<filter id="filter0_b_415_14992" x="244.463" y="-3.35388" width="102.734" height="27.6748" filterUnits="userSpaceOnUse" color-interpolation-filters="sRGB">
<feFlood flood-opacity="0" result="BackgroundImageFix"/>
<feGaussianBlur in="BackgroundImageFix" stdDeviation="2.09658"/>
<feComposite in2="SourceAlpha" operator="in" result="effect1_backgroundBlur_415_14992"/>
<feBlend mode="normal" in="SourceGraphic" in2="effect1_backgroundBlur_415_14992" result="shape"/>
</filter>
<filter id="filter1_b_415_14992" x="-4.19706" y="-3.35388" width="102.734" height="27.6748" filterUnits="userSpaceOnUse" color-interpolation-filters="sRGB">
<feFlood flood-opacity="0" result="BackgroundImageFix"/>
<feGaussianBlur in="BackgroundImageFix" stdDeviation="2.09658"/>
<feComposite in2="SourceAlpha" operator="in" result="effect1_backgroundBlur_415_14992"/>
<feBlend mode="normal" in="SourceGraphic" in2="effect1_backgroundBlur_415_14992" result="shape"/>
</filter>
<clipPath id="clip0_415_14992">
<rect width="343" height="21" fill="white"/>
</clipPath>
<clipPath id="clip1_415_14992">
<rect width="120.763" height="20.5465" fill="white" transform="translate(111.117 0.00237274)"/>
</clipPath>
<clipPath id="clip2_415_14992">
<rect width="94.346" height="19.2885" fill="white" transform="translate(248.656 0.839272)"/>
</clipPath>
<clipPath id="clip3_415_14992">
<rect width="94.346" height="19.2885" fill="white" transform="matrix(-1 0 0 1 94.3438 0.839272)"/>
</clipPath>
</defs>
</svg>
