<svg fill="none" height="21" viewBox="0 0 343 21" width="343" xmlns="http://www.w3.org/2000/svg" xmlns:xlink="http://www.w3.org/1999/xlink"><filter id="a" color-interpolation-filters="sRGB" filterUnits="userSpaceOnUse" height="27.6748" width="102.734" x="244.463" y="-3.35388"><feFlood flood-opacity="0" result="BackgroundImageFix"/><feGaussianBlur in="BackgroundImageFix" stdDeviation="2.09658"/><feComposite in2="SourceAlpha" operator="in" result="effect1_backgroundBlur_415_14992"/><feBlend in="SourceGraphic" in2="effect1_backgroundBlur_415_14992" mode="normal" result="shape"/></filter><filter id="b" color-interpolation-filters="sRGB" filterUnits="userSpaceOnUse" height="27.6748" width="102.734" x="-4.19706" y="-3.35388"><feFlood flood-opacity="0" result="BackgroundImageFix"/><feGaussianBlur in="BackgroundImageFix" stdDeviation="2.09658"/><feComposite in2="SourceAlpha" operator="in" result="effect1_backgroundBlur_415_14992"/><feBlend in="SourceGraphic" in2="effect1_backgroundBlur_415_14992" mode="normal" result="shape"/></filter><clipPath id="c"><path d="m0 0h343v21h-343z"/></clipPath><clipPath id="d"><path d="m111.117.002373h120.763v20.5465h-120.763z"/></clipPath><clipPath id="e"><path d="m248.656.839272h94.346v19.2885h-94.346z"/></clipPath><clipPath id="f"><path d="m0 0h94.346v19.2885h-94.346z" transform="matrix(-1 0 0 1 94.3438 .839272)"/></clipPath><g clip-path="url(#c)"><g clip-path="url(#d)"><path clip-rule="evenodd" d="m131.908 7.30706h-8.735v-7.30590796h-2.366v7.30590796h-9.69l1.365 2.33789h8.325v9.91355h2.366v-9.91355h8.735zm32.981-4.2954v-2.135569h-19.789v2.135569h3.844v8.09274l-4.936 8.4523h2.502l4.595-7.8679v-2.13554h9.735v7.95784h-5.845l1.251 2.1355h6.778v-12.25139h-11.919v-4.38355zm33.009 16.54684h-2.275l-3.753-6.4292-1.547.8767v5.5525h-4.982l-1.137-1.9557h4.254v-2.9224l-10.373 5.8672v-2.0232l10.373-5.7997v-1.4837l-10.373 5.7773v-2.0232l9.372-5.41759v-.15736h-2.275l-7.165 4.06885v-1.9782l3.617-2.04569h-2.571v-2.45029l-.273.49455h-2.274l4.367-7.50821796h2.275l-.569.96662796h13.33l-2.07 3.2146h3.093v5.28273h-7.21l.614 1.03409v1.4836l4.049-2.24793.887 1.50613-1.706.9217zm-8.917-12.04913h5.96v-1.37126h-5.96zm3.344-4.49594h-10.873l-.728 1.25887h10.782zm-5.323 3.2146h-5.96v1.37126h5.96zm34.004 10.67787v-7.44079h9.872v-9.46395796h-11.851v20.23174796l6.506-3.6642-.978-1.686zm0-14.94901h7.893v1.79837h-6.824v1.95574h6.824v1.79837h-7.893zm10.853 10.16151-3.23 1.8658 3.253 5.575h-2.275l-5.345-9.1268h2.297l1.069 1.8433 3.253-1.8433zm-19.178-12.11724796h-.615v19.55734796h1.979v-3.889-7.1935h2.07l1.934-5.9796v-2.49524796h-4.004zm1.364 8.47484796v-6.51911h2.025zm3.505.98734v8.13766h-2.366l-1.137-1.9333h1.524v-6.20436z" fill="#fff" fill-rule="evenodd"/></g><g fill="#fff"><g clip-path="url(#e)" filter="url(#a)"><path d="m248.656.83886h5.03179v19.2885h-5.03179z"/><path d="m262.926.84005h4.0993v18.4h-4.0993z" opacity=".84075"/><path d="m275.969.84005h3.45874v18.4h-3.45874z" opacity=".695168"/><path d="m287.789.84005h2.87832v18.4h-2.87832z" opacity=".563255"/><path d="m298.383.84005h2.35804v18.4h-2.35804z" opacity=".44501"/><path d="m307.754.84005h1.8979v18.4h-1.8979z" opacity=".340432"/><path d="m315.898.84005h1.4979v18.4h-1.4979z" opacity=".249523"/><path d="m322.82.84005h1.15804v18.4h-1.15804z" opacity=".172282"/><path d="m328.516.84005h.878322v18.4h-.878322z" opacity=".108709"/><path d="m332.988.84005h.658741v18.4h-.658741z" opacity=".058805"/><path d="m336.234.84005h.499301v18.4h-.499301z" opacity=".022568"/></g><g clip-path="url(#f)" filter="url(#b)"><path d="m0 0h5.03179v19.2885h-5.03179z" transform="matrix(-1 0 0 1 94.3438 .83886)"/><path d="m0 0h4.0993v18.4h-4.0993z" opacity=".84075" transform="matrix(-1 0 0 1 80.0742 .84005)"/><path d="m0 0h3.45874v18.4h-3.45874z" opacity=".695168" transform="matrix(-1 0 0 1 67.0312 .84005)"/><path d="m0 0h2.87832v18.4h-2.87832z" opacity=".563255" transform="matrix(-1 0 0 1 55.2109 .84005)"/><path d="m0 0h2.35804v18.4h-2.35804z" opacity=".44501" transform="matrix(-1 0 0 1 44.6172 .84005)"/><path d="m0 0h1.8979v18.4h-1.8979z" opacity=".340432" transform="matrix(-1 0 0 1 35.2461 .84005)"/><path d="m0 0h1.4979v18.4h-1.4979z" opacity=".249523" transform="matrix(-1 0 0 1 27.1016 .84005)"/><path d="m0 0h1.15804v18.4h-1.15804z" opacity=".172282" transform="matrix(-1 0 0 1 20.1797 .84005)"/><path d="m0 0h.878322v18.4h-.878322z" opacity=".108709" transform="matrix(-1 0 0 1 14.4844 .84005)"/><path d="m0 0h.658741v18.4h-.658741z" opacity=".058805" transform="matrix(-1 0 0 1 10.0117 .84005)"/><path d="m0 0h.499301v18.4h-.499301z" opacity=".022568" transform="matrix(-1 0 0 1 6.76562 .84005)"/></g></g></g></svg>