<svg fill="none" height="2590" viewBox="0 0 375 2590" width="375" xmlns="http://www.w3.org/2000/svg" xmlns:xlink="http://www.w3.org/1999/xlink"><filter id="a" color-interpolation-filters="sRGB" filterUnits="userSpaceOnUse" height="389.362" width="347.188" x="-148.227" y="395.072"><feFlood flood-opacity="0" result="BackgroundImageFix"/><feBlend in="SourceGraphic" in2="BackgroundImageFix" mode="normal" result="shape"/><feGaussianBlur result="effect1_foregroundBlur_817_22277" stdDeviation="40"/></filter><filter id="b" color-interpolation-filters="sRGB" filterUnits="userSpaceOnUse" height="374.075" width="312.82" x="201.75" y="261.906"><feFlood flood-opacity="0" result="BackgroundImageFix"/><feBlend in="SourceGraphic" in2="BackgroundImageFix" mode="normal" result="shape"/><feGaussianBlur result="effect1_foregroundBlur_817_22277" stdDeviation="40"/></filter><filter id="c" color-interpolation-filters="sRGB" filterUnits="userSpaceOnUse" height="569.432" width="505.855" x="148.207" y="748.709"><feFlood flood-opacity="0" result="BackgroundImageFix"/><feBlend in="SourceGraphic" in2="BackgroundImageFix" mode="normal" result="shape"/><feGaussianBlur result="effect1_foregroundBlur_817_22277" stdDeviation="70"/></filter><filter id="d" color-interpolation-filters="sRGB" filterUnits="userSpaceOnUse" height="389.362" width="347.188" x="-178.227" y="1531.07"><feFlood flood-opacity="0" result="BackgroundImageFix"/><feBlend in="SourceGraphic" in2="BackgroundImageFix" mode="normal" result="shape"/><feGaussianBlur result="effect1_foregroundBlur_817_22277" stdDeviation="40"/></filter><filter id="e" color-interpolation-filters="sRGB" filterUnits="userSpaceOnUse" height="569.432" width="505.855" x="148.207" y="2121.71"><feFlood flood-opacity="0" result="BackgroundImageFix"/><feBlend in="SourceGraphic" in2="BackgroundImageFix" mode="normal" result="shape"/><feGaussianBlur result="effect1_foregroundBlur_817_22277" stdDeviation="70"/></filter><linearGradient id="f" gradientUnits="userSpaceOnUse" x1="187.5" x2="187.5" y1="0" y2="2590"><stop offset="0" stop-color="#1a1a1a" stop-opacity="0"/><stop offset=".0917039" stop-color="#1a1a1a"/></linearGradient><linearGradient id="g"><stop offset="0" stop-color="#00f"/><stop offset=".538954" stop-color="#a70085"/><stop offset="1" stop-color="#ff4b00"/></linearGradient><linearGradient id="h" gradientUnits="userSpaceOnUse" x1="-8.12749" x2="97.1865" xlink:href="#g" y1="672.135" y2="503.818"/><linearGradient id="i" gradientUnits="userSpaceOnUse" x1="-38.1275" x2="67.1865" xlink:href="#g" y1="1808.13" y2="1639.82"/><clipPath id="j"><path d="m0 0h375v2590h-375z"/></clipPath><g clip-path="url(#j)"><path d="m0 0h375v2590h-375z" fill="url(#f)"/><g filter="url(#a)" opacity=".1"><path d="m-54.4565 658.658c-18.1417-24.26-23.5624-57.394 16.6007-112.976 22.7556-86.051 127.6847-93.853 151.9108-21.192 24.226 72.661-47.8728 157.017-71.8697 174.962-23.997 17.945-78.5001-16.535-96.6418-40.794z" fill="url(#h)"/></g><g filter="url(#b)" opacity=".05"><path d="m402.229 356.178c24.441 14.111 41.248 40.491 27.267 102.829 12.112 82.035-74.868 127.242-122.289 73.922-47.422-53.32-16.662-152.021-2.704-176.197s73.285-14.665 97.726-.554z" fill="#ff4b00"/></g><g filter="url(#c)" opacity=".3"><path d="m491.366 927.841c25.708 25.707 36.738 65.223-6.033 142.719-17.173 111.01-146.696 144.48-186.236 60.63-39.539-83.85 39.237-203.998 66.767-231.529 27.53-27.53 99.795 2.472 125.502 28.18z" fill="#ff4b00"/></g><g filter="url(#d)" opacity=".1"><path d="m-84.4565 1794.66c-18.1415-24.26-23.5625-57.4 16.6007-112.98 22.7556-86.05 127.6847-93.85 151.9106-21.19 24.2262 72.66-47.8726 157.02-71.8695 174.96-23.997 17.95-78.5001-16.53-96.6418-40.79z" fill="url(#i)"/></g><g filter="url(#e)" opacity=".3"><path d="m491.366 2300.84c25.708 25.71 36.738 65.22-6.033 142.72-17.173 111.01-146.696 144.48-186.236 60.63-39.539-83.85 39.237-204 66.767-231.53s99.795 2.47 125.502 28.18z" fill="#ff4b00"/></g></g></svg>