<svg width="375" height="2590" viewBox="0 0 375 2590" fill="none" xmlns="http://www.w3.org/2000/svg">
<g clip-path="url(#clip0_817_22277)">
<rect width="375" height="2590" fill="url(#paint0_linear_817_22277)"/>
<g opacity="0.1" filter="url(#filter0_f_817_22277)">
<path d="M-54.4565 658.658C-72.5982 634.398 -78.0189 601.264 -37.8558 545.682C-15.1002 459.631 89.8289 451.829 114.055 524.49C138.281 597.151 66.1822 681.507 42.1853 699.452C18.1883 717.397 -36.3148 682.917 -54.4565 658.658Z" fill="url(#paint1_linear_817_22277)"/>
</g>
<g opacity="0.05" filter="url(#filter1_f_817_22277)">
<path d="M402.229 356.178C426.67 370.289 443.477 396.669 429.496 459.007C441.608 541.042 354.628 586.249 307.207 532.929C259.785 479.609 290.545 380.908 304.503 356.732C318.461 332.556 377.788 342.067 402.229 356.178Z" fill="url(#paint2_linear_817_22277)"/>
</g>
<g opacity="0.3" filter="url(#filter2_f_817_22277)">
<path d="M491.366 927.841C517.074 953.548 528.104 993.064 485.333 1070.56C468.16 1181.57 338.637 1215.04 299.097 1131.19C259.558 1047.34 338.334 927.192 365.864 899.661C393.394 872.131 465.659 902.133 491.366 927.841Z" fill="#FF4B00"/>
</g>
<g opacity="0.1" filter="url(#filter3_f_817_22277)">
<path d="M-84.4565 1794.66C-102.598 1770.4 -108.019 1737.26 -67.8558 1681.68C-45.1002 1595.63 59.8289 1587.83 84.0548 1660.49C108.281 1733.15 36.1822 1817.51 12.1853 1835.45C-11.8117 1853.4 -66.3148 1818.92 -84.4565 1794.66Z" fill="url(#paint3_linear_817_22277)"/>
</g>
<g opacity="0.3" filter="url(#filter4_f_817_22277)">
<path d="M491.366 2300.84C517.074 2326.55 528.104 2366.06 485.333 2443.56C468.16 2554.57 338.637 2588.04 299.097 2504.19C259.558 2420.34 338.334 2300.19 365.864 2272.66C393.394 2245.13 465.659 2275.13 491.366 2300.84Z" fill="#FF4B00"/>
</g>
</g>
<defs>
<filter id="filter0_f_817_22277" x="-148.227" y="395.072" width="347.188" height="389.362" filterUnits="userSpaceOnUse" color-interpolation-filters="sRGB">
<feFlood flood-opacity="0" result="BackgroundImageFix"/>
<feBlend mode="normal" in="SourceGraphic" in2="BackgroundImageFix" result="shape"/>
<feGaussianBlur stdDeviation="40" result="effect1_foregroundBlur_817_22277"/>
</filter>
<filter id="filter1_f_817_22277" x="201.75" y="261.906" width="312.82" height="374.075" filterUnits="userSpaceOnUse" color-interpolation-filters="sRGB">
<feFlood flood-opacity="0" result="BackgroundImageFix"/>
<feBlend mode="normal" in="SourceGraphic" in2="BackgroundImageFix" result="shape"/>
<feGaussianBlur stdDeviation="40" result="effect1_foregroundBlur_817_22277"/>
</filter>
<filter id="filter2_f_817_22277" x="148.207" y="748.709" width="505.855" height="569.432" filterUnits="userSpaceOnUse" color-interpolation-filters="sRGB">
<feFlood flood-opacity="0" result="BackgroundImageFix"/>
<feBlend mode="normal" in="SourceGraphic" in2="BackgroundImageFix" result="shape"/>
<feGaussianBlur stdDeviation="70" result="effect1_foregroundBlur_817_22277"/>
</filter>
<filter id="filter3_f_817_22277" x="-178.227" y="1531.07" width="347.188" height="389.362" filterUnits="userSpaceOnUse" color-interpolation-filters="sRGB">
<feFlood flood-opacity="0" result="BackgroundImageFix"/>
<feBlend mode="normal" in="SourceGraphic" in2="BackgroundImageFix" result="shape"/>
<feGaussianBlur stdDeviation="40" result="effect1_foregroundBlur_817_22277"/>
</filter>
<filter id="filter4_f_817_22277" x="148.207" y="2121.71" width="505.855" height="569.432" filterUnits="userSpaceOnUse" color-interpolation-filters="sRGB">
<feFlood flood-opacity="0" result="BackgroundImageFix"/>
<feBlend mode="normal" in="SourceGraphic" in2="BackgroundImageFix" result="shape"/>
<feGaussianBlur stdDeviation="70" result="effect1_foregroundBlur_817_22277"/>
</filter>
<linearGradient id="paint0_linear_817_22277" x1="187.5" y1="0" x2="187.5" y2="2590" gradientUnits="userSpaceOnUse">
<stop stop-color="#1A1A1A" stop-opacity="0"/>
<stop offset="0.0917039" stop-color="#1A1A1A"/>
</linearGradient>
<linearGradient id="paint1_linear_817_22277" x1="-8.12749" y1="672.135" x2="97.1865" y2="503.818" gradientUnits="userSpaceOnUse">
<stop stop-color="#0000FF"/>
<stop offset="0.538954" stop-color="#A70085"/>
<stop offset="1" stop-color="#FF4B00"/>
</linearGradient>
<linearGradient id="paint2_linear_817_22277" x1="357.613" y1="361.649" x2="329.24" y2="544.435" gradientUnits="userSpaceOnUse">
<stop offset="1" stop-color="#FF4B00"/>
</linearGradient>
<linearGradient id="paint3_linear_817_22277" x1="-38.1275" y1="1808.13" x2="67.1865" y2="1639.82" gradientUnits="userSpaceOnUse">
<stop stop-color="#0000FF"/>
<stop offset="0.538954" stop-color="#A70085"/>
<stop offset="1" stop-color="#FF4B00"/>
</linearGradient>
<clipPath id="clip0_817_22277">
<rect width="375" height="2590" fill="white"/>
</clipPath>
</defs>
</svg>
