<svg fill="none" height="17" viewBox="0 0 64 17" width="64" xmlns="http://www.w3.org/2000/svg" xmlns:xlink="http://www.w3.org/1999/xlink"><clipPath id="a"><path d="m0 0h64v16.0035h-64z"/></clipPath><g clip-path="url(#a)"><path clip-rule="evenodd" d="m7.06046.00000001h8.53874c.106-.00001752.2078.04158829.2835.11586299.0756.074276.1191.175282.121.281283v2.802084h-11.8998l-.90462.90461v2.29462h12.80442v6.70734c-.0011.2123-.0856.4157-.2354.5663l-2.096 2.0961c-.1506.1497-.354.2342-.5663.2353h-12.708833c-.106001-.0019-.207009-.0454-.281285-.121-.0742761-.0757-.115882-.1775-.11586484-.2835v-2.8021h12.79708284l2.5667-2.5594v-.63981h-15.36378284v-2.53732c-.00191396-.41111.15636484-.8068.44127784-1.10318l2.206385-2.20637 1.02965-1.02964 2.25787-2.250489c.14706-.14905.32226-.26741.51542-.34821.19317-.080801.40046-.12243325.60984-.12248099zm53.74184 0h2.8022c.0988.00918968.1906.05505519.2573.12856199.0667.073507.1035.169326.103.268584v15.606354h-5.8837c-.3245-.0071-.6392-.1129-.902-.3035-.2628-.1905-.4613-.4567-.5689-.7629l-5.0673-14.297254h-.3163v15.363654h-2.8021c-.106-.0019-.207-.0454-.2813-.121-.0743-.0757-.1159-.1775-.1159-.2835v-15.59899999h5.8837c.3306.00062835.653.10343299.9229.29433599.2699.190904.4741.460571.5848.772074l5.0674 14.29729h.3162zm-29.273 10.06839999c.1493-.14844.2678-.32492.3485-.5193.0808-.19438.1224-.40282.1222-.61332v-4.83194l.9047-.90461h11.8998v-2.802084c-.002-.106001-.0454-.207007-.1211-.281283-.0756-.0742747-.1774-.11588051-.2834-.11586299h-8.5388c-.2094.00004774-.4167.04167999-.6098.12248099-.1932.0808-.3684.19916-.5154.34821l-5.4645 5.464429c-.1491.14706-.2674.32225-.3482.51541-.0808.19317-.1225.40046-.1225.60984v8.53863c0 .106.0416.2078.1158.2835.0743.0756.1753.1191.2813.121h12.7235c.2124-.0011.4158-.0856.5664-.2353l2.096-2.0961c.1498-.1506.2343-.354.2354-.5663v-3.50811-3.19923h-6.4206v3.19923h5.766v.63981l-2.5668 2.5594h-12.1792v-.6398zm-5.9276-9.671254v2.802084l-1.6034.03677v9.5609h1.6034v2.8021c0 .106-.0416.2078-.1159.2835-.0743.0756-.1753.1191-.2813.121h-5.6042c-.106-.0019-.207-.0454-.2813-.121-.0743-.0757-.1159-.1775-.1159-.2835v-2.8021h1.596v-5.73653c0-.20938.0417-.41667.1225-.60984.0808-.19316.1991-.36835.3482-.51541l2.0887-2.09604v-.63985h-4.1554v-2.802084c0-.10533.0419-.206345.1163-.280825.0745-.074479.1755-.11632099.2809-.11632099h5.6042c.1053 0 .2064.04184199.2808.11632099.0745.07448.1164.175495.1164.280825z" fill="#ff4b00" fill-rule="evenodd"/></g></svg>